<svg width="24" height="24" viewBox="0 0 24 24" fill="none" xmlns="http://www.w3.org/2000/svg">
<path fill-rule="evenodd" clip-rule="evenodd" d="M12.2748 1.00018C7.9123 1.00018 4.37582 4.53666 4.37582 8.89912V9.10471C2.99125 9.59742 2 10.9196 2 12.4732V13.3669C2 15.341 3.60034 16.9413 5.57447 16.9413C6.56153 16.9413 7.3617 16.1412 7.3617 15.1541V10.686C7.3617 9.80165 6.71938 9.06732 5.87582 8.92407V8.89912C5.87582 5.36508 8.74072 2.50018 12.2748 2.50018C15.8088 2.50018 18.6737 5.36509 18.6737 8.89912V9.06413C18.0623 9.34804 17.6383 9.96751 17.6383 10.686V15.1541C17.6383 15.8724 18.062 16.4917 18.6732 16.7757C18.6422 18.4182 17.2877 19.7329 15.6379 19.7072L14.8659 19.6952C14.6116 18.8763 13.848 18.2816 12.9454 18.2816H11.605C10.4946 18.2816 9.59437 19.1818 9.59437 20.2923C9.59437 21.4027 10.4946 22.3029 11.605 22.3029H12.9454C13.7319 22.3029 14.4128 21.8514 14.7433 21.1935L15.6146 21.207C18.0724 21.2452 20.094 19.3025 20.1714 16.8634C21.7875 16.5203 23 15.0852 23 13.3669V12.4732C23 10.7557 21.7886 9.32112 20.1737 8.9772V8.89912C20.1737 4.53666 16.6372 1.00018 12.2748 1.00018ZM5.8617 10.686V15.1541C5.8617 15.3127 5.7331 15.4413 5.57447 15.4413C4.42877 15.4413 3.5 14.5126 3.5 13.3669V12.4732C3.5 11.3275 4.42877 10.3988 5.57447 10.3988C5.7331 10.3988 5.8617 10.5274 5.8617 10.686ZM19.1383 15.1541V10.686C19.1383 10.5274 19.2669 10.3988 19.4255 10.3988C20.5712 10.3988 21.5 11.3275 21.5 12.4732V13.3669C21.5 14.5126 20.5712 15.4413 19.4255 15.4413C19.2669 15.4413 19.1383 15.3127 19.1383 15.1541ZM11.605 19.7816H12.9454C13.2274 19.7816 13.4561 20.0103 13.4561 20.2923C13.4561 20.5743 13.2274 20.8029 12.9454 20.8029H11.605C11.323 20.8029 11.0944 20.5743 11.0944 20.2923C11.0944 20.0103 11.323 19.7816 11.605 19.7816Z" fill="white"/>
</svg>
