<svg width="24" height="24" viewBox="0 0 24 24" fill="none" xmlns="http://www.w3.org/2000/svg">
<path fill-rule="evenodd" clip-rule="evenodd" d="M12.2748 1.00021C7.9123 1.00021 4.37582 4.53668 4.37582 8.89914V9.10473C2.99125 9.59744 2 10.9196 2 12.4733V13.3669C2 15.341 3.60034 16.9414 5.57447 16.9414C6.56153 16.9414 7.3617 16.1412 7.3617 15.1541V10.686C7.3617 9.80167 6.71938 9.06734 5.87582 8.9241V8.89914C5.87582 5.36511 8.74072 2.50021 12.2748 2.50021C15.8088 2.50021 18.6737 5.36511 18.6737 8.89914V9.06416C18.0623 9.34806 17.6383 9.96754 17.6383 10.686V15.1541C17.6383 15.8724 18.062 16.4917 18.6732 16.7757C18.6422 18.4182 17.2877 19.7329 15.6379 19.7072L14.8659 19.6952C14.6116 18.8763 13.848 18.2817 12.9454 18.2817H11.605C10.4946 18.2817 9.59437 19.1819 9.59437 20.2923C9.59437 21.4027 10.4946 22.3029 11.605 22.3029H12.9454C13.7319 22.3029 14.4128 21.8514 14.7433 21.1935L15.6146 21.2071C18.0724 21.2453 20.094 19.3025 20.1714 16.8634C21.7875 16.5204 23 15.0852 23 13.3669V12.4733C23 10.7557 21.7886 9.32115 20.1737 8.97722V8.89914C20.1737 4.53668 16.6372 1.00021 12.2748 1.00021ZM5.8617 10.686V15.1541C5.8617 15.3128 5.7331 15.4414 5.57447 15.4414C4.42877 15.4414 3.5 14.5126 3.5 13.3669V12.4733C3.5 11.3276 4.42877 10.3988 5.57447 10.3988C5.7331 10.3988 5.8617 10.5274 5.8617 10.686ZM19.1383 15.1541V10.686C19.1383 10.5274 19.2669 10.3988 19.4255 10.3988C20.5712 10.3988 21.5 11.3276 21.5 12.4733V13.3669C21.5 14.5126 20.5712 15.4414 19.4255 15.4414C19.2669 15.4414 19.1383 15.3128 19.1383 15.1541ZM11.605 19.7817H12.9454C13.2274 19.7817 13.4561 20.0103 13.4561 20.2923C13.4561 20.5743 13.2274 20.8029 12.9454 20.8029H11.605C11.323 20.8029 11.0944 20.5743 11.0944 20.2923C11.0944 20.0103 11.323 19.7817 11.605 19.7817Z" fill="#443625"/>
</svg>
