<svg width="24" height="24" viewBox="0 0 24 24" fill="none" xmlns="http://www.w3.org/2000/svg">
<path fill-rule="evenodd" clip-rule="evenodd" d="M5.34585 7.4393C5.34585 5.81431 6.66317 4.49699 8.28816 4.49699C9.91315 4.49699 11.2305 5.81431 11.2305 7.4393C11.2305 9.06429 9.91315 10.3816 8.28816 10.3816C6.66317 10.3816 5.34585 9.06429 5.34585 7.4393ZM8.28816 2.99699C5.83474 2.99699 3.84585 4.98588 3.84585 7.4393C3.84585 9.89272 5.83474 11.8816 8.28816 11.8816C10.7416 11.8816 12.7305 9.89272 12.7305 7.4393C12.7305 4.98588 10.7416 2.99699 8.28816 2.99699ZM13.8266 2.99699C13.4124 2.99699 13.0766 3.33278 13.0766 3.74699C13.0766 4.16121 13.4124 4.49699 13.8266 4.49699C15.4516 4.49699 16.7689 5.81431 16.7689 7.4393C16.7689 9.06429 15.4516 10.3816 13.8266 10.3816C13.4124 10.3816 13.0766 10.7174 13.0766 11.1316C13.0766 11.5458 13.4124 11.8816 13.8266 11.8816C16.28 11.8816 18.2689 9.89272 18.2689 7.4393C18.2689 4.98588 16.28 2.99699 13.8266 2.99699ZM6.03539 14.0739L6.07278 14.0739H10.5035L10.5409 14.0739H10.541H10.541C10.805 14.0739 10.9847 14.0739 11.1434 14.0873C12.9643 14.2417 14.4088 15.6862 14.5632 17.5071C14.5767 17.6658 14.5767 17.8456 14.5766 18.1096V18.1096L14.5766 18.147L14.5766 18.1785C14.5767 18.3477 14.5767 18.4779 14.5668 18.5947C14.4536 19.93 13.3943 20.9893 12.0589 21.1025C11.9422 21.1124 11.812 21.1124 11.6429 21.1124H11.6429H11.6428L11.6112 21.1124H4.96508L4.93353 21.1124H4.93342C4.76436 21.1124 4.63412 21.1124 4.51738 21.1025C3.18203 20.9893 2.12275 19.93 2.00953 18.5947C1.99963 18.4779 1.99966 18.3477 1.9997 18.1786L1.9997 18.147L1.9997 18.1096C1.99967 17.8456 1.99965 17.6658 2.01311 17.5071C2.16749 15.6862 3.61197 14.2417 5.4329 14.0873C5.59159 14.0739 5.77133 14.0739 6.03531 14.0739H6.03532H6.03539ZM6.07278 15.5739C5.75739 15.5739 5.64652 15.5746 5.55962 15.582C4.46706 15.6746 3.60037 16.5413 3.50774 17.6338C3.50038 17.7207 3.4997 17.8316 3.4997 18.147C3.4997 18.3624 3.50038 18.4232 3.50417 18.468C3.55563 19.075 4.03712 19.5564 4.6441 19.6079C4.68883 19.6117 4.74971 19.6124 4.96508 19.6124H11.6112C11.8266 19.6124 11.8875 19.6117 11.9322 19.6079C12.5392 19.5564 13.0207 19.075 13.0722 18.468C13.0759 18.4232 13.0766 18.3624 13.0766 18.147C13.0766 17.8316 13.0759 17.7207 13.0686 17.6338C12.9759 16.5413 12.1093 15.6746 11.0167 15.582C10.9298 15.5746 10.8189 15.5739 10.5035 15.5739H6.07278ZM17.8882 15.5739C18.2035 15.5739 18.3144 15.5746 18.4013 15.582C19.4939 15.6746 20.3606 16.5413 20.4532 17.6338C20.4606 17.7207 20.4612 17.8316 20.4612 18.147C20.4612 18.3624 20.4606 18.4232 20.4568 18.468C20.4053 19.075 19.9238 19.5564 19.3168 19.6079C19.2721 19.6117 19.2112 19.6124 18.9959 19.6124H15.6728C15.2586 19.6124 14.9228 19.9482 14.9228 20.3624C14.9228 20.7766 15.2586 21.1124 15.6728 21.1124H18.9959L19.0274 21.1124H19.0275C19.1966 21.1124 19.3268 21.1124 19.4436 21.1025C20.7789 20.9893 21.8382 19.93 21.9514 18.5947C21.9613 18.4779 21.9613 18.3477 21.9612 18.1786V18.1785L21.9612 18.147L21.9612 18.1096C21.9613 17.8456 21.9613 17.6658 21.9478 17.5071C21.7934 15.6862 20.349 14.2417 18.528 14.0873C18.3693 14.0739 18.1896 14.0739 17.9256 14.0739H17.9255L17.8882 14.0739H15.6728C15.2586 14.0739 14.9228 14.4097 14.9228 14.8239C14.9228 15.2381 15.2586 15.5739 15.6728 15.5739H17.8882Z" fill="#443625"/>
</svg>
