<svg width="24" height="24" viewBox="0 0 24 24" fill="none" xmlns="http://www.w3.org/2000/svg">
<path fill-rule="evenodd" clip-rule="evenodd" d="M5.34586 7.43932C5.34586 5.81433 6.66317 4.49701 8.28817 4.49701C9.91316 4.49701 11.2305 5.81433 11.2305 7.43932C11.2305 9.06431 9.91316 10.3816 8.28817 10.3816C6.66317 10.3816 5.34586 9.06431 5.34586 7.43932ZM8.28817 2.99701C5.83475 2.99701 3.84586 4.9859 3.84586 7.43932C3.84586 9.89274 5.83475 11.8816 8.28817 11.8816C10.7416 11.8816 12.7305 9.89274 12.7305 7.43932C12.7305 4.9859 10.7416 2.99701 8.28817 2.99701ZM13.8266 2.99701C13.4124 2.99701 13.0766 3.3328 13.0766 3.74701C13.0766 4.16122 13.4124 4.49701 13.8266 4.49701C15.4516 4.49701 16.7689 5.81433 16.7689 7.43932C16.7689 9.06431 15.4516 10.3816 13.8266 10.3816C13.4124 10.3816 13.0766 10.7174 13.0766 11.1316C13.0766 11.5458 13.4124 11.8816 13.8266 11.8816C16.28 11.8816 18.2689 9.89274 18.2689 7.43932C18.2689 4.9859 16.28 2.99701 13.8266 2.99701ZM6.0354 14.0739L6.07278 14.0739H10.5036L10.5409 14.0739H10.541H10.541C10.805 14.0739 10.9847 14.0739 11.1434 14.0873C12.9644 14.2417 14.4088 15.6862 14.5632 17.5071C14.5767 17.6658 14.5767 17.8456 14.5766 18.1096V18.1097L14.5766 18.147L14.5766 18.1785C14.5767 18.3477 14.5767 18.4779 14.5668 18.5947C14.4536 19.9301 13.3943 20.9893 12.0589 21.1026C11.9422 21.1125 11.812 21.1124 11.6429 21.1124H11.6429H11.6428L11.6112 21.1124H4.96509L4.93354 21.1124H4.93343C4.76436 21.1124 4.63412 21.1125 4.51738 21.1026C3.18204 20.9893 2.12275 19.9301 2.00953 18.5947C1.99963 18.478 1.99966 18.3477 1.9997 18.1786L1.9997 18.147L1.9997 18.1096C1.99967 17.8456 1.99965 17.6658 2.01311 17.5071C2.16749 15.6862 3.61198 14.2417 5.4329 14.0873C5.59159 14.0739 5.77133 14.0739 6.03531 14.0739H6.03533H6.0354ZM6.07278 15.5739C5.7574 15.5739 5.64652 15.5746 5.55962 15.582C4.46707 15.6746 3.60038 16.5413 3.50775 17.6339C3.50038 17.7208 3.4997 17.8316 3.4997 18.147C3.4997 18.3624 3.50038 18.4233 3.50417 18.468C3.55563 19.075 4.03713 19.5565 4.6441 19.6079C4.68884 19.6117 4.74971 19.6124 4.96509 19.6124H11.6112C11.8266 19.6124 11.8875 19.6117 11.9322 19.6079C12.5392 19.5565 13.0207 19.075 13.0722 18.468C13.076 18.4233 13.0766 18.3624 13.0766 18.147C13.0766 17.8316 13.076 17.7208 13.0686 17.6339C12.976 16.5413 12.1093 15.6746 11.0167 15.582C10.9298 15.5746 10.8189 15.5739 10.5036 15.5739H6.07278ZM17.8882 15.5739C18.2035 15.5739 18.3144 15.5746 18.4013 15.582C19.4939 15.6746 20.3606 16.5413 20.4532 17.6339C20.4606 17.7208 20.4612 17.8316 20.4612 18.147C20.4612 18.3624 20.4606 18.4233 20.4568 18.468C20.4053 19.075 19.9238 19.5565 19.3168 19.6079C19.2721 19.6117 19.2112 19.6124 18.9959 19.6124H15.6728C15.2586 19.6124 14.9228 19.9482 14.9228 20.3624C14.9228 20.7766 15.2586 21.1124 15.6728 21.1124H18.9959L19.0274 21.1124H19.0275C19.1966 21.1124 19.3268 21.1125 19.4436 21.1026C20.7789 20.9893 21.8382 19.9301 21.9514 18.5947C21.9613 18.478 21.9613 18.3477 21.9612 18.1786V18.1786L21.9612 18.147L21.9612 18.1096C21.9613 17.8456 21.9613 17.6658 21.9478 17.5071C21.7935 15.6862 20.349 14.2417 18.528 14.0873C18.3693 14.0739 18.1896 14.0739 17.9256 14.0739H17.9255L17.8882 14.0739H15.6728C15.2586 14.0739 14.9228 14.4097 14.9228 14.8239C14.9228 15.2381 15.2586 15.5739 15.6728 15.5739H17.8882Z" fill="white"/>
</svg>
