<svg width="24" height="24" viewBox="0 0 24 24" fill="none" xmlns="http://www.w3.org/2000/svg">
<path fill-rule="evenodd" clip-rule="evenodd" d="M2 5.6125C2 4.16966 3.16965 3 4.6125 3H9.28942H11.2381C11.6316 3 11.9506 3.319 11.9506 3.7125C11.9506 4.106 11.6316 4.425 11.2381 4.425H10.0019V9.08978H14.4231V5.17411C14.4231 4.78061 14.7421 4.46161 15.1356 4.46161H18.5458C18.9393 4.46161 19.2583 4.78061 19.2583 5.17411V9.08978H20.7625C21.6807 9.08978 22.425 9.83411 22.425 10.7523V15.5266C22.425 15.9201 22.106 16.2391 21.7125 16.2391H20.5981V16.8847H21.7125C22.106 16.8847 22.425 17.2037 22.425 17.5972C22.425 17.9907 22.106 18.3097 21.7125 18.3097H19.8856H18.068C17.6804 20.2543 15.9641 21.7199 13.9055 21.7199C12.6673 21.7199 11.5521 21.1888 10.7772 20.3442C10.5112 20.0542 10.5306 19.6035 10.8205 19.3375C11.1105 19.0715 11.5612 19.0909 11.8272 19.3808C12.3436 19.9436 13.083 20.2949 13.9055 20.2949C15.4627 20.2949 16.725 19.0325 16.725 17.4753C16.725 15.9181 15.4627 14.6558 13.9055 14.6558C13.0661 14.6558 12.313 15.0217 11.7955 15.605C11.5343 15.8994 11.084 15.9263 10.7896 15.6651C10.4953 15.404 10.4684 14.9536 10.7295 14.6593C11.5061 13.7841 12.6416 13.2308 13.9055 13.2308C16.0492 13.2308 17.8218 14.82 18.1092 16.8847H19.1731V15.5266C19.1731 15.1331 19.4921 14.8141 19.8856 14.8141H21V10.7523C21 10.6211 20.8937 10.5148 20.7625 10.5148H18.5526C18.5503 10.5148 18.5481 10.5148 18.5458 10.5148H15.1356C15.1333 10.5148 15.1311 10.5148 15.1288 10.5148H3.425V14.3025C4.17472 13.6358 5.16234 13.2308 6.24455 13.2308C7.5084 13.2308 8.64394 13.7841 9.42047 14.6593C9.68162 14.9536 9.65472 15.404 9.36037 15.6651C9.06602 15.9263 8.61569 15.8994 8.35453 15.605C7.83698 15.0217 7.08395 14.6558 6.24455 14.6558C4.68736 14.6558 3.425 15.9181 3.425 17.4753C3.425 19.0325 4.68736 20.2949 6.24455 20.2949C7.06702 20.2949 7.80641 19.9436 8.32279 19.3808C8.58882 19.0909 9.03953 19.0715 9.32949 19.3375C9.61944 19.6035 9.63883 20.0542 9.3728 20.3442C8.59787 21.1888 7.48271 21.7199 6.24455 21.7199C3.96937 21.7199 2.11229 19.9298 2.00491 17.6812C2.00167 17.6536 2 17.6256 2 17.5972V17.4753V9.80228V5.6125ZM3.425 9.08978L8.57692 9.08975V4.425H4.6125C3.95666 4.425 3.425 4.95666 3.425 5.6125V9.08978ZM17.8333 9.08978V5.88661H15.8481V9.08978H17.8333ZM5.39279 17.5971C5.39279 17.2036 5.71179 16.8846 6.10529 16.8846H13.7006C14.0941 16.8846 14.4131 17.2036 14.4131 17.5971C14.4131 17.9906 14.0941 18.3096 13.7006 18.3096H6.10529C5.71179 18.3096 5.39279 17.9906 5.39279 17.5971Z" fill="#443625"/>
</svg>
