<svg width="24" height="24" viewBox="0 0 24 24" fill="none" xmlns="http://www.w3.org/2000/svg">
<path fill-rule="evenodd" clip-rule="evenodd" d="M9.13626 2.01926H9.16926H14.8307H14.8637C15.9559 2.01925 16.8214 2.01925 17.519 2.07624C18.2324 2.13453 18.836 2.25614 19.3872 2.53698C20.281 2.99237 21.0076 3.71903 21.463 4.6128C21.7439 5.16398 21.8655 5.7676 21.9237 6.48099C21.9807 7.17861 21.9807 8.0441 21.9807 9.13624V9.16926V14.4772L21.9807 14.5707C21.9809 15.4596 21.981 16.0324 21.8495 16.5802C21.7331 17.0649 21.5412 17.5282 21.2808 17.9532C20.9864 18.4335 20.5813 18.8385 19.9527 19.4669L19.9527 19.4669L19.8865 19.533L19.533 19.8865L19.4669 19.9527C18.8385 20.5813 18.4335 20.9864 17.9532 21.2808C17.5282 21.5412 17.0649 21.7331 16.5802 21.8495C16.0324 21.981 15.4596 21.9809 14.5707 21.9807L14.4772 21.9807H9.16926H9.13624C8.0441 21.9807 7.17861 21.9807 6.48099 21.9237C5.7676 21.8655 5.16398 21.7439 4.6128 21.463C3.71903 21.0076 2.99237 20.281 2.53698 19.3872C2.25614 18.836 2.13453 18.2324 2.07624 17.519C2.01925 16.8214 2.01925 15.9559 2.01926 14.8637V14.8307V9.16925V9.13625V9.13625C2.01925 8.04411 2.01925 7.17861 2.07624 6.48099C2.13453 5.7676 2.25614 5.16398 2.53698 4.6128C2.99237 3.71903 3.71903 2.99237 4.6128 2.53698C5.16398 2.25614 5.7676 2.13453 6.48099 2.07624C7.17861 2.01925 8.04411 2.01925 9.13625 2.01926H9.13626ZM6.60314 3.57126C5.98251 3.62197 5.59826 3.71835 5.29379 3.87349C4.68226 4.18507 4.18507 4.68226 3.87349 5.29379C3.71835 5.59826 3.62197 5.98251 3.57126 6.60314C3.51984 7.23252 3.51926 8.03677 3.51926 9.16925V14.8307C3.51926 15.9632 3.51984 16.7675 3.57126 17.3969C3.62197 18.0175 3.71835 18.4017 3.87349 18.7062C4.18507 19.3177 4.68226 19.8149 5.29379 20.1265C5.59826 20.2816 5.98251 20.378 6.60314 20.4287C7.23252 20.4802 8.03678 20.4807 9.16926 20.4807H14.4772C14.8406 20.4807 15.1232 20.4801 15.3525 20.4754V19.3025V19.2721C15.3525 18.7379 15.3525 18.2921 15.3823 17.9278C15.4133 17.548 15.4804 17.1913 15.6523 16.854C15.9159 16.3366 16.3366 15.9159 16.8541 15.6522C17.1913 15.4804 17.548 15.4133 17.9279 15.3823C18.2921 15.3525 18.738 15.3525 19.2721 15.3525H19.3025H20.4754C20.4801 15.1232 20.4807 14.8406 20.4807 14.4772V9.16926C20.4807 8.03678 20.4802 7.23252 20.4287 6.60314C20.378 5.98251 20.2816 5.59826 20.1265 5.29379C19.8149 4.68226 19.3177 4.18507 18.7062 3.87349C18.4017 3.71835 18.0175 3.62197 17.3969 3.57126C16.7675 3.51984 15.9632 3.51926 14.8307 3.51926H9.16926C8.03678 3.51926 7.23252 3.51984 6.60314 3.57126ZM20.1726 16.8525H19.3025C18.7301 16.8525 18.3459 16.8531 18.05 16.8773C17.7629 16.9007 17.6256 16.9426 17.5351 16.9888C17.2999 17.1086 17.1086 17.2998 16.9888 17.535C16.9426 17.6256 16.9008 17.7629 16.8773 18.05C16.8531 18.3459 16.8525 18.7301 16.8525 19.3025V20.1726C16.9611 20.1217 17.0669 20.0647 17.1694 20.0018C17.4798 19.8116 17.7553 19.5429 18.4724 18.8259L18.8259 18.4724C19.5429 17.7553 19.8116 17.4798 20.0018 17.1694C20.0647 17.0669 20.1217 16.9611 20.1726 16.8525ZM6.12181 6.87181C6.12181 6.45759 6.45759 6.12181 6.87181 6.12181H15.0769C15.4911 6.12181 15.8269 6.45759 15.8269 6.87181C15.8269 7.28602 15.4911 7.62181 15.0769 7.62181H6.87181C6.45759 7.62181 6.12181 7.28602 6.12181 6.87181ZM6.87181 10.2244C6.45759 10.2244 6.12181 10.5601 6.12181 10.9744C6.12181 11.3886 6.45759 11.7244 6.87181 11.7244H13.0256C13.4398 11.7244 13.7756 11.3886 13.7756 10.9744C13.7756 10.5601 13.4398 10.2244 13.0256 10.2244H6.87181ZM6.12181 15.0769C6.12181 14.6627 6.45759 14.3269 6.87181 14.3269H8.92308C9.3373 14.3269 9.67308 14.6627 9.67308 15.0769C9.67308 15.4911 9.3373 15.8269 8.92308 15.8269H6.87181C6.45759 15.8269 6.12181 15.4911 6.12181 15.0769Z" fill="#443625"/>
</svg>
