<svg width="24" height="24" viewBox="0 0 24 24" fill="none" xmlns="http://www.w3.org/2000/svg">
<path fill-rule="evenodd" clip-rule="evenodd" d="M11.9982 2.75043C10.6113 2.75043 9.27771 3.31373 8.29178 4.32206C7.30529 5.33098 6.74817 6.70287 6.74817 8.13679C6.74817 9.50975 7.32168 10.8674 8.15538 12.1068C8.98568 13.3411 10.0363 14.4017 10.8982 15.1648C11.5383 15.7315 12.4581 15.7315 13.0981 15.1648C13.9601 14.4017 15.0107 13.3411 15.841 12.1068C16.6747 10.8674 17.2482 9.50975 17.2482 8.13679C17.2482 6.70287 16.691 5.33098 15.7046 4.32206C14.7186 3.31373 13.385 2.75043 11.9982 2.75043ZM7.21927 3.27339C8.48378 1.98014 10.2024 1.25043 11.9982 1.25043C13.7939 1.25043 15.5126 1.98014 16.7771 3.27339C18.041 4.56606 18.7482 6.31578 18.7482 8.13679C18.7482 9.30113 18.4334 10.4085 17.958 11.4188L20.2528 16.8859C21.2901 19.3572 19.4752 22.0873 16.7951 22.0873H6.75211C4.07197 22.0873 2.25704 19.3572 3.29437 16.8859L5.7852 10.9519L5.84338 10.9763C5.47882 10.0883 5.24817 9.13341 5.24817 8.13679C5.24817 6.31578 5.95533 4.56606 7.21927 3.27339ZM6.70696 12.6315L4.67746 17.4665C4.05507 18.9492 5.14402 20.5873 6.75211 20.5873H16.7951C18.4032 20.5873 19.4921 18.9492 18.8697 17.4665L17.015 13.0479C16.1008 14.3799 14.9848 15.4979 14.0924 16.2879C12.8848 17.3571 11.1116 17.3571 9.90392 16.2879C8.98844 15.4774 7.83756 14.3218 6.91077 12.944C6.84173 12.8414 6.77371 12.7372 6.70696 12.6315ZM11.9982 6.75043C11.3078 6.75043 10.7482 7.31007 10.7482 8.00043C10.7482 8.69078 11.3078 9.25043 11.9982 9.25043C12.6885 9.25043 13.2482 8.69078 13.2482 8.00043C13.2482 7.31007 12.6885 6.75043 11.9982 6.75043ZM9.24817 8.00043C9.24817 6.48164 10.4794 5.25043 11.9982 5.25043C13.517 5.25043 14.7482 6.48164 14.7482 8.00043C14.7482 9.51921 13.517 10.7504 11.9982 10.7504C10.4794 10.7504 9.24817 9.51921 9.24817 8.00043Z" fill="white"/>
</svg>
