<svg width="24" height="24" viewBox="0 0 24 24" fill="none" xmlns="http://www.w3.org/2000/svg">
<path fill-rule="evenodd" clip-rule="evenodd" d="M8.21588 2.00232L8.33179 2.00238L15.7737 2.00238L15.8896 2.00232C16.511 2.00183 16.9919 2.00146 17.4046 2.13388C18.2495 2.40501 18.9117 3.0672 19.1828 3.91214C19.2785 4.21011 19.3048 4.54361 19.3119 4.9399C19.5738 4.99801 19.8207 5.08116 20.0575 5.2018C20.7631 5.56132 21.3368 6.135 21.6963 6.84061C21.9227 7.28483 22.017 7.76497 22.0617 8.31161C22.1051 8.84251 22.1051 9.49812 22.105 10.311V10.3431V13.7663V13.7985C22.1051 14.6113 22.1051 15.2669 22.0617 15.7978C22.017 16.3444 21.9227 16.8246 21.6963 17.2688C21.3368 17.9744 20.7631 18.5481 20.0575 18.9076C19.8207 19.0282 19.5738 19.1114 19.3119 19.1695C19.3048 19.5658 19.2785 19.8993 19.1828 20.1973C18.9117 21.0422 18.2495 21.7044 17.4046 21.9755C16.9919 22.1079 16.511 22.1076 15.8896 22.1071L15.7737 22.107H8.33179L8.21587 22.1071C7.59442 22.1076 7.11356 22.1079 6.70086 21.9755C5.85592 21.7044 5.19373 21.0422 4.9226 20.1973C4.82699 19.8993 4.80061 19.5658 4.79351 19.1695C4.53169 19.1114 4.28471 19.0282 4.04793 18.9076C3.34233 18.5481 2.76865 17.9744 2.40912 17.2688C2.18278 16.8246 2.08842 16.3444 2.04376 15.7978C2.00038 15.2669 2.00039 14.6113 2.0004 13.7984V13.7984V13.7663V10.3431V10.311V10.311C2.00039 9.49812 2.00038 8.84251 2.04376 8.31161C2.08842 7.76497 2.18278 7.28483 2.40912 6.84061C2.76865 6.135 3.34233 5.56132 4.04793 5.2018C4.28471 5.08116 4.53169 4.99801 4.79351 4.9399C4.8006 4.54361 4.82699 4.21011 4.9226 3.91214C5.19373 3.0672 5.85592 2.40501 6.70086 2.13388C7.11356 2.00145 7.59442 2.00183 8.21588 2.00232ZM17.7546 4.37045C17.7837 4.46112 17.7991 4.57248 17.8069 4.80061C17.4455 4.79307 17.0408 4.79307 16.5872 4.79307L16.555 4.79307H7.5504L7.51829 4.79307C7.06462 4.79307 6.65993 4.79307 6.29856 4.80061C6.30639 4.57248 6.32178 4.46112 6.35087 4.37045C6.47411 3.98639 6.77511 3.68539 7.15917 3.56215C7.31728 3.51142 7.53831 3.50238 8.33179 3.50238L15.7737 3.50238C16.5671 3.50238 16.7882 3.51142 16.9463 3.56215C17.3303 3.68539 17.6313 3.98639 17.7546 4.37045ZM16.5877 19.3163H16.5876H16.5872H16.555H7.5504H7.51827H7.51785H7.51778C7.06432 19.3163 6.6598 19.3163 6.29857 19.3088C6.3064 19.5369 6.32178 19.6483 6.35087 19.739C6.47411 20.123 6.77511 20.424 7.15917 20.5472C7.31728 20.598 7.53831 20.607 8.33179 20.607H15.7737C16.5671 20.607 16.7882 20.598 16.9463 20.5472C17.3303 20.424 17.6313 20.123 17.7546 19.739C17.7837 19.6483 17.799 19.5369 17.8069 19.3088C17.4456 19.3163 17.0411 19.3163 16.5877 19.3163ZM4.72892 6.53831C4.92644 6.43767 5.1872 6.36854 5.64108 6.33146C6.10371 6.29366 6.69794 6.29307 7.5504 6.29307H16.555C17.4075 6.29307 18.0017 6.29366 18.4644 6.33146C18.9182 6.36854 19.179 6.43767 19.3765 6.53831C19.7999 6.75402 20.1441 7.09823 20.3598 7.5216C20.4605 7.71911 20.5296 7.97988 20.5667 8.43375C20.6045 8.89638 20.605 9.49062 20.605 10.3431V13.7663C20.605 14.6188 20.6045 15.213 20.5667 15.6756C20.5296 16.1295 20.4605 16.3903 20.3598 16.5878C20.1441 17.0112 19.7999 17.3554 19.3765 17.5711C19.179 17.6717 18.9182 17.7409 18.4644 17.7779C18.0017 17.8157 17.4075 17.8163 16.555 17.8163H7.5504C6.69794 17.8163 6.10371 17.8157 5.64108 17.7779C5.1872 17.7409 4.92644 17.6717 4.72892 17.5711C4.30555 17.3554 3.96135 17.0112 3.74563 16.5878C3.64499 16.3903 3.57586 16.1295 3.53878 15.6756C3.50098 15.213 3.5004 14.6188 3.5004 13.7663V10.3431C3.5004 9.49062 3.50098 8.89638 3.53878 8.43375C3.57586 7.97988 3.64499 7.71911 3.74563 7.5216C3.96135 7.09823 4.30555 6.75402 4.72892 6.53831ZM13.0958 9.36808L13.0669 9.34883L13.0669 9.34882C12.6876 9.09592 12.3606 8.87787 12.0862 8.72918C11.8116 8.58035 11.4721 8.43246 11.088 8.4554C10.5772 8.4859 10.1053 8.73842 9.79662 9.1465C9.56444 9.45342 9.4992 9.81789 9.4707 10.1289C9.44222 10.4397 9.44224 10.8328 9.44226 11.2887L9.44226 11.3234V12.786L9.44226 12.8207C9.44224 13.2766 9.44222 13.6697 9.4707 13.9805C9.4992 14.2915 9.56444 14.656 9.79662 14.9629C10.1053 15.371 10.5772 15.6235 11.088 15.654C11.4721 15.6769 11.8116 15.529 12.0862 15.3802C12.3606 15.2315 12.6876 15.0135 13.0669 14.7606L13.0958 14.7413L14.1928 14.01L14.2197 13.9921L14.2197 13.9921C14.5305 13.7849 14.805 13.6019 15.0132 13.434C15.2287 13.2602 15.4574 13.0385 15.5874 12.7251C15.7654 12.2959 15.7654 11.8135 15.5874 11.3843C15.4574 11.0709 15.2287 10.8492 15.0132 10.6754C14.805 10.5075 14.5305 10.3245 14.2196 10.1173L14.1928 10.0994L13.0958 9.36808ZM11.0023 10.0398C11.043 9.99215 11.1002 9.96155 11.1624 9.95407C11.1801 9.95882 11.242 9.97781 11.3715 10.048C11.578 10.1599 11.8473 10.3385 12.2638 10.6162L13.3607 11.3475C13.7065 11.578 13.9229 11.7232 14.0716 11.8431C14.1632 11.9169 14.1965 11.9564 14.2053 11.9678C14.2261 12.0239 14.2261 12.0855 14.2053 12.1416C14.1965 12.153 14.1632 12.1925 14.0716 12.2663C13.9229 12.3862 13.7065 12.5314 13.3607 12.7619L12.2638 13.4932C11.8473 13.7709 11.578 13.9495 11.3715 14.0614C11.242 14.1316 11.1801 14.1506 11.1624 14.1553C11.1002 14.1479 11.043 14.1173 11.0023 14.0696C10.9964 14.0523 10.9779 13.9902 10.9644 13.8436C10.943 13.6097 10.9423 13.2865 10.9423 12.786V11.3234C10.9423 10.8229 10.943 10.4997 10.9644 10.2658C10.9779 10.1192 10.9964 10.0571 11.0023 10.0398Z" fill="white"/>
</svg>
