<svg width="24" height="24" viewBox="0 0 24 24" fill="none" xmlns="http://www.w3.org/2000/svg">
<path fill-rule="evenodd" clip-rule="evenodd" d="M8.21589 2.0023L8.33181 2.00236L15.7737 2.00236L15.8896 2.0023C16.511 2.00182 16.9919 2.00144 17.4046 2.13387C18.2495 2.405 18.9117 3.06718 19.1829 3.91212C19.2785 4.21009 19.3049 4.54359 19.312 4.93989C19.5738 4.998 19.8208 5.08114 20.0575 5.20178C20.7631 5.56131 21.3368 6.13499 21.6963 6.84059C21.9227 7.28481 22.017 7.76495 22.0617 8.31159C22.1051 8.8425 22.1051 9.4981 22.1051 10.3109V10.3431V13.7663V13.7984C22.1051 14.6113 22.1051 15.2669 22.0617 15.7978C22.017 16.3444 21.9227 16.8246 21.6963 17.2688C21.3368 17.9744 20.7631 18.5481 20.0575 18.9076C19.8208 19.0282 19.5738 19.1114 19.312 19.1695C19.3049 19.5658 19.2785 19.8993 19.1829 20.1972C18.9117 21.0422 18.2495 21.7044 17.4046 21.9755C16.9919 22.1079 16.511 22.1076 15.8896 22.1071L15.7737 22.107H8.33181L8.21589 22.1071C7.59443 22.1076 7.11357 22.1079 6.70087 21.9755C5.85593 21.7044 5.19375 21.0422 4.92262 20.1972C4.827 19.8993 4.80062 19.5658 4.79352 19.1695C4.53171 19.1114 4.28472 19.0282 4.04795 18.9076C3.34234 18.5481 2.76866 17.9744 2.40914 17.2688C2.1828 16.8246 2.08844 16.3444 2.04378 15.7978C2.0004 15.2669 2.0004 14.6113 2.00041 13.7984V13.7984V13.7663V10.3431V10.311V10.3109C2.0004 9.49811 2.0004 8.8425 2.04378 8.31159C2.08844 7.76495 2.1828 7.28481 2.40914 6.84059C2.76866 6.13499 3.34234 5.56131 4.04795 5.20178C4.28472 5.08114 4.53171 4.99799 4.79352 4.93988C4.80062 4.54359 4.827 4.21009 4.92262 3.91212C5.19375 3.06718 5.85593 2.405 6.70087 2.13387C7.11357 2.00144 7.59443 2.00182 8.21589 2.0023ZM17.7546 4.37044C17.7837 4.4611 17.7991 4.57246 17.8069 4.80059C17.4455 4.79305 17.0408 4.79305 16.5872 4.79306L16.5551 4.79306H7.55041L7.51831 4.79306C7.06464 4.79305 6.65995 4.79305 6.29858 4.80059C6.30641 4.57246 6.32179 4.4611 6.35089 4.37043C6.47413 3.98637 6.77512 3.68538 7.15918 3.56214C7.3173 3.5114 7.53833 3.50236 8.33181 3.50236L15.7737 3.50236C16.5671 3.50236 16.7882 3.5114 16.9463 3.56214C17.3304 3.68538 17.6313 3.98637 17.7546 4.37044ZM16.5877 19.3163H16.5876H16.5872H16.5551H7.55041H7.51829H7.51787H7.51779C7.06434 19.3163 6.65981 19.3163 6.29858 19.3088C6.30641 19.5369 6.32179 19.6483 6.35089 19.7389C6.47413 20.123 6.77512 20.424 7.15918 20.5472C7.3173 20.598 7.53833 20.607 8.33181 20.607H15.7737C16.5671 20.607 16.7882 20.598 16.9463 20.5472C17.3304 20.424 17.6313 20.123 17.7546 19.7389C17.7837 19.6483 17.7991 19.5369 17.8069 19.3088C17.4457 19.3163 17.0411 19.3163 16.5877 19.3163ZM4.72893 6.53829C4.92645 6.43765 5.18722 6.36852 5.64109 6.33144C6.10372 6.29364 6.69796 6.29306 7.55041 6.29306H16.5551C17.4075 6.29306 18.0018 6.29364 18.4644 6.33144C18.9183 6.36852 19.179 6.43765 19.3765 6.53829C19.7999 6.75401 20.1441 7.09822 20.3598 7.52158C20.4605 7.7191 20.5296 7.97986 20.5667 8.43374C20.6045 8.89637 20.6051 9.4906 20.6051 10.3431V13.7663C20.6051 14.6188 20.6045 15.213 20.5667 15.6756C20.5296 16.1295 20.4605 16.3903 20.3598 16.5878C20.1441 17.0112 19.7999 17.3554 19.3765 17.5711C19.179 17.6717 18.9183 17.7408 18.4644 17.7779C18.0018 17.8157 17.4075 17.8163 16.5551 17.8163H7.55041C6.69796 17.8163 6.10372 17.8157 5.64109 17.7779C5.18722 17.7408 4.92645 17.6717 4.72893 17.5711C4.30557 17.3554 3.96136 17.0112 3.74565 16.5878C3.64501 16.3903 3.57588 16.1295 3.53879 15.6756C3.501 15.213 3.50041 14.6188 3.50041 13.7663V10.3431C3.50041 9.4906 3.501 8.89637 3.53879 8.43374C3.57588 7.97986 3.64501 7.7191 3.74565 7.52158C3.96136 7.09822 4.30557 6.75401 4.72893 6.53829ZM13.0958 9.36806L13.0669 9.34882L13.0669 9.3488C12.6876 9.0959 12.3606 8.87786 12.0862 8.72917C11.8116 8.58034 11.4721 8.43245 11.088 8.45538C10.5772 8.48588 10.1053 8.73841 9.79663 9.14649C9.56445 9.45341 9.49921 9.81788 9.47071 10.1289C9.44224 10.4397 9.44225 10.8328 9.44227 11.2887L9.44227 11.3234V12.786L9.44227 12.8207C9.44225 13.2766 9.44224 13.6697 9.47071 13.9804C9.49921 14.2915 9.56445 14.656 9.79663 14.9629C10.1053 15.371 10.5772 15.6235 11.088 15.654C11.4721 15.6769 11.8116 15.529 12.0862 15.3802C12.3606 15.2315 12.6876 15.0135 13.0669 14.7606L13.0958 14.7413L14.1928 14.01L14.2197 13.9921L14.2197 13.992C14.5305 13.7849 14.805 13.6019 15.0133 13.4339C15.2288 13.2601 15.4574 13.0385 15.5874 12.7251C15.7654 12.2959 15.7654 11.8135 15.5874 11.3843C15.4574 11.0709 15.2288 10.8492 15.0133 10.6754C14.805 10.5075 14.5305 10.3245 14.2197 10.1173L14.1928 10.0994L13.0958 9.36806ZM11.0023 10.0398C11.043 9.99214 11.1002 9.96154 11.1624 9.95406C11.1801 9.95881 11.242 9.9778 11.3715 10.048C11.578 10.1599 11.8473 10.3385 12.2638 10.6161L13.3607 11.3474C13.7066 11.578 13.923 11.7231 14.0716 11.843C14.1632 11.9169 14.1965 11.9564 14.2053 11.9678C14.2261 12.0239 14.2261 12.0855 14.2053 12.1415C14.1965 12.153 14.1632 12.1925 14.0716 12.2663C13.923 12.3862 13.7066 12.5314 13.3607 12.7619L12.2638 13.4932C11.8473 13.7708 11.578 13.9495 11.3715 14.0614C11.242 14.1316 11.1801 14.1506 11.1624 14.1553C11.1002 14.1478 11.043 14.1172 11.0023 14.0696C10.9964 14.0523 10.9779 13.9902 10.9645 13.8436C10.943 13.6097 10.9423 13.2865 10.9423 12.786V11.3234C10.9423 10.8229 10.943 10.4997 10.9645 10.2658C10.9779 10.1192 10.9964 10.0571 11.0023 10.0398Z" fill="#443625"/>
</svg>
