<svg width="24" height="24" viewBox="0 0 24 24" fill="none" xmlns="http://www.w3.org/2000/svg">
<path fill-rule="evenodd" clip-rule="evenodd" d="M8.65699 0.767456C8.65699 0.353242 8.3212 0.0174561 7.90699 0.0174561C7.49277 0.0174561 7.15699 0.353243 7.15699 0.767456V2.07215C6.33276 2.09098 5.7103 2.15229 5.16558 2.35062C3.84662 2.83086 2.8076 3.86988 2.32736 5.18884C2.04004 5.97796 2.04029 6.93023 2.04068 8.42272L2.04071 8.59235V14.8326L2.04071 14.8656C2.0407 15.9577 2.0407 16.8232 2.09769 17.5208C2.15598 18.2342 2.27759 18.8379 2.55843 19.389C3.01382 20.2828 3.74048 21.0095 4.63425 21.4649C5.18543 21.7457 5.78905 21.8673 6.50244 21.9256C7.20006 21.9826 8.06555 21.9826 9.15769 21.9826H9.19071H14.8093H14.8423C15.9345 21.9826 16.8 21.9826 17.4976 21.9256C18.211 21.8673 18.8146 21.7457 19.3658 21.4649C20.2595 21.0095 20.9862 20.2828 21.4416 19.389C21.7224 18.8379 21.844 18.2342 21.9023 17.5208C21.9593 16.8232 21.9593 15.9577 21.9593 14.8655V14.8326V9.21397V9.18105C21.9593 8.08887 21.9593 7.22334 21.9023 6.5257C21.844 5.81231 21.7224 5.20869 21.4416 4.65751C20.9862 3.76374 20.2595 3.03709 19.3658 2.58169C18.8146 2.30085 18.211 2.17924 17.4976 2.12096C17.2942 2.10434 17.0765 2.09256 16.843 2.08422V0.767456C16.843 0.353242 16.5072 0.0174561 16.093 0.0174561C15.6788 0.0174561 15.343 0.353243 15.343 0.767456V2.06419C15.1816 2.06397 15.0148 2.06397 14.8423 2.06397H14.8423H14.8093H8.65699V0.767456ZM15.343 3.83722V3.56424C15.1736 3.56398 14.9959 3.56397 14.8093 3.56397H8.65699V3.83722C8.65699 4.25144 8.3212 4.58722 7.90699 4.58722C7.49277 4.58722 7.15699 4.25144 7.15699 3.83722V3.57401C6.42001 3.59127 6.0154 3.63753 5.67878 3.7601C4.77633 4.08869 4.06542 4.79959 3.73684 5.70204C3.55212 6.20937 3.54071 6.87114 3.54071 8.59235V14.8326C3.54071 15.9651 3.54129 16.7693 3.59271 17.3987C3.64342 18.0193 3.7398 18.4036 3.89494 18.708C4.20652 19.3196 4.70371 19.8168 5.31524 20.1283C5.61971 20.2835 6.00396 20.3799 6.62459 20.4306C7.25397 20.482 8.05823 20.4826 9.19071 20.4826H14.8093C15.9418 20.4826 16.746 20.482 17.3754 20.4306C17.9961 20.3799 18.3803 20.2835 18.6848 20.1283C19.2963 19.8168 19.7935 19.3196 20.1051 18.708C20.2602 18.4036 20.3566 18.0193 20.4073 17.3987C20.4587 16.7693 20.4593 15.9651 20.4593 14.8326V9.21397C20.4593 8.08149 20.4587 7.27723 20.4073 6.64785C20.3566 6.02722 20.2602 5.64297 20.1051 5.3385C19.7935 4.72697 19.2963 4.22978 18.6848 3.9182C18.3803 3.76306 17.9961 3.66668 17.3754 3.61597C17.2108 3.60253 17.0343 3.59256 16.843 3.58516V3.83722C16.843 4.25144 16.5072 4.58722 16.093 4.58722C15.6788 4.58722 15.343 4.25144 15.343 3.83722ZM6.88373 7.18025C6.46952 7.18025 6.13373 7.51603 6.13373 7.93025C6.13373 8.34446 6.46952 8.68025 6.88373 8.68025H17.1163C17.5305 8.68025 17.8663 8.34446 17.8663 7.93025C17.8663 7.51603 17.5305 7.18025 17.1163 7.18025H6.88373ZM8.93024 12.0233C8.93024 12.5884 8.47212 13.0465 7.90699 13.0465C7.34186 13.0465 6.88373 12.5884 6.88373 12.0233C6.88373 11.4581 7.34186 11 7.90699 11C8.47212 11 8.93024 11.4581 8.93024 12.0233ZM7.90699 17.1395C8.47212 17.1395 8.93024 16.6814 8.93024 16.1163C8.93024 15.5512 8.47212 15.093 7.90699 15.093C7.34186 15.093 6.88373 15.5512 6.88373 16.1163C6.88373 16.6814 7.34186 17.1395 7.90699 17.1395ZM13.0233 16.1163C13.0233 16.6814 12.5651 17.1395 12 17.1395C11.4349 17.1395 10.9768 16.6814 10.9768 16.1163C10.9768 15.5512 11.4349 15.093 12 15.093C12.5651 15.093 13.0233 15.5512 13.0233 16.1163ZM16.093 17.1395C16.6582 17.1395 17.1163 16.6814 17.1163 16.1163C17.1163 15.5512 16.6582 15.093 16.093 15.093C15.5279 15.093 15.0698 15.5512 15.0698 16.1163C15.0698 16.6814 15.5279 17.1395 16.093 17.1395ZM13.0233 12.0233C13.0233 12.5884 12.5651 13.0465 12 13.0465C11.4349 13.0465 10.9768 12.5884 10.9768 12.0233C10.9768 11.4581 11.4349 11 12 11C12.5651 11 13.0233 11.4581 13.0233 12.0233ZM16.093 13.0465C16.6582 13.0465 17.1163 12.5884 17.1163 12.0233C17.1163 11.4581 16.6582 11 16.093 11C15.5279 11 15.0698 11.4581 15.0698 12.0233C15.0698 12.5884 15.5279 13.0465 16.093 13.0465Z" fill="white"/>
</svg>
