<svg width="24" height="24" viewBox="0 0 24 24" fill="none" xmlns="http://www.w3.org/2000/svg">
<path fill-rule="evenodd" clip-rule="evenodd" d="M8.65698 0.767441C8.65698 0.353227 8.32119 0.0174408 7.90698 0.0174408C7.49276 0.0174408 7.15698 0.353227 7.15698 0.767441V2.07214C6.33275 2.09096 5.71029 2.15227 5.16557 2.35061C3.84661 2.83085 2.80759 3.86986 2.32735 5.18882C2.04003 5.97795 2.04028 6.93022 2.04067 8.4227L2.0407 8.59234V14.8326L2.0407 14.8656C2.04069 15.9577 2.04069 16.8232 2.09769 17.5208C2.15597 18.2342 2.27758 18.8378 2.55842 19.389C3.01382 20.2828 3.74047 21.0094 4.63424 21.4648C5.18542 21.7457 5.78904 21.8673 6.50243 21.9256C7.20005 21.9826 8.06555 21.9826 9.15768 21.9826H9.1907H14.8093H14.8423C15.9345 21.9826 16.8 21.9826 17.4976 21.9256C18.211 21.8673 18.8146 21.7457 19.3658 21.4648C20.2595 21.0094 20.9862 20.2828 21.4416 19.389C21.7224 18.8378 21.844 18.2342 21.9023 17.5208C21.9593 16.8232 21.9593 15.9577 21.9593 14.8655V14.8326V9.21395V9.18104C21.9593 8.08885 21.9593 7.22333 21.9023 6.52569C21.844 5.8123 21.7224 5.20867 21.4416 4.6575C20.9862 3.76373 20.2595 3.03707 19.3658 2.58167C18.8146 2.30083 18.211 2.17923 17.4976 2.12094C17.2941 2.10432 17.0765 2.09255 16.843 2.08421V0.767441C16.843 0.353227 16.5072 0.0174408 16.093 0.0174408C15.6788 0.0174408 15.343 0.353227 15.343 0.767441V2.06417C15.1816 2.06395 15.0148 2.06395 14.8423 2.06395H14.8423H14.8093H8.65698V0.767441ZM15.343 3.83721V3.56422C15.1736 3.56397 14.9959 3.56395 14.8093 3.56395H8.65698V3.83721C8.65698 4.25142 8.32119 4.58721 7.90698 4.58721C7.49277 4.58721 7.15698 4.25142 7.15698 3.83721V3.574C6.42001 3.59125 6.01539 3.63752 5.67877 3.76008C4.77632 4.08867 4.06542 4.79958 3.73683 5.70202C3.55211 6.20935 3.5407 6.87112 3.5407 8.59234V14.8326C3.5407 15.965 3.54128 16.7693 3.59271 17.3987C3.64341 18.0193 3.73979 18.4036 3.89493 18.708C4.20652 19.3196 4.7037 19.8167 5.31523 20.1283C5.6197 20.2835 6.00395 20.3798 6.62458 20.4305C7.25397 20.482 8.05822 20.4826 9.1907 20.4826H14.8093C15.9418 20.4826 16.746 20.482 17.3754 20.4305C17.996 20.3798 18.3803 20.2835 18.6848 20.1283C19.2963 19.8167 19.7935 19.3196 20.1051 18.708C20.2602 18.4036 20.3566 18.0193 20.4073 17.3987C20.4587 16.7693 20.4593 15.965 20.4593 14.8326V9.21395C20.4593 8.08147 20.4587 7.27722 20.4073 6.64783C20.3566 6.02721 20.2602 5.64296 20.1051 5.33848C19.7935 4.72696 19.2963 4.22977 18.6848 3.91818C18.3803 3.76304 17.996 3.66667 17.3754 3.61596C17.2108 3.60251 17.0343 3.59254 16.843 3.58515V3.83721C16.843 4.25142 16.5072 4.58721 16.093 4.58721C15.6788 4.58721 15.343 4.25142 15.343 3.83721ZM6.88372 7.18023C6.46951 7.18023 6.13372 7.51602 6.13372 7.93023C6.13372 8.34445 6.46951 8.68023 6.88372 8.68023H17.1163C17.5305 8.68023 17.8663 8.34445 17.8663 7.93023C17.8663 7.51602 17.5305 7.18023 17.1163 7.18023H6.88372ZM8.93023 12.0233C8.93023 12.5884 8.47211 13.0465 7.90698 13.0465C7.34185 13.0465 6.88372 12.5884 6.88372 12.0233C6.88372 11.4581 7.34185 11 7.90698 11C8.47211 11 8.93023 11.4581 8.93023 12.0233ZM7.90698 17.1395C8.47211 17.1395 8.93023 16.6814 8.93023 16.1163C8.93023 15.5511 8.47211 15.093 7.90698 15.093C7.34185 15.093 6.88372 15.5511 6.88372 16.1163C6.88372 16.6814 7.34185 17.1395 7.90698 17.1395ZM13.0233 16.1163C13.0233 16.6814 12.5651 17.1395 12 17.1395C11.4349 17.1395 10.9767 16.6814 10.9767 16.1163C10.9767 15.5511 11.4349 15.093 12 15.093C12.5651 15.093 13.0233 15.5511 13.0233 16.1163ZM16.093 17.1395C16.6582 17.1395 17.1163 16.6814 17.1163 16.1163C17.1163 15.5511 16.6582 15.093 16.093 15.093C15.5279 15.093 15.0698 15.5511 15.0698 16.1163C15.0698 16.6814 15.5279 17.1395 16.093 17.1395ZM13.0233 12.0233C13.0233 12.5884 12.5651 13.0465 12 13.0465C11.4349 13.0465 10.9767 12.5884 10.9767 12.0233C10.9767 11.4581 11.4349 11 12 11C12.5651 11 13.0233 11.4581 13.0233 12.0233ZM16.093 13.0465C16.6582 13.0465 17.1163 12.5884 17.1163 12.0233C17.1163 11.4581 16.6582 11 16.093 11C15.5279 11 15.0698 11.4581 15.0698 12.0233C15.0698 12.5884 15.5279 13.0465 16.093 13.0465Z" fill="#443625"/>
</svg>
