<svg width="24" height="24" viewBox="0 0 24 24" fill="none" xmlns="http://www.w3.org/2000/svg">
<path fill-rule="evenodd" clip-rule="evenodd" d="M9.62051 1.9997H9.58841H9.5884C8.77556 1.9997 8.11995 1.99969 7.58904 2.04307C7.04241 2.08773 6.56227 2.18209 6.11805 2.40843C5.41244 2.76795 4.83876 3.34163 4.47924 4.04724C4.31551 4.36857 4.22085 4.70869 4.16409 5.07919C3.95113 5.08203 3.75909 5.08803 3.58697 5.10066C3.24569 5.12572 2.92403 5.1798 2.61496 5.3189C2.00221 5.59467 1.51164 6.08525 1.23586 6.69799C1.09676 7.00706 1.04269 7.32872 1.01763 7.67001C0.993574 7.99762 0.993581 8.39739 0.993589 8.87629V8.87631V8.90355V15.0574V15.0846V15.0847C0.993581 15.5636 0.993574 15.9633 1.01763 16.2909C1.04269 16.6322 1.09676 16.9539 1.23586 17.263C1.51164 17.8757 2.00221 18.3663 2.61496 18.642C2.92403 18.7811 3.24569 18.8352 3.58697 18.8603C3.75909 18.8729 3.95113 18.8789 4.16409 18.8818C4.22085 19.2522 4.31551 19.5924 4.47924 19.9137C4.83876 20.6193 5.41244 21.193 6.11805 21.5525C6.56227 21.7789 7.04241 21.8732 7.58904 21.9179C8.11995 21.9613 8.77556 21.9612 9.58839 21.9612H9.62051H14.3795H14.4116C15.2244 21.9612 15.88 21.9613 16.411 21.9179C16.9576 21.8732 17.4377 21.7789 17.882 21.5525C18.5876 21.193 19.1612 20.6193 19.5208 19.9137C19.6845 19.5924 19.7792 19.2522 19.8359 18.8818C20.0489 18.8789 20.2409 18.8729 20.413 18.8603C20.7543 18.8352 21.076 18.7811 21.385 18.642C21.9978 18.3663 22.4884 17.8757 22.7641 17.263C22.9032 16.9539 22.9573 16.6322 22.9824 16.2909C23.0064 15.9633 23.0064 15.5635 23.0064 15.0846V15.0574V8.90355V8.87631C23.0064 8.3974 23.0064 7.99763 22.9824 7.67001C22.9573 7.32872 22.9032 7.00706 22.7641 6.69799C22.4884 6.08525 21.9978 5.59467 21.385 5.3189C21.076 5.1798 20.7543 5.12572 20.413 5.10066C20.2409 5.08803 20.0489 5.08203 19.8359 5.07919C19.7792 4.70869 19.6845 4.36857 19.5208 4.04724C19.1612 3.34163 18.5876 2.76795 17.882 2.40843C17.4377 2.18209 16.9576 2.08773 16.411 2.04307C15.88 1.99969 15.2244 1.9997 14.4116 1.9997H14.4116H14.3795H9.62051ZM19.9264 6.58086C19.9295 6.86736 19.9295 7.17882 19.9295 7.51758V7.5497V16.4112V16.4434C19.9295 16.7821 19.9295 17.0936 19.9264 17.3801C20.0696 17.3772 20.1931 17.3724 20.3032 17.3643C20.5619 17.3453 20.687 17.3113 20.7694 17.2742C21.0479 17.1488 21.2709 16.9259 21.3963 16.6473C21.4334 16.5649 21.4674 16.4398 21.4864 16.1811C21.5059 15.915 21.5064 15.5705 21.5064 15.0574V8.90355C21.5064 8.39039 21.5059 8.04599 21.4864 7.77984C21.4674 7.52117 21.4334 7.39604 21.3963 7.31361C21.2709 7.03509 21.0479 6.8121 20.7694 6.68675C20.687 6.64965 20.5619 6.61563 20.3032 6.59664C20.1931 6.58855 20.0696 6.58374 19.9264 6.58086ZM3.69681 6.59664C3.8069 6.58855 3.93037 6.58374 4.07364 6.58086C4.07051 6.86737 4.07051 7.17883 4.07051 7.51759V7.5176L4.07051 7.5497V16.4112L4.07051 16.4433C4.07051 16.7821 4.07051 17.0936 4.07364 17.3801C3.93037 17.3772 3.8069 17.3724 3.69681 17.3643C3.43813 17.3453 3.31301 17.3113 3.23057 17.2742C2.95205 17.1488 2.72907 16.9259 2.60371 16.6473C2.56662 16.5649 2.53259 16.4398 2.5136 16.1811C2.49406 15.915 2.49359 15.5705 2.49359 15.0574V8.90355C2.49359 8.39039 2.49406 8.04599 2.5136 7.77984C2.53259 7.52117 2.56662 7.39604 2.60371 7.31361C2.72907 7.03509 2.95205 6.8121 3.23057 6.68675C3.31301 6.64965 3.43813 6.61563 3.69681 6.59664ZM6.79903 3.74494C6.99655 3.6443 7.25732 3.57517 7.71119 3.53808C8.17382 3.50029 8.76806 3.4997 9.62051 3.4997H14.3795C15.2319 3.4997 15.8262 3.50029 16.2888 3.53808C16.7427 3.57517 17.0035 3.6443 17.201 3.74494C17.6243 3.96065 17.9685 4.30486 18.1843 4.72822C18.2849 4.92574 18.354 5.18651 18.3911 5.64038C18.4289 6.10301 18.4295 6.69725 18.4295 7.5497V16.4112C18.4295 17.2637 18.4289 17.8579 18.3911 18.3206C18.354 18.7744 18.2849 19.0352 18.1843 19.2327C17.9685 19.6561 17.6243 20.0003 17.201 20.216C17.0035 20.3166 16.7427 20.3858 16.2888 20.4229C15.8262 20.4607 15.2319 20.4612 14.3795 20.4612H9.62051C8.76806 20.4612 8.17382 20.4607 7.71119 20.4229C7.25732 20.3858 6.99655 20.3166 6.79903 20.216C6.37567 20.0003 6.03146 19.6561 5.81575 19.2327C5.71511 19.0352 5.64598 18.7744 5.60889 18.3206C5.5711 17.8579 5.57051 17.2637 5.57051 16.4112V7.5497C5.57051 6.69725 5.5711 6.10301 5.60889 5.64038C5.64598 5.18651 5.71511 4.92574 5.81575 4.72822C6.03146 4.30486 6.37567 3.96065 6.79903 3.74494ZM8.92308 6.10227C8.50886 6.10227 8.17308 6.43805 8.17308 6.85227C8.17308 7.26648 8.50886 7.60227 8.92308 7.60227H15.0769C15.4911 7.60227 15.8269 7.26648 15.8269 6.85227C15.8269 6.43805 15.4911 6.10227 15.0769 6.10227H8.92308ZM8.17308 10.9548C8.17308 10.5406 8.50886 10.2048 8.92308 10.2048H13.0256C13.4399 10.2048 13.7756 10.5406 13.7756 10.9548C13.7756 11.369 13.4399 11.7048 13.0256 11.7048H8.92308C8.50886 11.7048 8.17308 11.369 8.17308 10.9548ZM8.92308 14.3074C8.50886 14.3074 8.17308 14.6432 8.17308 15.0574C8.17308 15.4716 8.50886 15.8074 8.92308 15.8074H10.9744C11.3886 15.8074 11.7244 15.4716 11.7244 15.0574C11.7244 14.6432 11.3886 14.3074 10.9744 14.3074H8.92308Z" fill="#443625"/>
</svg>
