<svg width="24" height="24" viewBox="0 0 24 24" fill="none" xmlns="http://www.w3.org/2000/svg">
<path fill-rule="evenodd" clip-rule="evenodd" d="M9.62051 1.9997H9.58841H9.5884C8.77557 1.99969 8.11995 1.99968 7.58905 2.04306C7.04241 2.08772 6.56227 2.18208 6.11805 2.40842C5.41244 2.76795 4.83877 3.34162 4.47924 4.04723C4.31552 4.36856 4.22085 4.70869 4.1641 5.07918C3.95113 5.08202 3.75909 5.08802 3.58697 5.10066C3.24569 5.12571 2.92403 5.17979 2.61496 5.31889C2.00221 5.59467 1.51164 6.08524 1.23587 6.69798C1.09677 7.00705 1.04269 7.32872 1.01763 7.67C0.993577 7.99761 0.993583 8.39738 0.993592 8.87628V8.8763V8.90354V15.0574V15.0846V15.0846C0.993583 15.5635 0.993577 15.9633 1.01763 16.2909C1.04269 16.6322 1.09677 16.9539 1.23587 17.2629C1.51164 17.8757 2.00221 18.3663 2.61496 18.642C2.92403 18.7811 3.24569 18.8352 3.58697 18.8603C3.7591 18.8729 3.95113 18.8789 4.1641 18.8817C4.22085 19.2522 4.31552 19.5924 4.47924 19.9137C4.83877 20.6193 5.41244 21.193 6.11805 21.5525C6.56227 21.7788 7.04241 21.8732 7.58905 21.9179C8.11995 21.9612 8.77556 21.9612 9.58839 21.9612H9.62051H14.3795H14.4116C15.2244 21.9612 15.8801 21.9612 16.411 21.9179C16.9576 21.8732 17.4377 21.7788 17.882 21.5525C18.5876 21.193 19.1612 20.6193 19.5208 19.9137C19.6845 19.5924 19.7792 19.2522 19.8359 18.8817C20.0489 18.8789 20.2409 18.8729 20.413 18.8603C20.7543 18.8352 21.076 18.7811 21.385 18.642C21.9978 18.3663 22.4884 17.8757 22.7641 17.2629C22.9032 16.9539 22.9573 16.6322 22.9824 16.2909C23.0064 15.9633 23.0064 15.5635 23.0064 15.0846V15.0574V8.90354V8.8763C23.0064 8.39739 23.0064 7.99762 22.9824 7.67C22.9573 7.32872 22.9032 7.00705 22.7641 6.69798C22.4884 6.08524 21.9978 5.59467 21.385 5.31889C21.076 5.17979 20.7543 5.12571 20.413 5.10066C20.2409 5.08802 20.0489 5.08203 19.8359 5.07918C19.7792 4.70869 19.6845 4.36856 19.5208 4.04723C19.1612 3.34162 18.5876 2.76795 17.882 2.40842C17.4377 2.18208 16.9576 2.08772 16.411 2.04306C15.8801 1.99968 15.2244 1.99969 14.4116 1.9997H14.4116H14.3795H9.62051ZM19.9264 6.58086C19.9295 6.86735 19.9295 7.17881 19.9295 7.51757V7.5497V16.4112V16.4434C19.9295 16.7821 19.9295 17.0936 19.9264 17.3801C20.0696 17.3772 20.1931 17.3724 20.3032 17.3643C20.5619 17.3453 20.687 17.3113 20.7694 17.2742C21.0479 17.1488 21.2709 16.9258 21.3963 16.6473C21.4334 16.5649 21.4674 16.4398 21.4864 16.1811C21.5059 15.9149 21.5064 15.5705 21.5064 15.0574V8.90354C21.5064 8.39039 21.5059 8.04598 21.4864 7.77984C21.4674 7.52116 21.4334 7.39603 21.3963 7.3136C21.2709 7.03508 21.0479 6.81209 20.7694 6.68674C20.687 6.64964 20.5619 6.61562 20.3032 6.59663C20.1931 6.58855 20.0696 6.58373 19.9264 6.58086ZM3.69681 6.59663C3.8069 6.58855 3.93038 6.58373 4.07365 6.58086C4.07051 6.86736 4.07051 7.17882 4.07051 7.51758V7.51759L4.07052 7.54969V16.4112L4.07051 16.4433C4.07051 16.7821 4.07051 17.0936 4.07365 17.3801C3.93038 17.3772 3.8069 17.3724 3.69681 17.3643C3.43814 17.3453 3.31301 17.3113 3.23058 17.2742C2.95206 17.1488 2.72907 16.9258 2.60372 16.6473C2.56662 16.5649 2.5326 16.4398 2.5136 16.1811C2.49406 15.9149 2.49359 15.5705 2.49359 15.0574V8.90354C2.49359 8.39039 2.49406 8.04598 2.5136 7.77984C2.5326 7.52116 2.56662 7.39603 2.60372 7.3136C2.72907 7.03508 2.95206 6.81209 3.23058 6.68674C3.31301 6.64964 3.43814 6.61562 3.69681 6.59663ZM6.79904 3.74493C6.99655 3.64429 7.25732 3.57516 7.71119 3.53808C8.17383 3.50028 8.76806 3.4997 9.62051 3.4997H14.3795C15.2319 3.4997 15.8262 3.50028 16.2888 3.53808C16.7427 3.57516 17.0035 3.64429 17.201 3.74493C17.6243 3.96065 17.9685 4.30485 18.1843 4.72822C18.2849 4.92573 18.354 5.1865 18.3911 5.64038C18.4289 6.10301 18.4295 6.69724 18.4295 7.5497V16.4112C18.4295 17.2637 18.4289 17.8579 18.3911 18.3206C18.354 18.7744 18.2849 19.0352 18.1843 19.2327C17.9685 19.6561 17.6243 20.0003 17.201 20.216C17.0035 20.3166 16.7427 20.3858 16.2888 20.4229C15.8262 20.4606 15.2319 20.4612 14.3795 20.4612H9.62051C8.76806 20.4612 8.17383 20.4606 7.71119 20.4229C7.25732 20.3858 6.99655 20.3166 6.79904 20.216C6.37567 20.0003 6.03147 19.6561 5.81575 19.2327C5.71511 19.0352 5.64598 18.7744 5.6089 18.3206C5.5711 17.8579 5.57052 17.2637 5.57052 16.4112V7.54969C5.57052 6.69724 5.5711 6.10301 5.6089 5.64038C5.64598 5.1865 5.71511 4.92573 5.81575 4.72822C6.03147 4.30485 6.37567 3.96065 6.79904 3.74493ZM8.92308 6.10226C8.50887 6.10226 8.17308 6.43805 8.17308 6.85226C8.17308 7.26647 8.50887 7.60226 8.92308 7.60226H15.0769C15.4911 7.60226 15.8269 7.26647 15.8269 6.85226C15.8269 6.43805 15.4911 6.10226 15.0769 6.10226H8.92308ZM8.17308 10.9548C8.17308 10.5406 8.50887 10.2048 8.92308 10.2048H13.0256C13.4399 10.2048 13.7756 10.5406 13.7756 10.9548C13.7756 11.369 13.4399 11.7048 13.0256 11.7048H8.92308C8.50887 11.7048 8.17308 11.369 8.17308 10.9548ZM8.92308 14.3074C8.50887 14.3074 8.17308 14.6432 8.17308 15.0574C8.17308 15.4716 8.50887 15.8074 8.92308 15.8074H10.9744C11.3886 15.8074 11.7244 15.4716 11.7244 15.0574C11.7244 14.6432 11.3886 14.3074 10.9744 14.3074H8.92308Z" fill="white"/>
</svg>
