<svg width="24" height="24" viewBox="0 0 24 24" fill="none" xmlns="http://www.w3.org/2000/svg">
<path d="M21.5019 8.3693V13.7563C21.5022 14.3304 21.3894 14.8989 21.1699 15.4294C20.9503 15.9599 20.6284 16.4419 20.2225 16.8478C19.8167 17.2538 19.3347 17.5759 18.8043 17.7955C18.2739 18.0152 17.7054 18.1282 17.1314 18.128H15.1661L12.7625 20.5316C12.6969 20.6011 12.6179 20.6564 12.5302 20.6942C12.4425 20.732 12.348 20.7515 12.2525 20.7515C12.1571 20.7515 12.0626 20.732 11.9749 20.6942C11.8872 20.6564 11.8082 20.6011 11.7426 20.5316L9.33901 18.128H7.37153C6.79748 18.128 6.22906 18.0149 5.69873 17.7952C5.16839 17.5755 4.68653 17.2535 4.28067 16.8475C3.87481 16.4416 3.5529 15.9596 3.33332 15.4292C3.11374 14.8988 3.0008 14.3304 3.00095 13.7563V8.3693C3.00095 7.21015 3.46142 6.09848 4.28106 5.27883C5.1007 4.45919 6.21238 3.99872 7.37153 3.99872H17.1303C18.2894 3.99872 19.4011 4.45919 20.2207 5.27883C21.0404 6.09848 21.5019 7.21015 21.5019 8.3693Z" stroke="white" stroke-width="1.5" stroke-linecap="round" stroke-linejoin="round"/>
<path d="M12.4891 14.4357L12.4891 10.6404" stroke="white" stroke-width="1.5" stroke-linecap="round" stroke-linejoin="round"/>
<path d="M12.4891 7.79401H12.4948" stroke="white" stroke-width="2" stroke-linecap="round" stroke-linejoin="round"/>
</svg>
