<svg width="24" height="24" viewBox="0 0 24 24" fill="none" xmlns="http://www.w3.org/2000/svg">
<path d="M21.502 8.36931V13.7564C21.5022 14.3304 21.3894 14.899 21.1699 15.4294C20.9503 15.9599 20.6284 16.4419 20.2226 16.8479C19.8167 17.2538 19.3347 17.5759 18.8043 17.7955C18.2739 18.0152 17.7055 18.1282 17.1314 18.128H15.1661L12.7625 20.5316C12.6969 20.6011 12.6179 20.6564 12.5302 20.6942C12.4425 20.732 12.348 20.7515 12.2526 20.7515C12.1571 20.7515 12.0626 20.732 11.9749 20.6942C11.8872 20.6564 11.8082 20.6011 11.7426 20.5316L9.33902 18.128H7.37154C6.79749 18.128 6.22907 18.015 5.69873 17.7952C5.1684 17.5755 4.68654 17.2535 4.28068 16.8475C3.87482 16.4416 3.55291 15.9596 3.33333 15.4292C3.11375 14.8988 3.00081 14.3304 3.00095 13.7564V8.36931C3.00095 7.21016 3.46142 6.09848 4.28107 5.27884C5.10071 4.4592 6.21239 3.99873 7.37154 3.99873H17.1303C18.2894 3.99873 19.4011 4.4592 20.2207 5.27884C21.0404 6.09848 21.502 7.21016 21.502 8.36931Z" stroke="#443625" stroke-width="1.5" stroke-linecap="round" stroke-linejoin="round"/>
<path d="M12.4891 14.4357L12.4891 10.6404" stroke="#443625" stroke-width="1.5" stroke-linecap="round" stroke-linejoin="round"/>
<path d="M12.4891 7.794H12.4948" stroke="#443625" stroke-width="2" stroke-linecap="round" stroke-linejoin="round"/>
</svg>
