<?xml version="1.0" encoding="utf-8"?>
<!-- Generator: Adobe Illustrator 27.8.1, SVG Export Plug-In . SVG Version: 6.00 Build 0)  -->
<svg version="1.1" id="レイヤー_1" xmlns="http://www.w3.org/2000/svg" xmlns:xlink="http://www.w3.org/1999/xlink" x="0px"
	 y="0px" width="160px" height="70px" viewBox="0 0 160 70" style="enable-background:new 0 0 160 70;" xml:space="preserve">
<g>
	<g>
		<g>
			<g>
				<path d="M25.377,32.367c0.873,0,1.745-0.097,2.568-0.436c0.387-0.145,0.92-0.048,1.114,0.339
					c0.097,0.243,0.194,0.533-0.097,0.678c-0.824,0.388-1.696,0.29-2.617,0.436c-0.291,0.049-0.581,0-0.872-0.097
					c-0.388-0.145-0.727-0.533-0.727-0.969C24.941,32.367,25.184,32.367,25.377,32.367z M23.924,34.063
					c-0.291,0.436,0.048,0.872,0.339,1.211c0.291,0.339,0.727,0.484,1.163,0.339c0.872-0.388,1.793-0.679,2.762-0.727
					c0.049,0,0.097,0.048,0.097,0.097c-0.581,2.035-2.229,3.391-3.924,4.409c2.616-0.145,4.603-2.084,5.814-4.312
					c0.048-0.097,0.145-0.145,0.242-0.194c0-0.049,0-0.097,0-0.146c-0.436-0.436-0.824-0.872-1.357-1.066
					c-0.436,0.29-0.92,0.442-1.454,0.485C26.395,34.257,24.99,34.935,23.924,34.063z"/>
				<path d="M33.227,35.128c1.895,0,3.779-0.145,5.669-0.097c0.242,0,0.533,0,0.678,0.243c0.291,0.678-0.533,1.066-1.066,1.114
					c-1.792,0.049-3.537-0.097-5.33,0.097c-0.194,0-0.339,0.242-0.533,0.097c-0.436-0.242-0.872-0.63-1.066-1.114
					c-0.097-0.291,0.048-0.727,0.243-0.824c0.194-0.097,0.387,0.387,0.727,0.436C32.791,35.08,32.984,35.128,33.227,35.128z"/>
				<path d="M42.772,34.984c-0.364-0.364-0.824-0.679-1.308-0.824c0.097-0.097,0.194-0.049,0.291-0.049
					c0.678,0.097,1.308,0.291,1.938,0.436c0.339-0.436,0.629-0.872,0.775-1.357c0.145-0.387-0.097-0.775-0.484-0.969
					c0,0,0-0.097,0-0.145c0.145-0.097,0.339-0.145,0.533-0.097c0.727,0.242,1.696,0.727,1.696,1.55c0,0.145-0.291,0.242-0.388,0.388
					c-0.29,0.484-0.678,0.872-0.872,1.405c0.436,0.436,0.823,0.969,0.92,1.599c0.049,0.436-0.145,1.017-0.678,0.969
					c-0.727-0.049-0.824-0.872-1.26-1.357c-0.048,0-0.097,0-0.145,0c-1.163,1.211-2.519,2.132-4.118,2.568
					c1.26-1.114,2.616-2.18,3.391-3.682C43.159,35.226,42.917,35.128,42.772,34.984z"/>
				<path d="M48.101,37.164c0-0.194-0.048-0.63,0.194-0.485c0.242,0.145,0.29,0.63,0.63,0.582c1.259-0.146,2.229-1.018,3.343-1.745
					c0.484-0.339,0.872-0.629,1.308-1.017c0.63-0.436,1.066-1.018,1.647-1.453c-1.26,2.374-3.198,4.263-5.378,5.814
					c-0.581,0.049-1.017-0.436-1.405-0.823C48.246,37.794,48.101,37.503,48.101,37.164z M50.912,33.675
					c-0.34-1.115-1.744-1.115-2.762-0.969c0.096,0.242,0.388,0.339,0.581,0.484c0.388,0.339,0.582,0.775,0.872,1.212
					c0.145,0.194,0.287,0.355,0.484,0.387C50.669,34.887,51.105,34.208,50.912,33.675z"/>
			</g>
			<g>
				<path d="M64.526,27.667c-0.017-0.339-0.048-0.629-0.145-0.92c-0.194-0.485-0.727-0.582-1.066-0.969
					c0-0.049-0.049-0.146,0.049-0.194c1.114-0.194,2.083,0.242,3.052,0.727c0.872,0.388,1.938,0.969,2.083,1.987
					c0.145,1.259-0.872,2.277-1.308,3.439c0,0,0.048,0.097,0.096,0.097c1.696,0,3.344-0.048,5.039-0.242
					c0.533-0.048,0.969-0.629,1.453-0.436c0.969,0.387,2.132,0.872,2.471,1.938c0.145,0.387-0.291,0.63-0.63,0.727
					c-0.678,0.097-1.308,0.097-1.987,0c-4.36-0.679-8.576-0.097-12.743,1.163c-0.533,0.145-0.969-0.243-1.405-0.533
					c-0.824-0.436-1.696-0.775-2.471-1.357c0.727-0.291,1.453-0.291,2.229-0.437c2.035-0.291,3.973-0.339,5.911-0.727
					c-0.049-0.484-0.388-0.921-0.436-1.405C64.526,29.557,64.575,28.636,64.526,27.667z M61.62,36.776
					c-0.097,0-0.146,0.194-0.097,0.291c0.097,0.291,0.484,0.63,0.339,0.921c-1.211,2.325-2.664,4.506-4.651,6.25
					c1.163,0.097,2.326-0.291,3.343-0.872c0.824-0.485,1.55-1.018,2.229-1.647c0.872-0.824,1.744-1.647,2.229-2.713
					c-0.097-0.873-1.006-1.334-1.696-1.647C62.782,37.115,62.25,36.776,61.62,36.776z M71.31,42.687
					c0.63,0.921,1.55,2.229,2.665,1.696c1.066-0.485,0.969-1.987,0.533-2.908c-0.242-0.387-0.484-0.775-0.775-1.114
					c-0.582-0.582-1.211-1.066-1.938-1.55c-0.581-0.388-1.066-0.727-1.647-1.018c-0.775-0.436-1.454-1.018-2.277-1.308
					c0.048,0.63,0.519,1.122,0.824,1.696C69.517,39.732,70.244,41.185,71.31,42.687z"/>
				<path d="M85.361,27.086c0.668-0.546,1.453-0.92,1.841-1.696c0.145-0.242-0.436-0.533-0.63-0.824
					c0.775-0.048,1.502-0.339,2.277-0.194c0.194,0.049,0.339,0.194,0.533,0.291c0.727,0.533,1.26,1.163,1.841,1.793
					c0.097,0.097,0.484,0.146,0.727,0.049c0.242-0.145,0.242-0.485,0.533-0.581c0.145-0.048,0.291-0.048,0.436,0
					c0.242,0.145,0.339,0.388,0.533,0.533c0.678,0.436,1.453,0.727,1.696,1.502c0.097,0.339-0.048,0.678-0.388,0.727
					c-1.114,0.291-2.132,0.581-2.907,1.453c-0.145,0.194-0.533,0.63-0.243,0.678c1.018,0.097,2.035,0.146,3.052-0.145
					c0.339-0.097,0.63-0.533,1.066-0.388c1.066,0.388,2.083,0.872,2.81,1.793c0.194,0.29,0.388,0.581,0.291,0.921
					c-0.145,0.339-0.484,0.484-0.726,0.775c-0.146,0.242-0.194,0.533-0.194,0.824c-0.048,2.519-0.097,5.039-0.097,7.558
					c0,1.115-0.388,2.277-1.308,3.053c-0.388,0.29-0.872,0.484-1.308,0.29c-0.63-0.29-0.872-0.969-1.211-1.551
					c-0.63-1.017-1.502-1.841-2.471-2.471c1.066,0,2.132,0.242,3.246,0.097c0.048-0.049,0.145-0.097,0.194-0.194
					c0.145-0.63,0.048-1.26,0.048-1.89c0-0.048-0.097-0.097-0.097-0.097c-0.581,0.29-1.163,0.533-1.793,0.581
					c-1.308,0.145-2.568-0.194-3.924,0.048c-1.211,0.194-2.277,0.678-3.44,0.727c-0.291,0.049-0.63-0.097-0.921-0.194
					c-0.34-0.146-0.581-0.533-0.921-0.678c-0.436,1.647-0.775,3.537-2.374,4.603c-0.436,0.242-0.92,0.436-1.453,0.388
					c0.63-1.066,0.921-2.229,1.114-3.488c0.339-2.084,0.582-4.118,0.484-6.202c0-1.017-0.145-2.132-0.872-2.907
					c0.388-0.339,0.872-0.339,1.357-0.436c1.986-0.484,3.876-0.63,5.862-0.775c0.775-1.018,1.696-1.89,2.423-2.956
					c-0.339-0.339-0.824-0.872-1.212-0.629c-1.017,0.533-1.793,1.308-2.81,1.938c-1.55,0.92-3.053,1.647-4.749,2.131
					c-1.066,0.339-2.083,0.824-3.198,0.727c-0.049,0-0.194-0.048-0.194-0.145c0.048-0.049,0.048-0.145,0.145-0.194
					c0.194-0.048,0.339-0.097,0.484-0.194C81.242,30.186,83.229,28.83,85.361,27.086z M86.524,32.9
					c-0.862,0.143-1.696,0.29-2.471,0.727c0,0.581,0.049,1.211,0.049,1.793c0,0.048,0.097,0.194,0.145,0.194
					c1.066-0.436,2.277-0.388,3.294-0.921c0.049-0.582-0.145-1.163,0-1.793c0.049-0.097-0.049-0.194-0.097-0.194
					C87.105,32.706,86.815,32.851,86.524,32.9z M90.69,32.076c-0.291,0.043-0.775-0.049-0.92,0.242
					c0.339,0.194,0.533,0.581,0.678,0.92c0.145,0.291,0.145,0.582,0.194,0.921c0,0.193,0.339,0.048,0.484,0
					c0.436-0.146,0.63-0.63,1.163-0.485c0.969,0.242,1.744,0.824,2.665,1.163c0.145-0.727,0.048-1.453,0-2.18
					c0-0.291-0.097-0.678-0.436-0.727C93.21,31.689,91.999,31.882,90.69,32.076z M87.396,37.261c0-0.2,0.194-0.582,0-0.582
					c-1.018-0.097-2.035,0.63-3.053,0.243c-0.049,0-0.194-0.049-0.242,0.049c0,0.629-0.097,1.211-0.097,1.841
					c0,0.048,0.049,0.097,0.097,0.097c1.066-0.097,2.083-0.242,3.149-0.533C87.59,38.278,87.396,37.648,87.396,37.261z
					 M91.127,37.891c0.441-0.074,0.727-0.388,1.066-0.679c0.097-0.048,0.242,0,0.339,0.049c0.824,0.387,1.55,0.775,2.326,1.308
					c0.048,0,0.145,0,0.145-0.048c0-0.969,0.097-1.938,0.049-2.907c0-0.049-0.049-0.097-0.097-0.097
					c-1.502,0.145-3.004,0.291-4.506,0.582c-0.194,0.581-0.243,1.163-0.145,1.744C90.351,38.084,90.836,37.939,91.127,37.891z"/>
				<path d="M110.072,27.425c0.073-0.44,0.048-0.823-0.097-1.212c-0.242-0.629-1.066-0.629-1.55-1.114
					c-0.145-0.194-0.048-0.388,0.145-0.485c0.921-0.484,2.035-0.387,3.004-0.048c0.872,0.291,1.744,0.678,2.277,1.502
					c0.049,0.097,0.049,0.242,0,0.34c-0.29,0.387-0.484,0.872-0.242,1.308c1.26-0.048,2.52,0,3.828-0.29
					c0.243-0.049,0.388-0.339,0.582-0.533c0.969,0.436,1.89,0.969,2.859,1.502c0.436,0.242,0.727,0.678,0.92,1.114
					c0.146,0.436,0.194,0.921-0.145,1.308c-0.194,0.194-0.484,0.194-0.775,0.243c-0.824,0.097-1.551-0.146-2.374-0.049
					c-0.63,0.049-1.163,0.243-1.744,0.34c0.339-0.775,0.727-1.454,1.114-2.229c0-0.048,0.049-0.194-0.048-0.194
					c-1.841-0.048-3.683,0-5.524,0.146c-1.599,0.145-3.004,0.727-4.603,1.066c-1.163,0.242-2.132-0.436-3.149-0.775
					c0,0.823,0.291,1.647,0.194,2.52c-0.146,1.018-0.436,2.278-1.502,2.713c-1.163-0.242-1.502-1.647-1.647-2.665
					c0-0.194,0.048-0.436,0.097-0.63c0.242-0.63,0.824-0.969,1.163-1.502c0.339-0.533,0.291-1.114,0.388-1.696
					c0.049-0.145,0.242,0.097,0.388,0.146c0.145,0.097,0.242,0.34,0.388,0.34c1.938-0.146,3.828-0.436,5.766-0.533
					C110.12,28.055,110.023,27.715,110.072,27.425z M105.565,31.543c0.727,0.63,1.696,0.921,2.374,1.647
					c0.048,0.097,0.048,0.194,0,0.243c-1.453,1.211-3.004,2.132-4.7,2.859c1.114,0.145,2.277,0.049,3.343-0.339
					c1.114-0.484,1.938-1.453,3.053-1.889c0.097-0.049,0.194,0.194,0.097,0.29c-2.277,1.987-4.651,3.634-7.219,5.136
					c0.533,0.097,1.017,0.097,1.55,0c2.616-0.484,4.506-2.035,6.735-3.44c0.049-0.049,0.145,0.291,0.049,0.339
					c-2.955,2.81-6.396,4.7-9.69,6.929c0.921,0.436,1.938,0.097,2.859-0.146c2.519-0.824,4.457-2.326,6.686-3.876
					c0,0,0.097,0.048,0.097,0.097c0,0.872,0.049,1.793-0.242,2.665c-0.775,0.533-1.793,0.097-2.665,0.097
					c0.775,0.679,1.696,1.163,2.374,2.035c0.242,0.388,0.291,0.775,0.533,1.163c0.291,0.436,0.824,0.436,1.211,0.242
					c0.727-0.436,1.114-1.163,1.357-1.938c0.291-1.066,0.194-2.181,0.145-3.247c0-0.339,0-0.727-0.048-1.066
					c0-0.048,0.145-0.145,0.194-0.097c1.357,1.744,2.471,3.44,4.118,4.894c0.339,0.29,0.824,0.29,1.26,0.29
					c1.017,0.097,1.986,0.097,3.004-0.194c0.436-0.097,0.969-0.048,1.163-0.484c0.049-0.146-0.097-0.34-0.291-0.485
					c-2.228-1.502-4.312-2.471-6.541-3.876c-0.921-0.533-1.551-1.405-1.938-2.374c0.678-0.581,1.502-0.92,2.277-1.308
					c0.388-0.194,0.776-0.049,1.211-0.097c0.145-0.049,0.339-0.049,0.485-0.145c0.194-0.145,0.242-0.388,0.242-0.581
					c0-0.921-0.775-1.502-1.502-1.987c-0.484-0.243-1.211-0.727-1.599-0.29c-0.145,0.194,0.388,0.484,0.339,0.775
					c-0.097,0.533-0.581,0.92-0.921,1.357c-0.533,0.581-1.017,1.211-1.744,1.551c-0.291-0.775-0.533-1.551-1.114-2.181
					c-0.388-0.387-0.92-0.581-1.308-0.921c0.339-0.484,0.872-0.727,1.405-0.969c1.017-0.485,2.181,0.291,3.246-0.097
					c0.291-0.145,0.727-0.582,0.485-0.921c-0.581-0.92-1.744-1.066-2.665-1.453c-0.436,0.194-0.775,0.533-1.211,0.678
					c-0.484,0.097-0.92,0.196-1.405,0.291C108.908,31.059,107.261,31.35,105.565,31.543z"/>
			</g>
		</g>
		<path d="M7.834,37.164l-0.199-1.353c0.209-0.01,0.457-0.03,0.756-0.07c0,0.1,0,0.219,0,0.338c-0.179,0.039-0.358,0.07-0.547,0.089
			c-0.06,0.01-0.08,0.03-0.08,0.07c0,0.099,0.05,0.199,0.149,0.288c0.109,0.099,0.239,0.139,0.398,0.139c0.019,0,0.039,0,0.079,0
			c0,0.139,0,0.289,0,0.438C8.172,37.134,7.983,37.154,7.834,37.164z M5.596,33.284c-0.02,0-0.03,0.01-0.03,0.01
			c0.03-0.358,0.07-0.706,0.129-1.044c0.06-0.14,0.09-0.249,0.09-0.318c0-0.169-0.159-0.318-0.458-0.457
			c-0.319-0.159-0.637-0.249-0.935-0.249c-0.08,0-0.12,0.04-0.12,0.12c0.139,0.239,0.229,0.478,0.289,0.726
			c0.04,0.179,0.07,0.716,0.09,1.612c-0.318,0.089-0.726,0.149-1.234,0.189c-0.06,0-0.079,0.03-0.079,0.08
			c0,0.07,0.05,0.189,0.159,0.348c0.139,0.259,0.428,0.388,0.876,0.388c-0.199,0.667-0.418,1.214-0.637,1.641
			c-0.259,0.488-0.527,0.916-0.826,1.274c0,0.03,0.02,0.04,0.08,0.04c0.099,0,0.219-0.04,0.358-0.119
			c0.308-0.189,0.567-0.398,0.786-0.627c0.159-0.169,0.328-0.388,0.507-0.657c-0.02,0.438-0.06,0.776-0.11,1.025
			c-0.06,0.488-0.139,0.955-0.219,1.393c0,0.219,0.049,0.438,0.149,0.657c0.119,0.278,0.259,0.427,0.428,0.427
			c0.149,0,0.289-0.119,0.408-0.338c0.119-0.238,0.179-0.408,0.179-0.517v-2.825c0.08,0.169,0.149,0.278,0.189,0.338
			c0.139,0.139,0.259,0.199,0.358,0.199c0.119,0,0.229-0.049,0.309-0.149c0.079-0.12,0.119-0.239,0.119-0.358
			c0-0.139-0.04-0.259-0.109-0.378c-0.09-0.129-0.268-0.278-0.537-0.438c-0.11-0.05-0.219-0.099-0.328-0.15
			c0-0.239,0-0.467,0.01-0.696c0.189-0.06,0.378-0.13,0.577-0.209c0.06-0.02,0.109-0.079,0.149-0.189
			c0.02-0.08,0.04-0.169,0.04-0.279c0-0.099-0.099-0.219-0.298-0.358C5.774,33.324,5.655,33.284,5.596,33.284z M10.679,32.01
			c-0.08,0-0.169,0.02-0.249,0.06c-0.02,0-0.03,0.01-0.03,0.01c0-0.03,0.01-0.06,0.03-0.089c0.02-0.08,0.05-0.159,0.11-0.219
			c0.069-0.05,0.109-0.1,0.109-0.159c0-0.12-0.189-0.249-0.547-0.388c-0.229-0.099-0.478-0.149-0.736-0.149
			c-0.159,0-0.239,0.03-0.239,0.08c0,0.05,0.01,0.11,0.039,0.179c0.08,0.289,0.12,0.537,0.12,0.746c0,0.08-0.01,0.179-0.02,0.298
			c-0.04,0.02-0.08,0.03-0.109,0.03c-0.219,0.04-0.468,0.08-0.746,0.109c0-0.238,0.02-0.408,0.06-0.497c0-0.04,0-0.089,0-0.129
			c0-0.099-0.179-0.219-0.517-0.338c-0.239-0.11-0.478-0.169-0.726-0.169c-0.139,0-0.199,0.08-0.199,0.229
			c0,0.05,0.029,0.099,0.089,0.159c0.06,0.06,0.11,0.149,0.159,0.248c0.03,0.099,0.06,0.299,0.099,0.597
			c-0.239,0.02-0.497,0.04-0.776,0.049c-0.06,0-0.08,0.02-0.08,0.04c0,0.07,0.05,0.179,0.149,0.328
			c0.119,0.239,0.388,0.368,0.786,0.368c0.02,0.219,0.04,0.458,0.07,0.717c-0.477,0.08-0.995,0.149-1.542,0.219
			c-0.06,0-0.08,0.03-0.08,0.08c0,0.099,0.08,0.219,0.239,0.358c0.179,0.18,0.329,0.259,0.458,0.259c0.06,0,0.189-0.02,0.388-0.079
			c0.418-0.1,0.806-0.189,1.184-0.249c0,0.01,0.01,0.02,0.03,0.03c0.04,0.07,0.089,0.159,0.139,0.279c0,0.04,0.01,0.089,0.02,0.149
			c-0.378,0.059-0.726,0.11-1.064,0.129c-0.04-0.01-0.07-0.019-0.099-0.04c-0.249-0.06-0.457-0.099-0.637-0.099
			c-0.129,0-0.189,0.08-0.189,0.229c0.1,0.08,0.179,0.199,0.249,0.358c0.08,0.189,0.159,0.438,0.219,0.746
			c0.06,0.507,0.129,0.866,0.229,1.074c0,0.08,0.049,0.169,0.149,0.279c0.099,0.129,0.219,0.189,0.358,0.189
			c0.139,0,0.239-0.089,0.279-0.268c0.149-0.01,0.428-0.04,0.826-0.08c0.438-0.04,0.875-0.06,1.313-0.08
			c0.02,0.04,0.05,0.07,0.07,0.099c0.06,0.1,0.129,0.14,0.229,0.14c0.099,0,0.229-0.03,0.368-0.1
			c0.179-0.12,0.298-0.269,0.378-0.448c0.139-0.358,0.249-0.666,0.318-0.945c0.09-0.219,0.209-0.418,0.358-0.577
			c0.039-0.04,0.06-0.07,0.06-0.11c0-0.119-0.239-0.318-0.696-0.597c-0.388-0.199-0.647-0.298-0.786-0.298
			c-0.258,0.06-0.507,0.119-0.746,0.169c0-0.03,0.01-0.06,0.01-0.09c0-0.079-0.119-0.179-0.358-0.279
			c0.895-0.099,1.84-0.149,2.845-0.149c0.1,0,0.159-0.11,0.159-0.348c0-0.199-0.089-0.348-0.269-0.467
			c-0.199-0.129-0.378-0.199-0.547-0.199c-0.159,0-0.328,0.02-0.507,0.06c-0.318,0.08-0.637,0.159-0.955,0.219
			c0.06-0.199,0.129-0.408,0.189-0.627c0.338-0.06,0.667-0.12,0.995-0.199c0.06-0.02,0.119-0.07,0.159-0.169
			c0.02-0.07,0.04-0.16,0.04-0.259c0-0.089-0.1-0.199-0.279-0.328C10.868,32.04,10.749,32.01,10.679,32.01z M9.306,36.994
			c0-0.139,0.01-0.288,0.03-0.428c0.199-0.02,0.408-0.06,0.627-0.099c0.06,0,0.099-0.03,0.099-0.07c0-0.329-0.229-0.498-0.676-0.508
			c0.01-0.109,0.02-0.209,0.04-0.308c0.199-0.03,0.408-0.07,0.636-0.12c0.119,0,0.189,0.099,0.189,0.279
			c0,0.169-0.02,0.358-0.05,0.557c-0.03,0.219-0.07,0.428-0.129,0.647c-0.06-0.02-0.129-0.04-0.209-0.04
			c-0.06,0-0.129,0.01-0.199,0.03C9.555,36.955,9.435,36.975,9.306,36.994z M8.421,33.97c-0.01-0.229-0.02-0.448-0.02-0.646
			c0.11-0.01,0.229-0.03,0.368-0.06c0.12-0.009,0.249-0.03,0.388-0.049c-0.04,0.199-0.07,0.408-0.099,0.646
			c-0.139,0.03-0.279,0.06-0.418,0.079C8.56,33.96,8.491,33.97,8.421,33.97z M7.536,38.108c-0.11,0-0.159,0.03-0.159,0.08
			c0,0.139-0.02,0.229-0.06,0.288c-0.099,0.229-0.268,0.468-0.498,0.746c-0.179,0.209-0.368,0.408-0.567,0.597
			c0,0.02,0.02,0.04,0.08,0.04c0.049,0,0.109-0.02,0.189-0.04c0.268-0.08,0.498-0.149,0.686-0.229
			c0.318-0.139,0.657-0.338,1.025-0.587c0.189-0.139,0.358-0.239,0.507-0.308c0.05-0.02,0.08-0.04,0.08-0.079
			c0-0.14-0.189-0.259-0.557-0.368C7.864,38.158,7.625,38.108,7.536,38.108z M9.555,37.989c-0.04,0-0.07,0.03-0.079,0.08
			c0,0.04,0.03,0.09,0.109,0.159c0.498,0.676,0.895,1.114,1.194,1.323c0.13,0.119,0.269,0.189,0.408,0.189
			c0.139,0,0.288-0.06,0.438-0.159c0.12-0.119,0.189-0.229,0.189-0.348c0-0.319-0.119-0.547-0.358-0.707
			c-0.299-0.169-0.726-0.318-1.283-0.458C9.933,38.019,9.734,37.989,9.555,37.989z"/>
		<path d="M17.742,36.119c-0.02-0.498-0.03-0.935-0.03-1.313c0.01,0,0.02,0,0.04,0c0.258,0,0.527-0.01,0.826-0.04
			c0.02,0.04,0.04,0.099,0.06,0.159c0.01,0.119-0.01,0.477-0.07,1.074c-0.239,0.04-0.478,0.07-0.726,0.1
			C17.802,36.109,17.772,36.119,17.742,36.119z M14.34,31.652c-0.07,0-0.109,0.04-0.119,0.12c0,0.03,0.01,0.07,0.049,0.129
			c0.259,0.557,0.468,0.915,0.627,1.085c0.07,0.099,0.139,0.149,0.219,0.149c0.189,0,0.388-0.07,0.587-0.219
			c0.179-0.159,0.269-0.319,0.269-0.488c0-0.189-0.09-0.338-0.259-0.438c-0.219-0.109-0.527-0.209-0.935-0.288
			C14.608,31.672,14.459,31.652,14.34,31.652z M13.594,33.682c-0.06,0-0.099,0.04-0.109,0.11c0,0.03,0.01,0.07,0.05,0.13
			c0.249,0.537,0.448,0.885,0.597,1.044c0.06,0.1,0.129,0.149,0.209,0.149c0.189,0,0.388-0.07,0.587-0.208
			c0.169-0.159,0.259-0.329,0.259-0.488c0-0.179-0.089-0.328-0.248-0.427c-0.209-0.1-0.507-0.189-0.905-0.269
			C13.862,33.701,13.713,33.682,13.594,33.682z M15.613,35.274c-0.039,0.01-0.06,0.019-0.069,0.039
			c-0.756,0.856-1.264,1.383-1.522,1.602c-0.12,0.119-0.299,0.228-0.537,0.338c-0.11,0.07-0.159,0.189-0.159,0.348
			c0,0.219,0.1,0.607,0.319,1.174c0.209,0.438,0.388,0.657,0.537,0.657c0.11,0,0.209-0.179,0.298-0.537
			c0.04-0.229,0.099-0.448,0.159-0.647c0.08-0.259,0.279-0.806,0.597-1.622c0.04,0.08,0.099,0.169,0.199,0.279
			c0.219,0.238,0.418,0.348,0.607,0.348c0.1,0,0.209-0.02,0.318-0.07c0.467-0.119,0.955-0.219,1.452-0.278
			c0.587-0.08,1.343-0.119,2.278-0.119c0.199,0,0.448,0.03,0.746,0.079c0.477,0.06,0.806,0.08,1.005,0.08s0.308-0.129,0.308-0.388
			c0-0.219-0.139-0.448-0.408-0.676c-0.308-0.169-0.577-0.259-0.796-0.259c-0.04,0-0.08,0.01-0.139,0.02
			c-0.318,0.06-0.686,0.129-1.124,0.199c0.179-0.448,0.298-0.717,0.368-0.806c0.01-0.02,0.02-0.05,0.04-0.079
			c0-0.089-0.139-0.189-0.418-0.298c0.298-0.03,0.567-0.05,0.806-0.07c0.338-0.02,0.507-0.099,0.507-0.249
			c0-0.438-0.269-0.667-0.786-0.696c-0.159,0-0.457,0.06-0.895,0.169c-0.478,0.14-1.005,0.269-1.592,0.388
			c0.01-0.378,0.04-0.637,0.08-0.766c0-0.07,0-0.13,0-0.179c0-0.04-0.02-0.09-0.06-0.13c0.329-0.05,0.806-0.149,1.423-0.299
			c0.318-0.079,0.567-0.129,0.756-0.169c0.129-0.01,0.408-0.07,0.826-0.179c0.11-0.02,0.169-0.06,0.169-0.12
			c0-0.159-0.239-0.368-0.707-0.607c-0.617-0.238-1.005-0.368-1.164-0.368c-0.08,0-0.109,0.06-0.109,0.159
			c-0.07,0.179-0.149,0.318-0.229,0.418c-0.149,0.199-0.348,0.358-0.587,0.497c-0.229,0.139-0.498,0.279-0.806,0.418
			c-0.06-0.02-0.11-0.04-0.169-0.06c-0.298-0.149-0.617-0.229-0.935-0.229c-0.159,0-0.229,0.089-0.229,0.268
			c0,0.06,0.04,0.139,0.119,0.219c0.08,0.09,0.149,0.209,0.219,0.348c0.079,0.269,0.179,1.214,0.299,2.826
			c-0.577,0.069-0.995,0.109-1.273,0.109c0.06-0.159,0.119-0.338,0.199-0.527c0.079-0.209,0.119-0.358,0.119-0.448
			C15.653,35.323,15.633,35.293,15.613,35.274z M16.936,37.333c-0.099,0-0.149,0.03-0.149,0.08c0,0.179-0.03,0.298-0.07,0.368
			c-0.12,0.288-0.308,0.607-0.567,0.955c-0.199,0.279-0.417,0.537-0.647,0.776c0,0.02,0.02,0.04,0.08,0.04
			c0.05,0,0.119-0.02,0.209-0.06c0.298-0.099,0.557-0.199,0.756-0.299c0.348-0.199,0.726-0.458,1.144-0.796
			c0.199-0.179,0.388-0.318,0.557-0.418c0.06-0.02,0.089-0.06,0.089-0.109c0-0.14-0.209-0.279-0.607-0.398
			C17.304,37.383,17.036,37.333,16.936,37.333z M19.274,37.293c-0.06,0-0.08,0.04-0.08,0.12c0,0.04,0.01,0.09,0.04,0.13
			c0.597,0.746,1.035,1.323,1.303,1.741c0.06,0.099,0.11,0.169,0.149,0.209c0.02,0.04,0.06,0.06,0.099,0.06
			c0.597,0,0.896-0.318,0.896-0.935c0-0.08-0.07-0.159-0.189-0.259c-0.149-0.12-0.338-0.239-0.567-0.368
			c-0.378-0.189-0.885-0.408-1.512-0.666C19.354,37.303,19.314,37.293,19.274,37.293z"/>
	</g>
	<g>
		<path d="M127.666,36.382c0.021,0,0.164-0.004,0.429-0.012l0.202,0.006l0.397,0.006c0.017,0.13,0.025,0.226,0.025,0.287
			c0,0.02-0.002,0.084-0.006,0.189c-0.004,0.057-0.009,0.275-0.013,0.654l-0.013,0.923l0.006,0.581l-0.044,4.128v0.348
			c0,0.122,0.029,0.21,0.088,0.263c0.059,0.053,0.216,0.098,0.473,0.134c0.101,0.012,0.303,0.045,0.605,0.098
			c0.008,0.041,0.013,0.079,0.013,0.116c0,0.045-0.004,0.143-0.013,0.293h-0.271c-0.185,0-0.454-0.008-0.807-0.024
			c-0.214-0.012-0.362-0.019-0.441-0.019c-0.101,0-0.473,0.01-1.116,0.031c-0.072,0.004-0.13,0.006-0.177,0.006h-0.114l-0.183-0.012
			l-0.17,0.012l-0.315-0.012c-0.042,0-0.128,0.006-0.259,0.018c-0.008-0.09-0.013-0.159-0.013-0.208
			c0-0.045,0.004-0.112,0.013-0.202c0.168-0.045,0.364-0.09,0.586-0.135c0.307-0.061,0.495-0.121,0.564-0.18
			c0.069-0.059,0.104-0.138,0.104-0.236l-0.006-0.416l0.025-0.452l-0.006-0.93l-0.006-0.238c0-0.033,0.004-0.155,0.013-0.367
			c0.008-0.11,0.013-0.208,0.013-0.293c0-0.053-0.006-0.218-0.019-0.495l0.025-0.348c-0.017-0.265-0.025-0.422-0.025-0.471
			c0-0.061,0.002-0.122,0.006-0.184l0.013-0.153l-0.019-0.416l0.019-0.19c0.004-0.086,0.006-0.199,0.006-0.342
			c0-0.138-0.002-0.308-0.006-0.507c-0.299,0.216-0.639,0.432-1.021,0.648c-0.042,0.025-0.231,0.108-0.567,0.251
			c-0.135-0.196-0.221-0.342-0.259-0.44c0.445-0.224,0.748-0.389,0.908-0.495c0.265-0.18,0.551-0.404,0.858-0.673
			C127.298,36.808,127.464,36.626,127.666,36.382z"/>
		<path d="M132.103,44.612c-0.067-0.077-0.101-0.153-0.101-0.226c0-0.069,0.021-0.124,0.063-0.165
			c0.021-0.029,0.143-0.084,0.366-0.165c0.438-0.163,0.815-0.36,1.131-0.59c0.316-0.23,0.581-0.509,0.796-0.838
			c0.215-0.328,0.367-0.683,0.458-1.064c0.091-0.381,0.14-0.682,0.149-0.902c0.004-0.073,0.023-0.251,0.057-0.532
			c0.025-0.208,0.038-0.459,0.038-0.752c0-1.04-0.131-1.753-0.392-2.141c-0.198-0.289-0.443-0.434-0.733-0.434
			c-0.27,0-0.499,0.124-0.689,0.373c-0.257,0.339-0.386,0.822-0.386,1.449c0,0.387,0.025,0.75,0.076,1.089
			c0.034,0.224,0.11,0.43,0.228,0.618c0.076,0.122,0.148,0.202,0.215,0.239c0.165,0.077,0.329,0.116,0.494,0.116
			c0.106,0,0.215-0.016,0.329-0.049l0.095-0.018c0.051,0,0.097,0.024,0.139,0.07c0.042,0.047,0.063,0.115,0.063,0.205
			c0,0.155-0.063,0.255-0.189,0.3c-0.269,0.098-0.563,0.147-0.878,0.147c-0.198,0-0.322-0.008-0.373-0.024
			c-0.396-0.139-0.642-0.243-0.739-0.312c-0.244-0.171-0.431-0.345-0.559-0.523c-0.128-0.177-0.224-0.38-0.287-0.608
			c-0.08-0.302-0.12-0.605-0.12-0.911c0-0.485,0.112-0.935,0.337-1.348c0.225-0.414,0.534-0.725,0.927-0.933
			c0.393-0.208,0.814-0.312,1.264-0.312c0.798,0,1.464,0.296,1.995,0.887c0.532,0.591,0.797,1.445,0.797,2.562
			c0,0.551-0.109,1.137-0.328,1.761c-0.054,0.155-0.208,0.445-0.46,0.871c-0.252,0.426-0.593,0.813-1.021,1.162
			c-0.428,0.348-0.88,0.604-1.355,0.767c-0.475,0.163-0.864,0.245-1.166,0.245C132.288,44.625,132.209,44.621,132.103,44.612z"/>
		<path d="M138.414,44.612c-0.067-0.077-0.101-0.153-0.101-0.226c0-0.069,0.021-0.124,0.063-0.165
			c0.021-0.029,0.143-0.084,0.366-0.165c0.438-0.163,0.815-0.36,1.131-0.59c0.316-0.23,0.581-0.509,0.796-0.838
			c0.215-0.328,0.367-0.683,0.458-1.064c0.091-0.381,0.14-0.682,0.149-0.902c0.004-0.073,0.023-0.251,0.057-0.532
			c0.025-0.208,0.038-0.459,0.038-0.752c0-1.04-0.131-1.753-0.392-2.141c-0.198-0.289-0.443-0.434-0.733-0.434
			c-0.27,0-0.499,0.124-0.689,0.373c-0.257,0.339-0.386,0.822-0.386,1.449c0,0.387,0.025,0.75,0.076,1.089
			c0.034,0.224,0.11,0.43,0.228,0.618c0.076,0.122,0.148,0.202,0.215,0.239c0.165,0.077,0.329,0.116,0.494,0.116
			c0.106,0,0.215-0.016,0.329-0.049l0.095-0.018c0.051,0,0.097,0.024,0.139,0.07c0.042,0.047,0.063,0.115,0.063,0.205
			c0,0.155-0.063,0.255-0.189,0.3c-0.269,0.098-0.563,0.147-0.878,0.147c-0.198,0-0.322-0.008-0.373-0.024
			c-0.396-0.139-0.642-0.243-0.739-0.312c-0.244-0.171-0.431-0.345-0.559-0.523c-0.128-0.177-0.224-0.38-0.287-0.608
			c-0.08-0.302-0.12-0.605-0.12-0.911c0-0.485,0.112-0.935,0.337-1.348c0.225-0.414,0.534-0.725,0.927-0.933
			c0.393-0.208,0.814-0.312,1.264-0.312c0.798,0,1.464,0.296,1.995,0.887c0.532,0.591,0.797,1.445,0.797,2.562
			c0,0.551-0.109,1.137-0.328,1.761c-0.054,0.155-0.208,0.445-0.46,0.871c-0.252,0.426-0.593,0.813-1.021,1.162
			c-0.428,0.348-0.88,0.604-1.355,0.767c-0.475,0.163-0.864,0.245-1.166,0.245C138.598,44.625,138.519,44.621,138.414,44.612z"/>
		<path d="M149.338,41.481v1.027c-0.229,0.008-0.41,0.012-0.541,0.012c-0.123,0-0.28-0.004-0.471-0.012
			c-0.001,0.098-0.002,0.157-0.002,0.177l-0.005,0.367l-0.005,0.392l0.021,0.269c-0.001,0.049-0.006,0.171-0.018,0.367
			c-0.01,0.11-0.016,0.275-0.019,0.495l-0.542-0.006h-0.334c-0.088,0-0.155-0.002-0.201-0.006l-0.107-0.012
			c-0.03,0-0.076,0.008-0.139,0.025l0.013-1.186l-0.032-0.764c0-0.021,0.006-0.059,0.019-0.116
			c-0.202,0.004-0.502,0.008-0.902,0.012h-0.416c-0.357,0-0.755-0.008-1.192-0.023c-0.138-0.005-0.229-0.008-0.271-0.008
			c-0.063,0-0.16,0.006-0.29,0.019l-0.013-0.085l0.019-0.419l-0.013-0.134l0.019-0.249l-0.013-0.049
			c0.197-0.365,0.323-0.587,0.377-0.665l1.441-2.15c0.324-0.464,0.582-0.817,0.774-1.06c0.192-0.242,0.326-0.422,0.401-0.541
			c0.118-0.183,0.221-0.328,0.31-0.433c0.13-0.159,0.215-0.271,0.253-0.336c0.248-0.012,0.404-0.018,0.467-0.018
			c0.08,0,0.229,0.006,0.448,0.018l0.013,0.073l-0.025,0.453l0.013,0.159l-0.019,0.251l0.013,0.251l-0.013,0.605l-0.006,0.263
			l0.006,0.342l-0.006,0.318l0.006,0.434l-0.006,0.416l0.006,0.483l-0.014,1.046c0.146,0,0.328,0.004,0.546,0.012h0.151
			C149.104,41.494,149.205,41.49,149.338,41.481z M146.974,41.469c0.025-0.204,0.038-0.356,0.038-0.458
			c0-0.041-0.003-0.117-0.01-0.229c-0.006-0.112-0.009-0.184-0.009-0.217l0.019-0.477L147,39.678l0.019-1.058l-0.006-0.483
			c0-0.04,0.004-0.136,0.013-0.287c-0.034,0.049-0.093,0.122-0.177,0.22c-0.059,0.094-0.107,0.163-0.145,0.208
			c-0.164,0.196-0.347,0.438-0.549,0.727l-0.568,0.88c-0.055,0.082-0.115,0.178-0.183,0.287c-0.113,0.179-0.249,0.385-0.407,0.618
			c-0.158,0.232-0.289,0.458-0.394,0.678c0.126-0.016,0.212-0.024,0.259-0.024l0.303,0.012h0.605l0.845,0.012H146.974z"/>
		<path d="M150.907,40.194h2.64v-2.652h0.891v2.652h2.652v0.891h-2.652v2.629h-0.891v-2.629h-2.64V40.194z"/>
	</g>
</g>
</svg>
