<?xml version="1.0" encoding="utf-8"?>
<!-- Generator: Adobe Illustrator 26.3.1, SVG Export Plug-In . SVG Version: 6.00 Build 0)  -->
<svg version="1.1" id="レイヤー_1" xmlns="http://www.w3.org/2000/svg" xmlns:xlink="http://www.w3.org/1999/xlink" x="0px"
	 y="0px" width="160px" height="70px" viewBox="0 0 160 70" style="enable-background:new 0 0 160 70;" xml:space="preserve">
<g id="レイヤー_2_00000065059932884742194240000005820148525703949714_">
	<g id="レイヤー_1-2">
		<path d="M7.718,9.766l-0.895,1.712c0.616-0.026,1.284-0.073,1.973-0.124l-0.608-0.835l0.766-0.522
			c0.529,0.622,1.017,1.277,1.464,1.96l-0.796,0.522l-0.355-0.475l-4.383,0.561L4.64,11.516h1.151
			c0.317-0.677,0.596-1.371,0.835-2.08L7.718,9.766z M5.732,12.86h4.045v4.186c0.026,0.263-0.053,0.526-0.218,0.732
			c-0.111,0.158-0.556,0.291-1.348,0.402c-0.075-0.365-0.208-0.716-0.394-1.04h0.762c0.086,0,0.133-0.034,0.133-0.133v-0.586H6.25
			v1.524H5.21V12.86H5.732z M8.728,15.659V15H6.25v0.655L8.728,15.659z M8.728,14.285v-0.625H6.25v0.621L8.728,14.285z
			 M11.886,9.667v1.194c0.873-0.218,1.73-0.491,2.568-0.817l0.621,0.912c-1.19,0.368-2.243,0.633-3.176,0.83v0.351
			c-0.017,0.143,0.021,0.287,0.107,0.402c0.09,0.09,0.215,0.136,0.342,0.124h1.284c0.251,0.022,0.502-0.025,0.728-0.137
			c0.178-0.217,0.28-0.486,0.291-0.766c0.321,0.187,0.674,0.314,1.04,0.377c-0.193,0.685-0.428,1.083-0.715,1.228
			c-0.384,0.155-0.798,0.222-1.211,0.197h-0.728c-1.066,0-1.682-0.086-1.879-0.257c-0.22-0.228-0.33-0.541-0.3-0.856V9.667H11.886z
			 M11.886,13.806v1.143l2.752-0.574l0.471,0.903l-3.223,0.578v0.629c-0.021,0.155,0.045,0.31,0.171,0.402
			c0.159,0.098,0.345,0.142,0.531,0.124h1.408c0.144,0.014,0.286-0.04,0.385-0.146c0.113-0.239,0.168-0.502,0.158-0.766
			c0.344,0.179,0.711,0.309,1.091,0.385c-0.146,0.685-0.33,1.087-0.535,1.233c-0.27,0.15-0.578,0.217-0.886,0.193H13.68
			c-1.382,0-2.196-0.086-2.435-0.265c-0.28-0.2-0.432-0.535-0.398-0.877v-2.962H11.886z M6.823,18.891
			c-0.328,0.585-0.745,1.115-1.237,1.571L4.64,19.794c0.506-0.416,0.94-0.914,1.284-1.472L6.823,18.891z M9.524,19.939l-0.993,0.428
			c-0.195-0.517-0.418-1.023-0.668-1.515l0.993-0.377C9.074,18.904,9.305,19.404,9.524,19.939z M12.408,19.939l-0.899,0.377
			c-0.262-0.506-0.555-0.994-0.877-1.464l0.895-0.33C11.801,18.942,12.105,19.417,12.408,19.939z M15.404,19.841l-0.8,0.672
			c-0.344-0.574-0.76-1.102-1.237-1.571l0.668-0.719c0.513,0.484,0.967,1.027,1.352,1.618H15.404z"/>
		<path d="M27.65,12.71h-4.507c0.675,0.949,1.407,1.857,2.191,2.718c0.781,0.849,1.65,1.613,2.594,2.277
			c-0.302,0.29-0.555,0.626-0.749,0.997c-0.929-0.7-1.778-1.5-2.534-2.384c-0.654-0.761-1.264-1.558-1.828-2.388v3.21h2.277v1.049
			h-2.277v2.418H21.64v-2.431h-2.277V17.14h2.277v-3.236c-0.612,0.976-1.305,1.9-2.072,2.761c-0.709,0.768-1.492,1.465-2.337,2.08
			c-0.158-0.368-0.38-0.706-0.655-0.997c0.801-0.575,1.548-1.222,2.23-1.935c0.865-0.961,1.638-1.999,2.311-3.103h-4.28v-1.049
			h4.802V9.47h1.177v2.191h4.832V12.71z"/>
		<path d="M36.479,10.433v1.143h-6.531v-1.143H36.479z M37.896,13.661c-1.04,2.311-2.106,3.852-3.223,4.708
			c-1.31,0.885-2.766,1.533-4.301,1.913c-0.073-0.427-0.266-0.825-0.556-1.147c1.78-0.317,3.113-0.815,3.998-1.494
			c1.096-0.901,1.964-2.048,2.534-3.347H28.81v-1.16h8.192l0.244-0.094L37.896,13.661z"/>
		<path d="M48.861,14.474v1.181h-9.51v-1.181H48.861z"/>
		<path d="M55.02,13.866c0.574-1.185,1.052-2.415,1.43-3.677l1.143,0.428c-0.475,1.303-1.022,2.579-1.639,3.822
			c0.873,0.561,1.759,1.168,2.615,1.845l-0.856,0.997c-0.733-0.656-1.506-1.265-2.315-1.823c-0.223,0.369-0.466,0.726-0.728,1.07
			c-0.788,1.044-2.157,2.169-4.109,3.373c-0.219-0.379-0.482-0.731-0.783-1.049c1.511-0.621,2.852-1.594,3.912-2.838
			c0.291-0.368,0.558-0.754,0.8-1.156c-0.906-0.541-1.85-1.016-2.825-1.421l0.522-0.95C53.159,12.887,54.106,13.348,55.02,13.866z"
			/>
		<path d="M64.53,12.514l-0.826,1.002c-0.851-0.799-1.766-1.527-2.735-2.179l0.702-0.903C62.68,11.048,63.636,11.743,64.53,12.514z
			 M70.249,13.288c-1.182,1.46-2.515,2.791-3.976,3.972c-1.47,1.07-3.048,1.984-4.708,2.726l-0.621-1.284
			c1.748-0.55,3.382-1.411,4.824-2.542c1.386-1.06,2.61-2.316,3.634-3.728C69.602,12.788,69.895,13.084,70.249,13.288z"/>
		<path d="M12.464,28.037c2.234,1.203,4.036,2.996,6.651,3.424c1.194,0.15,2.243,0,3.424,0.15c1.943,0.227,3.137,1.943,3.809,3.591
			c0.449,1.284,0.672,3.064-0.595,3.959c-1.648,1.284-3.741,0.526-5.761,0.899c-1.044,0.15-1.866,0.749-2.915,1.121
			c-0.376,0.141-0.8,0.019-1.044-0.3c-0.15-0.372,0.073-0.749,0.223-1.121c0.539-0.792,1.515-2.076,0.467-2.829
			c-1.712-1.194-3.813-1.421-5.234-2.915c-0.418-0.554-0.769-1.156-1.044-1.793c-0.411-1.018-0.565-2.122-0.449-3.214
			C10.204,27.887,11.488,27.515,12.464,28.037z M11.116,50.764c-0.372-0.899,0.073-1.87-0.15-2.842
			c-1.194-0.972-2.692,0.227-3.587,1.044c-1.198,1.284-1.498,2.996-1.348,4.708c0.227,1.712,1.348,2.996,2.765,3.886
			c2.842,1.648,5.834,2.243,8.988,2.692c1.582,0.247,3.184,0.347,4.785,0.3c1.943-0.15,4.036-0.428,5.307-2.17
			c0.428-0.745,0.745-1.644,0.372-2.465c-0.749-1.494-2.465-1.943-4.113-2.243c-1.644-0.372-3.214,0.15-4.785,0.15
			c-1.421-0.077-2.465-1.121-3.736-1.571c-0.899-0.3-1.879,0.163-2.765,0C12.051,52.093,11.394,51.529,11.116,50.764z"/>
		<path d="M40.871,33.344c0.728,0.282,1.494,0.599,2.243,0.223c1.194-0.522,0.822-1.943,1.121-3.064
			c0.372-1.194,1.571-1.566,2.615-1.566c0.793-0.049,1.546,0.355,1.943,1.044c0.428,0.899,0.227,1.943,0.377,2.915
			c0.073,0.599,0.672,0.672,1.194,0.428c0.972-0.522,1.87-1.494,2.996-1.194c1.194,0.372,1.344,2.016,0.972,3.137
			c-0.319,0.604-0.756,1.138-1.284,1.571c-1.348,1.044-2.842,1.644-3.963,2.915c-0.126,0.2-0.179,0.437-0.15,0.672
			c0.377,1.121,1.198,1.87,1.943,2.842c0.641,0.822,0.7,1.957,0.15,2.842c-1.194,1.793-2.465,3.287-2.838,5.457
			c-0.15,0.749,0.295,1.571,0.972,1.571c2.538,0.073,4.858-1.571,6.651-3.291c1.793-3.137,2.996-6.501,4.708-9.72
			c1.284-2.538,4.336-2.915,6.878-2.465c0.745,0.077,0.745,1.049,0.745,1.644c0.15,1.121-0.073,2.32-0.073,3.424
			c0,3.214,0.895,6.279,1.044,9.493c0.077,2.02,0.15,4.413-1.644,5.834c-1.344,1.044-3.591,1.344-4.635-0.15
			c-0.372-0.599,0.15-1.198,0.522-1.648c0.976-1.044,2.393-1.866,2.393-3.287c0.023-1.926-0.254-3.844-0.822-5.684
			c-0.088-0.656-0.476-1.235-1.049-1.566c-0.295-0.15-0.522,0.223-0.745,0.428c-0.672,0.826-0.972,1.798-1.494,2.692
			c-0.826,1.712-1.571,3.364-2.393,5.008c-3.064,2.47-6.805,3.813-10.619,4.935c-2.996,0.822-7.25,0-7.773-3.587
			c0.522-1.049,0.522-2.32-0.526-3.142c-2.08-1.588-5.217-1.956-6.039-4.58c-0.428-1.344,0.522-2.542,1.793-2.996
			c2.615-0.899,5.757-0.972,7.477-3.364c0.3-0.377-0.077-0.826-0.428-1.049c-1.121-0.599-2.32-0.599-3.591-0.822
			c-1.712-0.3-3.364-1.121-3.886-2.765c-0.474-1.19-0.072-2.549,0.972-3.291C37.956,32.3,39.522,32.822,40.871,33.344z
			 M42.964,45.902c-0.633-0.377-1.421,0.227-1.87,0.749c-0.522,0.672-0.599,1.793,0.15,2.093c0.972,0.3,1.793-0.822,2.093-1.712
			C43.463,46.614,43.314,46.162,42.964,45.902z"/>
		<path d="M89.911,30.729c-1.352-1.203-2.315-2.542-3.664-3.591c-0.745-0.672-1.712-0.895-2.315-1.712
			c-0.522-0.749-0.899-1.571-0.522-2.47c0.595-1.284,1.712-2.315,3.064-2.465c2.024-0.324,4.041,0.626,5.08,2.393
			c0.599,0.972,0.526,2.093,0.899,3.137c0.223,0.749,0.672,1.421,0.972,2.17c0.372,1.194,0.3,3.137-1.121,3.364
			C91.405,31.774,90.583,31.324,89.911,30.729z M84.154,30.13c-1.044-0.749-2.542-0.899-3.424,0.073
			c-0.57,0.685-1.006,1.473-1.284,2.32c-1.348,4.336-2.619,8.671-2.17,13.307c0.3,2.243,1.284,4.635,3.591,5.307
			c0.822,0.3,1.566,0,2.315-0.449c2.02-1.284,3.291-3.064,4.785-5.008c0.672-0.899,1.571-1.87,2.842-1.943
			c1.216,0.005,2.308,0.744,2.765,1.87c0.311,1.221,0.206,2.51-0.3,3.664c-0.749,1.644-1.494,3.36-3.137,4.408
			c-2.02,1.194-4.113,1.87-6.133,3.142c-0.595,0.372-1.121,0.972-0.822,1.644c0.3,0.749,1.194,0.749,1.943,0.749
			c2.619,0.073,5.085-0.749,7.477-1.712c2.915-1.284,4.785-3.891,5.992-6.728c1.712-4.19-0.223-8.988-3.886-11.363
			c-4.036-1.644-8.599,1.344-10.392,5.085c-0.298,0.494-0.788,0.843-1.352,0.963c-0.636,0.161-1.296-0.154-1.571-0.749
			c-0.252-0.619-0.277-1.307-0.073-1.943c0.595-3.214,2.093-5.906,3.424-8.821c0.142-0.361,0.242-0.738,0.3-1.121
			C85.203,31.851,85.053,30.802,84.154,30.13z"/>
		<path d="M109.501,34.915c1.284,1.284,3.069,2.016,4.785,1.644c0.822-0.15,1.126-1.121,0.749-1.866
			c-0.672-1.425-1.712-2.619-1.87-4.28c-0.073-1.049-0.223-2.542,0.899-2.996c0.672-0.3,1.421,0,2.093,0.227
			c1.87,0.672,3.424,1.943,5.384,2.243c1.121,0.223,2.243-0.377,3.364-0.227c0.403,0.08,0.754,0.324,0.972,0.672
			c0.179,0.345,0.257,0.734,0.223,1.121c-0.077,2.808-1.947,4.948-3.219,7.276c-0.3,0.522,0.073,1.121,0.223,1.644
			c1.049,3.214,2.919,6.202,2.842,9.643c0,1.712-0.599,3.514-2.166,4.562c-0.378,0.186-0.821,0.186-1.198,0
			c-2.915-1.348-4.635-4.113-7.101-6.133c-0.749-0.599-1.712-0.972-2.619-0.522c-1.417,0.672-1.417,2.542-0.672,3.813
			c0.771,1.122,1.798,2.045,2.996,2.692c1.793,0.895,3.813,1.494,5.234,2.996c0.223,0.3,0.428,0.676,0.223,0.899
			c-0.428,0.599-1.344,0.372-2.02,0.3c-0.895-0.077-1.712-0.3-2.615-0.377c-1.284-0.146-2.465,0.077-3.736-0.073
			c-2.02-0.15-3.424-1.793-4.413-3.364c-1.943-3.064-2.996-6.651-1.571-10.02c0.449-0.972,1.571-1.284,2.542-1.417
			c3.424-0.3,6.056,2.016,8.748,4.036c0.822,0.522,1.943,1.421,2.692,0.3c0.522-0.899,0.15-1.798-0.15-2.619
			c-0.522-1.494-0.899-3.064-2.02-4.28c-0.223-0.227-0.522-0.15-0.749-0.227c-2.093-0.15-4.036,0.526-6.129,0.227
			c-2.393-0.377-4.935-0.899-6.42-3.064c-0.128-0.334-0.179-0.692-0.15-1.049c0-1.571,0.227-3.142,1.198-4.558
			c0.672-0.972,2.393-1.947,3.137-0.599c0.522,0.822,0.077,1.87,0.3,2.838C109.276,34.578,109.354,34.775,109.501,34.915z
			 M120.342,34.316c0.719,0.36,1.494-0.749,1.421-1.421c-0.15-0.745-1.284-0.745-1.943-0.745c-0.223,0-0.522,0.223-0.522,0.428
			c0.047,0.713,0.434,1.359,1.04,1.738H120.342z"/>
		<path d="M137.385,32.073c1.498-0.659,3.287-0.522,4.635-1.571c0.595-1.866,2.093-4.635,4.408-3.664
			c0.899,0.377,0.972,1.421,1.348,2.32c0.309,0.511,0.954,0.705,1.494,0.449c1.421-0.377,2.615-1.049,4.036-1.348
			c0.672-0.073,1.494-0.223,1.793,0.377c0.599,1.044,0.073,2.166-0.672,2.915c-1.284,1.421-3.364,1.494-4.635,2.915
			c-0.449,0.522-0.073,1.284,0.449,1.712c0.114,0.072,0.259,0.072,0.372,0c1.049-0.822,2.02-1.87,3.364-1.798
			c0.749,0,1.121,0.826,1.284,1.498c0.077,0.895,0,1.87-0.745,2.542c-0.976,0.822-2.542,1.121-2.692,2.465
			c-0.15,2.02,1.793,3.424,2.465,5.234c0.672,1.712-0.522,3.514-2.016,4.485c-1.049,0.672-2.247,0.449-3.291,0
			c-1.793-0.749-3.364-1.793-5.307-2.17c-0.541-0.163-1.121-0.136-1.644,0.077c-0.503,0.258-0.86,0.73-0.972,1.284
			c-0.171,1.104,0.157,2.226,0.895,3.064c1.87,2.166,5.008,1.644,7.477,2.692c0.678,0.262,1.27,0.707,1.712,1.284
			c0.296,0.409,0.38,0.935,0.227,1.417c-0.227,0.526-0.449,0.976-1.049,1.049c-1.044,0.15-2.093-0.15-3.137-0.372
			c-1.712-0.526-3.424-0.899-5.085-1.571c-1.712-0.749-3.214-1.712-4.28-3.291c-0.599-1.044-1.044-2.016-1.644-3.064
			c-0.972-1.943,0.372-3.886,1.793-5.136c2.542-2.243,5.906-1.344,8.748-0.3c0.522,0.227,1.421,0.372,1.644-0.223
			c0.417-1.319-0.274-2.733-1.571-3.214c-2.996,0.372-5.829,1.793-8.988,1.044c-0.635-0.237-1.146-0.722-1.417-1.344
			c-0.305-0.729-0.057-1.573,0.595-2.02c1.798-1.284,3.891-1.284,5.834-1.87c0.595-0.223,1.566-0.522,1.566-1.284
			c-1.044-0.895-2.615-0.595-3.736-0.073c-1.793,0.899-4.036,1.049-5.829-0.15c-0.639-0.504-0.843-1.384-0.492-2.119
			C134.753,33.045,136.186,32.595,137.385,32.073z"/>
	</g>
</g>
</svg>
