<?xml version="1.0" encoding="utf-8"?>
<!-- Generator: Adobe Illustrator 28.3.0, SVG Export Plug-In . SVG Version: 6.00 Build 0)  -->
<svg version="1.1" id="レイヤー_1" xmlns="http://www.w3.org/2000/svg" xmlns:xlink="http://www.w3.org/1999/xlink" x="0px"
	 y="0px" viewBox="0 0 160 70" style="enable-background:new 0 0 160 70;" xml:space="preserve">
<style type="text/css">
	.st0{display:none;}
	.st1{display:inline;fill:#231815;}
	.st2{fill:#231815;}
</style>
<g class="st0">
	<path class="st1" d="M48.8,14.1c-0.4,1.1-1.2,2-2.2,2.7c1.1,0.7,2.3,1.5,3.2,2.4c1.4-1.4,2.8-2.8,3.1-4.6C53.1,8.5,46.2,7,42.4,4.2
		c-0.8,1.2-1.6,2.4-2.1,3.8c2.4,1.2,4.8,2.3,6.9,4C47.9,12.6,48.8,13.2,48.8,14.1z"/>
	<path class="st1" d="M40.1,38.3c3,2.8,7.6,4.9,8.4,9.2c0.6,2.2-0.1,4.3-1.6,5.9c1.8-1.3,2.3-3.7,1.9-6c-0.7-4.8-6.1-6.6-9-10
		c-1.4-3.8-1-8.5-1-12.7c1.5-1.2,3-2.2,4.5-3.2c-0.3-0.8-1-1.5-1.5-2.2c-1.1,0.5-2.1,1.4-3.2,2.1c-0.3,1.6,0,3.5-0.3,5.1
		C38.9,30.3,37.6,35.1,40.1,38.3z"/>
	<path class="st1" d="M54.3,35.6c-2.4-3.9-1.8-9.1-1.9-13.8l-3.8-0.1c0,3.7,0.2,7.3,0.5,10.9c0.7,3.6,3.2,6.5,4.6,9.9
		c0.8,4.7-1.5,8.7-5.1,11.6c-4.6,3.6-12.1,3.8-17,0.7c-4.7-3-7.7-8.1-7.4-13.8l-4.1,0.2c0.2,1.6,0,3.3,0.5,4.8
		c1.1,6,6.2,12.1,12.2,13.8c1.9,0.1,0.7,2.5,1,3.7c0,0.3,0.3,0.5,0.6,0.4l12.6-0.1l-0.2-3.9C51,58,55.5,53.8,57,49.3
		C58.8,44.6,57.6,39.2,54.3,35.6z"/>
	<path class="st1" d="M45.3,45.5c1.1,1.8,1.7,4.2,1,6.4c-0.4,1.4-1.9,2.5-3,3.2c1.2-0.3,2.4-1.4,3-2.5c1.2-2.3,0.7-5.4-0.6-7.4
		c-2.4-3.3-6.6-3.9-8.4-7.6c-0.6-2.7-0.3-5.7-0.5-8.6c-0.1-2.3,0.2-4.7,0.3-6.8l-0.5,0.4c-0.1,4.1-0.5,8.5,0,12.5
		C36,40.9,42.5,41.6,45.3,45.5z"/>
	<path class="st1" d="M43.3,46.3c1.1,1.7,1.4,4.3,0.4,6.1c-0.8,1.4-2.3,2.7-3.9,2.8l1,0c1.8-0.6,3.4-2.3,3.9-4.1
		c1.9-7.1-7.1-7.7-9.4-12.7c-1.6-4.7-0.3-10-0.4-14.9l-0.3,0.2c-0.4,4.6-1,10,0.2,14.4C36,42.7,41,42.8,43.3,46.3z"/>
	<path class="st1" d="M32.1,29.5c0.3,2.7,0.1,5.7,0.4,8.4c0.2,6.3,9.2,6.1,9.3,12.6c-0.1,1.3-1,2.5-2.2,3c-2.5,1.2-5.9,0.6-8-1
		l-0.1,0.1c0.5,0.4,1,0.6,1.5,1c2.5,1.1,6.1,1.4,8.3-0.5c1-1.1,1.2-2.8,0.8-4.2c-1.5-4.4-6.8-5-8.7-9.1c-1.3-4.3-0.3-9.8-0.7-14.4
		L19,34.5L8.4,41.8l2.2,3.1l14.2-10.1L32.1,29.5z"/>
	<path class="st1" d="M48.5,44.9l0.3,0.3c1.1-0.8,2.7,0.3,3.8-0.5C51.5,45,49.7,44.2,48.5,44.9z"/>
	<path class="st1" d="M27.4,48.1c2.3-4.5,8.1-0.9,11.8-1.9l-0.3-0.3c-3.7,0.8-8-1.9-11,0.9c-0.3,0.5-0.7,1.1-0.5,1.7h0.1L27.4,48.1z
		"/>
	<path class="st1" d="M52.6,45.9c-1.2,0.4-2.6-0.4-3.6,0.4l0.1,0.3c1.1-0.5,2.5-0.2,3.6-0.6L52.6,45.9z"/>
	<path class="st1" d="M52.5,47.4c-0.5,0.4-1.3,0.1-2,0.2c-0.4,0-1,0.1-1.2,0.4c0.8,0.1,1.8-0.1,2.7-0.2
		C52.2,47.7,52.5,47.7,52.5,47.4z"/>
	<path class="st1" d="M29.3,48.5c3.3-1.8,7.4,0.2,11.1-0.7l-0.3-0.4c-3.7,0.9-8.3-1.2-11.4,1.1c-0.6,0.5-0.6,1.4-0.4,2
		C28.3,49.7,28.6,49,29.3,48.5z"/>
	<path class="st1" d="M30.6,50.3c3.1-1.7,7.3,0,10.5-0.8c0,0,0-0.2,0-0.3c0-0.1-0.2-0.2-0.2-0.2c-3.2,1.2-7-0.9-10.1,0.8
		c-0.6,0.4-1.3,1.1-0.9,1.8C30,51,30.2,50.5,30.6,50.3z"/>
	<path class="st1" d="M49.5,50c0.7-0.6,1.8-0.3,2.5-0.8c-0.5,0.1-1,0.1-1.5,0.1C50,49.4,49.2,49.5,49.5,50z"/>
	<path class="st1" d="M33.9,51.1c-0.4,0.1-1,0.6-0.8,0.9c1.7-1.7,4.1-0.2,6-0.2c0.8,0,1.8,0.2,1.7-0.7
		C38.5,51.7,36.1,50.6,33.9,51.1z"/>
	<path class="st1" d="M83.6,49c1-0.6,2-1.5,3-2.2c-2.8-4.4-7.3-7.1-11.4-9.5c3.7-2.6,7.6-5.6,11-9.1l-3.8-1.8
		c-2.5,3.9-6.6,6.6-10.1,9.4l-0.5,0.8c-0.2,0.8-0.1,1.7,0.5,2.3C76.3,41.6,80.8,44.6,83.6,49z"/>
	<path class="st1" d="M96.3,26.9l0.1,3.4l-0.2,0.2c-1.8,0.3-3.6-0.1-5.4-0.1c-0.1,1.1-0.3,2.3-0.2,3.4c1.7,0.2,3.6,0,5.3,0.3
		c-0.5,2.7-1.2,5.3-2.3,7.7l2.8,1.4c0.9-1.1,2.1-2.2,3.3-2.8c2.2-1,5.3-2.3,7.4-0.1c0.6,0.7,0.6,1.8,0.5,2.6
		c-1.8,3.9-6.6,3.5-10.4,3.1c0.2,1.1,0.3,2.3,0.7,3.3c2.7,0.1,5.4,0,7.8-0.7c2.2-0.7,4.6-2.8,5.1-5.1c0.5-2.2-0.2-4.2-1.7-5.7
		c-1.9-1.9-5.5-1.9-7.8-0.9c-1,0.3-1.9,1.1-2.9,1.4c0.1-1.6,0.6-3,0.9-4.5c3.4-0.3,6.7-0.8,9.9-1.8c-0.1-1.1-0.1-2.3-0.4-3.4
		c-2.9,1-6,1.7-9.1,1.8L100,27L96.3,26.9z"/>
	<path class="st1" d="M138,40.9c0.5-0.2,1.2,0,1.5,0.5c0.2,2.3-0.7,5.1,1.1,6.8c1.6,0.9,3.8,1.5,5.7,0.8c4.1-1.5,4.6-6,5.4-9.6
		c-1.2-0.3-2.4-0.8-3.5-0.9c-0.6,2.7-0.8,5.6-3.1,7.4c-0.6,0.1-1.5,0.2-1.9-0.5c-0.4-2.3,0.7-5.2-0.9-7c-0.8-0.7-1.8-0.8-2.9-0.8
		c-1,0-2,0.6-2.9,0.7c1.2-3.4,3.1-6.6,5.1-9.7l-3.7-0.9c-1.4,2.5-2.4,5.1-3.7,7.6l-5,12.9c1.1,0.3,2.2,0.7,3.3,1
		C134,46.3,134.5,42.4,138,40.9z"/>
	<path class="st1" d="M66,43.3c-0.7,0.1-1.4-0.1-2-0.3L62.7,47c1.3,0.3,2.4,0.9,3.9,0.7c2.1-0.4,3.5-2.4,4.2-4.2
		c1.2-3.9-3-6.1-4.5-9.2c-0.6-0.9-0.8-2-1.6-2.8l-3.4,1.9c1.3,2.9,3.9,5.2,5.2,8.1C66.8,42.2,66.5,42.8,66,43.3z"/>
	<path class="st1" d="M121,33.4c-0.7,0.2-1.4,0.7-2,1.1c0.4,0.8,1,1.6,0.9,2.3l-2.1,0.9c-0.6-1-0.9-2.3-1.6-3.2l-2.2,0.9
		c0.5,1.1,1,2.3,1.2,3.4c-0.7,0.3-1.5,0.5-2.1,0.9l0.8,2.2c0.8-0.1,1.5-0.5,2.2-0.8c0.9,2.5,1.6,5.2,1.9,7.9
		c0.7,0.4,1.7-0.2,2.5-0.3c-0.2-3.1-1.5-5.8-2.4-8.7l2.8-1.5c0.5,0.6,0.5,1.3,0.9,1.9c0.6-0.1,1.1-0.6,1.7-0.8
		c1.1-0.3,0-1.3-0.2-1.9c0.5-0.7,1.3-0.1,1.9-0.1c0.5,0.3,0.9,0.9,1.1,1.4c0.2,1.1,0.1,2.4-0.8,3.2c-1.4,0.8-3.2,0.3-4.4-0.5
		c-0.1,0.9-0.8,1.6-0.7,2.4c1.2,0.6,2.6,1.1,4.1,0.9c1.6-0.2,3.3-1.4,3.9-3c0.5-2,0.2-4.2-1.3-5.7c-1.2-0.9-3-1.4-4.6-0.9
		C121.8,35.8,121.6,34.2,121,33.4z"/>
	<polygon class="st1" points="57.9,50.8 57.5,51.5 149.5,51.6 149.5,50.8 	"/>
	<path class="st1" d="M104.8,53.7c-0.5,1.4-1,2.8-2,3.9l-1.9-1.1L99.6,58l1.8,1.3c-1.6,1.7-3.6,2.9-5.7,3.8c0.2,0.7,0.9,1.3,1.4,1.9
		c2.1-1,4.2-2.3,6-4.1l1.1,1.2l1.4-1.6c-0.2-0.6-0.7-0.9-0.9-1.5c0.8-1.4,1.6-2.8,2.2-4.3L104.8,53.7z"/>
	<path class="st1" d="M80.4,53.9c-2.2,0.2-4.6,0-6.7,0.4l0.1,1.9c2.1-0.3,4.5-0.1,6.7-0.3C80.4,55.2,80.6,54.5,80.4,53.9z"/>
	<path class="st1" d="M115.3,56.2c-1.3-0.6-2.6-1.2-4-1.4c-0.1,0.7-0.7,1.2-0.7,1.9c1.3,0.4,2.6,0.9,3.8,1.6
		C114.7,57.6,115.2,57,115.3,56.2z"/>
	<path class="st1" d="M120.6,55.8c-2.6,3.3-6.1,5.9-9.6,7.6c0.4,0.6,0.9,1.1,1.3,1.7l0.3,0c3.4-1.9,6.7-4.5,9.4-7.7
		C121.4,57,121,56.4,120.6,55.8z"/>
	<path class="st1" d="M72.8,57.1c0,0.7,0.1,1.4,0.2,2c1.9-0.1,3.9-0.2,5.7-0.1c-1,2.4-3.7,4-5.6,5.3l1.4,1.5c3-1.6,6.3-4.5,7.3-7.9
		l-1.1-1.2C77.9,56.7,75.3,56.7,72.8,57.1z"/>
	<path class="st1" d="M84.8,58.3l0.1,2.2l7.8,0.1l0-2.1C90.2,58.4,87.4,58,84.8,58.3z"/>
	<path class="st1" d="M71.9,16.8h5v1.1h-3.4v0.9h3.3v1h-3.3v1.9h-1.5V16.8z"/>
	<path class="st1" d="M82.8,16.8h1.5v3.2c0,0.6-0.2,1-0.8,1.3c-0.5,0.3-1.3,0.4-2.3,0.4c-1.1,0-1.9-0.1-2.3-0.3
		c-0.6-0.3-0.8-0.8-0.8-1.5v-3.1h1.5v3.1c0,0.3,0.1,0.5,0.3,0.6c0.2,0.1,0.5,0.1,1,0.1h0.5c0.5,0,0.9,0,1-0.1
		c0.2-0.1,0.3-0.2,0.3-0.6L82.8,16.8L82.8,16.8z"/>
	<path class="st1" d="M92.1,16.8l-3,2.4l3.3,2.5h-2l-2.6-2h-0.6v2h-1.5v-4.9h1.5v1.9h0.6l2.4-1.9L92.1,16.8L92.1,16.8z"/>
	<path class="st1" d="M98.1,16.8h1.5v3.2c0,0.6-0.3,1-0.8,1.3c-0.5,0.3-1.3,0.4-2.3,0.4c-1.1,0-1.9-0.1-2.3-0.3
		c-0.6-0.3-0.8-0.8-0.8-1.5v-3.1H95v3.1c0,0.3,0.1,0.5,0.3,0.6c0.2,0.1,0.5,0.1,1,0.1h0.5c0.5,0,0.9,0,1-0.1
		c0.2-0.1,0.3-0.2,0.3-0.6C98.1,20.1,98.1,16.8,98.1,16.8z"/>
	<path class="st1" d="M105.7,20.5c-0.2,0.2-0.5,0.2-0.9,0.2h-1.2c-0.3,0-0.6-0.1-0.7-0.3c-0.2-0.2-0.2-0.4-0.2-0.7v-0.9
		c0-0.3,0.1-0.6,0.2-0.8c0.2-0.2,0.4-0.3,0.7-0.3h1.2c0.4,0,0.7,0.1,0.9,0.3c0.2,0.2,0.3,0.4,0.3,0.8v0.9
		C105.9,20.1,105.8,20.3,105.7,20.5z M106.8,17.2c-0.4-0.2-0.9-0.4-1.5-0.4H103c-0.5,0-0.9,0.1-1.3,0.4c-0.4,0.3-0.7,0.7-0.7,1.1
		v1.9c0,0.5,0.2,0.8,0.6,1.1c0.4,0.3,0.9,0.4,1.4,0.4c0.2,0,0.5,0,0.7,0c0.3,0,0.5,0,0.8,0c0.3,0,0.5,0,0.6,0c0.6,0,1.1-0.1,1.5-0.4
		c0.5-0.3,0.7-0.7,0.7-1.2v-1.9C107.5,17.8,107.2,17.5,106.8,17.2z"/>
	<path class="st1" d="M114.9,16.8l-3,2.4l3.3,2.5h-2l-2.6-2h-0.6v2h-1.5v-4.9h1.5v1.9h0.6l2.4-1.9L114.9,16.8L114.9,16.8z"/>
	<path class="st1" d="M120.2,19.8h-2.1l1.1-2L120.2,19.8z M115.6,21.7h1.6l0.4-0.9h3.1l0.5,0.9h1.5l-2.5-4.9h-2.1L115.6,21.7z"/>
</g>
<g>
	<path class="st2" d="M137,59.3c-0.2,0.1-0.2-0.1-0.4-0.1c0,0.3,0.3,0.3,0.4,0.5c-0.1,0.1-0.3,0.1-0.4,0c-0.1,0.2,0.2,0.2,0.2,0.4
		c-0.1,0-0.1,0.1-0.3,0.1c-0.2-0.2-0.4-0.3-0.6-0.4c0.1-0.2,0.2,0.1,0.4,0c0-0.2-0.1-0.3-0.1-0.4c0.2,0,0.1-0.4-0.1-0.4
		c-0.1,0.1,0,0.3-0.1,0.4c-0.2,0-0.2-0.2-0.2-0.2c-0.2,0.2,0.2,0.3,0.3,0.4c0,0.2-0.4,0.1-0.4,0.2c-0.2,0-0.2-0.2-0.2-0.3
		c-0.2,0.1-0.4-0.1-0.5,0c0.5,0.3,1,0.5,1.4,0.9c-0.4,0-0.9,0.1-1.2-0.2c-0.3,0.2-0.6,0.2-1,0c0.2,0.5,1.5,0.3,1.8,0.7
		c-0.2,0.2-0.2-0.2-0.4-0.1c-0.2,0.1,0,0.1,0,0.2c-0.1,0.1-0.1,0-0.2,0c0,0.2,0.2,0.1,0.2,0.1c-0.1,0.1-0.3,0.2-0.5,0.2
		c0.1,0.2,0,0.2,0,0.5c0,0.2,0.2,0,0.2,0.1c0.1,0.2-0.2,0.4-0.4,0.5c0,0.1,0.1,0.1,0.2,0.2c-0.2,0.2-0.5,0.2-0.8,0.2
		c-0.1,0,0.1,0.1,0,0.2c-0.3,0-0.6,0.4-1.2,0.2c-0.3,0.2,0.1,0.4,0.1,0.6c-0.2-0.2-0.5-0.1-0.8-0.2c-0.1,0,0,0.2-0.1,0.2
		c-0.5-0.2-1.1,0.1-1.6-0.1c-0.1-0.1,0-0.2-0.1-0.3c-1.2,0.1-2.1-0.5-3.1-0.7c-0.5-0.5-1.3-0.7-2-0.9c0-0.1,0.1,0,0.1-0.1
		c-0.1-0.1-0.2-0.1-0.4-0.1c0.1-0.2-0.3-0.3-0.5-0.2c-0.4-0.6-1.4-0.7-2.1-1.1c-0.3-0.4-0.9-0.6-1.4-0.8c-0.1-0.1,0-0.1,0-0.2
		c-1.1-0.4-1.6-1.2-2.6-1.6c0-0.4-0.5-0.3-0.8-0.4c0-0.5-0.6-0.4-0.9-0.4c-0.3,0.1-0.2,0.5-0.6,0.5c0-0.2,0.2-0.1,0.1-0.2
		c-0.1-0.1-0.2,0.1-0.2,0c0-0.3,0.2-0.3,0.3-0.6c0-0.1-0.2-0.2-0.3-0.1c-0.6,0.9-1.8,1.2-2.2,2.2c0.1,0.1,0.2,0,0.4,0
		c-0.4,0.5-0.9,0.9-1.3,1.2c0,0.2,0,0.4-0.2,0.4c0-0.2,0.2-0.3,0.2-0.6c-0.4,0.3-0.7,1.1-1.2,1.4c-0.5,0.9-1.3,1.6-1.9,2.4
		c-0.3,0-0.4,0.3-0.7,0.3c0.2-0.2,0.3-0.7,0.5-0.5c0.1-0.4,0.7-0.6,0.8-1c0-0.1,0.2,0,0.2-0.1c0-0.5,0.5-0.5,0.5-1
		c0.7-0.2,0.8-1,1.3-1.4c0-0.1-0.1-0.1-0.2,0c0.1-0.3,0.5-0.5,0.5-0.9c-0.4,0.2-0.6,0.5-0.8,0.9c-0.2,0-0.2-0.1-0.3-0.1
		c0-0.1,0.3-0.3,0.2-0.4c-0.3,0.1-0.5,0.4-0.7,0.7c-0.7-0.2-1,1-1.5,1.1c0.1-0.3,0.5-0.4,0.4-1c0.2-0.1,0.3-0.2,0.3-0.4
		c0.2,0.1,0.5-0.2,0.4-0.4c-1,0.7-1.6,1.9-2.6,2.6c0-0.4,0.6-0.4,0.5-0.8c0-0.1,0.1,0,0.2,0c-0.7-0.6-1.4,1-1.8,1.4
		c0.1,0.1,0.3,0,0.4,0c0,0.2-0.2,0.1-0.2,0.3c-0.1-0.1-0.1-0.2-0.3-0.2c-0.2,0-0.1,0.2-0.2,0.3c0.2,0.1,0.3-0.2,0.4-0.1
		c-0.1,0.4-0.4,0.3-0.8,0.2c0.1-0.2,0-0.2,0-0.4c-0.2,0-0.2,0.3-0.4,0.2c0-0.1,0.1,0,0.1-0.1c-0.3,0.3-0.9,1.2-1.4,0.6
		c-0.1,0.1-0.3,0.1-0.3,0.2c-0.1-0.1,0-0.2,0-0.3c0.5-0.4,1.1-0.9,1.3-1.6c0.3,0.1,0.3-0.4,0.6-0.5c0,0.1,0.1,0.1,0.1,0.1
		c-0.2,0.2-0.5,0.5-0.5,0.8c0.3-0.1,0.3-0.5,0.6-0.7c-0.1,0.5-0.7,1-1,1.5c0.3,0,0.5-0.4,0.7-0.1c0.1,0,0.1-0.1,0.1-0.2
		c0.2,0.1,0.3,0.1,0.4,0c0-0.1-0.1-0.1-0.1-0.3c0.5,0,0.6-0.4,0.9-0.6c0-0.2-0.2-0.1-0.1-0.3c0.2,0,0.2-0.1,0.3,0
		c0.4-0.4,0.7-0.8,1-1.3c0.2-0.4,0.6-0.5,0.6-1c0-0.1-0.2,0.1-0.3,0c0.1-0.7,0.7-0.9,0.8-1.6c0.5-0.4,0.8-0.9,1.2-1.2
		c0.7,0,0.8-0.6,1-1.1c0-0.1-0.1-0.1-0.1-0.1c0.2-0.5,0.6-0.8,1-1.2c-0.3-0.4-0.7-0.7-1.4-0.7c-0.4-0.4-0.7-0.8-1.2-1.1
		c-0.1-0.2,0-0.5-0.2-0.5c0-0.1,0.1-0.1,0.2-0.2c-0.1-0.6-0.6-1.4-0.4-1.9c-0.2-0.1-0.3-0.4-0.3-0.7c0.1-0.1,0,0.3,0.1,0.3
		c0.2-0.3-0.1-1,0-1.4c0.2,0,0.3,0.2,0.5,0.2c0.2-0.1-0.1-0.2,0-0.4c0.3,0.1,0.2-0.4,0.2-0.6c0.2,0.1,0.3,0.5,0.5,0.6
		c0.1,0,0.1-0.2,0.2-0.2c0-0.2-0.2-0.2-0.3-0.3c0.1-0.1,0.5,0.1,0.4-0.2h0.3c0.1,0.1,0,0.3,0.1,0.5c0.2,0.2,0.6,0.1,0.6-0.2
		c0.1,0,0,0.2,0,0.3c0.2-0.1,0.4-0.3,0.3-0.6c0.2-0.1,0.4-0.1,0.3-0.4c0.3,0.3,0.7,0.5,1,0.8c0.1-0.3,0.1-0.6,0.1-1.1
		c0.2-0.2,0.6,0,0.7,0.1c-0.1,0.9,0.2,1.4,0.7,1.8c0.1-0.1-0.1-0.3-0.1-0.5c0.1,0,0.2,0,0.2,0c0.2,0.2,0.1,0.5,0.4,0.6
		c0.1,0,0-0.2,0-0.3c0.2,0.1,0.2,0.3,0.4,0.4c0.3-0.6,0.7-1,0.9-1.7c0.4,0,0.2-0.5,0.3-0.7c-0.2,0-0.2,0-0.3,0.1
		c0.3-0.6,0.6-1.6,1.1-2.1c0.2,0,0.3-0.1,0.3-0.3c0.1,0,0.1,0.1,0.2,0c0.1-0.1,0.2-0.4,0.1-0.6c0.1-0.3,0.4-0.6,0.4-1
		c0.1,0,0.2,0,0.2-0.1c0.5-1.5,1.8-2.4,2.1-4c0.1,0,0.1-0.2,0.2-0.2c0.1-0.3,0.1-0.6,0.2-0.8c-1.2-0.3-1.4,1.2-2.4,1.5
		c-0.2,0.4-0.6,0.6-0.7,1.1c0.3,0,0.2-0.4,0.6-0.3c-0.1,0.3,0,0.6,0.1,0.9c-0.3-0.1-0.2-0.3-0.3-0.5c-0.1,0-0.2,0.1-0.2,0.2
		c0,0.3,0.3,0.3,0.2,0.7c-0.7-0.3-0.9,0.5-1.2,1c0-0.1-0.3-0.2-0.4-0.1c-0.1-0.2,0.2-0.4,0.2-0.7c-0.5,0.2-0.4,1.1-0.5,1.6
		c-0.1-0.1-0.2-0.3-0.5-0.4c0.1,0.1,0.2,0.3,0.1,0.5c-0.1-0.1-0.1-0.3-0.2-0.3c-0.1,0.3,0,0.5-0.1,0.8c-0.7,0.5-0.6,1.6-1.4,1.9
		c0.1,0.1,0,0.1,0,0.3c-1,0.1-2,0.8-2.6,0.1c-0.3,0-0.4,0.1-0.6,0c-0.1-0.8-1.2-1.6-1.2-2.4c0-0.2,0.3-0.4,0.3-0.7
		c0.1-0.5-0.1-0.9,0.4-0.9c0-0.6,0.4-0.8,0.6-1.2c0.2,0,0.1,0.2,0.3,0.1c0.1,0,0.2-0.1,0.2-0.2c0-0.1-0.1,0-0.2,0
		c0.1-0.2,0.2-0.3,0.3-0.5c-0.5-0.3,0.1-0.8-0.3-1.1c0.4-0.3,0.4-1.1,1.2-1.1c0,0.2-0.2,0.2-0.4,0.2c0,0.1,0.1,0.2,0.1,0.4
		c-0.1,0.1-0.3,0-0.4,0.2c0.7,0.3,1.6-0.5,1.8-1.4c-0.2,0.2-0.7,0.5-0.9,0.8c-0.1-0.4,0-0.4,0.3-0.7c0.8-0.9,1.4-2.9,2.5-3.6
		c0-0.3,0.2-0.4,0.4-0.5c0,0.1,0,0.1,0,0.1c1.3-0.8,2.9-1.3,4.2-2.2c0.1,0.3-0.2,0.2-0.2,0.4c0.3,0,0.7-0.3,0.9-0.6
		c-0.3,0-0.3,0.3-0.6,0.1c0.7-0.6,1.8-0.9,2.7-1.3c0-0.1-0.1,0-0.2,0c0.5-0.3,1.1-0.4,1.5,0c0.3-0.1,0.3-0.5,0.7-0.4
		c0.1,0.1,0.1,0.2,0.3,0.2c-0.2,0.2-0.7,0.6-1,0.3c-0.1,0-0.1,0.2-0.1,0.3c0.3-0.2,0.6-0.1,0.9-0.2c0.1,0.2-0.4,0.3-0.1,0.5
		c0.3,0,0.5-0.3,0.8-0.2c-0.2,0.2-0.4,0.2-0.7,0.3c0.3,0.2,0.6,0.2,0.9,0.4c0,0.1-0.3,0-0.2,0.2c0.2,0.1,0.5,0,0.9,0
		c0.3,0.4,0.7,0.8,1.3,1c-0.1,0.4,0.3,0.5,0.3,0.8c0.3,0,0.4,0.1,0.6,0.1c-0.4,0.6-0.2,1.8-0.1,2.6c-0.2,0.1-0.4,0.1-0.7,0.1
		c-0.2,0.3-0.3,0.7-0.7,0.7c0,0.5-0.5,0.7-0.8,1.1c-0.4,0.6-0.3,1.3-0.9,1.9c0.1-0.5,0.5-1.1,0.6-1.8c-0.7,0-0.6,1.2-1.1,1.5v0.3
		c-0.1,0.1-0.2,0.1-0.3,0.1c0,0.1-0.1,0.3,0,0.3c-0.2,0-0.1,0.2-0.3,0.3c0,0.1,0,0.1,0.1,0.1c-0.5,0.6-0.9,1.5-1.4,2.2
		c-0.1,0.2,0.2,0.1,0.1,0.2c0,0.2-0.2,0-0.3,0.2c-0.2,0.4-0.5,0.7-0.7,1.2c-0.2,0.5-0.6,0.9-0.8,1.3c-0.2,0.4-0.2,0.9-0.6,1.1
		c-0.3,0.6-0.5,1.1-0.9,1.6c0,0.2-0.1,0.4-0.2,0.5c0.2-0.4,0.2-0.8,0.5-1.2c-0.5,0.2-0.6,1.2-1.1,1.6c0,0.1,0.1,0,0.2,0
		c-0.3,1-0.8,1.8-1.3,2.6c0.3-0.2,0.3-0.7,0.7-0.8c0.1-0.4,0.4-0.6,0.3-1.1c0.3,0,0.1-0.5,0.5-0.4c-0.3,0.4-0.5,1.1-0.5,1.6
		c-0.3,0.2-0.4,0.8-0.5,1.2c-0.3,0-0.2,0.3-0.3,0.4c0.8,0.7,1.6,1.6,2.4,2.3c-0.2,0.3,0.4,0.4,0.3,0.6c-0.2,0-0.2-0.3-0.4-0.1
		c1,1,2.6,1.8,4.2,2.4c0,0.1,0,0.2,0,0.2c0.3,0,0.5,0,0.8,0c-0.6-0.5-1.6-0.7-2.4-1.1c-0.2-0.1-0.6-0.3-0.6-0.6
		c1.2,0.3,1.9,1.1,3.2,1.3c0.2,0.4,0.9,0.2,1,0.6c-0.4,0.1-0.5-0.2-0.9-0.2c0.1,0.3,0.4,0.4,0.8,0.4c0.4,0.4,1.3,0.5,1.8,0.6
		c-0.2-0.2-0.6-0.2-0.9-0.4c0.8,0.1,1.9,0.1,2.5,0.8c0.2,0,0.4,0,0.6-0.1c-0.2-0.5-1.1-0.1-1.2-0.6c-0.1,0-0.2,0-0.3,0
		c0.2,0,0.5,0,0.7,0c0.5,0.1,0.8,0.5,1.3,0.6c-0.1,0.1-0.2,0.1-0.2,0.1c0.4,0,1.1,0.3,1.4,0.2c-0.1-0.1-0.3-0.1-0.4-0.2
		c0.2,0,0.6,0,0.9,0c-0.1-0.3-0.5-0.4-0.8-0.6c0.1-0.1,0.3,0.1,0.4,0.1c0.1-0.1,0.4-0.1,0.4-0.2c0.2,0.2,0.3,0.4,0.6,0.5
		c0,0.1-0.1-0.1-0.2,0c0,0.5,0.6,0.2,0.6,0c0.2,0.1,0.3,0.2,0.3,0.3C136.3,58.9,136.9,58.9,137,59.3 M135.7,59.1
		c0.1-0.1,0.1-0.3-0.1-0.3C135.6,58.9,135.6,59,135.7,59.1 M132.2,59c-0.5-0.3-1.4-0.4-2-0.5C130.8,58.7,131.5,58.8,132.2,59
		 M130.9,59.8c-0.1-0.4-0.9-0.5-1.3-0.5C130.1,59.4,130.6,59.5,130.9,59.8 M129,59.1c0.1,0,0.3,0.1,0.3,0c-0.2-0.2-0.9-0.3-0.9-0.7
		c-0.4,0-0.8-0.3-1.1-0.1C127.9,58.6,128.7,58.6,129,59.1 M128.2,58.9c0-0.2-0.4-0.2-0.3-0.1C128,58.8,128,58.9,128.2,58.9
		 M126.7,57.9c0.2,0.1,0.5,0.2,0.6,0.1C127.1,58.1,126.9,57.8,126.7,57.9 M126.1,58c0-0.2,0.4,0,0.5-0.2c-0.8-0.5-2-0.7-2.7-1.3
		c-0.1,0.1,0.2,0.2,0,0.3c-0.1,0-0.3-0.2-0.5-0.1c0.2,0.1,0.3,0.2,0.5,0.1c0.3,0.2,0.7,0.3,0.8,0.7C125.3,57.5,125.6,57.9,126.1,58
		 M122.7,30.1c0.3-0.1,0.5-0.2,0.6-0.5C123,29.7,122.6,29.8,122.7,30.1 M123,56.4c0-0.3-0.4-0.4-0.5-0.3
		C122.6,56.2,122.8,56.4,123,56.4 M121.6,55.4c-0.3-0.3-0.6-0.6-1.1-0.8C120.7,55.1,121.3,55.3,121.6,55.4 M120.4,50.4
		c-0.2,0-0.3,0.1-0.3,0.3C120.3,50.7,120.3,50.5,120.4,50.4 M119.5,38.6c-0.2,0-0.1,0.2-0.2,0.2C119.4,38.8,119.4,38.7,119.5,38.6
		 M118.9,39.5c0.3,0.1,0.4-0.3,0.1-0.3C119,39.3,118.9,39.3,118.9,39.5 M118.8,39.3c0-0.1,0.2-0.1,0.1-0.3c-0.1-0.1-0.2-0.1-0.4-0.1
		c0,0.1-0.1,0.2-0.1,0.3C118.5,39.3,118.7,39.3,118.8,39.3 M118.2,38.9c0.2,0,0.3-0.5,0.1-0.5C118.3,38.6,118.2,38.7,118.2,38.9
		 M117.8,38.3c0.2,0,0.3-0.1,0.3-0.2c0-0.1-0.1-0.1-0.1-0.1C117.9,38,117.8,38.1,117.8,38.3 M117.9,38.8c-0.2,0-0.2,0.1-0.2,0.2
		C117.9,39.1,117.9,38.9,117.9,38.8 M116.7,33.6c0.1-0.1,0.2-0.3,0-0.3C116.7,33.4,116.6,33.6,116.7,33.6 M116.3,34.3
		c0.2-0.1,0.5-0.5,0.3-0.7C116.5,33.9,116.3,34,116.3,34.3 M108.9,61.1c0.3-0.1,0.4-0.4,0.6-0.6C109.1,60.5,109,60.8,108.9,61.1"/>
	<path class="st2" d="M129.2,57.8c-0.1,0-0.5-0.1-0.6-0.2C128.9,57.6,129,57.7,129.2,57.8"/>
	<path class="st2" d="M128.1,56.8c-0.2,0.1-0.8-0.2-1.1-0.4C127.4,56.3,127.8,56.7,128.1,56.8"/>
	<path class="st2" d="M124.3,55.5c-0.2,0.1-0.4-0.2-0.6-0.3C123.9,55.2,124.1,55.4,124.3,55.5"/>
	<path class="st2" d="M116.6,58.2c0,0.2-0.1,0.1-0.3,0.1C116.3,58.2,116.6,58.3,116.6,58.2"/>
	<path class="st2" d="M116.1,58.2c0.1,0,0.1,0.1,0.1,0.1c-0.2,0.1-0.4,0.2-0.4,0.5c-0.3,0.2-1,0.4-0.8,0.8c-0.3-0.2-0.5,0.2-0.7,0.2
		c0.2-0.2,0.2-0.6,0.7-0.6c-0.2-0.1,0-0.2,0-0.3c0.1,0,0.1,0.1,0.2,0.1c0,0,0,0,0.1,0c0-0.2-0.1-0.2-0.1-0.3
		C115.7,58.7,115.8,58.4,116.1,58.2"/>
	<path class="st2" d="M115.5,58c0,0.2-0.2,0.2-0.3,0.4C115.1,58.3,115.4,58.1,115.5,58"/>
	<path class="st2" d="M114.7,59c0.1-0.1,0.2-0.3,0.4-0.4C115,58.7,114.9,59.1,114.7,59"/>
	<path class="st2" d="M114.4,58.5c0.2,0,0.2-0.2,0.4-0.2c0,0.2-0.3,0.1-0.3,0.4C114.4,58.7,114.4,58.6,114.4,58.5"/>
	<path class="st2" d="M114.4,59.3c0.1,0.2-0.4,0.6-0.6,0.8C114,59.8,114.3,59.6,114.4,59.3"/>
	<path class="st2" d="M112.7,60.6c-0.1,0.2-0.2,0.8-0.5,0.9c0,0.1,0.1,0.1,0,0.2c-0.9,0.7-1.5,2-2.5,2.4
		C110.9,63.1,111.8,61.9,112.7,60.6"/>
	<path class="st2" d="M99.9,56.5c-0.3,0-0.3,0.4-0.4,0.6c-0.2,0.3-0.9,0.5-0.7,1.1c-0.5,1-1.1,1.8-1.5,2.7c0,0.1,0.1,0.1,0.1,0.2
		c-0.1,0.2-0.2,0.3-0.3,0.4c0.2,0.2-0.4,0.7-0.1,1c-0.1,0.3-0.3,0.6-0.6,0.8c0-0.3,0.1-0.5,0-0.8c0.2-0.2,0.3-0.4,0-0.5
		c-0.2,0.3-0.1,0.8-0.5,0.9v-0.4c0,0-0.3,0-0.3-0.1c-0.2,0.1-0.2,0.5-0.3,0.7c-0.1-0.2,0.2-0.6,0.1-0.9c-0.2,0.3-0.3,0.7-0.4,1
		c-0.1-0.2,0.1-0.4,0-0.6c-0.1,0-0.2,0-0.1,0.1c-0.2-0.1,0.3-0.4,0.1-0.6c-0.2,0-0.1,0.2-0.3,0.2c0,0,0.1-0.1,0-0.2
		c0,0-0.1,0.1-0.1,0c-0.1,0.1,0,0.5-0.1,0.6c-0.1-0.2-0.1-0.6,0-1c-0.1-0.2-0.2-0.1-0.3-0.1c0.3,0.3,0,1.2-0.4,1
		c0.2-0.1-0.1-0.4,0-0.7c-0.2,0.1-0.1,0.6-0.4,0.7c-0.1-0.1,0.1-0.4,0-0.5c0,0-0.1,0.1-0.1,0.1c-0.1-0.2,0-0.5-0.2-0.4
		c0-0.3,0.1-0.4,0.1-0.8c0-0.1-0.1,0-0.1,0.1c0-0.3-0.1-0.5,0-0.8c0-0.2-0.2-0.1-0.1-0.2c0.2-1.1,0.1-2,0.6-2.7h0.2
		c0.5-1.3,1.4-2.3,1.7-3.7c0.2-0.2,0.6-0.5,0.5-1c0-0.2-0.5-0.6-0.7-0.9c-0.4-0.5-0.5-0.8-0.5-1.5c0-0.3,0.1-0.6,0.1-0.9
		c0-0.7-0.1-1.2-0.2-1.9c0.2-0.1,0.2-0.3,0.2-0.6h0.2c-0.1-0.2-0.1-0.3-0.2-0.5c-0.1-0.2,0.4,0.1,0.2-0.1c0.1,0,0.4,0.1,0.4,0.1
		c0.3,0.3,0.8,0.3,1,0.7c0.6-0.3,1.1,0.4,1.7,0.2c0.2-0.6-0.3-0.8-0.4-1.2c-0.1-0.2,0-0.5,0-0.6c-0.1-0.4-0.3-0.8-0.5-1
		c-0.1,0.1-0.2,0.1-0.4,0.1c-0.2-0.3-0.5,0-0.8,0c-0.5-0.1-0.7-0.6-1.1-0.9c-0.3,0-0.5-0.1-0.7-0.2c0-0.4-0.1-0.6-0.4-0.6
		c-0.2-0.4,0-0.8,0-1.2c0-0.5-0.4-0.9-0.5-1.4c-0.3,0-0.7,0.1-0.8-0.1c0.2-0.4,0.3-0.8,0.5-1.3c0.4-0.2,0.8-0.4,1-0.9
		c0.6-0.1,0.8-0.6,1-1.1c0-0.2-0.4-0.2-0.5-0.3c0.2-0.2,0.7,0.3,0.7-0.1c0.1,0,0.1,0.1,0.1,0.2c0.9,0.2,1.2-0.7,1.9-0.7
		c1.1-0.7,2.2-1.4,3.4-2c0.1,0,0.1,0.2,0.1,0.3c0.6-0.2,1.1-0.4,1.5-0.8c0.9-0.1,1.5-0.6,2.3-0.9c0.1-0.1-0.1-0.1,0-0.2
		c0.6,0,0.6-0.5,1.2-0.6c0.8,0.1,1.6-0.6,2.4-0.9c-0.3-0.1-0.7,0.1-1,0.1c0.2-0.3,0.6-0.6,1.1-0.4c0.1-0.1,0.2-0.3,0.3-0.4
		c0.5,0,0.8-0.1,1.1,0.1c-0.1,0.5-0.5,0.2-0.7,0.2c0.3,0.3,0.9,0.2,1.4,0.2c0.3,0.4,1.1,0.3,1.3,0.8c0.2,0,0.3,0.1,0.4,0.1
		c-0.1,0-0.5,0.1-0.5,0.3c0,0.1,0.2,0.1,0.3,0.1c0,0.3,0.2,0.4,0.4,0.6c-0.1,1.3,0.3,2.8-0.2,4c0,0.1-0.2,0-0.2,0.1
		c-0.2,1.8-0.9,3.4-1.9,4.6c-0.6,2-2.1,3.1-2.8,4.9c-0.2,0.1-0.2,0.4-0.4,0.4c-1,1.6-1.8,3.4-2.9,4.8c0.3,0.5,0.8,0.9,1.3,0.9
		c0.2,0,0.1,0.2,0.2,0.2c0.3,0,0.4-0.1,0.5-0.3c0.1,0.1-0.1,0.3-0.1,0.4c0,0.2,0.3,0.4,0.5,0.3c0.1,0.4,0.2,0.7,0.5,0.8
		c0.2,0,0.3-0.1,0.3-0.3c0.2,0.1-0.1,0.3,0,0.4c0.1,0.1,0.2-0.2,0.3,0c0,0.1-0.1,0.1-0.2,0c0,0.7,0.4,1,0.9,1.2c0.1,0,0-0.1,0-0.2
		c0.1,0,0.2,0.1,0.2,0.3c-0.1-0.1-0.1-0.1-0.2,0c0.1,0.2,0.4,0.2,0.5,0.3c0.1-0.4-0.3-0.7-0.6-1c-0.2,0-0.1,0.2-0.2,0.1
		c0-0.1,0-0.1,0-0.1c0.1-0.2,0.2-0.1,0-0.3c0.1,0.1,0.3,0.2,0.4,0.2c0.3,0.4,0.5,0.9,0.7,1.4c0,0-0.1-0.1-0.1,0
		c0,0.5,0.3,1.3-0.2,1.4c-0.1,0.1-0.1,0.2-0.1,0.3c-0.4-0.1-0.5-0.1-0.8,0.1c0,0.1,0.1,0.1,0.1,0.2c-0.2,0-0.1-0.1-0.2-0.1
		c-0.1,0.1-0.2,0.3-0.3,0.4c-0.4-0.4-0.6,0.2-1.1,0.2c0,0.1,0,0.1,0,0.3c-0.3,0-0.4-0.2-0.5-0.4h0.2c0-0.1-0.1-0.1-0.2-0.2
		c-0.2,0.1-0.2,0.3-0.5,0.3c0,0.1,0.1,0.4,0,0.5c-0.3-0.1-0.1-0.7-0.4-0.9c-0.1,0.2-0.2,0.3-0.5,0.2c-0.1,0.1,0,0.4-0.2,0.3
		c0-0.4-0.2-0.6-0.4-0.6c-0.1-0.5-0.7-0.7-1.2-0.8c-0.1-0.3-0.5-0.3-1-0.4C100.7,56.7,100.2,56,99.9,56.5
		C99.9,56.6,99.9,56.5,99.9,56.5 M109.6,30.9c0.1-0.2-0.3-0.2-0.3,0C109.5,30.8,109.5,30.9,109.6,30.9 M105.6,58.2
		c0.2,0.2,0.5-0.2,0.2-0.2C105.8,58.1,105.6,58,105.6,58.2 M104.2,58.2c0-0.1,0.1-0.1,0.1-0.2c-0.1,0-0.1-0.1-0.3-0.1
		c0,0.1-0.1,0.1-0.1,0.2C104,58.1,104,58.2,104.2,58.2 M103.3,40.1c0.2-0.2,0.4-0.5,0.5-0.9c-1.4,0.3-2.7,1-3.9,1.6
		c-0.6-0.2-1,0.5-1.3,0.8c0,0.2,0.1,0.3,0.1,0.4c-0.1,0.1-0.2,0.2-0.4,0.2c-0.1,0.6,0.6,0.6,0.6,1.2c-0.5,0.1-0.5-0.2-0.9-0.2
		c-0.1,0.4-0.4,0.7-0.6,1c0.2,0.6,0.5,1,0.9,1.4c0.1,0.9,0.3,1.4,0.3,2c-0.3-0.1-0.5-0.3-0.8-0.4c0.1,0.3,0.4,0.4,0.7,0.5
		c0.2-0.1,0.3-0.3,0.5-0.4c1.1-1.9,2.5-3.5,3.4-5.6C102.8,41.4,103.1,40.8,103.3,40.1 M98.4,57.7C98.4,57.6,98.4,57.6,98.4,57.7
		c-0.4,0.7-0.9,1.4-1,2.2C97.8,59.1,98.1,58.5,98.4,57.7 M96.9,61.1h-0.1c0,0.2,0,0.4-0.1,0.5C96.8,61.5,96.8,61.3,96.9,61.1
		 M96.5,62c0.2,0,0.2-0.2,0-0.2V62z"/>
	<path class="st2" d="M111.3,61.3c0.2,0.4-0.4,0.5-0.5,0.9C110.8,61.9,111.2,61.6,111.3,61.3"/>
	<path class="st2" d="M110.6,61.1c0.3,0.2-0.2,0.8-0.3,0.8c-0.4,0.7-0.8,1.3-1.5,1.7c0.2,0.1,0.1,0,0,0.2c0,0.2,0.2,0.1,0.1,0.2
		c-0.2,0-0.3-0.2-0.4-0.3c-0.1,0-0.1,0.1-0.2,0.1c0-0.2,0.1-0.1,0.1-0.2c0-0.2-0.1-0.1-0.3-0.1c0-0.3-0.1-0.3,0-0.6
		c0.5,0,0.9-0.2,1.1-0.5c0.1,0,0.1,0.1,0.2,0c0,0.1-0.1,0.1,0,0.3c0.2-0.2,0.4-0.5,0.6-0.8c0-0.1-0.1,0.1-0.2,0
		c0-0.3,0.4-0.1,0.5-0.1c-0.1-0.1-0.2-0.1-0.3-0.2C110.1,61.4,110.5,61.4,110.6,61.1 M109.4,63c-0.2,0-0.3,0.1-0.3,0.1
		C109.3,63.2,109.3,63.2,109.4,63"/>
	<path class="st2" d="M110.5,47.3c0,0.1-0.1,0.1-0.1,0.2c-0.2-0.1-0.3-0.3-0.2-0.5C110.4,47,110.3,47.3,110.5,47.3"/>
	<path class="st2" d="M108.8,64.2c0.1-0.2,0.2,0,0.3-0.1C109.1,64.2,108.9,64.3,108.8,64.2"/>
	<path class="st2" d="M108.6,60c0.2,0,0.2-0.1,0.4,0c-0.1,0.2-0.2,0.3-0.3,0.5c-0.1-0.1,0.1-0.2,0.1-0.3c0-0.1-0.1-0.1-0.1,0
		C108.6,60.2,108.6,60.1,108.6,60"/>
	<path class="st2" d="M108.5,60.6c0.1,0.1-0.2,0.2-0.1,0.3C108.2,60.8,108.5,60.7,108.5,60.6"/>
	<path class="st2" d="M108,62.5c-0.1-0.1,0-0.3,0.2-0.2C108.1,62.4,108.1,62.5,108,62.5"/>
	<path class="st2" d="M106.8,61.3c-0.2-0.1,0.1-0.4,0.2-0.2C107,61.1,106.9,61.2,106.8,61.3"/>
	<path class="st2" d="M96.3,62.7c0.1,0.1,0,0.2,0,0.3C96.1,62.9,96.3,62.7,96.3,62.7"/>
	<path class="st2" d="M92.7,61.1c0,0,0,0.1,0,0.1C92.7,61.2,92.7,61.2,92.7,61.1"/>
	<path class="st2" d="M82.9,39.7c0-0.1,0.2-0.1,0.3-0.1C83.2,39.8,83,39.7,82.9,39.7"/>
	<path class="st2" d="M83,40.5c0.2,0.1,0.2,0.4,0.1,0.5C82.9,41,83,40.6,83,40.5"/>
	<path class="st2" d="M82.4,38.9c0.2-0.2,0.8,0,0.7,0.2c-0.2,0-0.2-0.1-0.4-0.1c-0.1,0.1-0.1,0.2-0.1,0.2c0,0.1,0.2,0.1,0.2,0.1
		c-0.2,0.2,0.1,0.3,0,0.4c-0.2,0-0.3-0.1-0.5,0c0,0.1,0.2,0.1,0.3,0.1c0,0.2-0.2,0.1-0.3,0.3c0.1,0.1,0.2,0.2,0.5,0.2
		c0,0.1-0.1,0.1,0,0.2c0.2,0,0-0.1,0.1-0.2c0.2,0,0,0.2,0.1,0.3c-0.2,0-0.4,0-0.3-0.3c-0.2,0-0.4,0-0.5,0.1
		c-0.2-0.1-0.5-0.1-0.6-0.2c0,0.3,0.4,0.4,0.7,0.3c0.1,0.2,0.2,0.2,0.4,0.3c-0.1,0.1-0.3-0.1-0.5-0.1c-0.2,0.1,0.1,0,0,0.1
		c-0.3,0-0.7-0.3-1.2-0.2c0.2,0.1,0.4,0.1,0.5,0.3c-0.1,0-0.1,0.1-0.3,0c0,0.2,0.2,0.1,0.1,0.2c0.2-0.1,0.6,0,0.8,0.1
		c-0.1,0.2-0.3,0.2-0.1,0.4c-0.5-0.1-0.8-0.3-1.3-0.2c0.1,0.3,0.5,0.2,0.8,0.3c-1.3,0.2-2.4-0.7-3.6-0.2c0-0.1,0.3,0,0.3-0.2
		c-0.4-0.2-1,0-1.4,0.1c0.1,0.2,0.5,0,0.8,0c-0.8,0.2-2,0.3-2.9,0.5c-1.2,0.2-2.1,0.7-3.4,0.8c-0.5,0-0.9,0.3-1.3,0.4
		c-0.6,0.1-1.2-0.2-1.9-0.1c-0.9,0.1-1.8,0.5-2.7,0.8C64,44.5,63,45,61.9,45.3c-1.1,0.2-2.1,0.2-3.2,0.6c-0.7-0.1-1.1,0.3-1.5,0.2
		c-0.2,0.1-0.4,0.2-0.6,0.3c-0.1,0,0,0.1,0,0.2c-0.3,0.1-0.7,0.1-0.7,0.4c-0.4-0.2-0.5,0.4-0.8,0.2c-0.1,0-0.1,0.1-0.1,0.2
		c-0.5,0-1.3,0-1.8,0.2c-0.1,0.2-0.2,0.3-0.4,0.2c-0.2,0.3-0.4,0.4-0.6,0.7c0.4,0.4,0.7,1.3,0.4,1.9c0,0.1,0.2,0.1,0.2,0.2
		c-0.1,0.5,0.2,1.2-0.2,1.6c-0.6,0-0.8-0.3-1.2-0.5c-0.1,0.1-0.1,0.2-0.3,0.2c0,0.1,0.1,0.3,0,0.3c-0.3,0.3-0.2,1-0.1,1.5
		c-0.1,0.4-0.5,0.5-0.8,0.7c-0.3-0.1-0.5-0.3-0.7-0.5c0.2-0.3-0.3-0.7,0-1.1c-0.1-0.1-0.2-0.3-0.4-0.4c0.1-0.2,0.1-0.4,0.1-0.6
		c0-0.1-0.1,0.1-0.2,0c0-0.1,0.1-0.2,0.1-0.3c-0.1-0.2-0.2,0-0.3-0.1c-0.5,0.4-0.7,0.8-0.6,1.6c-0.3,0.3-0.4,1-1,0.9
		c0.1,0.6-0.2,1-0.6,1.2c-0.6-0.5,0.1-1.2,0.2-1.8c0-0.1-0.1-0.1-0.2-0.1c0-0.7-0.4-1-0.6-1.5c0-0.1,0.1-0.2,0.2-0.3
		c-0.2-0.4,0.1-0.6,0-1.1c0.4,0,0.1-0.5,0.6-0.5c-0.2-0.7-0.7-1.1-1.2-1.4c0.1-0.3-0.2-0.5-0.4-0.6c0,0,0-0.1,0-0.2
		c-0.5-0.4-0.2-1.1-0.5-1.8c0.1-0.7,0.5-1.2,0.3-1.8c0.1-0.2,0.2-0.2,0.3-0.3c-0.1-0.4-0.1-0.8,0-1.3c0.5-0.2,0.7-0.6,1.1-0.8
		c0.1,0.1,0.3,0,0.5,0c0.1-0.2,0.3-0.3,0.5-0.4c0.4,0.1,0.8-0.2,1.2,0c0.3-0.3,0.5-0.1,0.8-0.3c0.1,0,0.1,0.1,0.1,0.2
		c0.1-0.3,0.6-0.2,0.7-0.4c0.3,0.5,1.2,0.2,1.5-0.1c0,0,0.1,0.1,0.1,0.1c0.2-0.1,0.4-0.2,0.6-0.3c0.6,0.2,1-0.4,1.5-0.3
		c0.1-0.2,0.4-0.3,0.5-0.5c0.3,0.1,0.4,0,0.6,0.3c0.1,0,0.2-0.1,0.2-0.2c0.1,0.1,0.3,0,0.4,0.1c0.1-0.1,0.2-0.1,0.2-0.2
		c0.1,0,0.2,0.1,0.2,0.1c0.1-0.1,0.3-0.1,0.2-0.4c0.2,0,0.2,0.2,0.2,0.3c0.8-0.1,1.7-0.5,2.3-0.5c0.2-0.2,0.5-0.2,0.9-0.3
		c0.2-0.1,0.4-0.3,0.7-0.4c0.2-0.1,0.4,0,0.6,0c0.1,0,0.1-0.1,0.2-0.2c0.1-0.1,0.3,0,0.4,0c0.2,0,0.4-0.2,0.5-0.2
		c0.5,0,1.1,0,1.6-0.2c0,0.1,0.2,0,0.1,0.2c0.7,0.1,1.6,0.1,2.4-0.1c0.1,0,0.2,0.1,0.3,0.1c1.3-0.4,3.3,0.1,4.6-0.7
		c-0.1-0.1-0.5-0.2-0.8-0.1c-0.1-0.1,0.4,0,0.4-0.2c-0.1-0.1-0.5,0.1-0.7,0c1.3-0.4,2.8-0.8,4.3-0.9c0.6,0,1.2-0.3,1.7-0.3
		c0.6,0,1.3,0.4,1.8,0.1c0.9,0.5,2.7,0.1,3.3,0.9c0,0.2,0,0.3-0.1,0.4c0-0.1-0.1-0.3-0.2-0.1c-0.1-0.1-0.1-0.2-0.2-0.3
		c-0.2,0.1-0.3,0.2-0.4,0.3c0.1,0.2,0.5,0.1,0.8,0.1c0.2,0.2,0.4,0.8,0.8,0.5c-0.1,0.3,0.3,0.1,0.3,0.3c0,0.2-0.2,0.1-0.4,0.1
		c0,0.4,0.5,0.1,0.6,0.4c0.2,0,0.1-0.2,0.1-0.2c0.1,0,0.3,0.1,0.3,0.2c-0.2,0.1-0.4,0.2-0.6,0.2c0.1,0.1,0.2,0.1,0.3,0.1
		C82.4,38.8,82.3,38.8,82.4,38.9 M81.6,40.7c0.1,0,0.2,0.2,0.3,0C81.9,40.7,81.7,40.6,81.6,40.7 M78,35.8c-0.2-0.1-0.3,0.2-0.1,0.2
		C77.9,35.9,77.9,35.8,78,35.8 M70.8,37.3c-0.3,0-0.9,0-1.1,0.3C70,37.7,70.6,37.6,70.8,37.3"/>
	<path class="st2" d="M82.7,38.5c0.1,0,0.3,0,0.2,0.1C82.8,38.7,82.6,38.7,82.7,38.5"/>
	<path class="st2" d="M82.5,40.6c0.2,0,0.3,0.1,0.3,0.3C82.6,40.9,82.5,40.8,82.5,40.6"/>
	<path class="st2" d="M60.3,12.8c0,0.3-0.2,0.7-0.3,0.8c-0.1,0.4-0.4,0.7-0.5,1c-0.3,0.2-0.3,0.8-0.7,1c0,0,0.1,0,0,0.1
		c0,0-0.1,0-0.1,0c0,0.1-0.1,0.2,0.1,0.2c0,0.1-0.1,0.1-0.1,0.1c-0.1,0.1-0.1,0.1-0.1,0.2c0,0,0-0.1,0-0.1c-0.1,0-0.1,0.2-0.1,0.3
		c0,0,0.1-0.1,0.2-0.1c0,0.1-0.1,0.2-0.1,0.2c-0.1,0,0-0.1-0.1-0.1c0,0.1-0.1,0.1-0.1,0.1c0,0.1,0.1,0,0.1,0
		c-0.1,0.1-0.2,0.3-0.3,0.4c0,0,0,0,0-0.1c-0.3,0.3-0.4,0.7-0.6,1.1c0,0,0,0,0,0c-0.1,0-0.1,0.2-0.1,0.2c0,0,0,0,0.1,0
		c0,0.1-0.1,0.1-0.1,0.2c-0.1,0-0.2,0.1-0.2,0.2c-0.2,0.3-0.5,0.6-0.6,1c0,0,0,0.1-0.1,0.1c0,0,0,0.1,0,0.1
		c-0.1,0.1-0.2,0.1-0.2,0.3c-0.1,0,0,0,0-0.1c-0.3,0.1-0.3,0.3-0.5,0.5c0.1,0,0.1-0.1,0.2-0.1c0,0,0,0,0,0c0,0.1,0,0.1-0.1,0.2
		c0.1,0.1,0.3,0.4,0.5,0.4c0,0.1-0.1,0-0.1,0c0.1,0.2,0.3,0.3,0.4,0.4c-0.2,0-0.3-0.2-0.4-0.3c-0.1,0-0.1,0-0.2,0
		c0.2,0.2,0.4,0.4,0.5,0.6c-0.1,0-0.1-0.1-0.2-0.1c0,0.1,0,0.1,0,0.2c-0.1,0-0.1,0-0.1,0.1c-0.1-0.1-0.2-0.2-0.2-0.3
		c0,0.2,0.1,0.2,0.2,0.3c0,0,0,0,0-0.1c0.1,0,0,0.1,0,0.2c-0.1,0-0.1-0.1-0.2-0.1c0,0.1,0.1,0.1,0.1,0.2c0,0-0.1,0.1-0.1,0.1
		c-0.1-0.1-0.1-0.2-0.3-0.2c0.1,0.1,0.2,0.2,0.3,0.2c0,0.1-0.1,0-0.1,0c0,0.1-0.1,0.1-0.1,0c0,0,0.1,0.1,0.1,0.2c0,0.1-0.1,0-0.1,0
		c-0.1,0,0,0.1,0,0.1c0,0-0.1-0.1-0.1,0c-0.1,0-0.1-0.1-0.1-0.1c0,0,0,0.1,0,0.1c-0.1-0.1-0.2,0-0.3-0.1c0,0,0,0.1,0,0.1
		c-0.1-0.1-0.1-0.1-0.2-0.1c0-0.1,0-0.1,0-0.2c-0.1,0-0.1,0.3,0,0.3c-0.1,0-0.3-0.2-0.2-0.4c0-0.1-0.1-0.1-0.1-0.1c0,0,0,0.1,0,0.1
		c0,0-0.1,0-0.1,0c0.1-0.1,0-0.1,0-0.2c-0.1,0-0.1,0-0.1,0.1c0-0.1-0.1,0-0.1,0c-0.1,0-0.1,0.1,0,0.2c-0.1,0-0.2,0-0.3,0.1
		c0.1,0,0.1-0.1,0.2-0.1c-0.1,0-0.1,0.1-0.2,0.2c0,0,0.1,0,0-0.1c-0.1,0-0.1,0.1-0.2,0.1c0,0.1,0.1-0.1,0.1,0c0,0-0.1,0.1-0.1,0.1
		c0.1,0.1,0,0.2-0.1,0.3c0,0.1,0,0.1,0.1,0.1c0,0.1-0.2,0.2-0.2,0.3c-0.1,0-0.1,0-0.1-0.1c-0.3,0.2-0.5,0.5-0.7,0.6
		c-0.2,0.1-0.2,0.3-0.4,0.4c0,0,0.2,0,0.3,0c-0.1,0.2-0.2,0.3-0.4,0.4c0,0,0,0,0-0.1c-0.2,0-0.2,0.2-0.3,0.2c0-0.1,0.1-0.1,0.2-0.1
		c-0.1-0.1-0.1,0.1-0.2,0c0.2-0.2,0.3-0.3,0.5-0.5c-0.1,0-0.2,0.1-0.2,0.1c-0.5,0-0.6,0.6-1,0.8c-0.4,0.4-0.9,0.8-1.3,1.2
		c0.1-0.3,0.5-0.5,0.7-0.9c-0.2,0.1-0.3,0.3-0.5,0.4c0,0,0,0,0.1,0c0,0.1-0.1,0.1-0.2,0.1c0,0.2-0.2,0.1-0.3,0.3c0,0.1,0.1,0,0.1,0
		c0,0.1-0.1,0-0.2,0.1c-0.1-0.1,0.1-0.1,0.1-0.2c-0.1-0.1,0,0.1-0.1,0c0-0.1,0.1-0.1,0-0.1c0-0.1,0.1-0.1,0.1-0.1c0-0.1-0.1,0,0-0.1
		c0.1,0,0.2-0.2,0.3-0.2c0,0.1-0.1,0.2-0.2,0.2c0.2,0.1,0.4-0.4,0.6-0.5c0.1,0,0.1-0.1,0.2-0.1c-0.2,0-0.3,0.2-0.5,0.3
		c0.1,0,0,0.1,0,0.1c0.1-0.1,0-0.1-0.1,0c0-0.1,0.1-0.1,0.2-0.2c0-0.1-0.1-0.1,0-0.1c0,0-0.1,0-0.1,0c0-0.1,0.1-0.1,0.1-0.2
		c-0.2,0.1-0.4,0.2-0.5,0.3c0,0.1,0.1,0,0.2,0c0.1-0.1,0-0.2,0.2-0.3c0,0.1-0.1,0.1-0.1,0.1c0.1,0.1,0,0,0.1,0c0,0.1-0.1,0.1-0.1,0
		c0,0.1-0.1,0.2-0.2,0.2v-0.1c-0.2,0-0.3,0.2-0.5,0.3c0-0.1,0.1-0.1,0.2-0.1c0-0.1-0.1,0-0.1,0c-0.1-0.1,0.1-0.1,0.1-0.2
		c-0.3,0.2-0.5,0.3-0.8,0.5c0.1,0.1,0.3-0.1,0.4-0.1c0,0,0,0.1,0,0.1c0.2,0,0.3-0.1,0.4-0.2c0,0.1,0,0.1,0,0.1
		c-0.1,0.1-0.2,0.1-0.2,0.2c-0.1-0.1-0.3,0-0.4,0.1c-0.1,0,0.1-0.1,0.1-0.1c-0.1,0-0.1,0.1-0.1,0.1c-0.1-0.1-0.3,0-0.3,0.1
		c0-0.2-0.3-0.3-0.5-0.2c0,0,0.2-0.2,0.1-0.2c0.2,0.1,0.4,0,0.4-0.2c0,0,0.1,0,0.1,0c0.1,0,0-0.1,0-0.1c0.2,0.1,0.5,0,0.6-0.1
		c0.1,0,0.2,0,0.3-0.2c0,0.1,0.1,0.1,0,0.2c0.2-0.1,0.4-0.3,0.5-0.5c0-0.1-0.1,0.1-0.1,0c0-0.1,0.1-0.1,0.1-0.1c0,0,0,0-0.1,0
		c0.1-0.4,0.5-0.6,0.7-0.9c0-0.1,0,0,0-0.1c0.2-0.1,0.4-0.4,0.6-0.5c0,0.1-0.1,0.1-0.2,0.2c0.1-0.1,0.4-0.2,0.6-0.3c0,0.1,0,0,0,0.1
		c0.3-0.1,0.4-0.4,0.7-0.6c0.3-0.3,0.6-0.5,0.8-0.8c0,0,0-0.1,0-0.1c0,0,0.1,0,0.1-0.1c0,0,0,0-0.1,0c0-0.1,0.1-0.1,0.1-0.2
		c0,0,0,0-0.1,0c0.1-0.2,0.3-0.4,0.2-0.8c0.1,0.1,0.1,0.2,0.2,0.2c0-0.1-0.1-0.3-0.2-0.4c0-0.5-0.2-0.8,0-1.3c0.1,0,0.2-0.2,0.2-0.2
		c0.1-0.1,0.2-0.1,0.2-0.4c-0.1-0.2-0.5-0.3-0.5-0.7c-0.1-0.1-0.1-0.1-0.2-0.1c0-0.3,0.1-0.4,0.2-0.6c0,0,0,0,0-0.1
		c-0.2,0.1-0.3,0-0.5,0.1c0.1-0.1,0.4-0.1,0.5-0.2c0.1-0.1,0-0.1-0.2-0.1c0.1,0,0.1-0.1,0.2-0.1c0-0.1,0-0.1,0-0.1
		c-0.2,0-0.7,0-0.6,0.3c-0.1,0-0.3,0.2-0.2,0.2c-0.2,0.2-0.4,0.4-0.3,0.7c0,0.1-0.1,0-0.1,0.1c0,0.1,0.1,0.1,0,0.2
		c-0.1,0-0.1,0-0.1,0.1c-0.2,0-0.3,0.2-0.3,0.3c-0.1,0-0.1,0.1-0.1,0.2c-0.4,0.5-0.7,1.4-1.1,2c-0.1,0,0,0-0.1-0.1
		c-0.1,0-0.1,0.1-0.2,0.1c-0.1-0.1-0.2,0-0.2-0.1c-0.1,0-0.1,0.1-0.2,0.2c-0.1-0.1-0.2-0.2-0.3-0.3c-0.1,0-0.1,0-0.1,0
		c-0.1,0,0.1-0.2-0.1-0.2c0-0.1,0.1-0.1,0-0.2c-0.1,0-0.1,0-0.1,0.1c0,0,0-0.2,0-0.2c0-0.1,0,0-0.1,0c0-0.2,0.1-0.4,0-0.5
		c0,0,0,0,0,0c0.1-0.1,0.2-0.4,0.2-0.5c0-0.1,0-0.3,0-0.5c0.1,0.1,0,0.5,0.1,0.7c0.3-0.4,0.3-1.2,0.3-1.8c0-0.1-0.1,0-0.1,0
		c0-0.1,0.1-0.2,0-0.2c-0.1,0,0,0.1,0,0.1c-0.1,0,0-0.1-0.1-0.1c0,0-0.1,0,0,0.1c-0.1,0,0-0.1,0-0.2c0,0,0,0.2,0,0.2
		c-0.1-0.2,0-0.5-0.2-0.6c0-0.2,0.1-0.4,0-0.5c0,0,0.1-0.1,0.1-0.1c0,0,0-0.1-0.1-0.1c0-0.1,0-0.1,0-0.1c-0.1-0.1-0.2,0-0.2-0.2
		c0,0-0.1,0.1-0.2,0c0-0.1,0,0,0-0.1c-0.1-0.1-0.1,0.1-0.2,0.1c-0.1,0,0,0,0-0.1c-0.1,0.1-0.2,0.1-0.4,0c0-0.1,0-0.2-0.2-0.3
		c0,0,0-0.1,0-0.1c-0.3-0.1-0.4-0.5-0.2-0.8c0-0.1,0-0.2,0-0.3c0-0.2,0.2-0.3,0.2-0.5c0.2-0.4,0.5-0.9,0.6-1.5
		c0.3-0.5,0.3-1.2,0.7-1.6c0-0.1,0-0.3,0.1-0.3c0.1-0.4,0.4-0.6,0.5-1c0.1,0,0,0,0.1,0c0-0.1-0.1-0.2,0-0.2c0-0.1,0-0.1-0.1-0.1
		c0-0.1,0-0.2,0.1-0.2c0-0.1,0-0.3,0-0.4c0-0.2,0.3-0.2,0.3-0.4c0.1,0,0.2,0,0.3,0c0-0.1,0-0.1,0.1-0.3c0.1,0,0.1-0.1,0.2-0.1
		c0.1,0,0.3,0,0.3,0.2c0.1,0,0.1-0.1,0.1-0.2c0.1,0,0.3,0,0.4-0.1c0.1,0.1,0.3,0.2,0.5,0.2c0.1,0.1,0.2,0.2,0.3,0.3
		c0,0.2,0.1,0.4,0.2,0.5c0,0.1,0,0.2,0.1,0.3c-0.1,0.6,0.3,0.7,0.4,0.9C52.8,9.8,53,9.8,53,9.9c-0.2-0.2-0.5-0.3-0.7-0.4
		c-0.1,0.1,0.1,0.2,0,0.3c0,0,0.1,0,0.1,0.1c0,0,0,0-0.1,0c0.1,0.4,0.1,0.9,0.7,0.8c0.1,0,0.1-0.1,0.2-0.1v-0.1
		c0.3,0.1,0.5-0.2,0.8-0.3c0.1-0.1,0.2-0.2,0.4-0.2c0.1,0.2,0.5,0.2,0.7,0.4c0,0-0.1,0-0.1,0.1c0,0.1,0.1,0.1,0.2,0.1
		c0,0.2,0.2,0.1,0.3,0.2c0,0.1-0.1,0.1-0.2,0.3c0,0,0,0,0,0c0.1,0,0.2,0,0.2,0c-0.1,0-0.2,0.2,0,0.3c-0.1,0.1-0.1,0.3-0.2,0.4
		c-0.1,0-0.1,0-0.2,0.1v0.1c-1,0.8-1.6,2.1-2.1,3.4c-0.1,0-0.2,0.2-0.2,0.3c0.4,0.1,0.5-0.4,0.9-0.5c0.1-0.2,0.3-0.3,0.4-0.5
		c0-0.1-0.1-0.1-0.1-0.2c0.2-0.1,0.5,0.1,0.7,0c0,0.1,0.3,0,0.3-0.1c0,0,0,0-0.1,0c0.1-0.1,0.1-0.3,0.2-0.4c0,0,0.1,0.1,0.1,0
		c0.1,0,0,0,0,0.1c0.2,0,0.2-0.2,0.2-0.4c0.2-0.1,0.3-0.3,0.4-0.4c0,0,0,0.1,0,0.1c0.2,0,0.2-0.2,0.3-0.2c0,0,0,0,0,0.1
		c0.1,0,0.2-0.1,0.2-0.2c0-0.1-0.1,0.1-0.1,0c0.1-0.1,0.2,0,0.2-0.1c0-0.1,0,0-0.1,0c0,0,0-0.1,0.1-0.1c0-0.1-0.2-0.2-0.2-0.3
		c0.2,0.1,0.4,0.2,0.6,0.1c0,0,0,0,0,0.1c0.6-0.2,1.1-0.8,1.8-0.8c0,0,0,0,0-0.1c0.3,0.1,0.7-0.2,0.8,0.1c0.2,0,0.2,0.3,0.4,0.3
		C59.9,12.5,60.2,12.6,60.3,12.8 M58.7,16.1c0,0,0.1-0.1,0-0.1C58.7,16,58.6,16,58.7,16.1 M58.1,14.3L58.1,14.3
		c-0.1,0.1-0.2,0.1-0.2,0.3c-0.1,0-0.1,0.1-0.2,0.1c-0.1,0.1-0.3,0.4-0.2,0.5C57.7,14.9,58,14.7,58.1,14.3 M57.8,14.3
		C57.8,14.3,57.8,14.3,57.8,14.3c-0.5,0.3-1,0.7-1.3,1.2c0,0,0,0-0.1,0c-0.6,0.5-1.4,0.9-1.7,1.8c0,0.1,0,0.2,0,0.2c0,0-0.1,0-0.2,0
		c0,0.3-0.2,0.4-0.4,0.5c0.1,0,0.1,0.1,0.1,0.2c0,0,0.1,0,0.1,0c0,0-0.1,0-0.1,0.1c0.1,0,0.2,0,0.1,0.1c0.1,0,0.1-0.1,0.1,0
		c-0.1,0-0.1,0,0,0.1c0.2,0,0.2,0.1,0.3,0.2c0.2-0.4,0.5-0.6,0.8-1v-0.1c0.5-0.7,1-1.3,1.3-2c0,0-0.1,0.1-0.1,0c0,0,0-0.1,0.1-0.1
		c0.1,0,0,0.1,0.1,0.1C57.4,15.3,57.6,14.8,57.8,14.3 M57.3,15.6c0-0.1,0.2-0.2,0.2-0.3C57.4,15.4,57.3,15.5,57.3,15.6 M57,15.9
		C57,15.9,57,15.9,57,15.9c-0.2,0.2-0.5,0.6-0.6,0.9C56.7,16.5,56.8,16.2,57,15.9 M56.3,19.4c0-0.1,0.2-0.2,0.2-0.3
		C56.4,19.2,56.2,19.3,56.3,19.4 M55.8,17.8c0.1-0.2,0.3-0.3,0.3-0.5c-0.1,0.1-0.1,0.2-0.2,0.2c0,0.1,0,0.1-0.1,0.1
		C55.8,17.7,55.8,17.8,55.8,17.8 M54.7,22.4c0-0.1,0-0.1,0-0.1C54.6,22.2,54.7,22.4,54.7,22.4 M53.8,18.4c0,0.2,0.2,0.3,0.3,0.3
		c0-0.1,0-0.3-0.1-0.4C53.9,18.3,53.8,18.3,53.8,18.4 M53.6,22.5c0.1,0,0.2-0.1,0.1-0.1C53.7,22.4,53.6,22.4,53.6,22.5 M53.5,18.7
		c0-0.1,0-0.2-0.1-0.3c0,0-0.1,0-0.1,0C53.4,18.5,53.4,18.6,53.5,18.7 M53.1,21.6c0.1,0,0-0.2,0.1-0.3
		C53.1,21.3,53.1,21.5,53.1,21.6 M53.1,21.8c0.1,0,0.1-0.1,0-0.1C53.1,21.7,53,21.7,53.1,21.8 M52.7,16.4c0-0.2,0.1-0.1,0.2-0.3
		c-0.1,0-0.2-0.1-0.3-0.1c0,0-0.1,0.1-0.1,0.1c0,0.1,0,0.1,0,0.1c-0.1,0.1-0.2,0.2-0.2,0.3C52.4,16.4,52.6,16.4,52.7,16.4
		 M52.1,24.5c0-0.1,0.2,0,0.2-0.1c-0.1,0-0.1,0-0.2,0C52.1,24.5,52.1,24.5,52.1,24.5 M51.9,24.1c0.2-0.1,0.3-0.2,0.4-0.4
		C52.2,23.9,52,24,51.9,24.1 M51.9,11.2c0.1,0,0.3,0,0.3-0.1c-0.2-0.2-0.3,0.1-0.5,0.2c0,0.1,0,0.1,0,0.2c-0.2,0-0.3,0.2-0.3,0.3
		C51.6,11.7,51.9,11.6,51.9,11.2 M52.2,13.6c-0.3,0.1-0.4,0.3-0.5,0.6c0,0-0.1,0-0.1,0c0,0.1,0,0.1,0,0.2c0,0.1-0.2,0.1-0.3,0.2
		c0,0,0,0.1-0.1,0.1c-0.2,0.2-0.5-0.1-0.8,0c-0.1-0.2-0.3-0.1-0.4,0c0,0.1,0,0.1,0,0.1c-0.3,0-0.4,0.2-0.5,0.4
		c0.1-0.1,0,0.1-0.1,0.1c0,0.1-0.1,0.1-0.1,0.2c-0.1,0-0.1,0-0.2,0c0,0.2-0.1,0.2-0.2,0.4c0.1,0.1,0.2-0.1,0.3-0.2c0,0,0,0.1,0,0.1
		c0.1-0.1,0.2,0,0.4-0.1c0,0.1-0.1,0-0.1,0.1c0,0.1,0.2,0.1,0.3,0.2c0.2,0,0.4,0.1,0.6,0.1c0,0,0.1-0.1,0.2-0.1
		C51.3,15.5,51.7,14.5,52.2,13.6 M51.6,24.3c0,0-0.1,0-0.1,0C51.5,24.3,51.5,24.3,51.6,24.3 M51,24.8c0.1,0,0.2-0.2,0.2-0.3
		c-0.1,0.1-0.2,0.1-0.3,0.1C50.9,24.7,51,24.8,51,24.8 M50.9,24.5C50.9,24.5,50.9,24.5,50.9,24.5c-0.1,0.1-0.2,0.1-0.2,0.2
		C50.8,24.6,50.9,24.6,50.9,24.5 M50.7,24.3c0.1,0,0.1-0.1,0.1-0.2C50.7,24.2,50.7,24.2,50.7,24.3 M50.5,24c0.1-0.1,0.2-0.1,0.2-0.2
		C50.7,23.8,50.5,23.9,50.5,24 M49.9,24.9c0.1,0,0.3-0.1,0.2-0.2C50,24.8,50,24.9,49.9,24.9 M49.4,25.1c0.1,0,0.2-0.1,0.1-0.1
		C49.5,25,49.4,25,49.4,25.1 M49.5,18c0.1,0,0.2-0.2,0.1-0.2C49.5,17.9,49.5,18,49.5,18 M49.2,25.3C49.3,25.3,49.3,25.2,49.2,25.3
		C49.3,25.1,49.2,25.2,49.2,25.3C49.2,25.2,49.2,25.2,49.2,25.3 M48.7,25.5c0.1-0.1,0.3-0.2,0.2-0.3C48.8,25.3,48.6,25.4,48.7,25.5
		 M49.1,16.9c0-0.1,0.1-0.1,0-0.2H49C49,16.8,49,16.9,49.1,16.9 M48.9,16.2C48.9,16.1,48.9,16.1,48.9,16.2c0-0.1-0.1-0.1-0.1-0.1
		C48.8,16.2,48.8,16.2,48.9,16.2 M48.8,16.3C48.8,16.3,48.9,16.3,48.8,16.3c0-0.1,0-0.1,0-0.1C48.8,16.2,48.7,16.3,48.8,16.3"/>
	<path class="st2" d="M56.2,20.4c0,0,0,0.1,0,0.1C56.2,20.4,56.2,20.4,56.2,20.4"/>
	<path class="st2" d="M55.8,20.3C55.9,20.3,55.9,20.3,55.8,20.3"/>
	<path class="st2" d="M53.1,23.6c0,0.2-0.2,0.2-0.4,0.3C52.8,23.8,52.9,23.7,53.1,23.6"/>
	<path class="st2" d="M51.5,24.9C51.5,25,51.5,25,51.5,24.9c0,0.2-0.3,0.2-0.5,0.3c0.1,0.1,0.1-0.1,0.2,0c0,0.1,0,0,0,0.1
		c-0.2,0-0.2,0.2-0.3,0.2c0-0.1-0.2,0-0.3,0.1c0,0,0-0.1,0-0.1c0.1,0,0.1,0,0.2,0c0-0.1-0.1,0-0.1,0c-0.1,0,0-0.1,0-0.1
		c0-0.1,0.1,0,0.1-0.1c0.3,0,0.4-0.3,0.6-0.4c0.1,0.1,0.2-0.1,0.3-0.1C51.7,24.9,51.6,24.9,51.5,24.9"/>
	<path class="st2" d="M50.8,25.7c-0.1,0.1-0.3,0.3-0.4,0.4c-0.1-0.2,0.2-0.1,0.2-0.3c-0.1,0-0.1,0.1-0.3,0c0-0.1,0.1-0.1,0.2-0.2
		C50.5,25.8,50.8,25.8,50.8,25.7"/>
	<path class="st2" d="M50.3,26.1c0.1,0,0,0.2-0.1,0.2C50.2,26.3,50.2,26.2,50.3,26.1c-0.2,0-0.2,0.1-0.3,0.1
		C50.1,26.1,50.2,26,50.3,26.1C50.3,26.1,50.2,26.1,50.3,26.1C50.2,26.1,50.3,26.2,50.3,26.1"/>
	<path class="st2" d="M49.7,26.5c0.1-0.1,0.2-0.2,0.3-0.1C49.9,26.4,49.9,26.5,49.7,26.5"/>
	<path class="st2" d="M49.8,25.3c0,0-0.1,0.1-0.1,0.1C49.6,25.4,49.8,25.4,49.8,25.3"/>
	<path class="st2" d="M49.5,26.4c0.1-0.1,0.2-0.1,0.3-0.2C49.8,26.3,49.6,26.4,49.5,26.4"/>
	<path class="st2" d="M49.3,25.6c0.1,0.1,0.2-0.1,0.4-0.1c0,0.1-0.3,0.2-0.4,0.2C49.3,25.7,49.4,25.7,49.3,25.6c0,0.1,0,0.2-0.1,0.2
		c0,0.1,0.1,0,0.1,0c0,0.1-0.1,0.1-0.2,0.1C49,26,49,26.1,48.8,26.1c0-0.1,0,0,0-0.1C49,25.9,49.2,25.8,49.3,25.6"/>
	<path class="st2" d="M49.4,26.3c0.1,0,0,0.1,0,0.1C49.4,26.4,49.3,26.3,49.4,26.3c-0.1,0.1-0.1,0.2-0.2,0.1c0,0,0.1,0,0.1,0
		c-0.2,0.2-0.4,0.2-0.6,0.3c0-0.1,0.1,0,0.2-0.1c0,0-0.1-0.1,0-0.1c0,0,0.3,0.1,0.3-0.1C49.3,26.3,49.3,26.3,49.4,26.3"/>
	<path class="st2" d="M49.3,26.1c0,0.1-0.1,0.2-0.2,0.3C49.1,26.2,49.2,26.1,49.3,26.1"/>
	<path class="st2" d="M49.4,20.7c0,0,0,0.1-0.1,0.1C49.3,20.7,49.3,20.7,49.4,20.7"/>
	<path class="st2" d="M48.9,26.3c0,0.1-0.1,0.1-0.2,0.1C48.7,26.3,48.8,26.3,48.9,26.3"/>
	<path class="st2" d="M48.9,26.2c0,0.1-0.1,0-0.1,0.1c0-0.1-0.2,0-0.3,0c0-0.1,0.1-0.1,0.1-0.2c0,0,0,0.1,0.1,0.1c0,0,0.1,0,0.1,0
		c0.1,0,0,0,0,0.1C48.8,26.2,48.9,26.2,48.9,26.2"/>
	<path class="st2" d="M47.9,26.6c0,0.1-0.1,0-0.1,0.1c0-0.1-0.1-0.1-0.1-0.2c0,0,0,0,0.1,0C47.7,26.6,47.8,26.6,47.9,26.6"/>
	<path class="st2" d="M41.9,8.7c0,0.1,0.1,0.1,0.1,0.2c0,0-0.1,0-0.1,0c0.1,0.1,0,0.2,0.1,0.3c-0.1,0-0.1,0.1-0.1,0.2
		c-0.1,0.1-0.2,0.2-0.2,0.4c-0.2,0-0.3,0.3-0.5,0.3c-0.4,0.1-0.7,0-1-0.1c-0.1-0.2-0.2-0.5-0.4-0.6c0-0.1,0-0.3,0-0.5
		c0,0,0.1,0,0.1,0c0-0.1-0.1-0.1-0.1-0.2c0-0.1,0-0.1,0-0.2c0,0,0.1,0,0.1,0c0.1,0,0,0.1,0.1,0c0-0.1-0.1-0.1-0.1-0.1
		c0.1-0.3,0.2-0.6,0.1-0.9c0,0,0,0,0.1,0c-0.1-0.1,0-0.4,0-0.5c0.1,0,0.1,0.1,0.2,0c0-0.1,0-0.1,0-0.2c0.2,0.1,0.3,0.5,0.3,0.7
		c0.1,0,0.1,0,0.1,0c0-0.2,0-0.4-0.2-0.5c0,0,0-0.1,0-0.1c0.1,0,0,0.1,0.1,0.2c0.2,0,0.3,0.2,0.4,0.2c0-0.1,0-0.1,0.2-0.1
		c0,0.1,0,0.1,0,0.1c0,0,0.1,0,0.2,0c0.1,0,0,0,0-0.1c0.1,0.1,0.2,0,0.3-0.1c-0.1,0.1,0.1,0.1,0.1,0.2c-0.1,0-0.1,0-0.2,0.1
		c0.1,0.1,0.1,0.1,0.2,0.1c-0.2,0.2-0.1,0.4,0.1,0.4c0,0,0,0-0.1,0c0.2,0.2,0.1,0.4,0.3,0.6C41.9,8.7,41.9,8.7,41.9,8.7"/>
	<path class="st2" d="M41.9,7.9c0,0.1,0.1,0.1,0.1,0.2C41.9,8,41.7,7.9,41.9,7.9"/>
	<path class="st2" d="M33.4,22.8c0,0.1,0,0.2,0,0.2c0,0.1,0.1,0.2,0.1,0.3c0,0,0,0-0.1,0c0,0.2,0,0.5,0.1,0.6c-0.1,0-0.2,0-0.1-0.1
		c-0.1,0,0,0.1-0.1,0.1c-0.2,0-0.1-0.1-0.2-0.3c0-0.1-0.1-0.1-0.1-0.2c0-0.1,0-0.3-0.1-0.4c0-0.1,0-0.2-0.1-0.2
		c-0.1,0,0.1,0.1,0,0.1c0-0.2-0.1-0.7,0-0.9c0,0.1,0,0.2,0,0.4c0.2-0.1,0-0.6,0.1-0.7c0,0,0,0,0-0.1c0.2-0.2,0.1-0.5,0-0.7
		c-0.4,0.2-0.8,0.3-1.2,0.4c-0.1,0.2-0.1,0.6-0.6,0.5c-0.1,0,0,0.1-0.1,0.1c-0.1,0-0.2,0-0.3-0.1c0,0,0-0.1,0-0.1
		c-0.1,0-0.1,0-0.1,0c0-0.1-0.1-0.1-0.2-0.1c0-0.1,0-0.2-0.1-0.2c0-0.5,0.1-0.8,0.4-1c0.4-0.4,0.8-0.7,1.2-1c0-0.1,0.1-0.1,0.2-0.1
		c0,0,0,0,0,0.1c0.1,0,0.1-0.1,0.1-0.1c-0.1,0,0.2-0.1,0.3-0.2c0-0.1-0.1,0-0.1,0c0-0.1,0.1-0.2,0.2-0.2c0,0,0-0.1,0.1-0.1
		c-0.1-0.1-0.1-0.2-0.2-0.2c-0.1,0-0.1,0.1-0.2,0c-0.1,0-0.1-0.1-0.1-0.2c-0.1,0-0.1-0.1-0.1-0.2c-0.3-0.1-0.2-0.6-0.4-0.7
		c0-0.5-0.3-0.8-0.4-1.3c0-0.4,0.1-0.8,0.1-1.2c0-0.1-0.1-0.1-0.1-0.2c0.1,0,0.2,0,0.3,0c-0.1-0.2,0.2-0.3,0.1-0.4
		c0.4-0.2,0.3-0.6,0.6-0.9c0,0.2-0.1,0.3-0.1,0.4c0,0.1,0-0.1,0.1,0C32.1,13.9,32,14,32,14.1c0,0,0.1,0,0.1,0c0-0.2,0.2-0.3,0.4-0.3
		c0.1-0.1,0.2-0.2,0.3-0.2c0-0.1,0-0.1,0-0.2c0.1,0,0.1-0.1,0.2-0.1c-0.2-0.2-0.4-0.4-0.6-0.6c0-0.1,0-0.3-0.1-0.4
		c0.1-0.5,0.1-1.1,0.5-1.5c0.1,0,0.2-0.1,0.3-0.1c0.5-0.5,1.3-0.7,1.8-1.2c0-0.1,0-0.1,0-0.2c0,0,0.1-0.1,0.1-0.1
		c-0.1-0.2-0.1-0.3-0.1-0.4c0.1-0.2-0.1-0.5,0.1-0.6c-0.1-0.2-0.1-0.6,0-0.9c0,0,0-0.1,0.1-0.1c0,0-0.1-0.1-0.1-0.1
		c0.2-0.4,0.3-1.1,0.9-1.2c0-0.1,0-0.1,0-0.1c0.2,0.1,0.7-0.1,0.9,0.2c0.1,0,0.1-0.1,0.1,0C36.9,6,37,6.1,37,6.3
		c0.1,0.2,0.3,0.3,0.3,0.4c0,0.1-0.1,0.1-0.1,0.1c0,0.1,0,0.2,0,0.4c0,0.1-0.1,0.2,0,0.3c-0.1,0.2-0.3,0.5-0.2,0.8
		c0.2,0,0.3-0.1,0.4-0.2c0.1,0,0.2,0,0.3,0c0,0.1-0.1,0.1,0,0.2c0.1-0.1,0.1-0.1,0.2-0.2c0.2,0,0.3,0,0.5,0c0,0.1,0.1,0.1,0.1,0.2
		c0,0-0.1,0-0.1,0c-0.1,0,0,0,0,0.1c-0.1,0-0.1,0-0.1,0c0.1,0.1,0.2-0.1,0.4,0c0,0.1,0,0-0.1,0.1c0,0,0.1,0,0.1,0
		c0,0.1,0,0.1-0.1,0.1c0,0.1,0.1,0.1,0.2,0.1c0,0-0.2,0-0.3,0c0.1,0.1,0,0.1,0.1,0.2c-0.1,0-0.2,0-0.2,0.1c0.1,0.1,0.2-0.1,0.3,0
		c-0.2,0-0.3,0.1-0.4,0.2c0.1,0.1,0.2,0.1,0.3,0.1c0,0.1-0.1,0-0.2,0.1c0,0.1,0.1,0,0.1,0.1c0,0-0.1,0-0.1,0c0,0.1,0.1,0,0.1,0.1
		c-0.1,0-0.1,0-0.1,0c0,0.1,0.2,0.1,0.3,0.1c0,0.1-0.1,0.1,0,0.2c-0.1,0.1-0.2,0-0.2,0c0,0.1,0.1,0.1,0.1,0.2
		c-0.2,0.1-0.4,0.3-0.6,0.4c0.4,0.1,0.6-0.2,1.1-0.1c0.1,0,0.3,0.1,0.4,0.2c0.2,0,0.3,0,0.4,0.1c0,0.1-0.1,0.1-0.1,0.1
		c0.1,0.1,0.3,0.1,0.3,0.3c0,0.1-0.1,0.1-0.2,0.1c0.1,0.9-0.5,1.4-0.8,2c-0.3,0.9-0.4,1.8-0.4,2.9c0,0,0,0,0,0
		c0.2,0,0.2-0.1,0.3-0.1c0,0,0,0,0,0C39,16,39.1,15.9,39.2,16c0-0.1-0.1-0.1,0-0.1c0.2,0.1,0.4,0.2,0.6,0.2c0,0.2,0,0.2,0.1,0.3
		c0,0.1-0.1,0.1-0.1,0.1c0,0,0.1,0,0.1,0.1c0,0,0,0.1-0.1,0.1c0,0,0.1,0.1,0.1,0.1c0,0.1-0.1,0.2,0,0.2c-0.1,0.1-0.2,0.2-0.3,0.4
		c-0.3,0-0.4,0.2-0.6,0.3c-0.3,0.2-0.8,0.3-1.1,0.5c-0.1,0-0.1,0-0.2,0c0.1,0.6,0.3,1.2,0.2,1.9c0,0.9,0,1.9,0.1,2.8
		c0.1,0.8,0.1,1.6,0.5,2.1c-0.1,0.1,0,0.3,0,0.4c-0.1,0-0.1-0.1-0.2-0.1c0,0.1,0,0.2,0,0.3c0,0-0.2-0.1-0.2,0c0,0-0.1-0.1-0.1-0.1
		c0,0-0.1,0-0.1,0.1c-0.1,0-0.1,0-0.2,0c0,0.1,0,0.1,0,0.2c-0.1,0.1-0.1,0-0.2,0c0-0.1,0-0.1-0.1-0.2c-0.2,0.1-0.3,0.2-0.4-0.1
		c-0.2,0.1-0.2-0.1-0.3,0c-0.2-0.2-0.2-0.5-0.4-0.7c-0.8,0-1.9-0.2-2.4,0.1c-0.1-0.2-0.4-0.3-0.5-0.6c0,0,0,0,0.1,0
		c-0.1,0,0-0.2,0-0.3c0.1,0,0.1,0,0.1,0c0,0.2,0.2,0.2,0.4,0.2c-0.2-0.4-0.4-0.7-0.6-1.1C33.5,23.1,33.5,23,33.4,22.8 M39.7,16.4
		c0-0.1,0.1-0.1,0-0.2c-0.1,0-0.3,0-0.4,0.1C39.5,16.4,39.6,16.4,39.7,16.4 M39.2,17.4c0.1,0,0.2-0.1,0.3-0.1
		C39.4,17.3,39.3,17.3,39.2,17.4 M39.2,16.5c0,0.1,0.2,0.1,0.2,0C39.3,16.4,39.2,16.4,39.2,16.5 M39.4,16.6c-0.1,0.1-0.1,0-0.3,0
		c0,0,0,0.1,0,0.1C39.2,16.6,39.3,16.6,39.4,16.6 M37.6,16.7c0,0.1,0.1,0.1,0.1,0.1C37.8,16.7,37.7,16.7,37.6,16.7 M37.3,13.7
		c0-0.4,0.2-0.7,0.2-1.1c-0.2-0.1-0.3,0.1-0.5,0.1c-0.2,0.2-0.3,0.7-0.1,1c0.1,0,0.2,0,0.2,0.1c-0.1,0-0.1,0-0.1,0.1
		c0.1,0,0.2,0.1,0.3,0c0-0.1-0.1-0.1-0.1-0.2C37.2,13.7,37.2,13.7,37.3,13.7 M36.3,17.5c0.1-0.2,0.4-0.6,0.3-0.8
		c-0.6,0-0.9,0.4-1.3,0.7c-0.1,0.1-0.1,0.1-0.2,0.2c-0.2,0.2-0.4,0.3-0.6,0.5c-0.3,0.2-0.6,0.4-0.8,0.6c0.1,0,0.1-0.1,0.2,0
		c0.6-0.3,1.3-0.7,2-1C36,17.6,36.1,17.5,36.3,17.5 M36.4,24.3c-0.1-0.5-0.1-1.1-0.1-1.6c-0.1-0.4-0.3-1.1-0.1-1.5c0,0,0,0-0.1,0
		c0.1-0.3,0-0.6,0.1-0.8c-0.1-0.5,0-0.9-0.1-1.3c-0.6,0.2-1.1,0.5-1.6,0.8c0.1,0.2,0.2,0.4,0.3,0.7c0.1,0,0.2,0.1,0.2,0.1
		c-0.1,0.1,0,0.2,0,0.3c0,0,0,0,0,0.1c0,0.4,0,0.8-0.1,1.2c-0.1,0-0.2,0.2-0.2,0.4c-0.2,0.1-0.4,0.3-0.7,0.3c-0.1,0,0-0.1-0.1-0.1
		c0.2,0.7,0.4,1.1,0.8,1.5C35.1,24.4,35.7,24.4,36.4,24.3 M35.4,16.5C35.4,16.4,35.4,16.3,35.4,16.5C35.4,16.4,35.4,16.5,35.4,16.5
		 M35.3,16.6C35.3,16.6,35.3,16.6,35.3,16.6c-0.1,0-0.1,0-0.1,0c0,0.1-0.1-0.1-0.2,0c-0.2-0.2-0.2-0.6-0.3-0.7c-0.1,0-0.5,0-0.6-0.2
		c0.1,0,0.1-0.1,0.2-0.1c0.1-0.4,0.5-0.6,0.4-1.1c-0.4,0.2-0.7,0.5-1.1,0.7c-0.1,0.2-0.3,0.4-0.5,0.5c-0.1,0-0.1,0-0.1,0
		c0,0.1-0.1,0.1-0.1,0.1c0.1,0.2,0.1,0.5,0.3,0.6c0.1,0.4,0.2,0.9,0.4,1.2c-0.1,0,0,0.1,0,0.2c0,0.1-0.1,0.1-0.1,0.2
		c0.1,0.1,0.1,0.3,0,0.3c0,0,0.1,0,0.1,0.1c0,0-0.1,0-0.1,0c0,0,0.1,0.1,0.1,0c0.7-0.6,1.4-1,2-1.7c-0.5,0.3-0.9,0.7-1.4,1
		C34.5,17.3,35,16.9,35.3,16.6 M34.9,24.4c-0.1,0-0.2,0-0.2,0C34.8,24.5,34.9,24.5,34.9,24.4 M35,17.3C34.9,17.3,34.9,17.3,35,17.3
		c-0.1,0-0.1,0-0.1,0.1C34.9,17.4,35,17.4,35,17.3 M34.8,17.5C34.8,17.4,34.8,17.4,34.8,17.5c-0.5,0.3-1,0.6-1.4,1
		c0.1,0,0,0.1,0,0.1C34,18.3,34.4,17.8,34.8,17.5 M34.7,15.7c0-0.1,0.1-0.2,0-0.2c-0.1,0-0.1,0.1-0.2,0.1
		C34.6,15.6,34.6,15.7,34.7,15.7 M34.4,24.8c-0.1,0-0.2,0-0.2,0.1C34.3,24.8,34.4,24.9,34.4,24.8 M34.2,24.5
		C34.2,24.5,34.2,24.5,34.2,24.5c0,0.1-0.1,0.1-0.1,0.1C34.1,24.6,34.3,24.6,34.2,24.5C34.2,24.5,34.2,24.5,34.2,24.5 M34.6,12.4
		c-0.4-0.1-0.9,0.1-0.9,0.5C34.1,12.8,34.4,12.7,34.6,12.4 M33.8,24.8c0,0,0-0.1,0-0.1c-0.1,0,0,0-0.1,0
		C33.7,24.8,33.8,24.7,33.8,24.8 M33,18.9C33,18.9,33.1,18.9,33,18.9C33,18.9,33,18.8,33,18.9C33,18.9,33,18.9,33,18.9 M32.9,22.8
		c0-0.1,0-0.3,0-0.3C32.8,22.6,32.8,22.7,32.9,22.8 M32.8,18.8c0-0.1,0.1,0,0.1-0.1c0,0-0.1-0.1-0.2,0
		C32.8,18.8,32.8,18.8,32.8,18.8 M32.8,18.9c-0.1,0-0.2,0.1-0.3,0.1c-0.2,0.4-0.8,0.7-1,1c0.4-0.2,0.8-0.6,1.1-0.9
		C32.6,19,32.7,19,32.8,18.9"/>
	<path class="st2" d="M29,13.4C29.1,13.4,29,13.5,29,13.4c0,0.2,0,0.2-0.1,0.3c0.1,0.1,0.1,0.2,0.2,0.2c-0.1,0.2-0.3,0.5-0.5,0.7
		c0,0,0.1,0,0.1,0.1c-0.3,0.4-0.5,0.7-0.9,0.9c0,0.2-0.1,0.3-0.2,0.4c0,0.1,0.1,0.1,0.1,0.2c-0.1,0-0.1,0.3,0,0.3
		c0,0.1,0,0.2-0.1,0.2c0.1,0.4-0.1,0.7,0.1,1.1c0,0.2,0,0.5,0,0.9c0.1,0.4,0,0.9,0,1.3c0,0.4,0.1,0.8,0,1.2c0,0.1-0.1,0.3-0.1,0.4
		c0,0.1,0.1,0.2,0.1,0.4c0,0.1,0,0.1,0,0.2c0,0.3,0.2,0.7,0,0.9c0.1,0.8,0,1.5-0.3,2.2c-0.1,0,0,0-0.1,0c-0.1,0.3-0.2,0.7-0.7,0.5
		c0-0.2,0-0.2,0-0.3c-0.2-0.1-0.2,0.1-0.4,0.1c0-0.2,0-0.4-0.2-0.4c-0.1,0-0.1,0.1-0.2,0.1c-0.1-0.1-0.1-0.4-0.3-0.5
		c0-0.2,0.1-0.3,0.1-0.4c0-0.1-0.1-0.1-0.1-0.2c0,0,0-0.1,0-0.1c0-0.1-0.1-0.1-0.1-0.2c0,0,0-0.1,0-0.1c0-0.3,0-0.5,0-0.8
		c0-0.2-0.1-0.6,0-0.8c0,0,0.1-0.1,0.1-0.1c0-0.1,0-0.2,0-0.3c0-0.2,0.1-0.4,0.1-0.6c0,0,0-0.1,0-0.1c0-0.2,0.1-0.4,0-0.5
		c0-0.1,0.1-0.1,0.1-0.1c-0.1-0.3,0.1-0.6-0.1-0.8c0.1-0.1-0.1-0.2-0.1-0.3c0-0.1,0-0.1,0-0.1c0-0.1-0.1-0.1-0.2-0.1
		c-0.1-0.1-0.1-0.2-0.1-0.3c-0.2,0-0.5-0.1-0.7-0.3c-0.2,0-0.3,0-0.4,0.1c0,0.3,0.2,0.5,0.1,0.7c0.4,0.6-0.4,1-0.5,0.3
		c0.1-0.2,0-0.3,0-0.5c-0.1,0.1-0.3,0.1-0.3,0.3c-0.7,0.1-0.6-0.8-0.3-1c-0.2,0-0.2-0.2-0.4-0.3c0-0.3-0.2-0.6-0.4-0.8
		c0.1-0.2,0-0.4,0-0.6c0-0.1-0.2-0.1-0.2-0.2c0-0.4,0.4-0.4,0.5-0.7c0.1-0.2-0.1-0.5,0.1-0.6c0.4,0.1,0.5-0.2,0.5-0.4
		c0.3-0.1,0.3-0.4,0.5-0.6c0-0.2,0-0.1,0-0.3c0.1-0.1,0.1-0.1,0.2-0.1c-0.1-0.1-0.2-0.2-0.3-0.2c0,0,0-0.1,0-0.2
		c0-0.1-0.1,0-0.2-0.1c0-0.1,0-0.2,0.1-0.2c-0.1-0.1,0-0.2-0.1-0.3c0-0.1,0-0.1,0.1-0.1c0-0.1,0-0.1,0-0.2c0.1,0,0.2-0.1,0.2-0.2
		c0.3,0,0.3-0.3,0.6-0.3c0.1,0.1,0.1,0.1,0.2,0.2c0.1-0.1,0.1-0.1,0.2-0.1c0-0.1,0.1-0.2,0.1-0.3c0.1,0,0.2,0,0.2-0.1
		c0.2,0,0.2-0.1,0.4-0.1c0,0,0,0.1,0.1,0.1c0-0.2,0.2-0.3,0-0.4c0-0.1,0.1-0.1,0.1-0.1c0-0.1-0.1-0.2,0-0.3c-0.2-0.2,0-0.4-0.1-0.6
		c0,0,0.1,0,0.1-0.1c0-0.4,0-0.6,0.1-1c0,0,0.1-0.1,0.1-0.1c0-0.1,0-0.2,0.1-0.2c0-0.3,0-0.4,0-0.6c0.1-0.1,0.2-0.1,0.2-0.3
		c0.2-0.2,0.4-0.5,0.7-0.3c0.1,0.1,0.2,0.3,0.3,0.4c0,0.3,0.1,0.7,0.4,0.8c-0.1,0.2,0.1,0.2,0.1,0.3c0,0,0,0.1,0,0.1
		c0,0.1,0.1,0.1,0.1,0.2c0,0.2-0.1,0.3-0.2,0.5c0,0,0,0.1,0,0.1c0,0.1-0.2,0.1-0.2,0.2c0,0.1,0,0.3,0,0.5c0,0.1,0.1,0.1,0.1,0.2
		c0.1,0.1,0.2,0.1,0.2,0.2c0,0,0.1,0,0.1,0c0.2,0.2,0.6,0.2,0.7,0.5c0.1,0,0.1,0,0.2,0c-0.1,0.1,0,0.1,0,0.2c-0.1,0,0,0.1-0.1,0V12
		c-0.1,0-0.2,0-0.2,0.1c0,0.1,0.3,0.1,0.4,0.1c0,0.1-0.2,0.1-0.3,0.1c0.1,0,0.2,0,0.2,0.1c-0.1,0.1-0.1,0.1-0.2,0.1
		c0,0.1,0,0.1,0,0.1c0,0-0.1,0-0.1,0c0,0.2,0.3-0.2,0.4,0.1c-0.1,0,0,0.2-0.1,0.3c0,0,0.1,0,0.1,0.1c-0.1,0,0,0.2-0.1,0.2
		c0,0.1,0.2,0,0.3,0.1c-0.1,0.1-0.2,0.1-0.2,0.2C29,13.5,29,13.4,29,13.4 M25.8,18.2c0-0.1,0-0.1,0-0.2c-0.1,0-0.3,0-0.3,0.1
		C25.6,18.1,25.6,18.3,25.8,18.2"/>
	<path class="st2" d="M23.4,14.2c0,0.1,0,0.1-0.1,0.1c0,0-0.1,0-0.1,0C23.1,14.2,23.2,14.1,23.4,14.2"/>
	<path class="st2" d="M22.6,14.5c0.1,0,0.2,0,0.1,0.1C22.7,14.6,22.6,14.6,22.6,14.5"/>
</g>
</svg>
