<?xml version="1.0" encoding="utf-8"?>
<!-- Generator: Adobe Illustrator 28.3.0, SVG Export Plug-In . SVG Version: 6.00 Build 0)  -->
<svg version="1.1" id="レイヤー_1" xmlns="http://www.w3.org/2000/svg" xmlns:xlink="http://www.w3.org/1999/xlink" x="0px"
	 y="0px" viewBox="0 0 160 70" style="enable-background:new 0 0 160 70;" xml:space="preserve">
<style type="text/css">
	.st0{fill:#221714;}
</style>
<g>
	<g>
		<g>
			<path class="st0" d="M79.2,32.4c0.7,0.5,1.4,1,2.1,1.5c0.8,0.5,1.7,0.8,2.6,1.3c0.1,0.1,0.2,0.1,0.4,0.2c0.3,0.2,0.3,0.4,0,0.5
				c-0.5,0.2-1.1,0.3-1.6,0.5c-0.5,0.1-0.9,0-1.3-0.3c-1.1-0.7-2.1-1.5-3-2.4c-0.1-0.1-0.2-0.1-0.4,0c-1.4,1.1-2.9,2-4.6,2.6
				c-0.1,0-0.3,0.1-0.4,0.1c-0.3,0-0.5-0.1-0.6-0.4c-0.1-0.3,0-0.5,0.3-0.7c0.7-0.4,1.5-0.7,2.1-1.1c0.7-0.5,1.4-1.1,2.1-1.6
				c0.1-0.1,0.1-0.2,0-0.3c-0.9-1.1-1.7-2.2-2.4-3.5c-0.1-0.1-0.2-0.2-0.3-0.2c-0.4,0-0.8,0.1-1.2,0.1c-0.4,0-0.6-0.2-0.7-0.6
				c0-0.5,0.1-0.8,0.6-0.8c1.1-0.1,2.1-0.1,3.2-0.2c0.3,0,0.6,0,0.9-0.1c0.2,0,0.2-0.1,0.2-0.2c0-0.5,0-1.1,0-1.6
				c0-0.5,0.3-0.7,0.9-0.7c0.5,0,0.8,0.3,0.8,0.7c0,0.5,0,0.9,0,1.4c0,0.3,0.1,0.3,0.3,0.3c1.3-0.1,2.5-0.2,3.8-0.2
				c0.6,0,0.9,0.3,0.9,0.9c0,0.4-0.2,0.6-0.6,0.6c-0.5,0-0.9,0.1-1.4,0.1c-0.1,0-0.2,0.1-0.3,0.2c-0.5,1.4-1.2,2.8-2.2,3.9
				C79.4,32.2,79.3,32.3,79.2,32.4z M76,28.4c0.6,1.1,1.3,2,2.1,2.8c0.7-0.9,1.2-1.9,1.7-3C78.5,28.2,77.3,28.3,76,28.4z"/>
		</g>
		<path class="st0" d="M84.8,42.3c0.6,0.4,1.1,0.9,1.7,1.3c0.1-0.4,0.4-0.5,0.8-0.5c0,0,0.1,0,0.1,0c0.7,0.4,1.5,0.1,2.2,0.1
			c1.1,0,2.1-0.1,3.1-0.2c0.8,0,1.2,0.3,1.1,1.2c-0.1,1.4-0.2,2.8-0.3,4.3c0,0.4-0.2,0.6-0.5,0.6c-0.5,0.1-0.7-0.1-0.9-0.4
			c0-0.1-0.2-0.2-0.2-0.2c-1.2,0-2.4,0.1-3.6,0.1c-0.1,0-0.2,0.1-0.3,0.2c-0.2,0.2-0.5,0.3-0.8,0.2c-0.3-0.1-0.4-0.3-0.4-0.6
			c-0.1-1.3-0.2-2.7-0.3-4c0-0.1,0-0.2,0-0.3c-0.1,0.1-0.3,0.3-0.4,0.3c-0.3,0.2-0.6,0-0.9-0.3c-0.1-0.2-0.2-0.3-0.4-0.5
			c0,0,0,0-0.1,0c0,0.1,0,0.2,0,0.3c0,1.4,0,2.8,0,4.2c0,0.6-0.6,0.9-1.1,0.6c-0.2-0.1-0.3-0.3-0.3-0.6c0-1.3,0-2.6,0-3.9
			c0-0.1,0-0.2,0-0.4c-0.1,0.1-0.2,0.1-0.3,0.2c-0.3,0.3-0.6,0.5-0.9,0.8c-0.1,0.1-0.3,0.2-0.5,0.2c-0.3,0-0.6-0.3-0.5-0.6
			c0.1-0.2,0.3-0.4,0.4-0.6c0.8-0.9,1.7-1.8,2.3-2.9c0.1-0.1,0.1-0.3,0.2-0.5c-0.2,0-0.3,0-0.5,0c-0.5,0.1-1,0.2-1.5,0.2
			c-0.6,0.1-0.8-0.2-0.8-0.8c0-0.3,0.2-0.5,0.5-0.6c1-0.1,2.1-0.3,3.1-0.4c1-0.1,1.3,0.4,0.9,1.3c-0.3,0.5-0.6,1.1-1,1.6
			C84.9,42.1,84.9,42.2,84.8,42.3z M90.7,46.9c0,0.1,0,0.1,0,0.2c0,0.4,0,0.4,0.4,0.3c0.3,0,0.6,0,1,0c0.2,0,0.2-0.1,0.2-0.2
			c0-0.2,0-0.5,0-0.7c0-0.2-0.1-0.2-0.2-0.2c-0.3,0-0.6,0-0.8,0C90.7,46.3,90.7,46.3,90.7,46.9z M91.6,45.3
			C91.6,45.3,91.6,45.2,91.6,45.3c0.1,0,0.2,0,0.3-0.1c0.7,0,0.6,0.1,0.6-0.7c0-0.2-0.1-0.4-0.4-0.4c-0.2,0-0.4,0-0.6,0
			c-0.9,0.1-0.7-0.1-0.7,0.8c0,0.1,0.1,0.2,0.2,0.2C91.1,45.3,91.3,45.3,91.6,45.3z M88.8,46.4c-0.2,0-0.4,0-0.5,0
			c-0.1,0-0.2,0-0.2,0.2c0,0.2,0,0.4,0,0.7c0,0.2,0.1,0.2,0.2,0.2c0.3,0,0.5,0,0.8,0c0.4,0,0.4,0,0.4-0.4
			C89.5,46.4,89.5,46.4,88.8,46.4z M88.7,45.4c0.9,0,0.9,0,0.8-0.8c0,0,0,0,0,0c0-0.2-0.1-0.2-0.2-0.2c-0.4,0-0.7,0.1-1.1,0.1
			c-0.2,0-0.3,0.1-0.2,0.3C88,45.4,88,45.4,88.7,45.4z M85.3,38c0,0.4-0.1,0.6-0.4,0.7c-0.3,0.1-0.5,0.1-0.8,0
			c-0.5-0.4-1-0.8-1.5-1.2c-0.2-0.2-0.3-0.4-0.1-0.6c0.1-0.3,0.4-0.3,0.6-0.2c0.7,0.2,1.3,0.4,1.8,0.9C85.2,37.6,85.3,37.8,85.3,38z
			 M87.1,39.8c0-0.6,0.5-0.8,1-0.6c0.1,0.1,0.3,0.1,0.4,0.1c1.1-0.1,2.3-0.2,3.4-0.2c0.1,0,0.2,0,0.3,0c0.6,0,0.8,0.4,0.7,0.9
			c-0.1,0.3-0.2,0.6-0.2,1c0,0.1,0,0.2,0.1,0.3c0.3,0.4,0.1,0.9-0.4,0.9c-1.1,0.1-2.3,0.1-3.4,0.2c-0.2,0-0.3,0.1-0.5,0.2
			c-0.3,0-0.6,0.1-0.8,0.1c-0.2,0-0.3-0.3-0.3-0.5c-0.1-0.6-0.1-1.2-0.2-1.8C87.1,40.1,87.1,39.9,87.1,39.8z M88.5,40.3
			c0,0.3,0.1,0.5,0.1,0.8c0,0.2,0.1,0.3,0.3,0.2c0.6,0,1.2-0.1,1.8-0.1c0.8-0.1,0.6,0.1,0.8-0.7c0-0.3,0-0.4-0.3-0.4
			c-0.6,0-1.1,0.1-1.7,0.1C89.2,40.3,88.9,40.3,88.5,40.3z M92.5,36.9c0.5,0,0.8,0.2,0.7,0.7c0,0.3-0.2,0.5-0.5,0.5
			c-1.5,0.1-3.1,0.2-4.6,0.3c-0.3,0-0.5,0-0.8,0.1c-0.3,0-0.5-0.2-0.6-0.6c0-0.4,0.1-0.7,0.4-0.7c0.6-0.1,1.1-0.1,1.7-0.1
			C90.1,37.1,91.3,37,92.5,36.9z"/>
		<g>
			<path class="st0" d="M66.7,17.5h2.9c0.1,0,0.2,0,0.3,0.1c0.1,0.1,0.1,0.2,0.1,0.4c0,0.2-0.1,0.4-0.2,0.5c-0.1,0-0.1,0.1-0.2,0.1
				h-2.9c-0.1,0-0.2,0-0.3-0.1c-0.1-0.1-0.1-0.2-0.1-0.4c0-0.2,0.1-0.4,0.2-0.5C66.5,17.5,66.6,17.5,66.7,17.5z"/>
			<path class="st0" d="M73.7,17v4.3c0,0.1,0,0.2-0.1,0.3c-0.1,0.1-0.2,0.2-0.4,0.2c-0.2,0-0.4-0.1-0.4-0.2c0-0.1-0.1-0.1-0.1-0.2
				v-4.2l-0.5,0.1c0,0-0.1,0-0.1,0c-0.3,0-0.4-0.2-0.4-0.6c0-0.3,0.1-0.4,0.4-0.5l0.6-0.1v-1.6c0-0.2,0.1-0.3,0.2-0.4
				C73,14,73.1,14,73.2,14c0.2,0,0.3,0,0.4,0.1c0.1,0.1,0.1,0.2,0.1,0.3V16l0.4,0c0.1,0,0.2,0,0.3,0.1c0.1,0.1,0.1,0.2,0.1,0.4
				c0,0.3-0.1,0.5-0.4,0.5L73.7,17z M77.4,18.9v-0.2c0-0.1,0.1-0.2,0.2-0.3c0.1,0,0.2-0.1,0.3-0.1c0.1,0,0.2,0,0.3,0.1
				c0.1,0.1,0.1,0.2,0.1,0.3v0.2l0.9-0.1c0.1,0,0.2,0,0.3,0.1c0.1,0.1,0.2,0.2,0.2,0.4c0,0.3-0.1,0.4-0.4,0.4l-1.1,0.1v1.5
				c0,0.3-0.1,0.5-0.2,0.6c-0.1,0.1-0.3,0.2-0.4,0.2c-0.2,0-0.5-0.1-0.9-0.3c-0.2-0.1-0.3-0.2-0.3-0.3c0-0.2,0.1-0.3,0.3-0.3
				c0,0,0.1,0,0.1,0c0.2,0,0.3,0.1,0.3,0.1c0.1,0,0.1-0.1,0.1-0.2v-1.1l-1.9,0.1c0.2,0,0.4,0.1,0.6,0.3c0.3,0.2,0.4,0.4,0.4,0.6
				c0,0.1,0,0.2-0.1,0.3c-0.1,0.1-0.2,0.2-0.3,0.2s-0.3-0.1-0.4-0.2c-0.1-0.1-0.2-0.3-0.4-0.5c-0.1-0.1-0.2-0.2-0.2-0.3
				c0-0.1,0.1-0.2,0.2-0.3l-0.7,0c-0.3,0-0.4-0.1-0.4-0.4c0-0.3,0.1-0.4,0.4-0.4L77.4,18.9z M76.4,15.8v-0.4l-1.3,0.1c0,0,0,0,0,0
				c-0.1,0-0.2,0-0.3-0.1c-0.1-0.1-0.1-0.2-0.1-0.3c0-0.3,0.1-0.4,0.4-0.4l1.3-0.1v-0.4c0-0.3,0.2-0.4,0.5-0.4
				c0.3,0,0.5,0.1,0.5,0.4v0.3l0.9-0.1c0,0,0,0,0,0c0.1,0,0.2,0.1,0.3,0.2c0,0.1,0.1,0.2,0.1,0.2c0,0.2-0.1,0.4-0.3,0.4l-1,0.1v0.4
				l1-0.1c0,0,0.1,0,0.1,0c0.4,0,0.6,0.2,0.6,0.6c0,0,0,0,0,0.1L78.9,18c0,0.2-0.2,0.4-0.5,0.4c-0.2,0-0.3,0-0.4-0.1l-2.3,0.2
				c-0.1,0.2-0.2,0.3-0.4,0.3c-0.3,0-0.4-0.1-0.4-0.3l-0.2-2.2c0,0,0,0,0,0c0-0.1,0.1-0.2,0.2-0.3c0.1-0.1,0.2-0.1,0.3-0.1
				c0.1,0,0.2,0,0.3,0.1L76.4,15.8z M76.4,16.7v-0.3l-0.8,0.1l0,0.3L76.4,16.7z M76.4,17.4l-0.7,0.1l0,0.4l0.7-0.1V17.4z M77.3,16.7
				l0.8-0.1l0-0.1c0,0,0,0,0,0c0-0.1,0-0.2-0.1-0.2c0,0,0,0,0,0l-0.7,0.1V16.7z M77.3,17.3v0.4l0.7-0.1l0-0.4L77.3,17.3z M78.7,13.8
				c0.1,0,0.3,0.1,0.5,0.3c0.3,0.3,0.5,0.5,0.5,0.7c0,0.1,0,0.2-0.1,0.3c-0.1,0.1-0.2,0.1-0.3,0.1c-0.2,0-0.3-0.1-0.4-0.3
				c-0.1-0.1-0.2-0.3-0.4-0.5c-0.1-0.1-0.1-0.2-0.1-0.3c0-0.1,0-0.2,0.1-0.2C78.6,13.8,78.7,13.8,78.7,13.8z"/>
			<path class="st0" d="M84.7,16.8c-0.1,0-0.1-0.1-0.2-0.2c-0.1-0.1-0.2-0.3-0.5-0.5c-0.1,0-0.1-0.1-0.1-0.1
				c-0.5,0.3-0.9,0.5-1.1,0.5c-0.1,0-0.2-0.1-0.3-0.2c0-0.1-0.1-0.1-0.1-0.2c0-0.2,0.1-0.3,0.3-0.4c0.9-0.5,1.6-1,2.1-1.6
				c0.1-0.1,0.3-0.2,0.4-0.2c0.1,0,0.2,0,0.3,0.1c0.1,0.1,0.1,0.2,0.1,0.3c0,0,0,0.1,0,0.1l1.2-0.1c0,0,0,0,0.1,0
				c0.4,0,0.6,0.2,0.6,0.5c0,0.2-0.1,0.5-0.3,0.8c-0.4,0.6-1,1.1-1.7,1.6c-0.6,0.5-1.4,0.8-2.4,1.1c-0.3,0.1-0.5,0.1-0.6,0.1
				c-0.1,0-0.2-0.1-0.3-0.2c0-0.1-0.1-0.1-0.1-0.2c0-0.1,0-0.2,0.1-0.2c0.1,0,0.2-0.1,0.4-0.2C83.6,17.4,84.2,17.1,84.7,16.8z
				 M85.3,20.3c0,0-0.1-0.1-0.2-0.2c-0.1-0.2-0.3-0.4-0.6-0.6c0,0,0,0-0.1-0.1c0,0-0.1,0-0.1,0c-0.5,0.3-0.8,0.4-1.1,0.4
				c-0.2,0-0.3-0.1-0.3-0.2c0-0.1-0.1-0.1-0.1-0.2c0-0.1,0.1-0.2,0.2-0.3c0,0,0.1-0.1,0.3-0.1c0.6-0.2,1.2-0.6,1.8-1.2
				c0.2-0.2,0.3-0.3,0.5-0.5c0.1-0.1,0.2-0.2,0.4-0.2c0.1,0,0.2,0,0.3,0.1c0.1,0.1,0.1,0.2,0.1,0.3c0,0.1,0,0.1,0,0.2l1.3-0.1
				c0,0,0,0,0.1,0c0.4,0,0.6,0.2,0.6,0.5c0,0.3-0.2,0.7-0.7,1.3C87,20.4,86.1,21,85,21.4c-0.6,0.2-1.2,0.4-1.8,0.5
				c-0.1,0-0.1,0-0.2,0c-0.1,0-0.3,0-0.3-0.1c-0.1-0.1-0.1-0.2-0.1-0.3c0-0.1,0.1-0.2,0.2-0.3c0.1,0,0.2-0.1,0.4-0.1
				C83.9,20.9,84.6,20.6,85.3,20.3z M85.3,16.2c0.3-0.3,0.6-0.6,0.8-0.8c0.1-0.1,0.1-0.2,0.1-0.2c0-0.1-0.1-0.1-0.2-0.1l-1,0.1
				c-0.2,0.1-0.3,0.2-0.5,0.3c0.2,0.1,0.4,0.3,0.6,0.4C85.2,16.1,85.3,16.1,85.3,16.2z M86,19.8c0.4-0.3,0.7-0.6,0.9-0.9
				c0.1-0.1,0.1-0.2,0.1-0.2c0-0.1-0.1-0.1-0.2-0.1l-1.2,0.1c-0.2,0.1-0.3,0.3-0.5,0.4C85.7,19.3,86,19.6,86,19.8z"/>
			<path class="st0" d="M91.5,17.5h2.9c0.1,0,0.2,0,0.3,0.1c0.1,0.1,0.1,0.2,0.1,0.4c0,0.2-0.1,0.4-0.2,0.5c-0.1,0-0.1,0.1-0.2,0.1
				h-2.9c-0.1,0-0.2,0-0.3-0.1c-0.1-0.1-0.1-0.2-0.1-0.4c0-0.2,0.1-0.4,0.2-0.5C91.4,17.5,91.4,17.5,91.5,17.5z"/>
		</g>
	</g>
	<g>
		<path class="st0" d="M60.7,42c0,0.3,0.1,0.5,0.3,0.8c0.3,0.4,0.6,0.9,1.1,1.2c0.7,0.4,1.3,0.6,2.1,0.5c0.2-0.1,0.5-0.1,0.6-0.2
			c0.2-0.2,0.4-0.3,0.5-0.5c0.2-0.2,0.5-0.4,0.5-0.7c0.1-0.4,0.1-0.8,0.1-1.2c0-0.2,0-0.3,0.2-0.4c0.2-0.1,0.4-0.6,0.4-0.9
			c0-0.2,0-0.4-0.1-0.5c-0.1-0.1-0.2-0.3-0.3-0.4c-0.2-0.5-0.6-0.8-1.2-1.1c-0.2-0.1-0.5-0.2-0.8-0.2c-0.4,0-0.8-0.1-1.1,0.1
			c-0.3,0.1-0.5,0.2-0.7,0.4c-0.1,0-0.1,0-0.2,0.1c-0.4,0.2-0.5,0.6-0.6,1c0,0,0,0.1,0,0.1c-0.2,0.1-0.4,0.2-0.5,0.3c0,0,0,0,0,0.1
			C61.1,40.5,61,40.8,61,41c-0.1,0.1-0.1,0.2-0.1,0.4c0,0.1-0.1,0.2-0.1,0.4c0,0.1,0,0.1-0.1,0.2C60.7,41.9,60.7,42,60.7,42z
			 M62.5,42.3c-0.5-0.4-0.6-1-0.3-1.3c0.1,0.1,0.1,0.1,0.2,0.2c0,0,0,0,0,0c0,0,0,0,0,0c0,0,0,0,0,0c0,0,0.1,0.1,0.1,0.1
			c0,0,0,0,0,0c0,0,0,0,0,0c0,0,0.1-0.1,0.1-0.1c-0.1-0.2-0.1-0.4-0.2-0.5c-0.5-0.8,0-1.7,0.7-2c0.1,0,0.2-0.1,0.4-0.1
			c0.1,0,0.3-0.1,0.4-0.1c0.1,0,0.2,0,0.4,0c0,0,0,0,0,0c0.1,0,0.1,0,0.2,0c0.1,0,0.3,0.1,0.4,0.1c0.4,0.2,0.8,0.4,1.1,0.8
			c0.1,0.3,0.2,0.6,0.2,1c0,0.2-0.2,0.6-0.3,0.8c-0.1,0.2-0.3,0.3-0.4,0.4c-0.3,0.2-0.7,0.3-1.1,0.3c-0.1,0-0.1,0-0.2-0.1
			c-0.1,0-0.2-0.1-0.3-0.1c0,0,0,0.1,0,0.1c0,0,0,0,0,0c-0.1,0-0.1,0.1-0.1,0.1c0,0,0,0,0,0c0.2,0.1,0.4,0.1,0.7,0.2
			c0,0,0.1,0,0.1,0.1c-0.3,0.1-0.6,0.3-0.9,0.3C63.3,42.7,62.9,42.5,62.5,42.3z M62,40.3c0,0.1,0.1,0.1,0.1,0.2c0,0.1,0,0.1,0,0.2
			c-0.5,0.2-0.5,0.5-0.2,0.9c0.1,0.1,0.1,0.2,0.2,0.3c0,0.1,0.1,0.1,0.1,0.2c0,0,0.1,0.1,0.1,0.1c0,0.1,0.1,0.1,0.1,0.2c0,0,0,0,0,0
			c0.2,0.2,0.5,0.4,0.9,0.5c0,0,0,0,0,0c0.1,0,0.2,0.1,0.3,0.1c0.2,0.1,0.4,0.1,0.6,0c0.3,0,0.5-0.2,0.7-0.4c0,0,0,0,0,0
			c0,0,0-0.1,0.1-0.1c0,0,0-0.1,0.1-0.1c0,0,0.1-0.1,0.1-0.1c0.1-0.1,0.2-0.1,0.4-0.2c0,0,0.1,0,0.1-0.1c0.3,0.3,0.1,0.6,0,0.8
			c-0.1,0.3-0.3,0.6-0.5,0.8c-0.1,0.1-0.3,0.2-0.5,0.3c-0.6,0.3-1.4,0.2-2-0.1c-0.4-0.2-0.8-0.5-1.1-0.9c0,0,0,0-0.1,0
			c-0.2-0.2-0.3-0.5-0.4-0.8c-0.1-0.3-0.1-0.6,0-1c0-0.1,0.1-0.2,0.1-0.3c0,0,0-0.1,0-0.1c0.1-0.2,0.2-0.3,0.3-0.4
			C61.7,40.4,61.8,40.3,62,40.3z M61,42.4c-0.1-0.2-0.1-0.4-0.1-0.6C61,42,61,42.2,61,42.4z"/>
		<path class="st0" d="M64,41.6c0.3,0,0.5-0.1,0.7-0.3c0.2-0.1,0.3-0.3,0.4-0.4c0.1-0.1,0.1-0.3,0.1-0.5c0,0,0-0.1,0-0.1
			c0-0.1-0.1-0.2-0.1-0.3c-0.2-0.3-0.4-0.5-0.7-0.6c-0.4-0.3-1-0.2-1.3,0.2c-0.1,0.1-0.1,0.2-0.1,0.3c0,0.1,0,0.1,0,0.2c0,0,0,0,0,0
			c0,0.2,0,0.5,0.1,0.7c0,0.1,0.1,0.1,0.1,0.2C63.2,41.4,63.5,41.6,64,41.6C63.9,41.6,63.9,41.6,64,41.6z M64.3,39.7
			C64.3,39.8,64.4,39.8,64.3,39.7c0.1,0.1,0.1,0.1,0.1,0.1c0.2,0.1,0.3,0.2,0.4,0.4c0.1,0.1,0.1,0.2,0.1,0.4c-0.5-0.3-1-0.6-1.5-0.9
			c0.1-0.1,0.2-0.1,0.3-0.1C63.9,39.6,64.1,39.6,64.3,39.7z M63,40.3c0-0.1,0.1-0.2,0.2-0.2c0.3,0.1,0.6,0.2,0.9,0.4
			c0.2,0.2,0.4,0.3,0.6,0.6c-0.3,0.3-0.7,0.5-1,0.3C63.1,41,63,40.7,63,40.3z"/>
		<path class="st0" d="M71.8,55.1c-0.3,0-0.7,0.1-0.9,0.4c-0.1,0.1-0.1,0.2-0.1,0.3c-0.1,0.1-0.1,0.3,0,0.4c0.1,0.5,1,0.5,1.3,0.2
			c0,0,0,0,0,0c0,0,0,0,0,0c0,0,0,0,0,0c0.1,0,0.2-0.1,0.2-0.2c0.1-0.1,0.2-0.2,0.2-0.3C72.6,55.5,72.2,55.1,71.8,55.1z"/>
		<path class="st0" d="M91.1,12c0,0-0.1,0-0.1-0.1c0,0.1,0,0.1,0,0.2c0.1,0.1,0.1,0.3,0.2,0.4c0,0.1,0,0.1,0,0.1
			c-0.1,0.3,0,0.4,0.3,0.5c0.2,0.1,0.3,0,0.4-0.2c0.1-0.2,0-0.5-0.3-0.5C91.3,12.4,91.2,12.2,91.1,12z M91.4,12.6
			c0.1,0,0.2,0.1,0.3,0.2c-0.1,0.1-0.2,0.2-0.2,0.2c-0.1,0-0.2-0.1-0.2-0.2C91.3,12.7,91.4,12.6,91.4,12.6z"/>
		<path class="st0" d="M81.9,5.4c0.2-0.1,0.4-0.2,0.6-0.1c0.1,0,0.2,0,0.4,0.1c0,0,0.1-0.1,0.1-0.1C83.1,5,83,5,82.8,5
			c-0.4-0.1-0.7-0.1-1-0.5c-0.2-0.3-0.9-0.2-1,0.1c-0.1,0.1-0.1,0.4,0,0.5C81,5.6,81.5,5.7,81.9,5.4z M81.5,4.7
			c0.2,0,0.3,0.1,0.3,0.3c0,0.2-0.2,0.3-0.4,0.2c-0.1,0-0.3-0.2-0.3-0.3C81.1,4.7,81.3,4.7,81.5,4.7z"/>
		<path class="st0" d="M111.8,20.7c0,0-0.1,0-0.1,0c-0.1,0.1-0.2,0.1-0.3,0.2c-0.6,0.2-1.2,0.4-1.8,0.6c-0.7,0.3-1.4,0.5-2.1,0.8
			c-0.9,0.3-1.8,0.6-2.7,0.9c0-0.3,0-0.7,0-1c-0.1,0.1-0.1,0.2-0.2,0.2c-0.1,0.7-0.3,1.3-0.4,2c-0.1,1.1,0.1,2.2,0.3,3.3
			c0.1,0.6,0.4,1.3,0.6,1.9c0.4,1.4,0.9,2.7,1.4,4c0.5,1.2,1.1,2.5,1.5,3.7c0.4,1,0.6,2.1,0.8,3.3c0.2,1.4-0.1,2.8-0.7,4.2
			c-0.3,0.8-0.7,1.5-1.2,2.2c-0.2,0.4-0.5,0.8-0.9,1.2c-1.4,1.6-3.2,2.7-4.7,4.1c-1,0.9-2.1,1.7-3.1,2.6c-0.8,0.8-1.3,1.8-1.4,2.9
			c-0.7-0.2-1.3-0.4-2-0.7c0.1-0.3,0.1-0.6,0.2-0.8c0.2-0.8,0.7-1.5,1.3-2.1c0.7-0.7,1.4-1.3,2.2-1.9c1-0.7,1.9-1.5,2.9-2.3
			c1.1-0.8,2.1-1.6,3-2.6c1.1-1.1,1.9-2.4,2.4-3.8c0.4-1,0.4-2.1,0.4-3.2c0-1-0.2-2-0.6-3c-0.4-1.1-0.9-2.2-1.3-3.2
			c-0.4-1.1-0.8-2.2-1.4-3.2c-0.3-0.4-0.4-0.9-0.6-1.3c-0.3-0.7-0.5-1.5-0.6-2.3c0-0.8,0-1.7,0-2.5c0-0.4,0.1-0.9,0.1-1.3
			c0,0,0,0-0.1,0c-0.1,0.1-0.2,0.3-0.2,0.4c-0.1,0.7-0.2,1.3-0.3,2c-0.2,1.5,0.1,3,0.8,4.3c0.3,0.6,0.6,1.2,0.9,1.8
			c0.4,1,0.8,2,1.2,3c0.3,0.8,0.6,1.6,0.9,2.4c0.7,1.6,0.7,3.3,0.5,5c-0.2,1-0.7,1.9-1.2,2.8c-0.5,1-1.3,1.8-2.1,2.5
			c-1,0.9-2,1.7-3.1,2.5c-0.6,0.5-1.3,1-2,1.5c-0.6,0.4-1.1,0.9-1.6,1.4c-0.7,0.6-1.2,1.3-1.7,2c-0.4,0.6-0.5,1.3-0.7,1.9
			c-0.7-0.3-1.4-0.5-2.1-0.7c0.1-0.2,0.1-0.4,0.2-0.5c0.6-1.2,1.4-2.2,2.4-3c1.2-0.9,2.4-1.8,3.8-2.6c1.8-1,3.5-2.3,4.8-3.9
			c1-1.2,1.6-2.5,1.8-3.9c0.2-1.2,0.3-2.4,0.2-3.6c-0.1-0.9-0.2-1.9-0.7-2.7c-0.5-0.8-1-1.7-1.4-2.5c-0.2-0.3-0.3-0.7-0.5-1
			c-0.6-1-1.2-2-1.6-3.1c-0.2-0.6-0.4-1.2-0.4-1.8c0-0.4,0.1-0.7,0.1-1.1c0-1,0.3-1.9,0.7-2.8c0-0.1,0-0.1,0.1-0.2
			c-0.4,0.2-0.7,0.3-1,0.5c-0.1,0-0.1,0.1-0.2,0.2c-0.1,0.5-0.3,1-0.3,1.5c-0.1,1-0.2,1.9-0.2,2.9c0,0.7,0,1.3,0.2,1.9
			c0.2,0.8,0.5,1.5,0.8,2.2c0.4,1.1,0.7,2.3,0.5,3.5c-0.3,1.5-1.1,2.6-2.5,3.1c-0.7,0.3-1.4,0.2-1.8-0.4c-0.1-0.2-0.2-0.4-0.1-0.6
			c0-0.1,0.1-0.2,0.2-0.2c0.1,0,0.2,0.1,0.2,0.2c0.1,0.2,0.3,0.3,0.5,0.3c1-0.1,1.8-0.5,2.2-1.5c0.6-1.4,0.3-2.7-0.1-4.1
			c-0.2-0.6-0.4-1.1-0.7-1.7c-0.4-0.9-0.6-1.8-0.6-2.8c0-0.3,0.1-0.6,0.1-0.9c0.1-0.8,0.2-1.5,0.5-2.2c0.1-0.3,0.2-0.7,0.3-1
			c0,0-0.1,0-0.1,0c-0.1,0.2-0.2,0.5-0.3,0.7c-0.4,0.6-0.7,1.3-0.8,2c-0.3,1.4-0.3,2.7,0.3,4c0.4,0.9,0.7,1.9,1,2.8
			c0.2,0.9,0.2,1.8-0.1,2.6c-0.3,0.7-0.8,1.1-1.5,1.2c-0.1,0-0.2,0-0.2,0c-0.2-0.5-0.6-0.3-1-0.2c-0.1,0-0.2,0.1-0.3,0.2
			c-0.3,0.4-0.3,1,0,1.4c0.4,0.5,0.8,0.9,1.5,0.9c1,0,1.8-0.4,2.5-1c1.3-1.1,1.7-2.5,1.5-4c-0.1-1.4-0.7-2.8-1.2-4.1
			c-0.1-0.2-0.2-0.4-0.2-0.7c0,0,0,0,0.1,0c0,0.1,0.1,0.1,0.1,0.2c0.3,0.6,0.6,1.2,0.9,1.7c0.4,0.6,0.7,1.2,1.1,1.9
			c0.2,0.3,0.4,0.7,0.6,0.9c0.9,1.3,1.5,2.7,1.5,4.3c0,0.9,0,1.9-0.2,2.8c-0.2,0.9-0.5,1.8-0.9,2.5c-0.4,0.8-1.1,1.4-1.7,2.1
			c-1,1-2.2,1.9-3.5,2.6c-1.5,0.9-2.9,1.9-4.3,3.1c-0.8,0.7-1.3,1.4-1.8,2.3c-0.2,0.4-0.3,0.8-0.5,1.3c-0.7-0.2-1.4-0.3-2.1-0.5
			c-0.5-0.1-1.1-0.2-1.6-0.3c0-0.1,0-0.2-0.1-0.3c-0.1-0.1-0.1-0.3-0.2-0.4c-0.2-0.5-0.5-1-1-1.3c-0.5-0.4-1.1-0.8-1.8-1
			c-0.5-0.1-1-0.2-1.6,0c-0.6,0.2-1,0.5-1.1,1.2c-0.1,0.6,0.1,1.2,0.4,1.7c-0.2,0-0.4,0-0.6,0c-0.4,0-0.8,0.1-1.2,0.2
			c-0.3,0.1-0.5,0.4-0.3,0.7c0.1,0.3,0.2,0.6,0.3,0.9c0.4,1.6,1,3,1.7,4.4c-0.4,0.1-0.9,0.1-1.3,0.2c-2.9,0.3-5.9,0.2-8.8-0.3
			c-2.4-0.4-4.6-1.1-6.7-2.1c0,0,0,0,0-0.1c0.5-0.1,1,0,1.5-0.2c0.1,0,0.2-0.1,0.4-0.1c0.2,0,0.3,0,0.5,0c0,0,0.1,0,0.1,0
			c0.2,0.1,0.4,0.3,0.5,0.4c0.3,0.2,0.6,0.5,0.9,0.7c0.1,0.1,0.1,0.1,0.2,0.2c0.1,0.1,0.2,0.1,0.3,0.1c0.3,0,0.6-0.1,1-0.2
			c0.3-0.1,0.4-0.3,0.1-0.5c-0.1-0.1-0.2-0.2-0.3-0.3c-0.2-0.2-0.4-0.5-0.3-0.8c0-0.1,0.1-0.2,0.1-0.2c0.3,0.2,0.6,0,0.9,0
			c0.2,0,0.3-0.1,0.4-0.1c0,0-0.1,0.1-0.1,0.1c-0.1,0.1-0.1,0.3-0.2,0.4c0,0,0.1,0,0.1,0.1c0.3-0.3,0.6-0.6,0.9-0.9
			c0.4-0.3,0.8-0.4,1.2-0.7c0,0.2,0,0.4,0,0.5c0,0.5,0.2,0.7,0.7,0.7c0.1,0,0.2,0,0.3,0.1c0.1,0,0.2,0.1,0.4,0.1
			c-0.1-0.1-0.1-0.2-0.2-0.3c0,0,0,0,0,0c0.4-0.8,0-1-0.9-1.1c1-0.4,2.1-0.6,3.2-0.2c0,0,0-0.1,0.1-0.1c-0.1-0.1-0.1-0.2-0.2-0.2
			c-0.5,0-0.9-0.1-1.4-0.1c-0.6,0.1-1.3,0.2-1.9,0.4c-0.5,0.1-0.9,0.3-1.3,0.6c0.5-0.5,0.5-1.2,0.4-1.9c0,0,0-0.1,0-0.1
			c0.1-0.1,0.1-0.1,0.1-0.2c0.1-0.4,0.3-0.7,0.3-1.1c0-0.1,0-0.2,0-0.3c0,0,0-0.1,0-0.1c0-0.2,0.1-0.3,0.1-0.5c0-0.2,0-0.5,0-0.7
			c0-0.2,0-0.3,0-0.5c0-0.1,0-0.2,0-0.3c0,0,0,0,0,0c0,0,0,0,0-0.1c0,0,0,0,0,0c0,0,0,0,0,0c0,0,0-0.1,0-0.1c0-0.2-0.1-0.3-0.1-0.5
			c0,0,0,0,0,0c0,0,0,0,0,0c0,0,0,0,0,0c0,0,0-0.1-0.1-0.1c-0.2-0.6-0.5-1.1-1-1.5c0.1-0.1,0.2-0.1,0.2-0.2c0.2-0.2,0.4-0.3,0.5-0.7
			c0,0,0,0,0,0c0,0,0,0,0-0.1c0.1-0.4,0.1-0.7,0-1.1c-0.2-0.5-0.5-0.9-0.9-1.2c-0.5-0.3-1-0.2-1.5-0.1c0,0,0-0.1,0-0.1
			c-0.1-0.7-0.1-1.4-0.4-2.1c-0.2-0.6-0.3-1.1-0.5-1.7c-0.5-1.3-1.3-2.3-2.1-3.3c-0.7-0.8-1.6-1.4-2.5-1.9c-0.3-0.2-0.5-0.5-0.7-0.9
			c-0.2-0.5-0.5-1-0.7-1.6c-0.2-0.4-0.2-0.9-0.3-1.3c-0.1-0.3-0.3-0.5-0.6-0.5c-0.1,0-0.1,0-0.2,0c-0.2-0.1-0.3,0-0.4,0.1
			c0,0,0,0,0,0.1c-0.1,0.1-0.1,0.1-0.2,0.2c-0.1,0.2-0.2,0.4-0.2,0.6c0,0,0,0,0,0c0,0.1,0,0.1-0.1,0.2c-0.2,0.6-0.5,1.1-0.7,1.7
			c0,0.1,0,0.1-0.1,0.1c0,0-0.1,0-0.1,0c-0.5,0-1.1,0.1-1.6,0.1c-0.1,0-0.2,0-0.2-0.1c-0.1-0.3-0.1-0.7-0.1-1c0-0.6,0.2-1.2,0.3-1.7
			c0-0.1,0-0.3,0.1-0.4c0-0.1,0.1-0.2,0.1-0.3c0.2-0.3,0.3-0.6,0.5-0.9c0.1-0.2,0.2-0.4,0.4-0.5c0.1-0.2,0.3-0.3,0.5-0.3
			c0.1,0.1,0.3,0.2,0.5,0.2c0.1,0,0.1,0,0.2,0c1.3,0.5,2.9,0.3,4.2-0.3c0.2-0.1,0.4-0.2,0.6-0.3c0.3-0.1,0.6-0.3,0.9-0.5
			c0,0,0.1,0,0.1-0.1c0,0,0.1,0,0.1-0.1c0,0,0,0,0.1-0.1c0.1-0.1,0.2-0.1,0.2-0.2c0.4-0.3,0.6-0.7,0.9-1.1c0.2-0.3,0.5-0.6,0.6-1
			c0.2-0.8,0.4-1.6,0.3-2.4c0-0.7-0.2-1.5-0.5-2.1c-0.2-0.3-0.4-0.6-0.6-0.9c-0.3-0.5-0.7-0.9-1.1-1.3c-0.2-0.1-0.4-0.3-0.6-0.4
			c-0.2-0.1-0.3-0.2-0.5-0.3c0,0,0,0,0,0c0,0-0.1-0.1-0.1-0.1C66.2,19.2,66,19,65.7,19c0,0,0,0-0.1,0c-0.1,0-0.1,0-0.2-0.1
			c-0.2-0.1-0.5-0.1-0.7-0.1c0,0,0,0,0,0c-0.2,0-0.5,0-0.7,0c-0.1,0-0.2,0-0.3,0c-0.2,0-0.3,0-0.5,0c-0.2,0-0.4,0-0.6,0.1
			c-0.3,0-0.7,0.1-1,0.2c-0.6,0.2-1.2,0.4-1.8,0.7c-0.2,0.1-0.3,0.1-0.4,0.3c-0.4,0.4-0.9,0.7-1.3,1.1c-0.2,0.2-0.5,0.5-0.7,0.7
			c0,0,0,0-0.1,0c-0.5,0.5-0.8,1.1-1.1,1.7c-0.5,0.7-0.7,1.6-0.9,2.4c-0.4,1.4-0.6,2.8-0.5,4.2c0,0.4,0.1,0.8,0.2,1.2
			c0,0.3,0.1,0.6,0.2,0.9c0.3,0.8,0.7,1.6,1.1,2.5c0.2,0.3,0.4,0.6,0.6,0.9c0.1,0.1,0.1,0.2,0.2,0.3c0.1,0.2,0.2,0.3,0.3,0.5
			c-0.2,0.1-0.4,0.2-0.6,0.3c-0.1,0-0.3,0.1-0.4,0c-0.4-0.1-0.8-0.2-1.2-0.3c-0.1-0.1-0.2-0.1-0.3-0.2c-0.2-0.1-0.4-0.2-0.5-0.4
			c-0.3-0.4-0.5-0.8-0.8-1.2c-0.1-0.2-0.3-0.3-0.6-0.3c-0.3,0-0.5,0.2-0.6,0.5c-0.1,0.1-0.1,0.2-0.1,0.4c0,0.5,0,1.1,0.1,1.6
			c0,0.2,0.1,0.3,0.1,0.5c0,0.2,0.1,0.4,0.1,0.6c0.1,0.7,0.3,1.3,0.6,2c0,0,0,0,0,0c-0.5-0.2-0.9-0.1-1.3,0.1
			c-0.9,0.5-0.9,1.6-0.4,2.2c0.1,0.1,0.1,0.2,0.1,0.3c-0.2,0.8-0.4,1.5-0.4,2.3c-0.9-2.2-1.5-4.6-1.9-7.1c-0.4-3.1-0.3-6.1,0.4-9.1
			c1.3-5.8,4.3-10.6,8.7-14.5C63.4,9.8,69,7.4,75.3,6.8c2.6-0.2,5.2-0.1,7.8,0.3c0,0,0,0,0,0c0.1,0.1,0.2,0.3,0.3,0.4
			c0.3,0.4,0.6,0.6,1.1,0.5c0.3-0.1,0.7-0.2,0.9-0.4c3.9,1,7.4,2.7,10.5,5.1c0,0.1-0.1,0.2-0.1,0.4c0,0.1,0,0.2,0,0.3c0,0,0,0,0,0
			c0,0.1,0,0.3,0,0.4c0.1,0.1,0.2,0.2,0.3,0.3c0.3,0.3,0.6,0.4,1,0.3c0.2,0,0.4-0.1,0.5-0.2c0,0,0,0,0.1,0c0.8,0.7,1.5,1.5,2.3,2.3
			c-0.1,0-0.2,0.1-0.3,0.1c-0.2,0-0.3,0.1-0.5,0.2C99.1,16.8,99,17,99,17.1c-0.1,0.2,0,0.4,0,0.5c0,0.2,0.1,0.4,0,0.6
			c-0.1,0.2-0.2,0.3-0.4,0.4c0,0,0,0,0,0c-0.3,0.1-0.5,0.4-0.7,0.6c-0.2,0.2-0.4,0.4-0.3,0.7c0,0.1,0,0.2,0.1,0.2
			c0,0.1,0,0.3,0.1,0.4c0.2,0.3,0.5,0.5,0.9,0.5c0,0,0.1,0,0.1,0c0.3,0.1,0.7,0.1,1,0c0.2-0.1,0.4-0.2,0.5-0.3
			c0.3-0.1,0.5-0.3,0.7-0.6c0.4-0.5,0.7-1.1,0.7-1.9c0.4,0.5,0.8,1.1,1.1,1.6c0,0.1,0.1,0.1,0.1,0.2c0.4-0.2,0.9-0.3,1.3-0.5
			c-0.1-0.1-0.1-0.2-0.2-0.3c-1-1.5-2.1-3-3.3-4.3c-0.8-0.8-1.6-1.6-2.4-2.3c0-0.1,0-0.1,0-0.2c0,0,0,0,0,0c0-0.1,0-0.3,0-0.4
			c0-0.9-0.9-1.5-1.5-1.5c-0.3,0-0.6,0.1-0.7,0.3c-3-2.2-6.3-3.7-10-4.7c0,0,0,0,0,0c0,0,0-0.1,0-0.1c0.1-0.3,0-0.7-0.1-1
			c-0.1-0.2-0.2-0.5-0.4-0.7c-0.2-0.3-0.5-0.7-0.8-1c-0.7-0.6-1.4-0.9-2.3-0.9c-0.3,0-0.7,0-1,0.1c-0.6,0.3-1.1,0.6-1.4,1.2
			c-0.2,0.3-0.4,0.7-0.2,1.1c0.1,0.1,0.2,0.2,0.3,0.4c0,0,0-0.1-0.1-0.1c-0.3,0-0.6-0.1-1-0.1c-0.9,0-1.7,0-2.6,0
			c-0.1,0-0.2,0-0.3,0c-1.4,0.2-2.7,0.2-4.1,0.5c-5.3,0.9-10,3.2-14.2,6.6c-2.5,2.1-4.6,4.5-6.3,7.4c-2.1,3.5-3.4,7.4-3.9,11.5
			c-0.1,0.6-0.1,1.2-0.2,1.8c0,0.8,0,1.6,0,2.5c0,0.1,0,0.2,0,0.3c0.2,2.9,0.8,5.7,1.8,8.5c0.7,1.8,1.5,3.4,2.5,4.9
			c0.1,0.2,0.1,0.3,0.2,0.5c0,0,0,0.1,0.1,0.1c0.1,0.2,0.2,0.4,0.3,0.6c0.4,0.8,0.8,1.5,1.5,2.1c0.1,0.1,0.3,0.2,0.4,0.3
			c0.2,0.2,0.4,0.3,0.6,0.5c1,1.1,2.1,2.2,3.4,3.1c1.4,1.1,2.9,2.1,4.4,2.9c0,0.1,0.1,0.2,0.1,0.3c0.3,0.8,0.6,1.6,0.9,2.4
			c0.1,0.1,0.1,0.2,0.2,0.2c0,0,0.1,0,0.1,0c0.1-0.1,0.2-0.1,0.3-0.2c0.1-0.1,0.2-0.1,0.3-0.2c0.2-0.1,0.3-0.2,0.4-0.4
			c0-0.2,0.1-0.5,0.1-0.7c2.9,1.3,5.9,2.1,9.1,2.4c2.9,0.3,5.8,0.2,8.8-0.3c0,0.1,0.1,0.1,0.1,0.2c0.4,0.6,0.7,1.3,1.1,2
			c0.2,0.4,0.4,0.9,0.6,1.3c0.3,0.4,0.5,1,1.2,0.9c0,0,0.1,0,0.1,0c0.7,0.2,1.4,0.3,2.1,0.5c0.1,0,0.3,0,0.4-0.1
			c0.8-0.5,1.5-1.1,2.3-1.7c0.8-0.6,1.6-1.2,2.5-1.8c1.7-1.3,3.4-2.5,5.1-3.8c0.1-0.1,0.2-0.2,0.4-0.3c0.5-0.3,0.6-0.7,0-1
			c-0.5-0.3-1-0.6-1.5-0.8c0-0.2,0-0.3,0.1-0.5c0.1-0.9,0.6-1.6,1.3-2.3c0.5-0.5,1.1-1,1.6-1.4c1.3-1,2.5-2.1,3.8-3.1
			c1.1-0.9,2.1-1.8,3-2.9c0.3-0.5,0.6-1,0.9-1.5c0.8-1.2,1.1-2.6,1.3-4c0.1-1.2,0-2.3-0.3-3.5c-0.4-1.6-1-3.1-1.7-4.5
			c-1.2-2.5-2.1-5.2-2.7-7.9c-0.2-1-0.3-1.9-0.2-2.9c0.9-0.2,1.7-0.5,2.6-0.7c1-0.3,2-0.6,3-0.9c0.6-0.2,1.3-0.3,1.9-0.7
			c0,0,0-0.1,0-0.1C112,21.1,111.9,20.9,111.8,20.7z M101,19.7c-0.4,0.7-1.1,1.1-1.9,1.2c-0.5,0-1.1-0.5-1.2-1
			c-0.1-0.2,0.2-0.7,0.5-0.8c0.4-0.2,0.7-0.5,0.9-0.9c0.1-0.1,0.1-0.2,0-0.3c0-0.1-0.1-0.2-0.1-0.2c-0.1-0.2-0.1-0.5,0.2-0.6
			c0.1-0.1,0.3-0.2,0.4-0.3c0.1-0.1,0.2,0,0.2,0c0.1,0,0.2,0.1,0.3,0.1c0,0,0.1,0,0.1,0c0,0,0,0,0,0c0,0,0.1,0,0.1,0c0,0,0,0,0,0
			c0,0,0,0,0.1,0c0,0,0,0,0,0c0,0,0.1,0,0.1,0c0,0,0,0,0,0c0,0,0,0,0.1,0c0,0,0,0,0,0c0,0,0,0,0.1,0.1c0,0,0,0,0,0c0,0,0,0,0.1,0.1
			c0,0,0,0,0,0c0,0,0,0.1,0.1,0.1c0,0,0,0.1,0.1,0.1c0,0,0,0,0,0c0,0,0,0.1,0.1,0.1c0,0,0,0,0,0.1c0,0,0,0,0,0.1c0,0,0,0,0,0
			c0,0,0,0,0,0c0,0,0,0,0,0.1c0,0,0,0,0,0c0,0,0,0,0,0.1c0,0,0,0,0,0c0,0,0,0.1,0,0.1c0,0,0,0,0,0c0,0,0,0.1,0,0.1
			C101.4,18.7,101.3,19.2,101,19.7z M96.6,11c0.2,0,0.4,0,0.6,0.1c0.7,0.3,0.9,0.7,0.9,1.4c0,0.1,0,0.1,0,0.2l0,0c0,0,0,0,0,0
			c0,0.1,0,0.2-0.1,0.3c0,0,0,0,0,0c0,0.1,0,0.1,0,0.2c0,0,0,0,0,0.1c0,0,0,0.1,0,0.1c0,0.1-0.1,0.2-0.2,0.4c0,0,0,0,0,0
			c0,0,0,0,0,0c0,0-0.1,0.1-0.1,0.1c0,0,0,0,0,0c0,0-0.1,0.1-0.1,0.1l0,0c-0.2,0.2-0.6,0.2-0.8,0.1c-0.5-0.1-0.7-0.6-0.6-1.1
			c0,0,0,0,0-0.1c0,0,0,0,0-0.1l0,0c0,0,0,0,0,0c0-0.1,0.1-0.2,0.1-0.3c0,0,0,0,0,0c0,0,0-0.1,0-0.1c0,0,0,0,0,0c0,0,0-0.1,0-0.1
			c0,0,0,0,0,0c0,0,0-0.1,0-0.1c0,0,0,0,0,0c0,0,0-0.1,0-0.1c0,0,0,0,0-0.1c0,0,0-0.1,0-0.1c0-0.1,0-0.1-0.1-0.2c0,0,0,0,0,0
			c0,0,0,0,0,0c0,0,0,0,0,0c0,0,0,0,0,0c0,0,0,0,0,0c0,0,0,0,0,0c0,0,0,0,0,0c0,0,0,0,0,0c0,0,0,0,0,0c0,0,0,0,0,0c0,0,0,0,0,0
			c0,0,0,0,0,0c0,0,0,0,0,0c0,0,0,0,0,0c0,0,0,0,0-0.1C96.4,11.1,96.5,11,96.6,11z M83,6.9C83,6.9,83,6.9,83,6.9
			C83,6.9,83,6.9,83,6.9z M85.5,7.6C85.6,7.5,85.6,7.5,85.5,7.6c0.1-0.1,0.1-0.2,0.2-0.2C85.7,7.4,85.6,7.4,85.5,7.6
			C85.6,7.5,85.6,7.5,85.5,7.6z M86.1,6.5C86.1,6.5,86.1,6.5,86.1,6.5C86.1,6.5,86.1,6.5,86.1,6.5z M85.7,7.3
			C85.8,7.3,85.8,7.3,85.7,7.3C85.8,7.3,85.8,7.3,85.7,7.3z M85.8,7.2C85.8,7.1,85.9,7.1,85.8,7.2C85.9,7.1,85.8,7.1,85.8,7.2z
			 M85.9,7C85.9,7,85.9,7,85.9,7C85.9,7,85.9,7,85.9,7z M86,6.9C86,6.8,86,6.8,86,6.9C86,6.8,86,6.8,86,6.9z M86,6.7
			C86,6.7,86,6.7,86,6.7C86,6.7,86,6.7,86,6.7z M81.1,3.6c0.2-0.1,0.4-0.3,0.5-0.4c0.1,0,0.1-0.1,0.2-0.1c0.7-0.1,1.5,0,2.2,0.3
			c0.6,0.3,1.3,0.8,1.5,1.6c0,0,0,0.1,0.1,0.1c0.3,0.6,0.3,1.5-0.1,2c-0.3,0.3-0.7,0.7-1.2,0.6c-0.4-0.1-0.6-0.4-0.8-0.6
			c-0.1-0.1-0.2-0.2-0.2-0.4c-0.2-0.5-0.6-0.6-0.9-0.9c-0.1-0.1-0.4,0-0.6,0.1c-0.3,0.1-0.7,0.1-0.9-0.2c-0.1-0.2-0.3-0.4-0.4-0.5
			c0-0.1,0-0.2-0.1-0.3C80.6,4.3,80.7,3.9,81.1,3.6z M80.4,5.6C80.4,5.6,80.4,5.6,80.4,5.6C80.4,5.6,80.4,5.6,80.4,5.6z M62.9,32.9
			c0,0,0-0.1,0.1-0.1c0.1-0.1,0.1-0.1,0.2-0.1c0.1,0,0.1,0.1,0.3,0.1c0.1,0.1,0.2,0.1,0.2,0.2c0,0,0,0,0,0.1c0,0.1,0,0.1,0.1,0.1
			c0,0,0,0,0,0c0.1,0.2,0.1,0.4,0.1,0.5c0,0.6,0.3,1,0.5,1.5c0.1,0.3,0.3,0.6,0.5,1c-0.9-0.3-1.8-0.5-2.8-0.8c0.2-0.6,0.4-1.3,0.6-2
			C62.7,33.2,62.8,33,62.9,32.9z M72.3,57.7c-0.1,0.1-0.2,0.1-0.3,0.2c-0.3,0.1-0.5,0.2-0.8,0.1c-0.1,0-0.2,0-0.2,0c0,0,0,0-0.1,0
			c-0.1-0.1-0.3-0.1-0.5-0.1c0,0.1,0.1,0.2,0.1,0.2c-0.1,0-0.1,0.1-0.2,0.1c-0.9,0.3-1.8,0.5-2.7,0.4c0,0,0,0,0,0
			c-0.1-0.3-0.1-0.7,0-1c0.1-0.3,0.1-0.5,0.2-0.8c0.1-0.2,0.3-0.5,0.4-0.7c0.1-0.2,0.3-0.3,0.4-0.5c0,0,0.1-0.1,0.1-0.1
			c0.2-0.2,0.5-0.5,0.6-0.8c0.1-0.3,0-0.6-0.1-0.9c0-0.1-0.2-0.2-0.3-0.3c0,0-0.1-0.1-0.1-0.1c-0.3-0.5-0.8-0.7-1.3-0.8
			c-0.4-0.1-0.9-0.1-1.2-0.2c-0.8,0.1-1.5,0.1-2,0.5c-0.4,0.3-0.8,0.5-1.1,0.8c-0.4,0.3-0.6,0.8-0.9,1.2c0,0,0,0-0.1,0.1
			c0,0,0-0.1-0.1-0.1C62,54.2,62,53.6,62,53.1c0-0.2,0-0.4,0-0.5c-0.1,0-0.1,0-0.2-0.1c0,0,0,0,0,0c0,0,0,0,0,0c0,0,0,0,0,0
			c-0.1-0.1-0.2-0.1-0.3-0.1c-0.4-0.1-0.8-0.2-1-0.5c0,0,0,0,0,0c0-0.2,0.1-0.4,0.1-0.6c0.6-0.7,1.2-1.5,1.8-2.2
			c0,0,0.1-0.1,0.1-0.1c0.1,0,0.1,0,0.2,0c0.3,0,0.6,0.1,0.8,0.3c0,0,0,0,0.1,0c0,0,0,0,0.1,0.1c0.1,0.1,0.1,0.2,0.2,0.2
			c0,0,0,0,0,0c0,0,0,0,0,0.1c0,0.1,0.1,0.3,0.1,0.4c0,0,0,0.1,0.1,0c0,0,0.1,0,0-0.1c0-0.1-0.1-0.3-0.1-0.4c0,0,0,0,0,0
			c0,0,0,0,0,0c0,0.1,0.1,0.2,0.1,0.2c0,0,0,0,0,0.1c0,0,0,0.1,0,0.1c0.5-0.6,1-1.3,1.8-1.6c0.7-0.3,1.4-0.6,2.2-0.7
			c0.1,0,0.3,0,0.4,0c0,0,0.1,0,0.1,0c0.5,0.1,1,0.2,1.5,0.3c0,0,0,0,0.1,0c0,0,0.1,0,0.1,0c0,0,0.1,0,0.1,0c0,0,0,0,0,0
			c0,0,0,0,0,0c0,0,0,0,0,0c0,0,0,0,0,0c0,0.1,0.2,0,0.1-0.1c-0.2-0.3-0.2-0.7,0-1c0-0.1,0.1-0.1,0.2-0.2c1.1,0,2,0.3,2.9,0.7
			c0,0.1,0.1,0.1,0.1,0.2c0,0.1,0,0.2,0,0.3c-0.1,0.5-0.4,0.9-0.9,1.1c0,0,0,0,0,0c0,0,0,0,0,0c0,0,0,0-0.1,0
			c-0.1,0-0.2-0.1-0.3-0.1c0.4,0.4,0.8,0.7,1,1c0.3,0.4,0.4,0.8,0.6,1.3c0,0,0,0,0,0c0,0-0.1,0-0.1,0c-0.3-0.1-0.6-0.1-0.9-0.2
			c-0.1,0-0.3,0.1-0.5,0.1c-0.1,0-0.2,0-0.2,0c-0.2,0-0.3,0.1-0.5,0.1c-0.2,0.1-0.5,0.2-0.7,0.4c-0.1,0.1-0.1,0.2-0.2,0.3
			c-0.2,0.2-0.3,0.5-0.3,0.8c0,0.1,0,0.1,0,0.2c0,0,0,0,0,0c-0.1,0.9,0.4,1.2,1.2,1.4c0.6,0.1,1.2,0.2,1.6,0.8c0,0,0,0.1,0,0.1
			c-0.1-0.1-0.2-0.2-0.3-0.3c0,0-0.1,0.1-0.1,0.1c0.1,0.1,0.1,0.2,0.2,0.4c0,0.1,0.1,0.2,0.1,0.3c0,0.1,0,0.1,0,0.2
			c0.1,0.7-0.2,1.2-0.6,1.6C72.5,57.5,72.4,57.6,72.3,57.7z M51.6,41.2c0-0.2,0.1-0.3,0.1-0.5c0.1-0.6,0.5-0.9,1.1-0.8
			c0.2,0,0.4,0,0.5,0.1c0.1,0.1,0.1,0.2,0.1,0.4c0,0.5-0.1,1.1-0.1,1.6c0,0.6-0.1,1.1-0.1,1.7c0,0.8,0.2,1.5,0.6,2.2
			c0.3,0.6,0.6,1.2,0.9,1.7c0.5,0.9,1.1,1.7,1.9,2.3c0.1,0,0.1,0.1,0.2,0.1c0.2,0.2,0.4,0.5,0.7,0.7c0.5,0.6,1.2,0.9,1.9,1.3
			c0.2,0.1,0.5,0.2,0.7,0.4c0,0.1,0.1,0.1,0.2,0.2c0,0,0-0.1,0-0.1c0.2,0.1,0.4,0.2,0.6,0.3c0,0,0.1-0.1,0.1-0.1
			c0.1,0,0.2,0.1,0.3,0.1c0.3,0,0.4,0.1,0.3,0.4c0,0.2,0,0.3,0,0.5c0.1,0.3-0.1,0.5-0.2,0.7c0,0,0,0,0,0c-0.1,0.1-0.1,0.1-0.2,0.2
			c0,0-0.1,0-0.1,0c-0.4-0.1-0.8,0-1.1-0.4c0-0.1-0.1-0.1-0.1-0.2c0,0,0.1,0,0.1,0c0,0,0-0.1,0-0.1c0,0-0.1,0-0.1-0.1
			c0-0.1,0-0.1,0.1-0.2c-0.2,0-0.3,0-0.5-0.1c-0.1-0.1-0.3-0.1-0.4-0.2c-0.1-0.1-0.3-0.2-0.4-0.3c-0.1-0.1-0.3-0.2-0.4-0.3
			c-0.2-0.2-0.5-0.3-0.7-0.5c0,0,0,0-0.1-0.1c0,0,0-0.1-0.1-0.1c0,0,0,0,0,0c0-0.1,0-0.2-0.1-0.3c0,0.1-0.1,0.1-0.1,0.2c0,0,0,0,0,0
			c0,0-0.1,0-0.1,0c-0.1,0.1-0.2,0.3-0.2,0.3c-0.2,0-0.4,0-0.6-0.1c-0.4-0.2-0.6-0.5-0.8-0.8c0,0,0-0.1-0.1-0.1
			c-0.1-0.1-0.1-0.3-0.1-0.5c0-0.1,0.1-0.3,0.2-0.3c0,0,0,0,0,0c0,0,0.1,0,0.1-0.1c0,0,0-0.1,0-0.1c0,0,0,0,0,0c0,0,0.1-0.1,0.1-0.1
			c0,0,0-0.1,0-0.1c0,0,0,0-0.1,0c-0.1-0.1-0.2,0-0.4,0.1c0,0,0,0-0.1,0c-0.2-0.2-0.3-0.3-0.5-0.4c-0.3-0.5-0.7-1-1-1.5
			c-0.2-0.4-0.3-0.8-0.5-1.3c0.1-0.2,0.4-0.2,0.3-0.5c0,0-0.1,0-0.1,0c0,0,0,0-0.1,0c-0.1,0-0.2,0.1-0.3,0.1c-0.2,0.1-0.4,0-0.6-0.1
			c-0.1-0.2-0.3-0.3-0.4-0.5c0-0.1-0.1-0.1-0.1-0.2c0-0.1-0.1-0.3-0.1-0.5c0-0.1,0-0.1,0-0.2c0.1-0.2,0.2-0.4,0.4-0.5
			c0.1,0,0.2,0,0.3,0c0,0,0.1,0,0.1,0c0,0,0.1,0,0.1,0c0,0,0,0,0,0c0,0,0,0,0.1,0c0-0.1,0-0.2-0.1-0.2c0,0,0,0,0,0
			c-0.1-0.1-0.2-0.1-0.4-0.1c-0.1,0-0.1,0-0.2,0c0-0.2-0.1-0.4-0.1-0.5c0-0.3-0.1-0.7-0.1-1c0-0.1,0-0.2,0-0.3c0-0.2,0-0.4,0.1-0.6
			c0,0,0,0,0,0c0,0,0-0.1,0-0.1c-0.3,0-0.5-0.2-0.6-0.3C51.6,41.3,51.6,41.3,51.6,41.2z M53,34.5c0.2-0.1,0.3,0,0.4,0.2
			c0,0,0,0,0,0.1c0,0,0,0-0.1,0c-0.1,0-0.1,0-0.1,0.1c0,0.1,0,0.1,0.1,0.1c0.1,0,0.1,0,0.1-0.1c0,0,0,0,0,0c0.1,0.2,0.2,0.4,0.3,0.5
			c0,0.1,0.1,0.2,0.1,0.4c0.1,0.5,0.5,0.6,0.9,0.7c0.4,0.1,0.8,0.2,1.3,0.4c-0.7,0.4-1.2,0.9-1.7,1.4c-0.3,0.3-0.5,0.6-0.7,1
			c0,0,0-0.1,0-0.1c-0.5-0.8-0.6-1.6-0.8-2.4c-0.1-0.2-0.1-0.4-0.1-0.7c0-0.3,0-0.6-0.1-1c0-0.1,0-0.2,0.1-0.2c0,0,0-0.1,0.1-0.1
			C52.9,34.6,52.9,34.5,53,34.5z M59.1,34.6c0,0.2,0,0.5,0,0.8c0,0.1-0.1,0.2-0.2,0.2c-0.3,0.1-0.7,0.2-1,0.2c-0.1,0-0.3,0-0.4-0.1
			c-0.3-0.4-0.6-0.9-0.9-1.3c-0.3-0.5-0.5-1.1-0.7-1.7c-0.1-0.2-0.2-0.4-0.2-0.6c0-0.1,0-0.2,0-0.2c-0.1-0.4-0.2-0.9-0.2-1.3
			c-0.1-0.7-0.1-1.5-0.1-2.2c0-1.7,0.5-3.2,1.2-4.7c0,0,0-0.1,0.1-0.1c0,0,0,0,0.1,0c0,0.4,0,0.9,0,1.3c0,0,0,0,0,0
			c0,0.1,0,0.2,0,0.3c0,0.2,0.1,0.4,0.1,0.5c0,0.2,0.1,0.4,0.2,0.6c0.2,0.8,0.5,1.5,1,2.2c0.4,0.5,0.8,1,1.3,1.3c0,0,0,0,0,0
			c0.1,0.1,0.2,0.1,0.3,0.1c0.2,0.1,0.4,0.2,0.6,0.3c-0.4,0.7-0.6,1.4-0.8,2.2C59.4,33.2,59.2,33.9,59.1,34.6z M60.7,35.8
			c0.6-0.1,1.1-0.1,1.7,0c0.1,0,0.2,0.1,0.3,0.1c0.1,0,0.2,0,0.3,0c0.2,0.1,0.3,0.1,0.5,0.2c0.4,0.2,0.9,0.3,1.3,0.5
			c0.1,0,0.2,0.1,0.2,0.1c0.4,0.2,0.7,0.4,1.1,0.6c0.4,0.3,0.7,0.6,1.1,0.9c0.7,0.6,1.2,1.2,1.7,1.9c0.5,0.8,0.9,1.6,1.2,2.4
			c0.2,0.7,0.4,1.4,0.6,2.2c0.1,0.4,0.1,0.7,0.1,1.1c0,0.1-0.1,0.2-0.2,0.3c-0.4,0.3-0.7,0.8-0.8,1.4c-2.3-0.6-4.3,0-5.9,1.7
			c-0.4-0.4-0.7-0.9-1.3-1c-0.5-0.1-1-0.1-1.6,0c-0.9,0.2-1.3,0.9-1.6,1.6c-0.1,0.3,0,0.7,0,1c0,0.4,0.1,0.7,0.4,1.1
			c-0.2-0.1-0.3-0.2-0.5-0.2c-1-0.4-1.7-1.1-2.4-1.8c0,0,0,0,0,0c0,0,0-0.1-0.1-0.1c0,0,0,0-0.1-0.1c-0.5-0.6-1-1.2-1.5-1.8
			c-0.3-0.3-0.4-0.7-0.6-1.1c-0.2-0.3-0.4-0.7-0.5-1c-0.2-0.4-0.3-0.8-0.4-1.3c-0.1-0.4-0.2-0.8-0.2-1.2c0-0.3-0.1-0.7,0-1
			c0-0.5,0.1-1.1,0.1-1.6c0.1-0.3,0.1-0.6,0.2-0.9c0.1-0.4,0.5-0.8,0.8-1.1c0.5-0.7,1.2-1.1,1.9-1.6c0.5-0.3,1.1-0.6,1.6-0.7
			C58.9,36.1,59.8,35.9,60.7,35.8z M70.4,59.9c-0.1,0-0.2,0-0.3-0.1c-0.2-0.1-0.3-0.2-0.5-0.3c-0.2-0.2-0.5-0.4-0.7-0.6
			c0.6-0.1,1.1-0.2,1.6-0.4c0.1,0.4,0.4,0.7,0.7,1.1C70.9,59.8,70.6,59.9,70.4,59.9z M65.4,59.4c-0.1,0.4-0.1,0.8-0.2,1.2
			c0,0.1,0,0.2,0,0.3c0,0.1,0,0.1,0,0.2c0,0.1-0.1,0.1-0.1,0.2c0,0-0.1,0.1-0.2,0.1c-0.2,0.1-0.4,0.2-0.5,0.3
			c-0.1-0.2-0.2-0.3-0.2-0.5c-0.2-0.5-0.4-1-0.6-1.5l0,0c0,0,0,0,0,0c-0.1-0.2-0.2-0.4-0.3-0.5c-0.1-0.1-0.2-0.3-0.2-0.4
			c0,0,0,0,0-0.1c-0.2-0.5-0.5-0.9-0.7-1.4c-0.1-0.3-0.2-0.6-0.4-0.8c0,0-0.1-0.1-0.1-0.1c-0.2-0.2-0.3-0.5-0.4-0.8c0,0,0-0.1,0-0.1
			c0.2,0,0.4-0.1,0.5-0.1c0.1,0.2,0.2,0.3,0.2,0.4c0.1,0.7,0.5,1.3,0.8,1.8c0.1,0.1,0.1,0.2,0.2,0.3c0,0,0,0,0,0
			c0,0.1,0.1,0.1,0.1,0.1c0,0,0,0,0,0.1c0,0,0.1,0.1,0.1,0.1c0.1,0.1,0.1,0.1,0.2,0.2c0.2,0.3,0.6,0.4,0.9,0.5
			c0.2,0.1,0.4,0.1,0.7,0.1c0.1,0,0.2,0,0.3,0C65.4,59.2,65.4,59.3,65.4,59.4z M60.1,51.5C60.1,51.5,60.1,51.5,60.1,51.5
			C60.1,51.5,60.1,51.5,60.1,51.5C60.1,51.5,60.1,51.5,60.1,51.5z M62.5,48.5c0.1,0,0.1,0.1,0.2,0.1C62.7,48.6,62.6,48.6,62.5,48.5
			C62.5,48.6,62.5,48.6,62.5,48.5C62.5,48.5,62.5,48.5,62.5,48.5z M52.4,49.1c-0.3-0.5-0.4-1-0.5-1.5c0-0.2-0.1-0.3-0.1-0.5
			c-0.2-0.8-0.2-1.7-0.2-2.5c0-0.6,0.2-1.2,0.3-1.8c0,0,0-0.1,0-0.1c0,0,0,0,0.1,0c0,0.2,0,0.3,0,0.5c0,0.4,0.1,0.8,0.1,1.3
			c0,0.1,0,0.1,0,0.2c-0.4,0.6-0.3,1.1,0,1.7c0.2,0.3,0.5,0.5,0.8,0.5c0.1,0.1,0.1,0.2,0.2,0.3c0,0.2,0.1,0.3,0.2,0.5
			c0.1,0.2,0.2,0.4,0.4,0.6c0.1,0.3,0.3,0.6,0.4,0.8c0.2,0.4,0.6,0.7,1,1c0.1,0.2,0.1,0.3,0,0.5c0,0,0,0.1,0,0.1
			c0.1,0.5,0.4,0.9,0.7,1.2c0.2,0.2,0.5,0.3,0.8,0.4c0,0,0.1,0,0.1,0c0.1,0,0.1,0,0.2,0c0.1,0,0.3,0,0.3-0.1c0.1,0,0.1-0.1,0.2-0.1
			c0,0,0.1,0,0.1,0c0,0,0.1,0.1,0.1,0.1c0,0,0,0,0,0c0,0,0.1,0.1,0.1,0.1c0,0,0.1,0,0.1,0.1c0.3,0.2,0.7,0.5,1,0.7
			c0.2,0.1,0.5,0.3,0.7,0.4c0,0,0.1,0.1,0.1,0.1c0.1,0.5,0.5,0.9,1,0.9c0.1,0,0.1,0,0.2,0c0.2,0,0.3,0,0.5,0c0,0,0,0,0,0
			c0.1,0,0.1,0,0.2,0c0-0.1,0-0.1,0-0.1c0,0,0.1-0.1,0.1-0.1c0,0.2,0.1,0.4,0.1,0.6c-0.4,0.1-0.8,0.2-1.2,0.2
			c-1.2-0.3-2.3-0.8-3.4-1.2c-0.5-0.2-1.1-0.5-1.6-0.9c-0.8-0.5-1.5-1.1-2-2c-0.3-0.6-0.7-1.1-1-1.7c0,0,0-0.1-0.1-0.1
			C52.5,49.2,52.5,49.1,52.4,49.1z M65.3,30.1c0.1,0,0.1,0,0.2,0c0.1,0,0.1,0,0.2,0C65.5,30.1,65.4,30.2,65.3,30.1
			C65.3,30.2,65.3,30.2,65.3,30.1z M60.8,55.5c0.1,0,0.2,0.1,0.2,0.1c0.3,0.4,0.5,0.9,0.8,1.3c-0.8-0.5-1.6-1.1-2.4-1.7
			C59.9,55.4,60.3,55.5,60.8,55.5z M63.5,30.4c0.3,0,0.6-0.1,1-0.2c0,0,0,0,0,0c0.2,0,0.4-0.1,0.6-0.1c0,0,0.1,0.1,0.1,0.1
			c-0.4,0.1-0.8,0.2-1.1,0.2C63.8,30.5,63.7,30.5,63.5,30.4z M69.6,22.9c-0.2-0.3-0.3-0.6-0.5-0.9c0-0.1,0-0.1-0.1-0.2
			C69.2,22.2,69.4,22.5,69.6,22.9z M55,28c0,0.2,0,0.4-0.1,0.6c0-0.2,0-0.3,0-0.5C55,28.1,55,28.1,55,28z M83,54.8
			c-0.1-0.4-0.2-0.8-0.1-1.2c0.1-0.6,0.8-1.1,1.6-1c0.5,0.1,1,0.3,1.5,0.5c0.2,0.1,0.3,0.2,0.5,0.3c0.7,0.4,1.1,1.1,1.3,1.8
			c-0.2,0-0.4,0-0.6-0.1c-0.1-0.4-0.4-0.8-0.7-1c0,0.2,0,0.6,0.1,0.9c-0.7-0.1-1.4-0.1-2,0c-0.3-0.2-0.5-0.6-0.5-1.1
			c0-0.4,0.3-0.8,0.7-0.7c0.4,0.1,0.8,0.2,1.3,0.3c-0.3-0.2-0.6-0.4-0.9-0.5c-0.4-0.2-0.8-0.1-1.1,0.2c-0.3,0.4-0.3,0.8-0.3,1.3
			c0,0.2,0.1,0.4,0.2,0.5c-0.3,0-0.5,0-0.8,0C83,55,83,54.9,83,54.8z M98.5,59.6c0,0.1-0.1,0.2-0.2,0.2c-0.2,0.2-0.5,0.4-0.7,0.5
			c-0.4,0.3-0.8,0.7-1.2,1c-1.7,1.2-3.5,2.5-5.2,3.7c-0.8,0.6-1.5,1.1-2.3,1.7c-0.1,0.1-0.2,0.1-0.3,0.1c-0.7-0.1-1.3-0.2-1.9-0.4
			c-0.2,0-0.3-0.2-0.4-0.4c-0.3-0.4-0.5-0.8-0.7-1.2c-0.3-0.9-0.8-1.7-1.3-2.5c-1.1-1.8-2.1-3.8-2.6-5.9c-0.1-0.5,0.1-0.8,0.6-0.8
			l0.9,0c0.5,0,1.1,0,1.6,0c0.1,0.1,0.3,0.1,0.4,0.2c0.2,0.1,0.4,0.1,0.5-0.2c1.2,0.1,2.4,0.3,3.6,0.5c1.1,0.2,2.3,0.5,3.4,0.8
			c1.5,0.4,2.9,1,4.3,1.5c0.5,0.2,1,0.5,1.5,0.8C98.5,59.3,98.5,59.5,98.5,59.6z"/>
		<path class="st0" d="M98.8,24.2c-0.2,0.1-0.3,0.2-0.5,0.3c0,0,0,0.1,0.1,0.1c0.8-0.3,1.5-0.6,2.3-0.9c1.1-0.5,2.3-1,3.4-1.5
			c0.9-0.4,1.8-0.8,2.7-1.3c0.7-0.3,1.4-0.6,2.1-0.9c0.6-0.3,1.2-0.5,1.8-0.8c0.1,0,0.1-0.1,0.2-0.1c0.2-0.2,0.1-0.5-0.3-0.7
			c-0.1,0-0.1,0-0.2,0c-0.1,0-0.1,0.1-0.2,0.1c-0.5,0.2-1.1,0.5-1.6,0.7c-0.5,0.2-1,0.5-1.5,0.8c-0.8,0.4-1.7,0.7-2.5,1.1
			c-1.1,0.6-2.2,1.2-3.3,1.7C100.5,23.3,99.7,23.7,98.8,24.2z"/>
		<path class="st0" d="M79.2,57.4c0.4-0.2,0.8-0.4,1.3-0.2c0,0,0-0.1,0-0.1c-0.2-0.1-0.4-0.2-0.6-0.4c0-0.3-0.2-0.5-0.5-0.6
			c-0.4-0.1-0.8,0-1.2,0.2c-0.1,0.1-0.2,0.1-0.4,0.1c0.1,0.4,0.6,0.7,1,0.9C79,57.4,79.1,57.4,79.2,57.4z"/>
		<path class="st0" d="M75.4,54.9c-0.1,0-0.2,0-0.2,0C75,55.1,74.8,55,74.6,55c-0.1-0.1-0.3-0.1-0.5,0c-0.3,0.1-0.5,0.5-0.3,0.8
			c0.1,0.3,0.3,0.5,0.4,0.8c0.6-0.2,0.8-0.7,0.8-1.4C75.2,55.1,75.3,55.1,75.4,54.9C75.4,55,75.4,54.9,75.4,54.9z"/>
		<path class="st0" d="M78.1,57.2c-0.3-0.2-0.6-0.3-0.9-0.5c0,0.1-0.1,0.1-0.1,0.1c0,0.5,0.1,1,0.4,1.4c0,0.1,0.1,0.1,0.2,0.1
			c0.3-0.1,0.5,0,0.7,0.1c0.1,0,0.2,0,0.2,0c0-0.1-0.1-0.2-0.1-0.2c-0.2-0.1-0.3-0.2-0.2-0.4C78.4,57.6,78.4,57.4,78.1,57.2z"/>
		<path class="st0" d="M78.6,55.8c0.1-0.2,0.2-0.5,0.6-0.4c0,0,0-0.1,0-0.1c-0.3-0.1-0.5-0.2-0.8-0.3c0,0-0.1,0-0.1,0
			c-0.5,0-1,0.4-1.2,0.9c0.2,0.1,0.4,0.1,0.7,0.2C78,56.2,78.5,56,78.6,55.8z"/>
		<path class="st0" d="M76,55.9c0.6,0,0.9-0.3,0.9-0.8c0.1-0.1,0.2-0.2,0.3-0.2c0,0,0-0.1,0-0.1c-0.3,0.2-0.6,0.1-0.8,0
			c0,0-0.1,0-0.1,0c-0.5,0-0.9,0.7-0.8,1.2C75.6,56,75.8,55.9,76,55.9z"/>
		<path class="st0" d="M76.3,57c-0.3,0-0.5-0.1-0.8-0.1c0,0,0,0.1-0.1,0.1c0.1,0.3,0.3,0.6,0.4,0.9c0,0.1,0.2,0.1,0.3,0.1
			c0.2,0,0.3-0.1,0.5,0.1c0,0,0.2,0,0.3,0c0-0.1,0-0.2-0.1-0.2c-0.1-0.1-0.2-0.2-0.1-0.3C76.9,57.4,76.7,57.1,76.3,57z"/>
		<path class="st0" d="M91.7,11.5c0,0,0-0.1,0-0.1c0.1-0.2,0.2-0.5,0.2-0.8c0-0.4-0.4-0.8-0.8-0.8c-0.2,0-0.3,0-0.5,0
			c-0.2,0.1-0.4,0.2-0.5,0.3c-0.2,0.1-0.3,0.3-0.4,0.4c-0.2,0.3-0.2,0.7-0.2,1.1c0,0.2,0,0.3,0.1,0.5c0,0.1,0,0.2,0,0.3
			c0,0.2,0.1,0.4,0.1,0.6c0.2,0.5,0.7,0.6,1.2,0.7c0.1,0,0.2,0,0.4,0c0,0,0.2,0,0.3,0c0.3,0,0.5-0.2,0.5-0.4
			c0.1-0.1,0.2-0.3,0.2-0.5c0-0.2,0-0.4-0.2-0.5c-0.1-0.1-0.4-0.2-0.4-0.4c0-0.1-0.1-0.1-0.1-0.1c0-0.1,0-0.1,0-0.2
			C91.7,11.6,91.7,11.5,91.7,11.5z M90,13.1c-0.1-0.1-0.1-0.2-0.1-0.3c0.1,0.2,0.3,0.4,0.5,0.5C90.2,13.3,90.1,13.3,90,13.1z
			 M91.8,12.4c0.2,0.1,0.2,0.2,0.1,0.4c-0.1,0.1-0.1,0.3-0.1,0.4c0,0.1-0.1,0.1-0.2,0.2c0,0,0,0,0,0c-0.1,0.1-0.3,0.1-0.5,0.1
			c-0.5,0-0.9-0.2-1.2-0.7c-0.2-0.3-0.3-0.7-0.3-1.1c0-0.7,0.4-1.5,1.1-1.6c0.3,0,0.6,0,0.8,0.3c0.2,0.2,0.1,0.5,0,0.7
			c-0.1,0.2-0.2,0.3-0.2,0.5C91.4,11.9,91.4,12.2,91.8,12.4z"/>
		<path class="st0" d="M96.7,13c0.1-0.2,0.1-0.4,0.1-0.6c0,0-0.1,0-0.1,0c0,0-0.1,0.1-0.1,0.1c-0.1,0.2-0.1,0.4-0.2,0.7
			c0,0,0,0,0,0.1C96.6,13.1,96.7,13.1,96.7,13z"/>
		<path class="st0" d="M100.1,17c-0.2,0-0.4,0-0.4,0.1c-0.1,0.2-0.2,0.4-0.1,0.6c0.2,0.3,0.2,0.5,0.1,0.8c0,0.1,0,0.1,0.1,0.2
			c0.1,0,0.1-0.1,0.2-0.1c0-0.3,0.1-0.6,0.4-0.8C100.7,17.6,100.3,17,100.1,17z M99.9,17.8c-0.2,0-0.2-0.2-0.2-0.3
			c0-0.1,0.1-0.2,0.2-0.3c0.2,0,0.2,0.2,0.2,0.3C100.2,17.8,100.1,17.8,99.9,17.8z"/>
		<path class="st0" d="M53.3,35.9c0.2,0,0.4-0.2,0.4-0.4c0-0.2-0.2-0.4-0.4-0.4c-0.2,0-0.2,0.2-0.2,0.3
			C53.1,35.8,53.1,35.9,53.3,35.9z"/>
		<path class="st0" d="M63.2,33.7c0.2,0,0.4,0.1,0.4-0.3c0-0.3-0.2-0.3-0.4-0.3c-0.3,0-0.3,0.3-0.3,0.4
			C62.9,33.8,63.2,33.7,63.2,33.7z"/>
		<path class="st0" d="M52.9,35.2c0.1,0,0.1,0,0.2-0.1c0-0.1,0-0.1-0.1-0.1c-0.1,0-0.1,0-0.2,0.1C52.7,35.1,52.8,35.2,52.9,35.2z"/>
		<path class="st0" d="M63.1,33c0.1,0,0.1,0,0.1-0.1c0,0-0.1-0.1-0.1-0.1c-0.1,0-0.1,0.1-0.1,0.1C63,33,63.1,33,63.1,33z"/>
		<path class="st0" d="M63.4,33C63.5,33,63.5,33,63.4,33c0.1-0.1,0.1-0.2,0-0.2C63.4,32.9,63.4,32.9,63.4,33
			C63.4,33,63.4,33,63.4,33z"/>
		<path class="st0" d="M53.2,35C53.2,35,53.3,34.9,53.2,35c0.1-0.2,0-0.2,0-0.2C53.1,34.8,53.1,34.8,53.2,35
			C53.1,35,53.1,35,53.2,35z"/>
	</g>
</g>
</svg>
