<?xml version="1.0" encoding="utf-8"?>
<!-- Generator: Adobe Illustrator 26.3.1, SVG Export Plug-In . SVG Version: 6.00 Build 0)  -->
<svg version="1.1" id="レイヤー_1" xmlns="http://www.w3.org/2000/svg" xmlns:xlink="http://www.w3.org/1999/xlink" x="0px"
	 y="0px" width="160px" height="70px" viewBox="0 0 160 70" style="enable-background:new 0 0 160 70;" xml:space="preserve">
<style type="text/css">
	.st0{fill:#231815;}
</style>
<g>
	<path class="st0" d="M4.227,18.161c0.094,0.016,0.203,0.016,0.328,0.016c0.031,0,0.078,0,0.141,0c0.047,0,0.094,0,0.14,0
		c0.172,0,0.344-0.016,0.516-0.063c0.156-0.031,0.422-0.109,0.797-0.234c0.312-0.094,0.688-0.203,1.11-0.313l1.439-0.359
		c0.031,0,0.063-0.016,0.094-0.031c0.109-0.031,0.219-0.063,0.329-0.094c0.156-0.031,0.313-0.078,0.469-0.125l0.203-1.361
		c-0.329,0.031-0.61,0.048-0.86,0.048c-0.438,0-0.876-0.125-1.298-0.375c0.141-0.063,0.219-0.11,0.25-0.11
		c0.063-0.031,0.375-0.125,0.938-0.297c0.094-0.031,0.203-0.063,0.328-0.094c0.094-0.031,0.203-0.063,0.313-0.094
		c0.031,0,0.094-0.015,0.203-0.047c0.031,0,0.063-0.015,0.094-0.031c0.031,0,0.063-0.016,0.094-0.031
		c0-0.188,0.016-0.407,0.031-0.641c0-0.094,0-0.188,0-0.282c0-0.047,0-0.094,0-0.14c0-0.016,0-0.031,0-0.063c0,0,0-0.015,0-0.031
		v-0.016c0,0,0,0,0-0.015c0-0.438-0.219-0.86-0.657-1.283C9.402,12.031,9.559,12,9.715,12c0.485,0,0.907,0.125,1.251,0.344
		c0.344,0.235,0.516,0.517,0.516,0.844c0,0.25-0.031,0.532-0.094,0.844c0.313-0.094,0.563-0.156,0.735-0.156
		c0.235,0,0.469,0.062,0.719,0.172c0.234,0.125,0.36,0.234,0.36,0.344c0,0.094-0.125,0.187-0.375,0.312
		c-0.266,0.157-0.547,0.266-0.829,0.329c-0.063,0.031-0.125,0.047-0.172,0.047c-0.125,0.047-0.234,0.078-0.344,0.11
		c-0.157,0.062-0.313,0.109-0.438,0.14l-0.547,1.439c0.344-0.062,0.594-0.109,0.766-0.141c0.219-0.031,0.422-0.078,0.61-0.11
		c0.313-0.031,0.876-0.109,1.72-0.203c0.563-0.063,0.938-0.11,1.126-0.126c0.172-0.015,0.344-0.031,0.532-0.031
		c0.406,0,0.719,0.078,0.969,0.203l0.391,0.219c0.266,0.156,0.407,0.312,0.407,0.469c0,0.25-0.172,0.359-0.516,0.359
		c-0.188,0-0.532-0.031-1.001-0.109c-0.219-0.031-0.485-0.063-0.829-0.094c-0.344-0.031-0.594-0.047-0.782-0.047l-1.501,0.062
		c-0.125,0-0.266,0.015-0.407,0.015c-0.031,0-0.047,0-0.062,0c-0.016,0-0.031,0-0.031,0c-0.016,0-0.016,0-0.016,0l-0.469,0.063
		c-0.047,0-0.141,0.015-0.266,0.015c-0.078,0.016-0.157,0.016-0.219,0.016L10.7,17.598c1.282,0.187,1.923,0.704,1.907,1.532
		l-0.031,2.017c0,0.031,0,0.11,0.016,0.235c0,0.094,0,0.172,0.015,0.25c0,0.141,0,0.281,0.016,0.406
		c0,0.094,0.016,0.188,0.031,0.282c0,0.11,0,0.203,0.016,0.297c0,0.078,0,0.266,0.016,0.547c0,0.203,0,0.407,0.016,0.594
		l0.016,0.469c0,0.094,0,0.188,0,0.282c0,0.688-0.25,1.032-0.72,1.032c-0.125,0-0.25-0.047-0.36-0.141l-1.954-1.689l-0.25-0.219
		l0.015-0.094c0.094,0.062,0.235,0.125,0.423,0.187c0.062,0.031,0.109,0.063,0.172,0.078c0.297,0.141,0.547,0.203,0.751,0.203
		c0.313,0,0.485-0.125,0.485-0.407v-3.596c0-0.61-0.031-1.048-0.094-1.314c-0.078-0.266-0.235-0.578-0.485-0.953
		c-0.422,0.672-0.719,1.267-0.891,1.798c-0.188,0.563-0.328,1.235-0.391,2.048L9.214,23.43c-0.063,0.688-0.266,1.032-0.61,1.032
		c-0.094,0-0.187-0.063-0.281-0.219c-0.282-0.36-0.422-0.798-0.422-1.329c0-0.141,0-0.235,0.015-0.282l0.501-1.344l0.516-1.783
		c0.125-0.422,0.391-1.048,0.797-1.861c-0.719,0.25-1.267,0.454-1.642,0.594c-0.344,0.141-0.672,0.282-0.969,0.422
		c-0.672,0.329-1.126,0.485-1.361,0.485c-0.281,0-0.594-0.11-0.923-0.329c-0.484-0.282-0.704-0.469-0.672-0.547L4.227,18.161z
		 M6.932,19.849c-0.016,0.125-0.031,0.235-0.047,0.329c-0.031,0.094-0.047,0.172-0.063,0.25c-0.125,0.407-0.172,0.641-0.172,0.735
		c0,0.062,0,0.109,0.016,0.156c0.5-0.297,0.907-0.61,1.22-0.923l0.109,0.031c-0.75,0.844-1.204,1.407-1.329,1.689l-0.234,0.547
		c-0.141,0.282-0.36,0.422-0.657,0.422c-0.313,0-0.469-0.25-0.469-0.781c0-0.595,0.266-1.204,0.813-1.845
		C6.431,20.084,6.697,19.881,6.932,19.849z M13.483,19.678c0.156,0,0.328,0,0.5,0c0.641,0,1.251,0.203,1.814,0.579
		c0.547,0.391,0.829,0.813,0.829,1.251c0,0.344-0.172,0.5-0.485,0.5c-0.094,0-0.313-0.047-0.672-0.141
		c-0.125-0.031-0.266-0.062-0.438-0.062c-0.406,0-0.923,0.187-1.548,0.531c0-0.094,0.063-0.156,0.188-0.219
		c0.063-0.047,0.172-0.125,0.297-0.219c0.078-0.063,0.25-0.172,0.532-0.344c0.219-0.125,0.329-0.282,0.329-0.469
		c0-0.219-0.188-0.454-0.563-0.688c-0.375-0.219-0.594-0.375-0.688-0.453c-0.094-0.063-0.141-0.125-0.141-0.173
		c0,0,0-0.015,0.016-0.031L13.483,19.678z"/>
	<path class="st0" d="M21.552,13.814l-0.016-0.078c0.438-0.172,0.782-0.266,1.016-0.266c0.281,0,0.547,0.094,0.797,0.266
		c0.25,0.188,0.375,0.375,0.375,0.563c0,0.187-0.063,0.328-0.188,0.422l-1.235,0.735c-0.344,0.219-0.594,0.594-0.766,1.126
		c-0.016,0.078-0.016,0.172-0.016,0.266c0,0.031,0,0.078,0,0.11c0,0.031,0,0.047,0,0.062c0,0.016,0,0.016,0,0.016
		c0,0.015,0,0.015,0,0.015v0.015c0,0.188,0.016,0.329,0.047,0.422l0.172,0.547c0.047,0.141,0.078,0.329,0.078,0.547
		c0,0.078-0.016,0.188-0.031,0.329l-0.282,2.252c-0.031,0.172-0.047,0.328-0.047,0.484c0,0.187,0.031,0.422,0.109,0.704
		c0.375-0.704,0.641-1.267,0.798-1.689c0.156-0.422,0.344-1.048,0.547-1.892l0.078,0.015c-0.016,0.063-0.031,0.11-0.031,0.172
		c-0.031,0.141-0.063,0.282-0.078,0.407c-0.031,0.125-0.047,0.234-0.063,0.344c-0.063,0.25-0.094,0.438-0.125,0.563
		c-0.078,0.438-0.125,0.688-0.157,0.767l-0.234,1.751l-0.047,0.266c-0.031,0.219-0.031,0.391-0.031,0.532c0,0.063,0,0.11,0,0.172
		c0,0.047,0,0.094,0,0.125c0,0.375-0.141,0.547-0.422,0.547c-0.375,0-0.704-0.313-1.016-0.969c-0.329-0.626-0.485-1.313-0.485-2.049
		c0-0.469,0.078-1.172,0.266-2.126c0.281-1.595,0.625-2.752,1.001-3.456c0.25-0.469,0.422-0.798,0.501-0.954
		c0.063-0.156,0.109-0.281,0.109-0.375C22.177,14.251,21.958,14.033,21.552,13.814z M26.274,17.755
		c-0.313-0.547-0.469-1.064-0.469-1.564c0-0.328,0.031-0.719,0.094-1.172c0.031-0.235,0.094-0.547,0.156-0.923
		c0.047-0.313,0.125-0.782,0.25-1.376c0.125,0.078,0.234,0.203,0.329,0.391c0.516-0.203,0.907-0.344,1.157-0.422
		c0.282-0.062,0.641-0.141,1.11-0.203c0.078,0,0.156,0,0.234,0c0.813,0,1.204,0.61,1.189,1.829l-0.016,2.658l-0.016,0.312
		c0.344-0.125,0.594-0.187,0.782-0.187c0.313,0,0.626,0.157,0.938,0.454c0.188,0.187,0.281,0.297,0.281,0.312
		c0,0.203-0.297,0.313-0.86,0.344c-0.86,0.047-1.564,0.156-2.095,0.344c-0.532,0.188-1.063,0.485-1.579,0.892
		c0.688-0.141,1.282-0.219,1.751-0.219c0.86,0,1.548,0.141,2.08,0.422c0.5,0.282,0.766,0.657,0.766,1.126
		c0,0.313-0.063,0.719-0.156,1.188c-0.11,0.454-0.25,0.923-0.406,1.423c-0.188,0.5-0.36,0.969-0.547,1.376
		c-0.219,0.438-0.407,0.75-0.594,1.001c-0.25,0.281-0.453,0.438-0.641,0.438c-0.375,0-0.704-0.172-1.001-0.516l-0.406-0.454
		c-0.172-0.157-0.313-0.297-0.438-0.406l-0.375-0.313c0,0-0.015,0-0.015-0.015c0,0-0.016,0-0.016-0.016
		c-0.016,0-0.031-0.015-0.031-0.031c-0.11-0.094-0.188-0.173-0.25-0.235c-0.688,0.406-1.189,0.657-1.501,0.766
		c-0.328,0.125-0.735,0.188-1.235,0.219c0.844-0.579,1.501-1.126,1.954-1.626c0.438-0.5,0.954-1.251,1.532-2.267
		c-0.688,0.344-1.267,0.766-1.736,1.298c-0.25,0.281-0.454,0.422-0.61,0.422c-0.266,0-0.391-0.235-0.391-0.735
		c0-0.109,0.047-0.234,0.172-0.391c0.266-0.313,0.579-0.704,0.954-1.188c-0.469,0.157-0.797,0.329-0.969,0.516l-0.719,0.782
		l-0.234,0.187c-0.188,0.157-0.344,0.235-0.454,0.235c-0.313,0-0.453-0.173-0.453-0.547c0-0.235,0.078-0.532,0.25-0.892
		c0.047-0.031,0.094-0.062,0.156-0.109c0.125-0.078,0.188-0.125,0.219-0.141l1.157-0.751c0.109-0.063,0.391-0.266,0.844-0.594
		l0.016-0.047c-0.547,0.188-0.876,0.313-0.985,0.375l-0.719,0.313c-0.203,0.094-0.375,0.125-0.516,0.125
		c-0.234,0-0.516-0.297-0.86-0.907c0.688-0.219,1.204-0.422,1.548-0.61C25.226,18.474,25.68,18.177,26.274,17.755z M25.821,18.567
		l3.487-0.969c-0.172-0.157-0.36-0.313-0.563-0.454c-0.235,0.078-0.391,0.141-0.469,0.172c-0.125,0.063-0.312,0.141-0.532,0.25
		c-0.094,0.047-0.25,0.125-0.485,0.235c-0.078,0.031-0.141,0.062-0.203,0.094c-0.078,0.031-0.141,0.078-0.203,0.11
		c-0.157,0.078-0.266,0.125-0.297,0.14C26.196,18.333,25.946,18.474,25.821,18.567z M26.962,14.549c0.031,0,0.063-0.016,0.11-0.048
		c0.031,0,0.062-0.015,0.094-0.031c0.109-0.031,0.188-0.063,0.219-0.094c0.469-0.219,0.782-0.344,0.938-0.344
		c0.063,0,0.219,0.047,0.453,0.125l0.141,0.141c-0.031-0.282-0.047-0.5-0.047-0.657c-0.031-0.344-0.157-0.532-0.344-0.532
		c-0.063,0-0.266,0.11-0.579,0.313c-0.125,0.094-0.25,0.141-0.375,0.156c-0.141,0.031-0.375,0.031-0.688,0.031h-0.031L26.962,14.549
		z M26.962,16.285c0.266-0.36,0.454-0.719,0.579-1.063c-0.078,0.015-0.156,0.015-0.219,0.015c-0.125,0-0.25-0.015-0.406-0.063
		c0,0.25,0,0.422,0,0.532C26.915,15.862,26.931,16.05,26.962,16.285z M27.4,16.41c0.203-0.031,0.36-0.078,0.485-0.141
		c0.25-0.094,0.422-0.141,0.485-0.172c0.063,0,0.157-0.015,0.313-0.015c0.063,0,0.14,0,0.219,0l0.031-1.736
		c-0.094,0.281-0.266,0.547-0.5,0.782c-0.109,0.11-0.297,0.329-0.563,0.672L27.4,16.41z M27.713,23.931
		c0.516,0.422,1.016,0.626,1.485,0.626c0.438,0,0.86-0.563,1.282-1.689c0.344-0.985,0.532-1.657,0.532-2.001
		c0-0.626-0.5-0.954-1.47-0.954c-0.469,0-1.079,0.125-1.829,0.375c0,0.078,0.016,0.156,0.016,0.234c0,0.078-0.016,0.172-0.047,0.297
		c0.282-0.094,0.454-0.156,0.532-0.187c0.313-0.11,0.5-0.172,0.594-0.172c0.25,0,0.594,0.203,1.063,0.61
		C29.589,21.758,28.87,22.711,27.713,23.931z"/>
	<path class="st0" d="M40.644,14.408c0.313,0.219,0.469,0.422,0.5,0.626c-0.016,0.125-0.094,0.344-0.234,0.672
		c-0.188,0.375-0.282,0.657-0.297,0.813c0,0-0.047,0.141-0.11,0.391c0.235-0.063,0.422-0.094,0.579-0.094
		c0.547,0,0.985,0.172,1.329,0.5c0.266,0.297,0.406,0.923,0.406,1.892c0,0.907-0.125,1.861-0.375,2.862
		c-0.329,1.22-0.751,2.064-1.267,2.564c-0.344,0.329-0.625,0.484-0.844,0.484c-0.156-0.015-0.422-0.391-0.797-1.141
		c-0.234-0.484-0.454-0.953-0.672-1.422c0.766,0.703,1.282,1.063,1.532,1.095c0.344-0.031,0.766-0.876,1.267-2.534
		c0.297-0.938,0.453-1.782,0.485-2.517c-0.031-0.454-0.141-0.767-0.313-0.954c-0.219-0.141-0.547-0.219-0.969-0.219
		c-0.094,0-0.266,0.015-0.516,0.047c-0.485,1.751-1.204,3.377-2.173,4.91c-0.25,0.375-0.453,0.579-0.641,0.61
		c-0.344-0.063-0.5-0.375-0.5-0.923c0-0.282,0.031-0.516,0.094-0.672c0.063-0.157,0.219-0.329,0.438-0.5
		c0.406-0.312,0.86-1.079,1.392-2.314c0.047-0.156,0.125-0.391,0.25-0.688c-0.156,0.062-0.25,0.11-0.313,0.156
		c-0.782,0.406-1.298,0.594-1.533,0.594c-0.328,0-0.625-0.078-0.907-0.266c-0.187-0.156-0.266-0.266-0.266-0.328
		c0-0.063,0.14-0.094,0.422-0.11c0.719-0.062,1.516-0.25,2.377-0.563c0.109-0.031,0.266-0.094,0.484-0.172
		c0.313-0.907,0.469-1.611,0.501-2.142c-0.031-0.219-0.063-0.375-0.109-0.469c-0.031-0.078-0.047-0.157-0.047-0.25
		c0-0.172,0.078-0.266,0.25-0.266C40.159,14.079,40.347,14.189,40.644,14.408z M46.523,17.77c0.985,0.891,1.486,1.814,1.486,2.783
		c0,0.203-0.078,0.407-0.235,0.61c-0.094,0.125-0.234,0.187-0.391,0.187c-0.141-0.031-0.375-0.157-0.704-0.36l-1.924-1.22
		c0.657,0.219,1.126,0.329,1.407,0.36c0.109,0,0.219-0.031,0.344-0.125c0.125-0.094,0.187-0.187,0.219-0.312
		c-0.031-0.407-0.282-0.907-0.751-1.501c-0.626-0.782-1.392-1.438-2.283-1.97C44.694,16.472,45.648,16.988,46.523,17.77z"/>
	<path class="st0" d="M58.36,14.643c0.312,0.219,0.5,0.484,0.547,0.781c-0.125,0.407-0.297,0.61-0.547,0.641
		c-0.094,0-0.235-0.015-0.422-0.047c-0.172-0.031-0.297-0.047-0.375-0.047c-0.892,0-1.47,0.47-1.72,1.392
		c-0.141,0.5-0.203,1.752-0.203,3.737c0,0.094,0.047,0.125,0.141,0.125c1.736-0.969,2.94-1.455,3.612-1.455
		c0.625,0,1.204,0.203,1.72,0.579c0.548,0.407,0.844,0.923,0.891,1.548c-0.094,1.298-0.954,2.252-2.611,2.877
		c-1.126,0.422-2.314,0.672-3.55,0.767c1.282-0.47,2.455-1.126,3.55-1.955c0.938-0.704,1.423-1.345,1.439-1.939
		c-0.031-0.375-0.172-0.688-0.422-0.923c-0.234-0.25-0.579-0.375-1.016-0.375c-0.578,0-1.204,0.188-1.892,0.563
		c-0.594,0.345-1.125,0.829-1.579,1.423c-0.328,0.516-0.532,0.767-0.625,0.767c-0.125-0.031-0.313-0.235-0.563-0.626
		c-0.188-0.313-0.266-0.579-0.266-0.814c0-0.078,0-0.203,0.031-0.375c0.078-0.157,0.141-0.72,0.188-1.705
		c0.063-1.157,0.266-2.049,0.594-2.658c0.344-0.626,0.829-1.079,1.454-1.392c0.313-0.14,0.484-0.282,0.532-0.407
		c0-0.203-0.438-0.578-1.298-1.141C57.156,14.205,57.954,14.424,58.36,14.643z"/>
	<path class="st0" d="M70.76,20.585c-0.375,0.61-0.719,1.063-1.016,1.345c-0.61,0.594-1.048,0.891-1.329,0.923
		c-0.313,0-0.454-0.125-0.454-0.375c0-0.469,0.36-0.907,1.079-1.298C69.618,20.866,70.197,20.678,70.76,20.585z M73.559,14.205
		c-0.125,0-0.344,0.078-0.626,0.235c-0.798,0.438-1.642,0.688-2.533,0.735c-0.094,0-0.14,0.047-0.14,0.125
		c0,0.11,0.14,0.235,0.453,0.375c0.282,0.157,0.485,0.25,0.626,0.282c0.125,0,0.423-0.141,0.907-0.422
		c0.407-0.25,0.672-0.391,0.813-0.391c0.11,0,0.187,0.094,0.219,0.266c-0.032,0.282-0.407,1.157-1.095,2.596
		c-0.375,0.735-0.704,1.376-1.016,1.907c-1.157,0.094-2.111,0.406-2.861,0.907c-0.907,0.626-1.361,1.22-1.361,1.798
		c0,0.266,0.109,0.469,0.36,0.626c0.219,0.172,0.469,0.266,0.75,0.266c0.423,0.016,0.86-0.109,1.314-0.391
		c0.406-0.25,0.875-0.688,1.439-1.283c0.25-0.281,0.563-0.703,0.938-1.282c0.688,0.015,1.533,0.11,2.502,0.297l1.361,0.25
		c-0.031,0.063-0.063,0.125-0.078,0.172c-0.375,0.969-0.813,1.798-1.313,2.502c-0.594,0.813-1.251,1.548-1.986,2.236
		c0.954-0.266,1.829-0.814,2.642-1.673c0.719-0.766,1.267-1.658,1.658-2.69c0.063-0.125,0.094-0.219,0.109-0.25
		c0.5,0.172,0.891,0.297,1.141,0.36c0.798,0.312,1.235,0.469,1.329,0.469c0.266,0,0.422-0.11,0.454-0.329
		c-0.031-0.219-0.141-0.454-0.329-0.672c-0.188-0.219-0.391-0.344-0.61-0.375c-0.219,0-0.782-0.109-1.657-0.344
		c0.187-0.532,0.281-0.907,0.281-1.141c-0.047-0.172-0.157-0.375-0.328-0.594c-0.297-0.25-0.5-0.391-0.61-0.391
		c-0.141,0-0.469,0.203-0.985,0.594c0.094,0,0.203,0,0.329-0.015c0.109,0,0.172,0,0.203,0c0.187,0,0.297,0.094,0.328,0.266
		c-0.032,0.266-0.125,0.61-0.282,1.032c-1.376-0.25-2.627-0.375-3.769-0.391c0.688-1.173,1.267-2.267,1.752-3.268
		c0.219-0.454,0.406-0.766,0.578-0.938c0.234-0.188,0.375-0.313,0.406-0.36c-0.031-0.219-0.203-0.453-0.485-0.703
		C74.012,14.346,73.731,14.205,73.559,14.205z"/>
	<path class="st0" d="M91.494,14.314c0.282,0.297,0.454,0.532,0.485,0.719c-0.031,0.203-0.422,0.5-1.141,0.907
		c-1.001,0.563-2.471,1.611-4.441,3.143c4.019-1.126,6.129-1.704,6.333-1.704c0.219,0,0.501,0.109,0.829,0.312
		c0.282,0.266,0.454,0.5,0.516,0.704c0,0.25-0.219,0.375-0.626,0.375c-1.392,0.031-2.345,0.234-2.861,0.61
		c-0.469,0.313-0.844,0.751-1.11,1.298c-0.297,0.547-0.438,1.095-0.438,1.642c0,0.626,0.141,1.11,0.454,1.47
		c0.219,0.281,0.766,0.454,1.61,0.531c0.469,0.031,0.829,0.173,1.063,0.407c0.157,0.188,0.266,0.391,0.297,0.594
		c-0.031,0.329-0.25,0.485-0.657,0.485c-1.001-0.031-1.845-0.329-2.502-0.891c-0.72-0.595-1.063-1.376-1.063-2.377
		c0-1.095,0.312-2.017,0.938-2.736c0.219-0.266,0.469-0.563,0.735-0.891c-0.047-0.047-0.109-0.078-0.172-0.078
		c-0.657,0-1.736,0.36-3.268,1.063c-0.907,0.422-1.407,0.642-1.47,0.642c-0.156-0.031-0.328-0.141-0.547-0.297
		c-0.188-0.094-0.266-0.219-0.266-0.36c0-0.094,0.188-0.235,0.563-0.422c0.5-0.219,1.564-1.001,3.19-2.346
		c1.814-1.485,2.721-2.33,2.752-2.533c-0.031-0.156-0.078-0.25-0.172-0.25c-0.063,0-0.532,0.25-1.407,0.719
		c-1.001,0.547-1.642,0.829-1.955,0.86c-0.282,0-0.532-0.078-0.766-0.235c-0.25-0.125-0.36-0.234-0.36-0.359
		c0-0.031,0.344-0.141,1.063-0.297c0.844-0.188,1.423-0.345,1.736-0.469c1.126-0.47,1.767-0.704,1.955-0.704
		C90.978,13.845,91.213,14.002,91.494,14.314z"/>
	<path class="st0" d="M107.131,14.643c0.344,0.125,0.548,0.25,0.61,0.391c-0.015,0.188-0.719,0.391-2.095,0.61
		c-1.814,0.266-2.783,0.391-2.94,0.375c-0.891-0.031-1.329-0.156-1.329-0.391c0-0.109,0.172-0.172,0.516-0.203
		c0.625-0.015,1.407-0.172,2.33-0.453c1.126-0.329,1.83-0.5,2.127-0.5C106.536,14.471,106.802,14.533,107.131,14.643z
		 M108.944,17.723c0.438,0.297,0.688,0.532,0.735,0.719c0,0.329-0.203,0.672-0.594,1.032c-0.563,0.516-0.875,0.829-0.954,0.939
		c-0.563,0.844-1.157,1.579-1.783,2.205c-0.625,0.626-1.235,1.126-1.861,1.501c-0.563,0.345-1.298,0.672-2.221,1.001
		c1.392-1.001,2.408-1.891,3.049-2.658c0.36-0.469,0.798-1.095,1.329-1.907c0.657-1.001,0.985-1.673,1.016-2.033
		c-0.031-0.188-0.156-0.282-0.406-0.282c-0.657,0-1.798,0.203-3.393,0.579c-1.72,0.438-2.658,0.641-2.799,0.641
		c-0.234,0-0.516-0.062-0.844-0.203c-0.422-0.141-0.625-0.312-0.625-0.531c0-0.094,0.297-0.157,0.907-0.173
		c0.782-0.015,2.08-0.172,3.894-0.484c1.126-0.187,1.939-0.391,2.455-0.579c0.532-0.187,0.844-0.297,0.954-0.297
		C108.069,17.191,108.444,17.379,108.944,17.723z"/>
	<path class="st0" d="M126.363,20.413c-0.328,0-0.751-0.031-1.267-0.11c-0.406-0.031-0.798-0.094-1.204-0.172
		c-0.939-0.094-1.704-0.157-2.283-0.157c-1.564,0-2.69,0.016-3.378,0.047c-0.688,0.031-1.235,0.094-1.626,0.219
		c-0.391,0.125-0.751,0.172-1.063,0.172c-0.329,0-0.688-0.11-1.079-0.344c-0.438-0.25-0.657-0.532-0.657-0.814
		c0-0.125,0.094-0.203,0.313-0.203c0.188,0,0.438,0.047,0.751,0.141c0.219,0.062,0.625,0.094,1.235,0.094
		c0.969,0,2.455-0.031,4.456-0.125c1.97-0.063,3.456-0.11,4.457-0.11c1.297,0,1.954,0.25,1.954,0.719
		C126.974,20.209,126.77,20.413,126.363,20.413z"/>
	<path class="st0" d="M139.358,15.049c0.344,0.282,0.531,0.547,0.547,0.782c0.016,0.14-0.062,0.25-0.234,0.344
		c-0.125,0.094-0.454,0.532-0.954,1.345c-0.375,0.626-0.86,1.298-1.439,2.049c0.063,0.047,0.11,0.078,0.141,0.109
		c0.657,0.626,1.001,1.141,1.032,1.548c-0.015,0.391-0.187,0.579-0.516,0.579c-0.313,0-0.719-0.329-1.22-1.016
		c-0.094-0.063-0.157-0.141-0.219-0.235c-0.046,0.063-0.359,0.391-0.922,1.001c-0.844,0.876-1.595,1.532-2.267,1.97
		c-0.938,0.593-1.767,1-2.486,1.219c1.861-1.439,3.471-3.111,4.847-5.05c-0.501-0.5-1.235-1.22-2.236-2.127
		c1.048,0.375,1.986,0.797,2.83,1.267c0.329-0.5,0.704-1.125,1.11-1.892c0.469-0.923,0.719-1.579,0.751-1.986
		c0.016-0.25,0.11-0.375,0.266-0.375C138.607,14.58,138.935,14.736,139.358,15.049z"/>
	<path class="st0" d="M154.853,19.552c-0.704,1.016-1.595,2.049-2.658,3.08c-1.47,1.408-2.267,2.111-2.408,2.111
		c-0.235,0-0.532-0.141-0.891-0.453c-0.391-0.297-0.579-0.563-0.579-0.782c0-0.187,0.203-0.297,0.609-0.312
		c0.438-0.016,1.048-0.297,1.83-0.844c0.656-0.469,1.47-1.173,2.439-2.142c0.938-0.938,2.126-2.346,3.596-4.238
		C156.198,17.332,155.557,18.521,154.853,19.552z M150.882,16.597c0.626,0.5,0.938,0.907,0.923,1.22
		c-0.031,0.469-0.25,0.704-0.657,0.688c-0.297,0-0.672-0.344-1.141-1.016c-0.5-0.688-1.22-1.517-2.174-2.486
		C149.053,15.44,150.068,15.972,150.882,16.597z"/>
	<g>
		<path class="st0" d="M32.797,52.271c-0.011-0.532-0.293-0.717-0.293-0.717s-0.204-1.424-1.444-3.029
			c-0.184-0.239-0.239-0.652-0.141-1.054c0.097-0.402-0.304-1.879-0.402-2.074c-0.098-0.195-0.445-0.316-0.554-1.238
			c-0.022-0.185-0.25-0.174-0.271-0.348c-0.014-0.116,0.008-0.812,0.152-1.39c0.071-0.284,0.268-0.368,0.315-0.673
			c0.141-0.912-0.337-1.195-0.424-1.195c-0.087,0-0.304,0.326-0.347,0.478c-0.043,0.152,0.022,0.771-0.163,1.412
			c-0.184,0.64-0.549,1.94-0.565,2.194c-0.011,0.173-1.216,4.451-1.52,4.995c-0.102,0.182,0.119,0.336-0.358,1.553
			c-0.478,1.216-0.717,3.019-2.172,3.67c-1.455,0.652-2.823,0.717-3.627,0.565c-0.804-0.153-1.759-1.021-1.737-1.684
			c0.005-0.142,0.413-0.108,0.51-0.033c0.098,0.076,1.173,0.901,2.161,0.934c0.364,0.012,0.445-0.402,0.489-0.576
			c0.074-0.296-0.077-0.473,0.152-0.782c0.467-0.629,1.357-0.499,1.509-1.476c0.152-0.977-1.411-1.399-1.89-1.673
			c-0.228-0.13-0.024-0.403,0.304-0.912c0.413-0.64,0.326-1.259-0.489-1.65c-0.814-0.391-1.27-0.477-0.63-0.966
			c0.289-0.221,0.675-0.146,0.988-0.261c0.381-0.14,0.626-0.439,0.521-1.314c-0.065-0.543-1.509-1.064-1.553-1.336
			c-0.024-0.15,0.489-0.217,0.771-0.25c0.282-0.033,0.869-0.282,1.792,0.011s1.669,0.68,2.617-1.596
			c0.163-0.391-0.195-0.445,0.293-0.999c0.301-0.341,0.771-0.977,1.129-1.607c0.202-0.354,0.468-0.406,0.597-0.673
			c0.163-0.337-0.076-0.792-0.163-0.792c-0.12,0-0.413,0.369-0.749,0.51c-0.337,0.141-0.959,0.438-2.291,0.695
			c-1.292,0.25-1.596,0.577-2.356,0.554c-0.706-0.021-0.652-0.532-0.782-0.944c-0.13-0.413-0.38-0.923-0.619-0.966
			c-0.239-0.044-0.699,0.062-0.673-0.065c0.011-0.055,0.586-0.478,0.967-0.488c0.38-0.011,0.576,0.402,1.292,0.781
			c0.717,0.38,0.803,0.684,1.77,0.239c0.966-0.445,2.617-1.531,3.801-3.116c0,0-0.141-0.033-0.239,0s-1.911,1.249-2.258,0.565
			c-0.348-0.684,0.673-2.009,1.683-2.313c0.252-0.076,0.213-0.089,0.261-0.13c0.142-0.126-0.272-0.165-0.37-0.174
			c-0.13-0.011-1.129-0.097-1.249-0.184c-0.119-0.087-0.489-0.5-1.249-0.402c-0.76,0.097-1.217,0.39-1.792,0.347
			c-0.198-0.015-1.021,0.29-1.705,0.684c-0.814,0.47-1.508,1.083-1.792,1.662c0,0,0.022,0.228-0.282,0.814
			c-0.304,0.586-0.532,1.206-0.619,1.39c-0.087,0.185-0.228,0.5-0.695,0.511c-0.295,0.007-0.513-0.158-0.836-0.25
			c-0.188-0.054-0.449-0.025-0.684-0.076c-0.597-0.13-1.705-0.217-1.89-0.445c-0.184-0.228,0.793-0.5,1.043-0.869
			c0.25-0.369,0.521-2.074-0.934-2.454c-1.455-0.38-2.343,0.545-2.693-0.575c-0.217-0.695,0.456-1.802-0.402-1.965
			c0,0-0.677,1.375-1.466,2.134c-0.423,0.407-0.461,1.281-0.309,1.954c0.152,0.673,1.189,1.238,1.205,1.303
			c0.016,0.065-0.032,0.153-0.391,0.196c-0.831,0.097-2.248,0.049-2.362,0.325c-0.114,0.277,0.521,0.505,0.994,0.489
			c0.248-0.008,0.743,0.073,1.352,0.049c0.552-0.021,1.214-0.25,1.694-0.163c0.543,0.098,0.141,0.489,0.141,0.489
			s-1.281,0.814-2.291,1.01C9.57,39.1,8.516,38.89,7.811,38.067c-0.13-0.151-0.597,0.217-0.717,0.337
			c-0.119,0.119-0.666,0.744-0.879,1.433c-0.141,0.456-0.423,0.332-0.271,0.771c0.108,0.315,0.652,0.25,0.749,0.586
			c0.098,0.336-0.217,1.281,0.25,1.487c0.467,0.207,1.835-0.25,1.868,0.261c0.032,0.51-1.249,0.912-1.249,1.454
			c0,0.543,1.194,0.717,1.194,1.379c0,0.141-1.64,0.998-2.237,1.161c-0.597,0.163-2.701,0.044-3.225,0.022
			c-0.261-0.01,0.152,0.456,0.196,0.532c0.043,0.076,0.478,1.175,0.706,2.389c0.032,0.174,0.955,0.825,1.249,0.858
			c0.293,0.033,0.726-0.309,1.173-0.011c0.098,0.065,0.519,0.001,0.858-0.261c0.566-0.436,1.203-1.166,1.661-1.259
			c0.478-0.098,0.242,0.178,0.206,0.315c-0.065,0.25-0.119,2.052-0.304,2.595c-0.184,0.543-0.152,1.064-0.184,1.14
			c-0.033,0.076-0.836,0.489-0.847,0.782c-0.011,0.293-0.033,0.499,0.032,0.814c0.065,0.315,0.565,1.368,0.652,1.596
			c0.087,0.228,0.282,0.076,0.565,0.597c0.282,0.522,0.771,0.532,1.043,0.402c0.271-0.13,0.673-0.944,0.923-1.043
			c0.25-0.097,0.847-0.565,0.803-0.771c-0.026-0.122-0.099-0.336-0.184-0.5c-0.059-0.113-0.139-0.178-0.152-0.271
			c-0.028-0.197,0.044-1.021,0.044-1.021s0.228-0.304,0.326-0.239c0.098,0.065,0.13,1.607,0.717,2.15
			c0.586,0.543,1.01,0.586,1.314,0.792c0.304,0.207,0.38,0.608,0.858,1.043c0.478,0.434,1.075,0.142,1.325-0.054
			c0.25-0.196,0.651-0.913,0.662-1.477c0.011-0.565-0.184-2.78-0.108-3.431c0,0,0.358-0.142,0.108-0.511c0,0-0.011-1.043,0-1.39
			s0.467-1.086,0.76-1.042c0.293,0.043,0.565,0.619,0.565,0.782c0,0.163-0.033,1.477-0.033,1.477s0.163,0.206,0.141,0.576
			c-0.021,0.369,0,0.792,0.065,0.966c0.065,0.174-0.098,0.239-0.022,0.51c0.076,0.271,0.244,2.845,4.501,3.866
			c1.176,0.282,2.73,0.048,3.73,0c2.62-0.127,4.14-0.834,4.789-1.694c0.576-0.728,0.521-1.259,0.521-1.259
			S32.807,52.803,32.797,52.271z M11.438,44.973c-0.098-0.033-0.068,0.147-0.109,0.174c-0.041,0.028-0.387,0.056-0.174-0.369
			c0.119-0.238,0.4-0.661,0.619-1.086c0.225-0.436,0.391-0.869,0.391-0.869c0.094-0.078,0.601-0.176,1.096-0.293
			c0.539-0.126,1.057-0.308,1.119-0.206c0.152,0.25,0.13,0.38-0.315,0.771c-0.445,0.391-0.597,0.901-0.869,1.205
			C12.925,44.605,12.458,45.256,11.438,44.973z M13.661,54.122c0,0.142-0.206,0.257-0.315,0.289
			c-0.109,0.032-0.328-0.334-0.45-0.706c-0.122-0.373,0.019-0.347,0.328-0.559c0.308-0.212,0.443-0.122,0.443-0.013
			C13.668,53.133,13.661,53.981,13.661,54.122z M13.772,49.675c0,0-0.271,0.163-0.695,0.044c-0.423-0.119-0.947,0.505-1.194,0.098
			c-0.185-0.305,0.652-0.674,0.652-0.674l0.098-0.195c0,0,1.086,0.456,1.151,0.532S13.772,49.675,13.772,49.675z M15.499,47.222
			c-0.261,0.119-0.912-0.163-1.194-0.185c-0.283-0.022-0.543,0.38-0.532,0.044c0.011-0.337,0.586-0.207,0.76-0.293
			c0.981-0.49,1.509-0.533,1.509-0.533C16.074,46.885,15.759,47.102,15.499,47.222z M16.378,40.622
			c0.016-0.106,0.171-0.057,0.749-0.326c0.578-0.268,0.964-0.184,1.026,0.114c0.041,0.196-0.342,0.733-0.472,0.701
			C17.141,40.976,16.362,40.728,16.378,40.622z M18.374,45.377c-0.018,0.074-0.128,0.095-0.134,0.176
			c-0.116,1.423-0.34,1.571-0.601,1.812s-0.658,0.042-0.396-0.772c0.262-0.814,0.956-2.809,0.956-2.809
			c0.026,0.354,0.17,0.525,0.191,0.912c0.005,0.098-0.052,0.216-0.056,0.347C18.322,45.287,18.383,45.336,18.374,45.377z
			 M18.218,43.692c0,0-0.029-0.559,0.071-0.516C18.388,43.219,18.494,43.367,18.218,43.692z M19.864,53.408
			c-0.09,0.081-0.497-0.179-0.456-0.48c0,0,0.285-0.081,0.513,0.016C20.149,53.042,20.023,53.264,19.864,53.408z M19.941,49.21
			c0,0,0.131-0.171,0.22-0.212c0.089-0.04,0.363-0.11,0.436,0.045c0.073,0.155-0.13,0.387-0.273,0.452
			C20.181,49.56,19.868,49.548,19.941,49.21z M21.102,51.869c0.07,0.113,0.036,0.205-0.057,0.277c0,0-0.177,0.099-0.301,0.236
			c-0.144,0.159-0.243,0.359-0.326,0.359c0,0-0.106-0.692,0.407-0.994C20.923,51.689,21.061,51.804,21.102,51.869z M19.245,39.474
			c0.049-0.228,0.179-0.342,0.668-1.042c0.489-0.701,0.863-0.798,0.863-0.798c0.139,0.301-0.374,0.44-0.407,0.611
			c-0.355,1.863-1.059,1.767-1.059,1.767S19.196,39.702,19.245,39.474z"/>
		<path class="st0" d="M49.921,37.014c-0.488,0.165-1.077,0.419-1.256,0.466c0,0-1.105-0.751-1.079-0.95
			c0.053-0.411,0.755-1.432,0.807-1.72c0.066-0.37-0.33-1.018-0.238-1.309c0.092-0.291,0.304-0.423,0.331-0.529
			c0.026-0.106-0.053-0.384-0.212-0.384s-0.121,0.266-0.873,0.397c-0.992,0.172-1.587,0.066-2.05,0.225
			c-0.463,0.158-0.847,0.489-0.939,0.635c0,0-0.754,0.437-0.939,0.49c-0.185,0.053-0.489,0.436-0.542,1.018
			c-0.053,0.582-0.185,0.727,0.093,1.442c0.278,0.714-0.221,0.859-0.212,1.071c0.026,0.595,1.085,1.389,1.376,2.103
			c0.291,0.714,0.641,2.355,0.826,3.886c0.185,1.531-0.228,5.614-0.228,5.614s-2.719,0.989-3.485,1.162
			c-0.912,0.206-1.032-0.055-1.488-0.087c-0.456-0.032-1.097-0.076-1.357-0.14c-0.501-0.126-2.302,0.13-2.443,0.206
			c-0.141,0.076-0.358,0.271-0.087,0.565c0.271,0.293,0.695,0.608,0.912,1.52c0.217,0.912,1.358,2.758,3.062,2.835
			c0.446,0.02,1.017-0.194,1.585-0.38c0.468-0.154,0.928-0.298,1.314-0.402c0.934-0.25,1.418-0.378,2.335-0.576
			c1.357-0.293,2.215-0.966,5.234-0.999c1.547-0.017,2.67,0.372,3.681,0.749c0.944,0.352,2.758,0.945,2.932,1.053
			c0.174,0.108,2.237,0.174,2.758-0.173c0.667-0.445,0.749-1.727,1.325-2.943c0.576-1.216,1.249-1.575,1.401-1.629
			c0.152-0.054,1.001-0.543,0.814-1.086c-0.108-0.315-0.782,0.022-0.934,0.108c-0.152,0.087-1.759,0.859-3.116,1.086
			c-1.357,0.228-3.605,0.359-5.082,0.239c-1.477-0.119-5.267-0.651-5.636-1.195c-0.369-0.542,0.554-2.106,0.641-2.584
			c0.087-0.478-0.098-1.401,0.293-2.421c0.391-1.021-0.087-1.748,0.499-1.836c0.656-0.097,1.303,0.097,2.465-0.108
			c1.162-0.206,1.743-0.9,2.204-3.051c0.098-0.456,0.38-0.402,0.413-1.14c0.032-0.738-0.044-1.683,0.152-2.497
			c0.196-0.814,0.576-1.444,0.554-1.727c0,0-0.434-0.033-0.51,0.065c-0.076,0.098-0.228,0.413-0.391,0.413
			c-0.163,0-0.196-0.087-0.315-0.012c-0.119,0.076-2.712,1.996-4.083,2.411C50.295,36.936,50.122,36.946,49.921,37.014z"/>
		<path class="st0" d="M100.305,46.711c-0.229,0.014-0.369,0.111-0.576,0.13c-1.281,0.119-3.71-0.141-3.681-0.532
			c0.032-0.434,2.117-0.51,2.117-0.51s0.771-0.196,0.782-0.38c0.013-0.23-0.195-0.25-0.195-0.25s-0.456-1.444-0.717-1.639
			c-0.26-0.196-0.694-1.077-0.456-1.694c0.055-0.141-0.76-0.966-1.216-1.401c-0.456-0.434-0.402-0.88-1.77-1.694
			c-0.787-0.468-0.933-0.513-1.249-0.63c-0.293-0.108-0.847-1.14-1.737-1.346c-1.789-0.415-2.628-0.076-2.65-0.348
			s0.467-0.391,1.075-0.391c0.608,0,0.445-0.207,1.835-0.25c1.39-0.044,0.901-0.37,2.215-0.424c1.314-0.055,2.356-0.087,2.519-0.619
			c0.163-0.532-1.976-2.443-2.834-2.682c-0.474-0.132-1.003-0.017-1.346,0.173c-0.278,0.153-0.392,0.352-0.586,0.533
			c-0.434,0.402-1.314,1.194-1.596,1.259c-0.282,0.065-3.415,1.097-3.562,0.739c-0.098-0.239,0.804-0.912,0.782-1.401
			c-0.022-0.477-1.173-0.695-2.02-1.292c-1.554-1.096-1.585-1.608-2.009-1.684c-0.423-0.076-0.869-0.022-0.869-0.022
			s-0.011,0.228-0.076,0.315c-0.065,0.087-0.771,0.836-0.825,1.054c-0.054,0.217,0.055,0.456-0.51,1.259
			c-0.565,0.804-1.103,2.113-1.238,2.28c-0.543,0.674-2.487,1.846-2.519,2.161c-0.032,0.315,0.315,0.554,0.228,0.88
			c-0.087,0.326-0.64,0.63-0.608,0.891c0.043,0.347,0.803,1.313,0.836,1.39c0.033,0.076,0.076,0.619,0.163,0.901
			c0.043,0.152,0,0.554,0,0.554s0.282,0.282,0.293,0.402c0,0,1.976-2.042,2.161-2.172c0.184-0.13,0.337-0.044,1.335-1.39
			c0,0,0.597-0.445,0.804-0.478c0.206-0.033,0.738-0.217,0.684,0.119c-0.054,0.337-1.738,1.086-2.28,1.966
			c-0.543,0.88-1.672,2.519-1.803,2.779c0,0-0.38,0.174-1.281,0.239c-0.901,0.065-2.736,0.153-2.867,0.207
			c0,0-1.075-0.988-1.466-1.173c-0.236-0.111-1.382-0.021-2.411-0.141c-0.675-0.08-1.241-0.255-1.477-0.51
			c-0.133-0.144,0.118-0.597,0.38-0.771c0.27-0.18,0.477-0.124,0.543-0.141c0.13-0.033,0.562-0.058,0.684-0.076
			c0.076-0.011,0.273-0.897,1.39-1.433c0.836-0.402,1.216-0.196,1.379-0.217c0.061-0.008,0.439-0.083,0.945-0.119
			c0.843-0.06,2.002-0.151,2.204-0.706c0.293-0.803-0.554-1.868-0.76-2.205c-0.206-0.336-0.641-0.592-0.977-0.575
			c-0.228,0.01-0.239-0.228-1.173-0.315c0,0-0.261-0.026-0.543-0.391c-0.184-0.239-2.552-0.402-2.965-0.217
			c0,0-1.638-0.094-1.818,0.219c0,0,0.757,0.572,0.757,0.925c0,0,0.17-0.004,0.485,0.212c0.315,0.217,0.586,0.467,0.586,0.728
			c0,0,0.633,0.357,0.554,0.804c-0.152,0.858-1.119,1.444-1.26,2.117c-0.124,0.59-1.596,1.151-2.324,1.488
			c-0.728,0.336-1.683,0.792-1.683,0.912c0,0.119,0.521,0.218,0.554,0.445c0.032,0.228,0.402,0.25,0.499,0.423
			c0.098,0.174,0.194,0.433-0.163,0.803c-0.293,0.304,0.098,0.12,0.207,0.185c0.108,0.065,0.133,0.328,0.174,0.663
			c0.032,0.271,0.38,0.314,0.673,0.358s2.751,0.04,2.867,0.554c0.098,0.434-0.543,0.597-0.815,0.825
			c-0.271,0.228-0.496,0.341-0.619,0.717c-0.217,0.663-1.247,1.105-1.911,1.705c-0.445,0.402-0.706,1.064-0.717,1.194
			c-0.011,0.13,0.141,1.249,0.098,1.651c0,0,0.228,0.337,0.26,0.814c0.033,0.478,0.293,0.434,0.141,0.641
			c-0.152,0.206-0.087,0.565-0.13,0.705c-0.043,0.142-0.499,0.977-0.478,1.206c0.025,0.263,0.326,0.402,1.205,0.717
			c0.88,0.315,0.831,1.176,1.39,1.455c0.369,0.185,0.488-0.141,0.738,0.033c0.25,0.173,0.402,0.641,0.869,0.641
			c0.467,0,0.781-0.545,0.814-0.749c0.087-0.538,0.174-1.596,0.369-2.313c0.196-0.717,1.113-3.198,1.803-4.088
			c0.13-0.169,0.228-1.417,0.271-1.612c0.043-0.196,0.034-0.472,0.217-0.859c0.098-0.206-0.109-0.382,0.293-0.901
			c0.337-0.434,0.413-0.826,0.413-0.826l0.011-0.434c0,0,1.457-0.503,2.041-0.348c0.163,0.044-0.169,0.298-0.543,0.717
			c-0.184,0.207,0.205,0.83,0.228,0.944c0.087,0.435-0.336,0.5-0.326,0.891c0.011,0.424,0.684,0.663,0.76,1.075
			c0.017,0.091,0.78,0.477,1.151,1.043c0.207,0.314,1.267,1.362,3.008,1.704c0.2,0.04,0.469,0.224,0.749,0.359
			c0.21,0.101,0.441,0.137,0.576,0.271c0.28,0.282,0.225,0.611,0.217,0.684c-0.008,0.074-0.489,0.75-1.531,1.325
			c-1.043,0.576-1.727,0.955-1.944,1.118c-0.217,0.163-0.901,0.391-0.88,0.76c0.022,0.369,1.998-0.489,4.441-0.174
			c2.443,0.315,2.128,0.315,2.519,0.533c0.391,0.217,0.749,0.781,1.466,0.662c0.717-0.12,0.902-1.424,1.433-1.314
			c0.576,0.119,0.97,0.982,1.444,0.923c0.26-0.033,0.82-0.379,1.183-0.967c0.364-0.587,0.408-1.47,0.782-1.813
			c0.13-0.119,0.38-0.377,0.76-0.999c0.119-0.196,0.662-0.434,1.422-1.824c0.147-0.269,0.044-0.359,0.044-0.359
			s-0.825,0.25-1.184,0.554c-0.358,0.304-0.977,0.586-1.14,0.413c-0.163-0.175,0.695-1.586,1.922-2.28
			c0.516-0.293,1.318,0.781,1.998,0.705c1.173-0.13,1.694-1.954,2.215-2.323c0.521-0.37,0.868-0.565,1.748-0.706
			c0,0,0.524-0.563,0.966-0.76C100.772,46.852,100.616,46.692,100.305,46.711z M74.201,46.885c-0.293,0.836-1.444,1.835-2.986,3.204
			c-1.542,1.368-1.39,1.368-1.792,1.618c-0.402,0.249-1.085,0.746-1.085,0.746s-0.914-1.414-0.603-2.242
			c0.31-0.828,1.379-1.673,1.914-1.673c0.534,0,1.533-0.264,1.845-1.294c0.047-0.153,0.47,0.098,0.633,0.096
			c0.793-0.011,1.216-0.674,1.553-0.858c0.337-0.184,0.782-0.314,0.945-0.206C74.787,46.385,74.294,46.619,74.201,46.885z
			 M81.814,46.643c-0.319,0.221-0.824,0.788-1.063,0.859c-0.239,0.071-0.434,0.249-0.771,0.169c-0.337-0.08-0.496-0.532-1.241-0.762
			c-0.164-0.051,0.387-0.692,0.461-0.709c0.151-0.036,0.673-0.506,0.673-0.948c0,0,2.574,0.005,3.041,0.292
			C83.144,45.685,82.133,46.421,81.814,46.643z M85.407,42.536c0,0-0.489,0.071-0.695,0.201c-0.206,0.13-0.88,0.696-1.314,0.402
			c-0.337-0.228-0.011-0.271,0.054-0.315c0.065-0.043,1.531-0.597,1.705-1.727c0.035-0.227,0.521-0.771,0.624-0.744
			c0,0,0.521,0.652,0.701,0.717c0.179,0.065,1.218,0.042,1.01,0.635c-0.045,0.128-0.609,0.25-0.994,0.391
			C85.901,42.316,85.407,42.536,85.407,42.536z M86.022,50.676c-0.177-0.028-0.409-0.491-0.341-0.519
			c0.068-0.027,1.269-1.023,1.555-1.118c0.287-0.096,0.791-0.041,0.791-0.041C88.177,49.653,86.199,50.703,86.022,50.676z
			 M89.419,47.675c-0.314,0.163-0.75,0.586-0.75,0.586c-0.082-0.096-0.246-0.996-0.355-1.091c-0.109-0.096,0.041-0.355,0.259-0.327
			c0.218,0.027,1.173,0.354,1.201,0.463C89.801,47.415,89.733,47.51,89.419,47.675z M91.618,44.724
			c-0.445,0.217-1.281,0.022-1.281,0.022s-3.019-1.075-3.106-1.27c-0.056-0.126,0.463-0.335,1.151-0.326
			c0.377,0.005,0.804,0.108,1.216,0.25c0.63,0.217,1.042,0.293,1.042,0.293l1.347-0.25C91.988,43.443,92.063,44.507,91.618,44.724z
			 M92.183,42.476c-0.261,0-0.065-0.38-0.521-0.749c-0.456-0.369-0.532-0.836-0.891-0.988c-0.436-0.185-1.02-1.184-1.433-1.455
			c-0.212-0.139-1.607-0.434-1.639-0.467c-0.033-0.033,0.108-0.325,0.489-0.434c0.38-0.109,1.401-0.554,1.401-0.554
			c1.879,0.434,2.107,1.944,2.204,2.357c0.098,0.413,0.424,0.532,0.424,0.532l0.043,1.661C92.259,42.378,92.27,42.476,92.183,42.476
			z"/>
	</g>
	<path class="st0" d="M123.454,36.511c0.534,0.357,0.802,0.802,0.802,1.396c0,0.624-0.178,0.921-0.475,0.921
		c-2.674,0-5.169,0.119-7.546,0.357c0,0.178,0,0.357,0,0.535c2.347,2.881,4.338,5.021,6.001,6.387
		c1.218,1.07,3.446,2.199,6.685,3.387c0.357,0.06,0.565,0.178,0.565,0.357c0,0.237-0.178,0.356-0.475,0.386
		c-0.594,0.178-1.188,0.297-1.723,0.327c-0.713,0.149-2.169,0.208-4.308,0.208c-0.624,0-1.188-0.267-1.664-0.832
		c-1.604-1.902-2.674-3.327-3.238-4.338c-0.713-1.07-1.308-2.05-1.812-2.912c0,1.664,0.059,3.654,0.119,5.971
		c0.119,0,0.238-0.03,0.356-0.089c0.386-0.06,0.684-0.119,0.891-0.119c1.782,0,2.674,0.683,2.674,1.991
		c0,0.178-0.178,0.268-0.475,0.327c-1.188,0.178-2.287,0.357-3.357,0.475c0.03,1.07,0.059,2.198,0.119,3.358
		c0,1.039-0.238,1.782-0.713,2.198c-0.356,0.534-0.743,0.832-1.158,0.832c-0.356,0-0.832-0.564-1.367-1.634
		c-0.178-0.446-0.238-0.832-0.238-1.159c0-0.475,0.059-0.862,0.178-1.218c0.06-0.237,0.119-0.742,0.149-1.456
		c0.029-0.178,0.059-0.356,0.059-0.594c-0.832,0.119-1.366,0.149-1.663,0.149c-0.624,0-1.159-0.178-1.634-0.594
		c-0.416-0.386-0.594-0.773-0.594-1.159c0-0.178,0.119-0.297,0.356-0.357c1.277-0.119,2.496-0.297,3.684-0.475
		c0.059-1.544,0.119-3.476,0.149-5.793c-0.832,1.337-1.634,2.525-2.466,3.535c-1.189,1.515-2.496,2.763-3.922,3.743
		c-1.218,0.832-2.674,1.545-4.397,2.14v-0.238c0.683-0.475,1.337-1.01,1.931-1.604c1.396-1.278,2.615-2.585,3.684-3.952
		c1.248-1.485,2.525-3.506,3.862-6.001c0.238-0.386,0.446-0.862,0.624-1.397c-1.07,0.178-2.199,0.386-3.357,0.654
		c-0.564,0.178-0.921,0.237-1.07,0.237c-0.386,0-0.832-0.237-1.367-0.742c-0.475-0.386-0.713-0.713-0.713-1.01
		c0-0.149,0.059-0.238,0.237-0.238c2.614-0.327,4.902-0.683,6.922-1.04c-0.059-2.881-0.208-4.456-0.446-4.753
		c-0.119-0.387-0.268-0.743-0.386-1.07c-0.119-0.149-0.178-0.298-0.178-0.446c0-0.297,0.178-0.475,0.564-0.475
		c0.891,0,1.723,0.149,2.525,0.386c0.862,0.237,1.307,0.565,1.307,1.01c0,0.238-0.059,0.446-0.149,0.624
		c-0.238,0.416-0.386,0.891-0.446,1.485c-0.119,0.445-0.208,1.367-0.267,2.792c1.337-0.237,2.704-0.534,4.1-0.891
		c0.505-0.119,0.981-0.178,1.426-0.178C122.325,35.917,122.86,36.125,123.454,36.511z"/>
	<path class="st0" d="M144.666,55.139l-0.773-4.308c0.714-0.119,1.783-0.297,3.179-0.565c1.961-0.357,3.268-0.535,3.862-0.535
		c0.386,0,0.594,0.357,0.594,1.04c0,0.475-0.089,1.1-0.237,1.813c-0.119,0.772-0.238,1.336-0.386,1.752
		c-0.921,0.178-2.02,0.357-3.327,0.475C146.45,54.931,145.469,55.05,144.666,55.139z M144.221,30.807
		c-0.237,0.03-0.357,0.118-0.357,0.237c0,0.297,0.386,0.98,1.188,2.079c0.683,1.01,1.248,1.515,1.723,1.515
		c1.218,0,1.842-0.534,1.842-1.604c0-0.356-0.148-0.683-0.416-0.98c-0.297-0.238-0.862-0.505-1.723-0.802
		C145.558,30.956,144.815,30.807,144.221,30.807z M152.094,34.194c-0.386,0-0.802,0.06-1.248,0.149
		c-1.901,0.534-3.773,0.95-5.585,1.277c-1.337,0.268-2.822,0.534-4.486,0.802c-0.238-0.149-0.535-0.268-0.951-0.327
		c-1.129-0.267-1.991-0.416-2.585-0.416c-0.237,0-0.356,0.209-0.356,0.594c0,0.119,0.089,0.327,0.297,0.624
		c0.178,0.237,0.297,0.683,0.297,1.337c0,2.377-0.238,4.723-0.683,7.071c-0.475,2.466-1.337,4.872-2.556,7.219
		c-0.653,1.337-1.455,2.585-2.466,3.833v0.119c0.238,0,0.446-0.06,0.594-0.149c1.664-1.129,2.971-2.347,3.981-3.654
		c1.07-1.486,1.991-3.298,2.793-5.437c0.713-2.317,1.247-5.169,1.664-8.556c0.148-0.029,0.357-0.089,0.654-0.178
		c1.396-0.356,2.703-0.624,3.922-0.802c2.674-0.416,5.556-0.624,8.705-0.624c0.297,0,0.446-0.297,0.446-0.921
		c0-0.594-0.268-1.04-0.773-1.396C153.164,34.402,152.599,34.194,152.094,34.194z M145.499,38.115c-0.416,0-0.594,0.237-0.594,0.713
		c0,0.179,0.089,0.387,0.297,0.654c0.178,0.268,0.357,0.624,0.505,1.04c0.149,0.802,0.149,3.624,0.029,8.438
		c-0.802,0.119-1.634,0.178-2.525,0.237c-0.237-0.119-0.505-0.268-0.861-0.416c-0.832-0.208-1.516-0.327-2.079-0.327
		c-0.416,0-0.595,0.238-0.595,0.713c0.357,0.238,0.683,0.624,0.921,1.159c0.297,0.594,0.565,1.426,0.802,2.436
		c0.208,1.723,0.475,2.881,0.832,3.595c0,0.237,0.149,0.534,0.475,0.891c0.327,0.416,0.714,0.624,1.159,0.624
		c0.446,0,0.773-0.297,0.951-0.862c0.594-0.059,1.545-0.148,2.852-0.268c2.258-0.237,4.575-0.356,6.893-0.356
		c0.148,0,0.268-0.06,0.327-0.149c0-0.297-0.267-0.773-0.742-1.485c-0.03,0-0.03,0-0.03-0.029c0.237-1.218,0.593-2.169,1.099-2.882
		c0.237-0.475,0.624-0.921,1.129-1.277c0.178-0.119,0.297-0.237,0.297-0.357c0-0.416-0.683-1.04-2.05-1.901
		c-1.129-0.594-1.961-0.891-2.495-0.891c-0.327,0-0.683,0.089-1.04,0.237c-0.891,0.327-1.753,0.594-2.615,0.802
		c0.06-1.396,0.119-2.643,0.208-3.714c0.089,0,0.208,0,0.327,0c0.624,0,1.336-0.059,2.11-0.237c1.158-0.208,2.109-0.357,2.881-0.475
		c0.594-0.06,0.921-0.327,0.921-0.802c0-1.07-0.653-1.664-1.961-1.723c-0.297,0-0.861,0.178-1.634,0.475
		c-0.773,0.357-1.605,0.683-2.496,0.98c0.119-1.367,0.297-2.258,0.475-2.674c0-0.178,0.029-0.356,0.029-0.534
		c0-0.327-0.534-0.683-1.575-1.07C147.014,38.323,146.271,38.115,145.499,38.115z"/>
</g>
</svg>
