<?xml version="1.0" encoding="utf-8"?>
<!-- Generator: Adobe Illustrator 26.3.1, SVG Export Plug-In . SVG Version: 6.00 Build 0)  -->
<svg version="1.1" id="レイヤー_1" xmlns="http://www.w3.org/2000/svg" xmlns:xlink="http://www.w3.org/1999/xlink" x="0px"
	 y="0px" width="160px" height="70px" viewBox="0 0 160 70" style="enable-background:new 0 0 160 70;" xml:space="preserve">
<style type="text/css">
	.st0{fill:#231815;}
</style>
<g id="レイヤー_2_00000183966036434981564300000011574236500585396352_">
	<g id="レイヤー_1-2_00000019640266726327327450000016177807644863614107_">
		<path class="st0" d="M139.095,53.225c-2.9-0.727-12.259-7.049-16.351-9.896c0-0.339,0-0.679-0.02-1.018
			c1.87-0.618,5.102-1.761,6.221-2.609c0.218-0.166,0.311-1.095,0.311-1.095s0.784-0.153,1.179,0.137
			c0.113,0.081,0.069,0.566,0.21,0.715c1.127,1.184,1.406,2.25,2.86,2.504c0.561,0.097,2.02-0.638,1.858-1.438
			c-0.331-1.773-2.533-2.258-3.211-3.046c-0.182-0.206,0.141-1.087,0.101-1.357c-0.121-0.808-1.911-2.642-1.911-2.642
			c-0.162-0.319-0.02-0.941,0.089-1.317l2.387,0.097c0.485,0,0.57-0.198,0.606-0.376c0.21-1.002,0.077-3.231,0.158-4.225
			c0.061-0.808-1.349-1.28-1.349-1.28c-3.433-0.246-6.669-0.448-9.884-0.553c-0.069-2.557-0.113-4.148-0.113-4.148
			c-0.077-0.662-1.454-1.171-3.231-1.022c-1.777,0.149-1.987,1.091-1.987,1.091s0,1.539,0.044,4.007
			c-3.385,0-6.867,0.178-10.615,0.541c-1.095,0.105-2.165,3.005-1.559,5.914c0.122,0.511,0.308,1.005,0.553,1.47
			c0.121-0.704,0.667-1.258,1.369-1.39c0.716-0.153,1.442-0.247,2.173-0.283c0.348,0.555,0.619,1.154,0.808,1.781
			c0.085,0.404,0,0.925-0.448,1.68l-2.828,4.847c-0.288,0.336-0.544,0.698-0.763,1.083c-0.228,0.701-0.204,1.46,0.069,2.145
			c0.129,0.275,0.335-0.973,0.566-1.175c0.23-0.202,2.109-0.646,3.761-1.155c0.918-0.266,1.744-0.783,2.383-1.495l2.496,2.306
			c-2.452,2.759-6.394,7.129-7.505,7.945c-0.63,0.46-3.005,2.727-5.223,0.206c-0.501-0.566-1.293-0.893-2.424-0.323
			c-0.505,0.254-0.784,1.519-0.493,2.65c0.339,1.305,0.473,1.866,2.327,3.547c2.161,1.963,4.993,2.658,7.836,1.155
			c2.064-1.095,5.336-5.287,7.772-9.238c0.105,6.669,0.21,12.142,0.283,12.724c0.038,0.741,0.465,1.406,1.123,1.749
			c0.945,0.496,2.02,0.687,3.078,0.549c0.913-0.137,1.018-1.555,1.026-1.806c0.065-2.448,0.044-6.62-0.02-11.359
			c4.342,3.959,10.159,8.951,13.532,10.543c1.519,0.719,3.429,0.23,4.609-0.917c0,0,2.977-2.888,3.231-6.192
			C142.314,53.944,139.939,53.427,139.095,53.225z M113.882,33.634c-0.587-0.669-1.267-1.25-2.02-1.725
			c1.583-0.04,3.389-0.048,5.251-0.032c0.028,2.068,0.057,4.322,0.089,6.629l-3.231-2.323
			C113.971,36.183,114.067,33.82,113.882,33.634z M126.173,32.055c-0.081,0.658-0.206,1.616-0.287,2.056
			c-0.198,1.062-0.404,1.66-1.616,4.015c-0.404,0.784-1.002,1.733-1.587,2.622c-0.061-3.074-0.129-6.091-0.194-8.79
			c1.293,0.012,2.533,0.061,3.684,0.081V32.055z"/>
		<path class="st0" d="M43.129,31.667c-0.755-0.032-3.066-0.109-3.959,0.271c-0.404,0.17-0.642,0.808-1.058,0.763
			c-0.416-0.044-1.737-1.923-1.616-2.537c0.055-0.511,0.028-1.028-0.081-1.531c0,0-0.259-2.545,0.331-2.452l1.111-0.105l6.818-0.149
			c0,0,4.904,0.032,8.765,0.359c0,0,1.006-0.105,1.143,0.404c0.259,0.957,0,4.56,0,4.56c-0.022,0.2-0.077,0.395-0.162,0.578
			l-5.809-0.141l-0.117,6.463c2.626,0.125,6.628,0.537,7.384,0.448c0,0,0.86-0.202,1.002,0.364c0,0-0.364,2.02-0.404,2.359
			c-0.145,1.131-0.307,2.395-0.444,3.098c-0.081,0.432-0.46,0.99-1.458,0.957c-0.283,0-1.688,0.065-2.08-0.533
			c-0.675-1.03-3.635-0.965-3.744-0.194c-0.465,4.1,0.743,9.513,0.606,11.876c-0.121,2.076,0.048,3.038-0.905,4.467
			c-1.361,2.048-3.207,1.022-4.039,0.404c-1.725-1.268-3.607-4.383-4.039-5.178c-0.432-0.796-2.553-3.716-2.553-3.716
			s4.443,1.64,5.574,1.903c1.212,0.279,1.054-0.226,1.026-0.533c-0.359-3.563-0.428-7.218-0.772-9.29
			c-0.145-0.872-3.07-0.303-3.07-0.303s-2.933,0.178-3.486,1.446c-0.057,0.133-0.246,0.23-0.586,0.335s-0.566-0.658-0.566-0.658
			s-0.598-4.387-0.077-5.251c0.404-0.65,0.889-1.818,2.48-1.979l3.231-0.202l1.713-0.028L43.129,31.667z"/>
		<path class="st0" d="M35.58,52.098c0,0,0.044-2.424-0.178-3.207c-0.206-0.731-2.928-0.671-2.928-0.671l-4.015,0.036
			c0-0.557,0-1.119,0-1.692l5.081-0.04c0,0,1.797,0.238,1.717-4.039c0,0,0.291-7.501,0.141-9.694c-0.048-0.727,0-1.006-1.688-1.163
			c-1.26-0.117-3.155-0.085-5.207-0.04v-2.117l5.433,0.299c1.555,0.246,1.515-0.808,1.515-0.808V26.9
			c0.077-2.209-0.634-1.83-1.131-1.802c-1.434,0.085-4.08,0-5.837-0.048c0-2.601,0-4.221,0-4.221
			c-0.061-0.679-0.973-1.212-2.779-1.107s-1.802,1.058-1.802,1.058s0,1.616-0.048,4.144l-6.552-0.048
			c-0.379-0.013-0.724,0.218-0.856,0.574c-0.06,0.316-0.095,0.636-0.105,0.957c-0.024,0.47-0.079,0.939-0.166,1.402
			c-0.141,1.252,0.654,1.927,1.062,1.975c0.606,0.077,1.414-0.259,1.878-0.271c1.139-0.024,3.042-0.044,4.686-0.069
			c0,0.731,0,1.491-0.024,2.27c-1.563,0.04-4.617,0.024-5.607,0c-0.893-0.028-1.749-0.218-2.092,0.808
			c-0.707,2.1,0.275,1.616,0.355,3.845c0.085,2.331,0.727,8.785,0.727,8.785s0.254,1.212,0.961,1.466
			c0.578,0.073,1.162,0.08,1.741,0.02l3.761-0.032c0,0.578,0,1.151,0,1.713l-4.52,0.061c-0.376-0.02-1.07-0.242-1.616-0.267
			c-0.285-0.042-0.575,0.029-0.808,0.198c-0.303,0.307-0.303,2.302-0.271,2.541c0.093,0.727,0.158,2.424,0.747,2.828
			c0.291,0.206,1.349-0.19,1.616-0.214c0.994-0.085,2.941-0.141,4.819-0.182c0,3.748,0,6.398,0.024,6.802
			c0.014,0.759,0.431,1.453,1.095,1.822c0.626,0.404,1.212,0.553,2.424,0.404c0.929-0.121,1.07-1.563,1.083-1.822
			c0.089-1.725,0.153-4.274,0.198-7.271c1.93-0.029,3.861,0.039,5.784,0.206C35.814,53.483,35.58,52.098,35.58,52.098z
			 M32.146,42.613l-3.514,0.032c-0.078,0-0.141-0.063-0.141-0.141c0-0.485,0-1.163,0-1.648c0.002-0.076,0.065-0.137,0.141-0.137
			l3.49-0.04c0.077,0,0.139,0.061,0.141,0.137v1.656C32.266,42.542,32.216,42.603,32.146,42.613z M28.656,35.165l3.656-0.032
			c0.076-0.002,0.139,0.057,0.141,0.133c0,0.001,0,0.003,0,0.004l-0.069,1.822c0.004,0.076-0.053,0.141-0.129,0.145
			c-0.003,0-0.006,0-0.008,0l-3.599,0.032c-0.076,0.002-0.139-0.057-0.141-0.133c0-0.003,0-0.005,0-0.008c0-0.481,0-1.353,0-1.822
			c0-0.078,0.063-0.141,0.141-0.142C28.651,35.165,28.654,35.165,28.656,35.165z M20.028,37.435c-0.078,0-0.141-0.063-0.141-0.141
			l-0.061-1.903c0-0.077,0.061-0.139,0.137-0.141h3.833c0.078,0,0.141,0.063,0.141,0.141c0,0.473-0.02,1.345-0.024,1.826
			c-0.002,0.076-0.065,0.137-0.141,0.137L20.028,37.435z M23.72,42.71h-3.353c-0.077,0-0.139-0.061-0.141-0.137v-1.616
			c0-0.077,0.061-0.139,0.137-0.141l3.385-0.028c0.076-0.002,0.139,0.057,0.141,0.133c0,0.003,0,0.005,0,0.008
			c0,0.481,0,1.155,0,1.616c0.015,0.077-0.034,0.151-0.111,0.166C23.76,42.715,23.74,42.715,23.72,42.71z"/>
		<path class="st0" d="M73.763,54.234c1.256,1.491,2.472,2.848,2.173,4.968c0.631,0.978,1.489,1.79,2.5,2.367
			c1.434,0.808,2.537,0.275,3.377-0.376c1.046-0.808,1.616-2.424,1.357-3.102c-0.216-0.394-0.353-0.826-0.404-1.272
			c0-0.485,0.404-0.509,1.252-1.143c0.917-0.695,2.92-3.328,2.92-3.328c2.084-2.242,3.231-4.266,4.536-4.71
			c0,0,0.852-0.368,2.67-0.319c0.561,0,0.808-0.961,0.772-1.741c0.01-0.709-0.284-1.388-0.808-1.866
			c-1.995-1.495-4.629-1.333-4.629-1.333s-1.939-1.353-3.042-2.084c-0.17-0.109-2.294-1.442-3.094-1.894
			c-1.03-0.582-2.69-1.539-2.662-1.705c0.456-2.759,0.25-5.607-0.347-7.032c-1.038-2.492-3.579-1.131-4.011-0.355
			c-3.349,6.01-5.114,10.159-7.852,13.007c-1.998,1.992-4.16,3.812-6.463,5.441c-1.123,0.868,1.834,0.719,1.834,0.719
			c11.766-0.295,14.493-5.772,14.493-5.772s4.165,2.02,5.655,3.542c-1.038,2.521-4.197,5.441-4.197,5.441
			c-3.062-3.502-5.736-4.383-8.818-4.253c-3.853,0.162-1.971,1.135-1.567,1.519C70.657,50.139,73.226,53.58,73.763,54.234z"/>
		<path class="st0" d="M25.635,8.336h-0.032c-0.108,0.038-0.221,0.064-0.335,0.077h-2.02c-0.355,0-0.65,0-0.881,0
			c0.109-0.198,0.21-0.404,0.303-0.606c0.067-0.095,0.104-0.207,0.105-0.323c0-0.073-0.028-0.311-0.376-0.311
			c-0.076,0.007-0.146,0.045-0.194,0.105l-0.024,0.036c-0.171,0.401-0.409,0.769-0.703,1.091c-0.2,0.238-0.453,0.425-0.739,0.545
			c-0.254,0.02-0.283,0.166-0.283,0.23v0.044c-0.026-0.098-0.117-0.165-0.218-0.162l0,0l-0.715-0.028c0-0.46,0.02-0.973,0.04-1.535
			c0-0.456-0.275-0.525-0.436-0.525s-0.444,0.069-0.444,0.529c0,0.545,0.028,1.054,0.032,1.519c-0.335,0-0.626,0-0.856,0.04h-0.053
			c0.052-0.289,0.082-0.583,0.089-0.877c0-0.153-0.069-0.404-0.529-0.404c-0.192-0.029-0.371,0.102-0.401,0.294
			c-0.004,0.026-0.005,0.052-0.003,0.078c0.015,0.111,0.039,0.22,0.073,0.327c0,0.17,0,0.303,0,0.404
			c0,0.152-0.024,0.303-0.069,0.448c-0.088,0.094-0.146,0.212-0.166,0.339c-0.012,0.174,0.118,0.324,0.292,0.337
			c0.02,0.001,0.04,0.001,0.06-0.001c0.066-0.006,0.13-0.024,0.19-0.053c0.161-0.063,0.329-0.107,0.501-0.129
			c0.288-0.041,0.578-0.064,0.868-0.069v1.402c-0.432,0.125-0.929,0.283-1.491,0.469c-0.151,0.04-0.274,0.15-0.331,0.295
			c-0.069,0.123-0.101,0.263-0.093,0.404c0,0.113,0.04,0.372,0.436,0.372h0.028h0.024c0.448-0.238,0.925-0.46,1.414-0.662
			c0,0.553,0,1.163,0,1.826c0,0.509,0.137,0.763,0.404,0.763s0.46-0.141,0.46-0.784V11.68c0.214-0.081,0.428-0.162,0.638-0.23
			c0.184-0.042,0.306-0.217,0.283-0.404c0.01-0.149-0.103-0.278-0.252-0.288c-0.017-0.001-0.034-0.001-0.051,0.001
			c-0.17,0.03-0.38,0.078-0.63,0.145V9.737l0.396,0.065c0.118,0.003,0.235-0.024,0.339-0.081c0.116-0.078,0.183-0.211,0.178-0.351
			c0,0,0-0.036,0-0.053c0.044,0.132,0.129,0.246,0.242,0.327c0.139,0.123,0.316,0.194,0.501,0.202c0.145,0,0.295-0.109,0.46-0.331
			l0.158-0.206c0.179,0.007,0.358-0.017,0.529-0.069h0.097c-0.079,0.334-0.197,0.658-0.351,0.965c-0.21,0.391-0.5,0.732-0.852,1.002
			c-0.212,0.194-0.469,0.333-0.747,0.404c-0.085,0-0.351,0.069-0.351,0.267c0.014,0.169,0.093,0.326,0.222,0.436
			c0.113,0.156,0.289,0.253,0.481,0.267c0.275-0.054,0.529-0.186,0.731-0.38c0.255-0.231,0.479-0.495,0.666-0.784
			c0.34-0.468,0.599-0.99,0.767-1.543c0.085-0.303,0.153-0.537,0.202-0.703c0.141,0,0.287,0,0.432,0h0.097
			c-0.085,0.61-0.246,1.207-0.481,1.777c-0.235,0.606-0.594,1.156-1.054,1.616c-0.241,0.283-0.549,0.499-0.897,0.63
			c-0.234,0.048-0.351,0.141-0.351,0.279c0.019,0.174,0.103,0.334,0.234,0.448c0.121,0.159,0.305,0.259,0.505,0.275
			c0.121,0,0.343-0.057,0.885-0.541c0.312-0.337,0.583-0.71,0.808-1.111c0.417-0.712,0.723-1.483,0.909-2.286
			c0.113-0.493,0.202-0.86,0.263-1.087V9.144h0.598c0.002,0.015,0.002,0.03,0,0.044c0,0.186-0.032,0.703-0.093,1.535
			c-0.158,1.648-0.343,2.205-0.473,2.395s-0.456,0.364-0.982,0.404c-0.154,0.032-0.262,0.17-0.254,0.327
			c0.007,0.162,0.059,0.318,0.149,0.452c0.126,0.173,0.328,0.274,0.541,0.271c0.434-0.004,0.84-0.214,1.095-0.566
			c0.339-0.404,0.545-1.212,0.63-2.492c0.055-0.907,0.158-1.81,0.307-2.706c0.023-0.238-0.152-0.449-0.389-0.471
			C25.677,8.335,25.656,8.335,25.635,8.336z"/>
		<path class="st0" d="M34.966,11.232h-0.04c-0.101,0.044-0.209,0.07-0.319,0.077c-0.473-0.028-0.881-0.04-1.212-0.04H31.9
			c-0.136,0.005-0.272-0.008-0.404-0.04c-0.141-0.034-0.288-0.042-0.432-0.024l0.101-0.057c1.245-0.816,2.431-1.717,3.551-2.698
			c0.319-0.25,0.465-0.432,0.46-0.594s-0.081-0.372-0.452-0.384c-0.135,0.006-0.27,0.019-0.404,0.04h-1.761
			c0.006-0.056,0.006-0.113,0-0.17c0-0.202-0.133-0.319-0.355-0.319c-0.083,0.018-0.159,0.057-0.222,0.113
			c-0.431,0.382-0.923,0.69-1.454,0.913c-0.503,0.242-1.04,0.408-1.591,0.493c-0.283,0-0.307,0.21-0.307,0.271
			c0.012,0.189,0.11,0.362,0.267,0.469c0.147,0.137,0.337,0.218,0.537,0.23c0.307-0.02,0.604-0.116,0.864-0.279
			c0.538-0.29,1.052-0.621,1.539-0.99h1.886c-0.595,0.523-1.217,1.015-1.862,1.474c-0.11-0.132-0.235-0.251-0.372-0.355
			c-0.493-0.368-0.521-0.368-0.574-0.368c-0.232-0.034-0.447,0.127-0.481,0.358c-0.004,0.028-0.005,0.057-0.004,0.086
			c0,0.133,0.093,0.242,0.279,0.323c0.194,0.097,0.373,0.221,0.533,0.368c-1.184,0.652-2.465,1.113-3.793,1.365
			c-0.226,0.053-0.263,0.19-0.263,0.267c-0.002,0.203,0.094,0.394,0.259,0.513c0.163,0.122,0.362,0.185,0.566,0.178
			c0.36-0.045,0.712-0.145,1.042-0.295c0.62-0.224,1.221-0.501,1.793-0.828c-0.062,0.084-0.094,0.187-0.089,0.291
			c0.051,0.402,0.078,0.807,0.081,1.212c-0.002,0.405-0.029,0.81-0.081,1.212c-0.021,0.202,0.125,0.383,0.327,0.404
			c0.026,0.003,0.051,0.003,0.077,0h0.012c0.179-0.041,0.362-0.068,0.545-0.081c0.403-0.035,0.807-0.048,1.212-0.04
			c0.647,0.006,1.293,0.048,1.935,0.125c0.117,0,0.404-0.048,0.404-0.497c-0.024-0.335-0.04-0.602-0.04-0.808
			c0-0.319,0-0.626,0.04-0.917c0.002-0.137,0.025-0.274,0.069-0.404c0.014-0.035,0.022-0.072,0.024-0.109
			C35.37,11.418,35.212,11.232,34.966,11.232z M34.481,12.04v1.519c0,0.057,0,0.057-0.04,0.057c-0.541-0.028-1.042-0.04-1.491-0.04
			s-0.877,0-1.212,0.04c-0.129,0-0.129-0.048-0.129-0.085c0.05-0.476,0.074-0.955,0.073-1.434c0-0.081,0-0.097,0.097-0.097
			c1.171,0,2.076,0,2.706,0.048L34.481,12.04z"/>
		<path class="st0" d="M46.34,12.472c-0.156,0.025-0.314,0.037-0.473,0.036c-0.578,0-1.212-0.028-1.838-0.089
			c-0.626-0.061-1.272-0.125-1.834-0.141c0-0.145,0-0.307,0.036-0.481v-0.032c0.477,0,1.014,0.036,1.616,0.081
			c0.121,0,0.404-0.044,0.404-0.469c-0.028-0.311-0.04-0.566-0.04-0.747c-0.002-0.283,0.012-0.566,0.04-0.848
			c0-0.136,0.017-0.272,0.053-0.404c0.089-0.204-0.004-0.443-0.209-0.532c-0.049-0.021-0.102-0.033-0.155-0.034h-0.04
			c-0.103,0.044-0.212,0.07-0.323,0.077c-0.549-0.028-1.022-0.04-1.41-0.04h-1.773c-0.136,0.006-0.272-0.008-0.404-0.04
			c-0.11-0.022-0.223-0.03-0.335-0.024c-0.202-0.021-0.383,0.125-0.404,0.327c-0.003,0.026-0.003,0.051,0,0.077
			c0.054,0.367,0.084,0.736,0.089,1.107c-0.003,0.376-0.032,0.751-0.089,1.123c-0.016,0.207,0.138,0.388,0.345,0.404
			c0.02,0.002,0.039,0.002,0.059,0l0,0c0.254-0.032,0.473-0.053,0.65-0.061c0.178-0.008,0.501,0,1.018-0.02v0.081
			c0.016,0.162,0.028,0.315,0.036,0.46c-1.239,0.092-2.471,0.254-3.692,0.485c-0.153,0.02-0.295,0.089-0.404,0.198
			c-0.121,0.1-0.195,0.247-0.202,0.404c0.011,0.215,0.188,0.384,0.404,0.384c0.163-0.007,0.323-0.044,0.473-0.109
			c0.572-0.214,1.16-0.387,1.757-0.517c0.549-0.088,1.104-0.134,1.66-0.137c0,0.246-0.02,0.549-0.036,0.905
			c0,0.509,0.141,0.772,0.404,0.772s0.485-0.133,0.485-0.776l-0.028-0.901c0.456,0,0.864,0.044,1.212,0.089
			c0.657,0.091,1.301,0.259,1.919,0.501c0.178,0.085,0.372,0.131,0.57,0.133c0.166,0,0.311-0.121,0.444-0.368
			c0.12-0.195,0.188-0.418,0.198-0.646C46.522,12.484,46.401,12.472,46.34,12.472z M40.104,11.014c0-0.109,0-0.226,0.032-0.343
			c0.808-0.053,1.903-0.081,3.296-0.081v0.465c-0.016,0.004-0.033,0.004-0.048,0c-0.586-0.028-1.127-0.04-1.616-0.04
			c-0.594,0-1.123,0-1.567,0.04C40.104,11.079,40.104,11.046,40.104,11.014z M40.181,9.964c0-0.109,0-0.218,0-0.335
			s0-0.077,0.089-0.077c1.357,0,2.424,0,3.155,0.04v0.372H40.181z"/>
		<path class="st0" d="M37.858,8.437c0.109,0,0.339-0.024,0.707-0.073c0.368-0.048,0.925-0.057,1.616-0.069v0.04
			c0.048,0.347,0.242,0.404,0.351,0.404s0.307-0.036,0.331-0.376V8.283h0.683h1.301v0.069c0,0.347,0.242,0.376,0.315,0.376
			c0.152-0.003,0.289-0.09,0.355-0.226l0.061-0.214h0.545c0.763,0.053,1.252,0.081,1.462,0.081c0.172,0.001,0.337-0.066,0.46-0.186
			c0.094-0.112,0.148-0.253,0.153-0.4c0-0.053-0.036-0.222-0.291-0.222h-2.121l0.028-0.109V7.419c0.023-0.222-0.138-0.42-0.36-0.443
			c-0.024-0.002-0.048-0.003-0.072-0.001c-0.222-0.026-0.422,0.133-0.448,0.354c-0.005,0.039-0.003,0.079,0.004,0.118v0.109h-2.072
			V7.419c0.023-0.222-0.138-0.42-0.36-0.443c-0.024-0.002-0.048-0.003-0.072-0.001c-0.287,0-0.452,0.145-0.452,0.404l0.032,0.178
			H38.04c-0.142,0-0.281,0.038-0.404,0.109c-0.129,0.095-0.208,0.244-0.214,0.404C37.441,8.291,37.636,8.455,37.858,8.437z"/>
		<path class="st0" d="M49.907,10.489c0-0.109-0.073-0.23-0.271-0.23l-2.02,0.158c-0.17,0.028-0.372,0.153-0.372,0.566
			c-0.005,0.236,0.182,0.432,0.418,0.438c0.015,0,0.031,0,0.046-0.001l0,0l1.975-0.578C49.798,10.832,49.907,10.747,49.907,10.489z"
			/>
		<path class="st0" d="M50.905,8.93c0.137-0.011,0.272-0.035,0.404-0.073c0.422-0.057,0.847-0.084,1.272-0.081
			c0.098,0.199,0.215,0.387,0.351,0.561c0.036,0.053,0.077,0.109,0.121,0.162c-0.186,0.053-0.368,0.097-0.545,0.137
			c-0.511,0.085-1.026,0.14-1.543,0.166c-0.123-0.005-0.226,0.091-0.23,0.214c0,0.005,0,0.011,0,0.016
			c0.005,0.157,0.077,0.304,0.198,0.404c0.142,0.13,0.329,0.2,0.521,0.194c0.136-0.003,0.272-0.02,0.404-0.053
			c0.55-0.084,1.091-0.219,1.616-0.404l0.206-0.085c0.271,0.2,0.561,0.375,0.864,0.521c0.372,0.217,0.784,0.355,1.212,0.404
			c0.194-0.023,0.371-0.122,0.493-0.275c0.148-0.172,0.23-0.391,0.23-0.618c0-0.246-0.125-0.271-0.202-0.271
			c-0.21,0-0.404,0.028-0.521,0.028c-0.339,0.013-0.677-0.029-1.002-0.125c-0.077-0.028-0.153-0.057-0.222-0.089
			c0.158-0.089,0.323-0.19,0.501-0.303c0.09-0.056,0.142-0.157,0.137-0.263c-0.001-0.102-0.053-0.197-0.137-0.254h0.061
			c0.148,0.002,0.292-0.049,0.404-0.145c0.108-0.105,0.164-0.253,0.153-0.404c-0.015-0.124-0.122-0.215-0.246-0.21h-0.994
			c0.125-0.061,0.339-0.178,0.715-0.404h0.028V7.657c0.043-0.096,0.063-0.202,0.057-0.307c0-0.202-0.133-0.319-0.355-0.319
			c-0.152-0.01-0.301,0.049-0.404,0.162c-0.549,0.646-0.549,0.666-0.549,0.723c-0.002,0.066,0.023,0.13,0.069,0.178h-0.986
			c-0.089-0.253-0.158-0.512-0.206-0.776c-0.052-0.178-0.218-0.298-0.404-0.291c-0.105,0-0.351,0.036-0.351,0.404v0.04
			c0.081,0.222,0.162,0.436,0.242,0.63h-1.167c-0.141-0.007-0.281,0.027-0.404,0.097c-0.111,0.079-0.186,0.198-0.21,0.331v0.02
			C50.498,8.77,50.685,8.939,50.905,8.93z M54.686,8.845c-0.315,0.162-0.606,0.295-0.864,0.404c-0.164-0.138-0.31-0.297-0.432-0.473
			c0.335,0,0.654,0,0.949,0l0.372,0.028L54.686,8.845z"/>
		<path class="st0" d="M49.976,8.073c-0.474-0.242-0.886-0.474-1.236-0.695c-0.094-0.05-0.197-0.082-0.303-0.093
			c-0.456,0-0.525,0.259-0.525,0.404c0.012,0.23,0.144,0.437,0.347,0.545l0.048,0.02c0.174,0.024,0.594,0.109,1.244,0.242
			c0.077,0.025,0.157,0.04,0.238,0.044c0.206,0,0.331-0.109,0.331-0.291C50.104,8.172,50.05,8.106,49.976,8.073z"/>
		<path class="st0" d="M49.754,12.714h-0.048c-1.163,0.549-1.474,0.723-1.567,0.804c-0.148,0.134-0.223,0.331-0.202,0.529
			c0,0.174,0.097,0.376,0.566,0.376c0.081,0,0.234,0,1.394-1.099v-0.02c0.066-0.089,0.106-0.196,0.113-0.307
			c0.009-0.147-0.103-0.273-0.25-0.282C49.757,12.715,49.755,12.715,49.754,12.714z"/>
		<path class="st0" d="M56.33,13.369L56.33,13.369c-0.222,0.02-0.404,0.032-0.553,0.032c-0.395,0.011-0.789-0.033-1.171-0.129
			L54.5,13.24l0.529-0.404c0.08-0.059,0.124-0.155,0.117-0.254c0-0.087-0.035-0.17-0.097-0.23c0.153,0,0.259,0,0.319,0
			c0.149-0.001,0.292-0.055,0.404-0.153c0.104-0.108,0.155-0.255,0.141-0.404c-0.002-0.125-0.105-0.225-0.23-0.222
			c-0.003,0-0.006,0-0.008,0h-1.967c0.121-0.061,0.327-0.178,0.695-0.404l0.036-0.032c0.048-0.096,0.069-0.204,0.061-0.311
			c0-0.202-0.141-0.323-0.372-0.323c-0.142-0.009-0.28,0.053-0.368,0.166c-0.529,0.646-0.529,0.666-0.529,0.719
			c-0.002,0.067,0.024,0.132,0.073,0.178h-0.767c-0.088-0.213-0.159-0.433-0.21-0.658c-0.047-0.181-0.218-0.301-0.404-0.283
			c-0.199-0.024-0.38,0.119-0.404,0.318c-0.003,0.029-0.003,0.057,0,0.086v0.048c0.077,0.17,0.149,0.335,0.222,0.489H50.82
			c-0.141-0.003-0.28,0.03-0.404,0.097c-0.117,0.083-0.19,0.216-0.198,0.359c-0.014,0.209,0.145,0.39,0.354,0.404
			c0.017,0.001,0.033,0.001,0.05,0c0.155-0.01,0.31-0.034,0.46-0.073c0.347-0.044,0.696-0.067,1.046-0.069
			c0.124,0.246,0.275,0.476,0.452,0.687c0.093,0.109,0.194,0.214,0.303,0.319c-0.174,0.061-0.347,0.113-0.525,0.158
			c-0.52,0.134-1.051,0.218-1.587,0.25c-0.267,0-0.287,0.19-0.287,0.242c0.003,0.171,0.085,0.33,0.222,0.432
			c0.153,0.14,0.354,0.214,0.561,0.206c0.137-0.005,0.272-0.027,0.404-0.065c0.573-0.128,1.13-0.319,1.66-0.57l0.259-0.101
			c0.261,0.15,0.531,0.285,0.808,0.404c0.431,0.208,0.896,0.336,1.373,0.376c0.204-0.028,0.388-0.139,0.509-0.307
			c0.164-0.185,0.255-0.423,0.254-0.671C56.536,13.393,56.386,13.369,56.33,13.369z M54.641,12.327
			c-0.294,0.213-0.6,0.409-0.917,0.586l0,0c-0.285-0.154-0.537-0.365-0.739-0.618c0.529,0,1.038,0,1.503,0.02h0.153V12.327z"/>
		<path class="st0" d="M70.992,8.287c0.03,0.063,0.092,0.105,0.162,0.109c0.223-0.021,0.435-0.104,0.614-0.238
			c0.144-0.087,0.237-0.237,0.25-0.404c0-0.178-0.101-0.242-0.194-0.242l0,0c-0.117-0.001-0.233-0.014-0.347-0.04
			c-0.169-0.03-0.334-0.083-0.489-0.158H70.92c-0.131-0.007-0.243,0.094-0.25,0.226c0,0.004,0,0.008,0,0.012
			c0,0.045,0.01,0.089,0.028,0.129C70.779,7.891,70.878,8.094,70.992,8.287z"/>
		<path class="st0" d="M73.521,8.542c-0.143,0.019-0.288,0.029-0.432,0.028c-0.625-0.001-1.249-0.035-1.87-0.101
			c-0.376-0.048-0.751-0.089-1.107-0.121l0.065-0.929c0.024-0.222-0.137-0.421-0.359-0.444c-0.028-0.003-0.057-0.003-0.085,0
			c-0.207-0.016-0.388,0.138-0.404,0.345c-0.002,0.02-0.002,0.039,0,0.059l0.028,0.921c-0.28-0.016-0.56-0.016-0.84,0l0.036-0.872
			c0.03-0.221-0.125-0.425-0.346-0.455c-0.041-0.006-0.082-0.005-0.123,0.002c-0.199-0.024-0.38,0.119-0.404,0.318
			c-0.003,0.029-0.003,0.057,0,0.086l0.065,0.957c-0.808,0.065-1.83,0.182-3.086,0.351c-0.152,0.015-0.295,0.082-0.404,0.19
			c-0.125,0.087-0.201,0.228-0.206,0.38c-0.02,0.222,0.144,0.419,0.366,0.439c0.013,0.001,0.025,0.002,0.038,0.002
			c0.163-0.008,0.324-0.041,0.477-0.097c0.597-0.19,1.205-0.343,1.822-0.456c0.186-0.028,0.384-0.053,0.594-0.069
			c-0.015,0.044-0.022,0.091-0.02,0.137l0.202,0.557h-1.03c-0.141-0.006-0.28,0.026-0.404,0.093
			c-0.124,0.08-0.203,0.213-0.214,0.359c0,0.223,0.181,0.404,0.404,0.404c0.161-0.01,0.32-0.035,0.477-0.073
			c0.551-0.062,1.106-0.089,1.66-0.081l0,0v0.259h-1.402c-0.14-0.005-0.28,0.027-0.404,0.093c-0.118,0.083-0.191,0.216-0.198,0.359
			c-0.014,0.209,0.145,0.39,0.354,0.404c0.017,0.001,0.033,0.001,0.05,0c0.137-0.009,0.272-0.034,0.404-0.073
			c0.415-0.06,0.833-0.087,1.252-0.081v0.246h-2.371c-0.155-0.009-0.31,0.032-0.44,0.117c-0.131,0.094-0.212,0.243-0.218,0.404
			c-0.001,0.223,0.179,0.405,0.402,0.406c0.014,0,0.028-0.001,0.042-0.002c0.188-0.014,0.374-0.042,0.557-0.085
			c0.323-0.036,0.788-0.065,1.381-0.077c-0.195,0.152-0.403,0.288-0.622,0.404c-0.418,0.213-0.864,0.366-1.325,0.452
			c-0.282,0.058-0.569,0.095-0.856,0.109c-0.206,0-0.319,0.081-0.347,0.23c0.014,0.177,0.098,0.342,0.234,0.456
			c0.135,0.185,0.342,0.304,0.57,0.327c0.101-0.007,0.202-0.026,0.299-0.057c0.517-0.154,1.011-0.376,1.47-0.658
			c0.431-0.254,0.837-0.549,1.212-0.881c0,0.339,0,0.719-0.024,1.151c-0.024,0.432,0.137,0.719,0.404,0.719
			c0.202,0,0.444-0.125,0.444-0.723v-1.212c0.128,0.072,0.252,0.152,0.372,0.238c0.582,0.404,1.111,0.848,1.579,1.26
			c0.127,0.127,0.297,0.201,0.477,0.206c0.251-0.002,0.496-0.079,0.703-0.222c0.246-0.145,0.364-0.299,0.364-0.469
			c0.016-0.144-0.088-0.274-0.232-0.29c-0.015-0.002-0.031-0.002-0.047-0.001l0,0c-0.218-0.014-0.434-0.048-0.646-0.101
			c-0.626-0.247-1.228-0.553-1.797-0.913h0.638c0.59,0.061,0.953,0.093,1.111,0.093c0.168,0.003,0.329-0.068,0.44-0.194
			c0.111-0.118,0.17-0.275,0.166-0.436c0-0.065-0.044-0.214-0.291-0.23h-2.86v-0.246c0.279,0,0.553,0,0.808,0.02
			c0.372,0.036,0.606,0.053,0.707,0.053c0.16,0.005,0.316-0.051,0.436-0.158c0.087-0.104,0.132-0.236,0.129-0.372
			c0.007-0.118-0.083-0.219-0.201-0.226c-0.01-0.001-0.02,0-0.029,0h-1.818c0-0.081,0-0.166,0-0.259c0.372,0,0.727,0,1.05,0.02
			c0.485,0.04,0.784,0.061,0.909,0.061c0.159,0.008,0.314-0.051,0.428-0.162c0.096-0.112,0.147-0.256,0.141-0.404
			c-0.004-0.125-0.109-0.223-0.234-0.219c-0.003,0-0.006,0-0.009,0h-1.244l0.267-0.477V9.261c0.007-0.051,0.007-0.103,0-0.153h0.036
			c0.666,0.083,1.321,0.242,1.951,0.473c0.182,0.079,0.379,0.12,0.578,0.121c0.149,0,0.283-0.109,0.404-0.339
			c0.097-0.184,0.15-0.389,0.153-0.598C73.695,8.562,73.586,8.542,73.521,8.542z M69.768,9.16l-0.101,0.61h-1.511L68.128,9.22
			c0.002-0.065-0.013-0.129-0.044-0.186c0.25,0,0.513,0,0.808,0c0.339,0,0.654,0.008,0.945,0.024
			C69.811,9.09,69.788,9.124,69.768,9.16z"/>
		<path class="st0" d="M66.367,8.437c0.219-0.031,0.413-0.159,0.529-0.347c0.259-0.307,0.291-0.404,0.291-0.497
			c0-0.238-0.166-0.25-0.198-0.25h-0.04c-0.186,0.073-0.382,0.116-0.582,0.125c-0.098-0.005-0.196-0.022-0.291-0.048h-0.028
			c-0.101,0-0.21,0.069-0.21,0.25c-0.004,0.196,0.054,0.388,0.166,0.549C66.078,8.35,66.216,8.433,66.367,8.437z"/>
		<path class="st0" d="M78.053,8.61c-0.436,0-0.485,0.291-0.485,0.404c0,0.113,0.057,0.311,0.448,0.311l0,0
			c0.524-0.063,1.052-0.09,1.579-0.081c0.335,0,0.372-0.19,0.372-0.271c0.013-0.196-0.135-0.365-0.331-0.378
			c-0.024-0.002-0.049-0.001-0.073,0.003L78.053,8.61z"/>
		<path class="st0" d="M84.27,8.259c0-0.097,0-0.222,0.028-0.372c0.029-0.114,0.047-0.23,0.053-0.347
			c0.017-0.222-0.15-0.416-0.372-0.433c-0.024-0.002-0.048-0.001-0.072,0.001c-0.17,0-0.465,0.073-0.485,0.566
			c0,0.662,0,1.284,0.04,1.846c0.02,1.078,0.032,2.161,0.032,3.231c0.013,0.209-0.027,0.417-0.117,0.606
			c-0.065,0.105-0.267,0.263-0.877,0.404c-0.287,0.04-0.315,0.23-0.315,0.307c0.002,0.153,0.066,0.299,0.178,0.404
			c0.143,0.135,0.333,0.209,0.529,0.206l0,0c0.357-0.033,0.695-0.174,0.969-0.404c0.346-0.385,0.521-0.894,0.485-1.41
			c0-0.404,0-0.965-0.028-1.692C84.286,10.36,84.27,9.398,84.27,8.259z"/>
		<path class="st0" d="M76.122,9.398c0.092-0.004,0.183-0.021,0.271-0.048c0.452-0.144,0.882-0.35,1.276-0.614
			c0.368-0.236,0.713-0.506,1.03-0.808c0.089,0.052,0.184,0.092,0.283,0.121c0.449,0.174,0.874,0.405,1.264,0.687
			c0.088,0.058,0.19,0.094,0.295,0.105c0.347,0,0.372-0.238,0.372-0.311c0-0.141-0.109-0.343-0.929-0.808
			c-0.448-0.246-0.743-0.404-0.893-0.465C79.05,7.1,78.901,6.996,78.74,7.011c-0.121,0.001-0.232,0.069-0.287,0.178
			C78.179,7.43,77.872,7.63,77.54,7.782c-0.36,0.197-0.751,0.334-1.155,0.404C76.134,8.23,75.88,8.26,75.625,8.275
			c-0.303,0-0.38,0.174-0.404,0.291c0.025,0.192,0.126,0.366,0.279,0.485C75.653,9.245,75.877,9.371,76.122,9.398z"/>
		<path class="st0" d="M80.048,12.129c0.221,0.029,0.424-0.127,0.453-0.348c0.002-0.019,0.004-0.037,0.003-0.056
			c0.005-0.644,0.056-1.286,0.153-1.923c0-0.121-0.061-0.331-0.497-0.331l0,0c-0.143,0.024-0.287,0.037-0.432,0.04l-1.212-0.04l0,0
			l-1.078,0.04h-0.036c-0.073-0.033-0.154-0.05-0.234-0.048c-0.259,0-0.404,0.166-0.404,0.469c0.044,0.469,0.069,0.844,0.069,1.111
			c0.011,0.361-0.048,0.72-0.174,1.058c-0.184,0.432-0.587,0.73-1.054,0.78c-0.291,0.028-0.323,0.226-0.323,0.311
			c0.012,0.18,0.111,0.344,0.267,0.436c0.166,0.174,0.39,0.282,0.63,0.303c0.203-0.027,0.39-0.124,0.529-0.275
			c0.311-0.286,0.558-0.634,0.727-1.022c0.053-0.16,0.095-0.323,0.125-0.489c0.436-0.068,0.876-0.1,1.317-0.097
			C79.269,12.043,79.661,12.07,80.048,12.129z M77.625,11.135c0.521-0.053,1.236-0.077,2.145-0.077c0,0.089,0,0.186,0,0.287
			c0.008,0.025,0.008,0.052,0,0.077c-0.024,0.018-0.055,0.027-0.085,0.024c-0.493-0.028-0.893-0.04-1.184-0.04s-0.626,0-0.856,0
			L77.625,11.135z M79.786,10.412h-2.169v-0.206c0.378-0.046,0.758-0.07,1.139-0.073c0.328-0.007,0.656,0.008,0.982,0.044h0.057
			c-0.02,0.061-0.024,0.145-0.024,0.234H79.786z"/>
		<path class="st0" d="M80.602,12.387c-0.106,0.024-0.214,0.037-0.323,0.04c-0.194-0.026-0.39-0.039-0.586-0.04h-0.699
			c-0.135,0.001-0.27-0.006-0.404-0.02c-0.104-0.006-0.207-0.006-0.311,0c-0.199-0.024-0.38,0.119-0.404,0.318
			c-0.003,0.029-0.003,0.057,0,0.086v0.028c0.054,0.22,0.084,0.444,0.089,0.671c-0.004,0.257-0.034,0.513-0.089,0.763v0.012
			c-0.021,0.202,0.125,0.383,0.327,0.404c0.026,0.003,0.051,0.003,0.077,0h0.032c0.111-0.034,0.225-0.061,0.339-0.081
			c0.258-0.027,0.517-0.036,0.776-0.028c0.379,0.003,0.758,0.027,1.135,0.073c0.204,0.019,0.385-0.132,0.404-0.336
			c0.002-0.023,0.002-0.045,0-0.068c-0.022-0.147-0.036-0.296-0.04-0.444c0-0.194,0.011-0.389,0.032-0.582
			c0.004-0.084,0.02-0.167,0.048-0.246c0.02-0.034,0.032-0.073,0.032-0.113c0.045-0.196-0.076-0.391-0.272-0.436
			C80.712,12.375,80.656,12.375,80.602,12.387z M80.149,13.11v0.731c0.002,0.009,0.002,0.019,0,0.028
			c-0.013,0.004-0.027,0.004-0.04,0c-0.259-0.024-0.493-0.04-0.699-0.04c-0.196-0.001-0.392,0.013-0.586,0.04
			c-0.105,0-0.113-0.028-0.117-0.061c0.057-0.244,0.085-0.493,0.085-0.743c0.024-0.007,0.049-0.007,0.073,0
			C79.41,13.074,79.834,13.086,80.149,13.11z"/>
		<path class="st0" d="M82.472,10.893l-0.073-1.212c0-0.21,0-0.456,0.032-0.735c0-0.44-0.275-0.489-0.404-0.489
			c-0.283,0-0.444,0.178-0.444,0.497c0.026,0.241,0.04,0.484,0.04,0.727v1.212c0,0.493,0.137,0.743,0.404,0.743
			C82.222,11.64,82.472,11.511,82.472,10.893z"/>
		<path class="st0" d="M95.426,12.052c-0.155,0.025-0.312,0.037-0.469,0.036c-0.553,0-1.151-0.024-1.773-0.069
			c-0.622-0.044-1.26-0.081-1.814-0.093l-0.012-1.317c0.384,0,0.747,0,1.074,0.028c0.267,0.047,0.537,0.078,0.808,0.093
			c0.171,0.005,0.336-0.061,0.456-0.182c0.107-0.12,0.165-0.276,0.162-0.436c0-0.065-0.044-0.214-0.291-0.23h-2.21
			c0-0.287,0.02-0.594,0.04-0.917c0-0.024,0-0.048,0-0.077c0.477,0,0.925,0,1.321,0.032s0.731,0.093,0.844,0.093
			c0.179,0.005,0.352-0.065,0.477-0.194c0.083-0.118,0.13-0.259,0.133-0.404c-0.006-0.134-0.119-0.237-0.253-0.232
			c-0.006,0-0.012,0.001-0.018,0.001h-4.383c0.053-0.081,0.101-0.158,0.149-0.242c0.055-0.113,0.08-0.238,0.073-0.364
			c0.006-0.172-0.128-0.316-0.3-0.322c-0.019-0.001-0.037,0-0.056,0.003c-0.09,0.009-0.175,0.046-0.242,0.105l-0.028,0.032
			c-0.225,0.378-0.517,0.711-0.86,0.986c-0.256,0.229-0.557,0.401-0.885,0.505c-0.279,0.028-0.311,0.21-0.311,0.291
			c0.016,0.189,0.115,0.361,0.271,0.469c0.148,0.132,0.336,0.21,0.533,0.222c0.218-0.029,0.415-0.146,0.545-0.323
			c0.162-0.162,0.315-0.335,0.46-0.513h0.109c0.147-0.01,0.293-0.035,0.436-0.073c0.254-0.036,0.614-0.061,1.078-0.077
			c-0.002,0.027-0.002,0.054,0,0.081c0,0.315,0.02,0.618,0.028,0.909h-1.458c-0.073-0.006-0.146-0.006-0.218,0
			c-0.09-0.067-0.204-0.093-0.315-0.073c-0.223-0.016-0.416,0.152-0.431,0.375c-0.001,0.01-0.001,0.02-0.001,0.029
			c0.064,0.37,0.1,0.744,0.109,1.119c0.001,0.259-0.013,0.518-0.04,0.776c-0.404,0.036-0.897,0.085-1.402,0.141
			c-0.16,0.017-0.31,0.085-0.428,0.194c-0.128,0.096-0.206,0.244-0.214,0.404c-0.016,0.249,0.174,0.464,0.423,0.48
			c0.007,0,0.014,0.001,0.021,0.001c0.166-0.007,0.329-0.04,0.485-0.097c0.597-0.185,1.206-0.33,1.822-0.436
			c0.481-0.065,1.034-0.109,1.648-0.129c0,0.428,0,0.897-0.02,1.402c-0.02,0.505,0.137,0.763,0.404,0.763
			c0.267,0,0.489-0.133,0.489-0.763l-0.02-1.402c0.405,0.004,0.81,0.033,1.212,0.089c0.627,0.072,1.246,0.207,1.846,0.404
			c0.173,0.079,0.36,0.121,0.549,0.125c0.166,0,0.311-0.125,0.44-0.38c0.112-0.194,0.173-0.414,0.178-0.638
			C95.616,12.072,95.503,12.052,95.426,12.052z M89.008,10.747c0.075,0,0.168-0.02,0.279-0.061c0.419-0.054,0.842-0.079,1.264-0.077
			v0.036c0,0.359,0,0.808,0,1.284c-0.404,0-0.921,0.04-1.527,0.089c0-0.077,0-0.162,0-0.259
			C89.016,11.345,89.016,11.014,89.008,10.747z"/>
		<path class="st0" d="M99.053,8.93c0.161-0.011,0.32-0.035,0.477-0.073c0.658-0.067,1.318-0.094,1.979-0.081
			c0.582,0,1.131,0,1.616,0c0.485,0,0.808,0.048,0.921,0.048c0.17,0.003,0.335-0.063,0.456-0.182
			c0.104-0.121,0.157-0.277,0.149-0.436c0-0.053-0.036-0.218-0.291-0.218h-5.094c-0.165-0.007-0.328,0.031-0.473,0.109
			c-0.118,0.087-0.199,0.215-0.226,0.359v0.028C98.58,8.742,98.796,8.941,99.053,8.93C99.053,8.93,99.053,8.93,99.053,8.93z"/>
		<path class="st0" d="M106.122,12.88L106.122,12.88c-0.224,0.026-0.449,0.039-0.675,0.04c-0.54-0.009-1.08-0.047-1.616-0.113
			c-0.751-0.108-1.508-0.17-2.266-0.186c-1.38,0.076-2.752,0.259-4.104,0.545c-0.15,0.018-0.291,0.082-0.404,0.182
			c-0.134,0.106-0.215,0.265-0.222,0.436c0,0.149,0.101,0.404,0.525,0.424c0.14-0.012,0.277-0.051,0.404-0.113
			c0.499-0.199,1.016-0.351,1.543-0.452c0.756-0.137,1.522-0.205,2.29-0.202c0.638-0.008,1.275,0.036,1.907,0.129
			c0.622,0.087,1.233,0.247,1.818,0.477c0.129,0.048,0.266,0.074,0.404,0.077c0.166,0,0.319-0.105,0.469-0.335
			c0.121-0.218,0.186-0.462,0.19-0.711c0.006-0.109-0.078-0.203-0.187-0.209C106.172,12.868,106.147,12.872,106.122,12.88z"/>
		<path class="st0" d="M99.72,10.259c-0.166-0.007-0.331,0.03-0.477,0.109c-0.111,0.091-0.19,0.216-0.222,0.355v0.036
			c0.019,0.25,0.234,0.44,0.485,0.428c0.139-0.011,0.276-0.045,0.404-0.101c0.534-0.082,1.075-0.116,1.616-0.101
			c0.477,0,0.913,0,1.297,0.028c0.251,0.042,0.505,0.07,0.759,0.085c0.172,0.001,0.338-0.065,0.46-0.186
			c0.101-0.123,0.154-0.278,0.149-0.436c0-0.048-0.04-0.218-0.291-0.218H99.72z"/>
		<path class="st0" d="M117.238,8.51c0.02-0.06,0.033-0.123,0.04-0.186c0-0.473-0.303-0.545-0.485-0.545h-0.028
			c-0.151,0.054-0.309,0.085-0.469,0.093c-1.212-0.032-2.262-0.048-3.126-0.048h-3.874c-0.184,0.006-0.368-0.008-0.549-0.04
			c-0.132-0.035-0.268-0.052-0.404-0.053c-0.242-0.027-0.459,0.147-0.487,0.389c-0.004,0.037-0.004,0.075,0.002,0.112
			c0.073,1.07,0.109,2.02,0.109,2.763s-0.036,1.575-0.109,2.545c-0.046,0.218,0.094,0.432,0.313,0.478
			c0.05,0.01,0.102,0.011,0.152,0.003l0,0c0.414-0.059,0.83-0.095,1.248-0.109c0.404-0.032,1.398-0.048,2.912-0.048
			c1.232,0,2.65,0.036,4.217,0.109c0.162,0,0.436-0.069,0.436-0.537c-0.04-0.848-0.061-1.535-0.061-2.02
			c0-0.683,0-1.341,0.061-1.955C117.14,9.14,117.174,8.822,117.238,8.51z M108.841,12.896c0.057-1.272,0.085-2.646,0.085-4.076
			c0-0.125,0.048-0.17,0.174-0.17h2.282c-0.128,0.526-0.342,1.027-0.634,1.482c-0.234,0.357-0.588,0.617-0.998,0.735
			c-0.315,0.04-0.473,0.149-0.473,0.323c0.012,0.235,0.125,0.453,0.311,0.598c0.291,0.271,0.614,0.299,1.062-0.137
			c0.384-0.373,0.706-0.805,0.953-1.28c0.243-0.529,0.44-1.078,0.59-1.64l0,0l0,0V8.675h0.743c0.055,0.419,0.085,0.841,0.089,1.264
			c-0.008,0.411-0.074,0.819-0.198,1.212v0.024c-0.025,0.222,0.135,0.422,0.356,0.446c0.022,0.003,0.045,0.003,0.068,0.002
			c0.116-0.003,0.232-0.021,0.343-0.053c0.231-0.039,0.465-0.056,0.699-0.048c0.346,0.024,0.689,0.086,1.022,0.186h0.02
			c0.225,0,0.441-0.093,0.594-0.259c0.123-0.1,0.219-0.229,0.279-0.376c0,0.561,0,1.212,0,1.898c0,0.069,0,0.101-0.109,0.101
			c-1.321-0.024-2.541-0.04-3.635-0.04c-1.301,0-2.456,0-3.437,0.04C108.897,13.09,108.841,13.034,108.841,12.896z M115.998,10.61
			L115.998,10.61c-0.361,0.09-0.731,0.139-1.103,0.145l-0.961-0.048c-0.057,0-0.174,0-0.174-0.246
			c0.099-0.578,0.149-1.163,0.149-1.749V8.675c0.864,0,1.616,0,2.258,0.036c0.097,0,0.097,0.032,0.097,0.057
			c0,0.493-0.024,1.167-0.028,2.02C116.214,10.676,116.112,10.599,115.998,10.61z"/>
		<path class="st0" d="M120.135,8.263h0.036c0.182,0.048,0.614,0.182,1.293,0.404c0.085,0.031,0.173,0.05,0.263,0.057
			c0.15,0.02,0.289-0.085,0.309-0.236c0.002-0.016,0.003-0.031,0.002-0.047c-0.006-0.096-0.057-0.183-0.137-0.234
			c-0.489-0.295-0.913-0.57-1.28-0.808c-0.091-0.051-0.191-0.082-0.295-0.093c-0.448,0-0.517,0.259-0.517,0.404
			C119.814,7.938,119.937,8.147,120.135,8.263z"/>
		<path class="st0" d="M121.884,10.335c0-0.057-0.02-0.238-0.291-0.238l-2.056,0.234c-0.182,0.032-0.404,0.153-0.404,0.566
			c-0.014,0.241,0.17,0.447,0.41,0.461c0.03,0.002,0.061,0,0.09-0.004h0.02l1.999-0.666
			C121.742,10.667,121.884,10.61,121.884,10.335z"/>
		<path class="st0" d="M127.842,9.98c-0.308-0.527-0.647-1.035-1.014-1.523c-0.055-0.072-0.139-0.116-0.23-0.121
			c-0.404,0-0.448,0.275-0.448,0.404c0.004,0.065,0.028,0.127,0.069,0.178c0.238,0.295,0.456,0.606,0.654,0.929l0,0
			c-0.028,0.007-0.057,0.007-0.085,0h-3.005c0.19-0.234,0.355-0.452,0.489-0.654c0.198-0.283,0.46-0.687,0.776-1.212
			c0.036-0.061,0.056-0.131,0.057-0.202c0-0.339-0.174-0.525-0.485-0.525c-0.195-0.004-0.365,0.132-0.404,0.323
			c-0.186,0.403-0.402,0.792-0.646,1.163c-0.169,0.254-0.356,0.497-0.557,0.727c-0.118,0.141-0.244,0.276-0.376,0.404
			c-0.111,0.107-0.178,0.251-0.19,0.404c0,0.145,0.065,0.404,0.533,0.404l0,0c0.319-0.024,0.586-0.04,0.808-0.04h3.732
			c0.199,0.024,0.38-0.119,0.404-0.318c0.003-0.029,0.003-0.057,0-0.086C127.925,10.143,127.897,10.053,127.842,9.98z"/>
		<path class="st0" d="M127.005,11.232h-0.04c-0.103,0.044-0.212,0.07-0.323,0.077c-0.432-0.028-0.808-0.04-1.111-0.04h-1.361
			c-0.136,0.004-0.272-0.009-0.404-0.04c-0.105-0.021-0.212-0.031-0.319-0.032c-0.204-0.019-0.385,0.132-0.404,0.336
			c-0.002,0.023-0.002,0.045,0,0.068c0.044,0.38,0.069,0.761,0.073,1.143c-0.004,0.394-0.028,0.788-0.073,1.179
			c-0.019,0.204,0.132,0.385,0.336,0.404c0.023,0.002,0.045,0.002,0.068,0h0.024c0.187-0.042,0.378-0.069,0.57-0.081
			c0.428-0.044,0.858-0.06,1.289-0.048c0.541,0.005,1.081,0.05,1.616,0.133c0.117,0,0.404-0.048,0.404-0.493
			c0-0.319-0.032-0.574-0.032-0.763c0-0.307,0-0.602,0.032-0.881c0.001-0.137,0.02-0.272,0.057-0.404
			c0.014-0.035,0.022-0.072,0.024-0.109C127.397,11.276,127.123,11.232,127.005,11.232z M126.521,12.04v1.43
			c0.002,0.009,0.002,0.019,0,0.028c0,0,0,0-0.036,0c-0.424-0.028-0.808-0.04-1.155-0.04c-0.501,0-0.945,0-1.309,0.04
			c-0.137,0-0.137-0.04-0.137-0.061c0.063-0.452,0.094-0.909,0.093-1.365c0-0.089,0.024-0.097,0.085-0.097
			c1.062,0,1.886,0,2.46,0.048L126.521,12.04z"/>
		<path class="st0" d="M121.92,12.508h-0.032h-0.028c-1.131,0.683-1.422,0.893-1.495,0.994c-0.143,0.12-0.217,0.303-0.198,0.489
			c0,0.141,0.069,0.376,0.525,0.376c0.089,0,0.234,0,1.406-1.28c0.071-0.093,0.111-0.206,0.113-0.323
			c-0.004-0.145-0.124-0.26-0.269-0.256C121.934,12.507,121.927,12.508,121.92,12.508z"/>
		<path class="st0" d="M132.458,11.757L132.458,11.757c-0.028-0.557-0.04-1.002-0.04-1.325c0-0.452,0-0.893,0.028-1.305
			c0-0.209,0.027-0.416,0.081-0.618c0.011-0.048,0.019-0.096,0.024-0.145c0.016-0.223-0.152-0.416-0.375-0.431
			c-0.01-0.001-0.02-0.001-0.029-0.001h-0.04c-0.104,0.043-0.215,0.069-0.327,0.077c-0.225-0.025-0.452-0.039-0.679-0.04h-0.836
			c-0.136,0.004-0.271-0.008-0.404-0.036c-0.106-0.032-0.216-0.048-0.327-0.048c-0.204-0.019-0.385,0.132-0.404,0.336
			c-0.002,0.023-0.002,0.045,0,0.068c0.061,0.711,0.093,1.321,0.093,1.814c0,0.493-0.032,1.05-0.093,1.697
			c-0.016,0.207,0.138,0.388,0.345,0.404c0.02,0.002,0.039,0.002,0.059,0h0.028c0.12-0.029,0.241-0.049,0.364-0.061
			c0.121,0,0.404-0.02,0.877-0.02c0.424,0.004,0.848,0.032,1.268,0.085C132.184,12.226,132.458,12.169,132.458,11.757z
			 M130.035,10.432c0.404-0.04,0.953-0.061,1.616-0.061v1.07h-0.028c-0.303-0.028-0.586-0.04-0.832-0.04
			c-0.235-0.003-0.47,0.011-0.703,0.04c-0.121,0-0.121-0.032-0.121-0.048c0.024-0.307,0.04-0.63,0.053-0.961H130.035z
			 M130.055,9.685c0-0.315,0-0.638,0-0.957c0-0.065,0-0.077,0.077-0.077c0.654,0,1.159,0,1.519,0.04v0.994H130.055z"/>
		<path class="st0" d="M137.378,7.673c0-0.137-0.069-0.372-0.525-0.372h-0.028c-0.15,0.041-0.305,0.067-0.46,0.077l-2.149-0.024
			c-0.09-0.065-0.2-0.098-0.311-0.093c-0.209-0.015-0.391,0.143-0.406,0.352c-0.002,0.024-0.001,0.048,0.002,0.072
			c0.061,0.735,0.093,1.458,0.093,2.149c0,1.313-0.097,2.201-0.287,2.634c-0.254,0.582-0.59,0.905-1.01,0.953
			c-0.155,0.019-0.268,0.155-0.259,0.311c0.008,0.149,0.065,0.291,0.162,0.404c0.146,0.186,0.363,0.302,0.598,0.323
			c0.376,0,0.727-0.343,1.078-1.042c0.214-0.449,0.35-0.931,0.404-1.426c0.517-0.053,1.24-0.077,2.145-0.081v1.931
			c-0.005,0.189,0.013,0.377,0.053,0.561v0.024c0.055,0.139,0.19,0.231,0.339,0.23c0.311,0,0.485-0.19,0.485-0.533
			c-0.089-1.511-0.133-2.69-0.133-3.506c-0.013-0.982,0.058-1.963,0.214-2.933L137.378,7.673z M136.437,10.004
			c0,0.384,0,0.808-0.02,1.212h-2.084c0.024-0.347,0.036-0.735,0.04-1.151C134.874,10.028,135.565,10.004,136.437,10.004z
			 M136.437,9.317h-2.076c0-0.343,0-0.751,0-1.212c0.586,0,1.232-0.028,1.931-0.028c0.052-0.005,0.105-0.005,0.158,0
			c0.016,0.376,0.008,0.788,0,1.24H136.437z"/>
	</g>
</g>
</svg>
