<?xml version="1.0" encoding="utf-8"?>
<!-- Generator: Adobe Illustrator 26.3.1, SVG Export Plug-In . SVG Version: 6.00 Build 0)  -->
<svg version="1.1" id="レイヤー_1" xmlns="http://www.w3.org/2000/svg" xmlns:xlink="http://www.w3.org/1999/xlink" x="0px"
	 y="0px" width="169.116px" height="18.577px" viewBox="0 0 169.116 18.577" style="enable-background:new 0 0 169.116 18.577;"
	 xml:space="preserve">
<style type="text/css">
	.st0{fill:none;stroke:#231815;stroke-width:0.0872;}
	.st1{fill:#FFFFFF;}
	.st2{clip-path:url(#SVGID_00000039840730175810422920000006083493850085843381_);fill:#FFFFFF;}
</style>
<path class="st0" d="M18.534,9.29c0,5.106-4.139,9.244-9.245,9.244c-5.105,0-9.246-4.138-9.246-9.244
	c0-5.106,4.14-9.246,9.246-9.246C14.396,0.044,18.534,4.183,18.534,9.29z"/>
<path class="st1" d="M15.081,9.63H3.496c-0.253,0-0.461,0.018-0.461,0.042c0,0,0,0,0,0.021c0,2.56,1.543,4.76,3.748,5.726
	l-0.293,0.709c0.864,0.356,1.808,0.551,2.8,0.551c1.003,0,1.959-0.199,2.83-0.562l-0.293-0.712c2.189-0.974,3.718-3.163,3.718-5.712
	c0-0.021,0-0.021,0-0.021C15.544,9.648,15.335,9.63,15.081,9.63z M5.054,10.992H4.209V10.57H3.575v0.316h0.424v-0.104H3.68v-0.107
	h0.423v0.316H3.47v-0.527h0.844v0.422h0.635V10.57H4.525v0.105h0.318v0.107H4.421v-0.318h0.634V10.992z M6.858,10.992H6.014V10.57
	H5.379v0.316h0.422v-0.104H5.484v-0.107h0.422v0.316H5.275v-0.527H6.12v0.422h0.632V10.57H6.328v0.105h0.32v0.107H6.225v-0.318
	h0.633V10.992z M8.66,10.992H7.817V10.57H7.184v0.316h0.423v-0.104H7.29v-0.107h0.421v0.316H7.078v-0.527h0.845v0.422h0.634V10.57
	H8.135v0.105h0.316v0.107H8.027v-0.318H8.66V10.992z M11.508,10.992h-0.845V10.57h-0.634v0.316h0.423v-0.104h-0.316v-0.107h0.419
	v0.316H9.923v-0.527h0.845v0.422h0.635V10.57H10.98v0.105h0.319v0.107h-0.425v-0.318h0.635V10.992z M13.312,10.992h-0.844V10.57
	h-0.634v0.316h0.422v-0.104h-0.317v-0.107h0.422v0.316h-0.634v-0.527h0.845v0.422h0.634V10.57h-0.424v0.105H13.1v0.107h-0.422
	v-0.318h0.633V10.992z M15.116,10.992h-0.845V10.57h-0.633v0.316h0.423v-0.104h-0.318v-0.107h0.424v0.316h-0.634v-0.527h0.844v0.422
	h0.634V10.57h-0.422v0.105h0.316v0.107h-0.421v-0.318h0.633V10.992z"/>
<path class="st1" d="M9.725,0.065c0.373,1.08,0.493,2.108,0.474,3.104c-0.017,0.997-0.173,1.961-0.351,2.912
	C9.671,7.032,9.47,7.97,9.363,8.913c-0.107,0.943-0.122,1.894,0.074,2.868c-0.191-0.415-0.353-0.888-0.475-1.404
	C8.839,9.859,8.758,9.294,8.733,8.698C8.706,8.102,8.732,7.47,8.824,6.818c0.093-0.652,0.25-1.327,0.488-2.01
	c0.13-0.373,0.239-0.767,0.327-1.169c0.088-0.403,0.151-0.815,0.19-1.225c0.04-0.41,0.052-0.819,0.035-1.216
	C9.85,0.805,9.804,0.422,9.725,0.065z"/>
<path class="st1" d="M12.112,3.565c-0.105,0.786-0.346,1.37-0.644,1.885c-0.297,0.514-0.65,0.96-0.979,1.468
	c-0.331,0.507-0.644,1.08-0.847,1.844C9.44,9.53,9.35,10.49,9.436,11.78c0.055-0.936,0.252-1.667,0.522-2.304
	c0.268-0.636,0.605-1.173,0.935-1.718c0.327-0.546,0.646-1.098,0.874-1.762C11.998,5.333,12.137,4.557,12.112,3.565z"/>
<g>
	<defs>
		<path id="SVGID_1_" d="M9.289,1.975c4.06,0,7.353,3.293,7.353,7.352c0,4.062-3.292,7.352-7.353,7.352
			c-4.06,0-7.352-3.29-7.352-7.352C1.937,5.268,5.229,1.975,9.289,1.975z M9.297,0.061c-5.097,0-9.229,4.132-9.229,9.229
			c0,5.097,4.132,9.228,9.229,9.228c5.095,0,9.227-4.065,9.227-9.228C18.524,4.193,14.383,0.061,9.297,0.061z"/>
	</defs>
	<clipPath id="SVGID_00000101067829197332871280000003187908916502909833_">
		<use xlink:href="#SVGID_1_"  style="overflow:visible;"/>
	</clipPath>
	<path style="clip-path:url(#SVGID_00000101067829197332871280000003187908916502909833_);fill:#FFFFFF;" d="M9.703,1.854
		l0.001,0.108L8.872,1.966V1.861h0.051c0.048-0.002,0.085-0.012,0.114-0.03c0.019-0.013,0.035-0.033,0.046-0.066
		c0.007-0.02,0.013-0.077,0.013-0.167L9.087,0.399c0-0.093-0.006-0.151-0.015-0.174C9.064,0.203,9.046,0.181,9.018,0.164
		C8.993,0.148,8.957,0.138,8.913,0.138H8.859V0.075l0.833-0.004v0.062L9.639,0.134c-0.047,0-0.084,0.009-0.111,0.028
		C9.506,0.175,9.491,0.198,9.48,0.228c-0.009,0.02-0.013,0.078-0.013,0.169l0.009,1.198c0,0.093,0.006,0.15,0.016,0.174
		C9.5,1.794,9.518,1.813,9.544,1.831c0.025,0.017,0.06,0.023,0.106,0.023H9.703z"/>
	<path style="clip-path:url(#SVGID_00000101067829197332871280000003187908916502909833_);fill:#FFFFFF;" d="M5.216,1.021
		l0.299,0.52l-0.04,0.022c-0.093-0.121-0.199-0.2-0.319-0.238C5.035,1.288,4.93,1.293,4.841,1.341
		c-0.07,0.038-0.112,0.09-0.13,0.154c-0.017,0.065-0.01,0.125,0.019,0.18C4.75,1.71,4.773,1.738,4.803,1.757
		C4.843,1.782,4.895,1.8,4.957,1.813C5.003,1.822,5.1,1.826,5.251,1.829c0.211,0.002,0.366,0.025,0.466,0.076
		c0.1,0.052,0.177,0.128,0.233,0.231c0.071,0.133,0.09,0.27,0.052,0.417C5.965,2.697,5.876,2.807,5.74,2.884
		C5.696,2.908,5.653,2.925,5.609,2.935C5.564,2.947,5.506,2.955,5.432,2.96c-0.039,0.002-0.07,0.01-0.092,0.02
		C5.322,2.989,5.307,3.008,5.297,3.035C5.286,3.061,5.282,3.093,5.288,3.132L5.25,3.152L4.926,2.556l0.034-0.021
		c0.124,0.152,0.25,0.249,0.383,0.289C5.477,2.865,5.592,2.859,5.69,2.805c0.075-0.043,0.124-0.099,0.142-0.172
		c0.02-0.072,0.011-0.141-0.023-0.203C5.79,2.393,5.76,2.363,5.723,2.336C5.688,2.312,5.644,2.293,5.592,2.281
		C5.539,2.268,5.455,2.262,5.338,2.259C5.174,2.258,5.052,2.249,4.97,2.229C4.888,2.208,4.816,2.176,4.753,2.131
		C4.69,2.086,4.638,2.028,4.599,1.955C4.53,1.829,4.511,1.699,4.544,1.565c0.032-0.132,0.109-0.233,0.231-0.301
		c0.044-0.023,0.091-0.042,0.141-0.053C4.952,1.203,5,1.198,5.059,1.198c0.06,0,0.099-0.004,0.117-0.014
		c0.017-0.011,0.027-0.023,0.031-0.042c0.004-0.018-0.004-0.053-0.021-0.105L5.216,1.021z"/>
	<path style="clip-path:url(#SVGID_00000101067829197332871280000003187908916502909833_);fill:#FFFFFF;" d="M6.99,1.382
		l0.134,0.545C7.148,2.016,7.165,2.07,7.179,2.09c0.015,0.02,0.036,0.035,0.065,0.046C7.273,2.148,7.31,2.148,7.353,2.135
		l0.052-0.012l0.011,0.104L6.617,2.429L6.604,2.325l0.052-0.013C6.7,2.3,6.733,2.284,6.755,2.257
		c0.016-0.017,0.027-0.041,0.03-0.074C6.788,2.161,6.78,2.106,6.756,2.017L6.468,0.866C6.444,0.777,6.427,0.721,6.414,0.702
		C6.4,0.682,6.378,0.667,6.349,0.654C6.318,0.646,6.282,0.646,6.24,0.656L6.189,0.669L6.178,0.594L6.97,0.367l0.02,0.102
		L6.938,0.481C6.894,0.49,6.86,0.509,6.838,0.534C6.821,0.552,6.81,0.576,6.808,0.608C6.803,0.631,6.814,0.687,6.835,0.774
		l0.125,0.497L7.5,1.133L7.375,0.637C7.353,0.548,7.334,0.493,7.321,0.474C7.308,0.453,7.286,0.438,7.256,0.428
		c-0.031-0.012-0.067-0.012-0.108,0L7.098,0.44L7.076,0.337l0.808-0.184L7.895,0.24L7.845,0.251c-0.044,0.012-0.077,0.031-0.1,0.056
		C7.73,0.323,7.719,0.348,7.715,0.38C7.711,0.403,7.72,0.459,7.743,0.545l0.289,1.15c0.023,0.092,0.04,0.145,0.054,0.166
		C8.1,1.881,8.123,1.898,8.153,1.908c0.027,0.012,0.064,0.012,0.107,0l0.05-0.013l0.04,0.133L7.553,2.229L7.511,2.096l0.051-0.013
		c0.045-0.011,0.079-0.03,0.1-0.054C7.68,2.012,7.689,1.989,7.693,1.957c0.002-0.024-0.006-0.079-0.03-0.166L7.528,1.247L6.99,1.382
		z"/>
	<path style="clip-path:url(#SVGID_00000101067829197332871280000003187908916502909833_);fill:#FFFFFF;" d="M11.285,0.284
		l0.533,1.327l0.175-0.762c0.023-0.104,0.027-0.179,0.01-0.222c-0.027-0.06-0.081-0.098-0.168-0.115l0.019-0.076l0.504,0.146
		l-0.012,0.048c-0.066-0.006-0.113-0.003-0.139,0.007c-0.027,0.01-0.051,0.031-0.071,0.062c-0.018,0.031-0.039,0.089-0.058,0.171
		l-0.335,1.472l-0.039-0.009l-0.71-1.71l-0.255,1.123c-0.024,0.103-0.018,0.176,0.015,0.219c0.032,0.048,0.075,0.074,0.125,0.086
		l0.039,0.01l-0.012,0.104l-0.548-0.126l0.013-0.105c0.085,0.018,0.148,0.014,0.189-0.019c0.043-0.032,0.075-0.094,0.098-0.189
		l0.284-1.246l-0.023-0.055c-0.021-0.056-0.044-0.092-0.066-0.113c-0.022-0.021-0.055-0.036-0.103-0.05l-0.006-0.085L11.285,0.284z"
		/>
	<path style="clip-path:url(#SVGID_00000101067829197332871280000003187908916502909833_);fill:#FFFFFF;" d="M14.408,1.618
		l-0.024,0.045c-0.049-0.019-0.094-0.021-0.132-0.011c-0.052,0.015-0.156,0.076-0.311,0.185L13.32,2.259l-0.212,0.393
		c-0.044,0.083-0.068,0.138-0.073,0.162c-0.002,0.023,0.004,0.051,0.018,0.079c0.014,0.027,0.041,0.052,0.078,0.071l0.081,0.043
		L13.158,3.11l-0.796-0.427l0.054-0.101l0.072,0.038c0.043,0.022,0.081,0.032,0.114,0.029c0.025-0.002,0.048-0.014,0.073-0.036
		c0.02-0.015,0.049-0.062,0.092-0.144l0.175-0.325l0.037-0.874c0.008-0.174,0.004-0.279-0.01-0.318
		c-0.015-0.038-0.043-0.071-0.088-0.098l0.057-0.076l0.681,0.365L13.56,1.22L13.53,1.205c-0.041-0.022-0.074-0.032-0.098-0.026
		c-0.023,0.004-0.04,0.016-0.047,0.03c-0.015,0.028-0.026,0.116-0.032,0.261l-0.031,0.676l0.517-0.352
		c0.128-0.086,0.202-0.15,0.222-0.19c0.011-0.019,0.011-0.043,0.002-0.068c-0.014-0.031-0.051-0.067-0.112-0.105l0.034-0.063
		L14.408,1.618z"/>
	<path style="clip-path:url(#SVGID_00000101067829197332871280000003187908916502909833_);fill:#FFFFFF;" d="M15.513,2.498
		c0.197,0.164,0.294,0.366,0.291,0.609c-0.002,0.243-0.096,0.466-0.279,0.668c-0.155,0.174-0.337,0.285-0.546,0.338
		c-0.274,0.067-0.519,0.005-0.732-0.188c-0.216-0.193-0.305-0.429-0.272-0.702c0.025-0.215,0.12-0.413,0.283-0.595
		c0.182-0.202,0.396-0.315,0.638-0.342C15.139,2.258,15.343,2.33,15.513,2.498z M15.465,2.571c-0.11-0.099-0.249-0.109-0.42-0.034
		c-0.143,0.062-0.301,0.192-0.478,0.389c-0.21,0.233-0.33,0.438-0.36,0.614c-0.019,0.122,0.014,0.226,0.105,0.306
		c0.059,0.056,0.126,0.084,0.196,0.086c0.09,0.005,0.192-0.027,0.307-0.096c0.114-0.066,0.239-0.178,0.375-0.329
		c0.164-0.182,0.271-0.33,0.322-0.445c0.052-0.117,0.073-0.215,0.059-0.292C15.559,2.69,15.525,2.626,15.465,2.571z"/>
	<path style="clip-path:url(#SVGID_00000101067829197332871280000003187908916502909833_);fill:#FFFFFF;" d="M16.484,4.836
		l-0.364,0.892c-0.052,0.126-0.078,0.224-0.081,0.293c-0.003,0.048,0.009,0.095,0.034,0.131l-0.111,0.086L15.52,5.551l0.111-0.085
		c0.033,0.04,0.059,0.062,0.077,0.069c0.021,0.006,0.038,0.002,0.054-0.009c0.032-0.02,0.071-0.087,0.12-0.202l0.239-0.583
		l-0.078-0.02L15.63,4.99c-0.079,0.05-0.124,0.084-0.14,0.105c-0.014,0.022-0.023,0.047-0.021,0.077
		c0.002,0.03,0.016,0.07,0.048,0.12l-0.097,0.041l-0.429-0.664l0.098-0.043l0.028,0.043c0.024,0.039,0.052,0.065,0.082,0.078
		c0.021,0.01,0.048,0.012,0.078,0.004c0.024-0.004,0.072-0.029,0.147-0.078l0.991-0.642c0.077-0.048,0.123-0.083,0.138-0.103
		c0.016-0.02,0.022-0.044,0.023-0.076c0-0.03-0.012-0.066-0.035-0.101l-0.028-0.043l0.096-0.072l0.424,0.657l-0.097,0.07
		c-0.028-0.045-0.059-0.073-0.088-0.088c-0.021-0.011-0.047-0.012-0.078-0.007C16.747,4.273,16.697,4.3,16.62,4.35l-0.469,0.301
		l0.767,0.198c0.107,0.027,0.179,0.029,0.217,0.004c0.027-0.018,0.041-0.045,0.04-0.085c0-0.02-0.019-0.058-0.053-0.116l0.083-0.07
		l0.331,0.516l-0.083,0.07c-0.034-0.045-0.066-0.074-0.098-0.091c-0.032-0.015-0.122-0.043-0.27-0.082L16.484,4.836z"/>
	<path style="clip-path:url(#SVGID_00000101067829197332871280000003187908916502909833_);fill:#FFFFFF;" d="M18.13,6.632
		c0.083,0.243,0.061,0.468-0.07,0.672c-0.127,0.206-0.322,0.349-0.583,0.426c-0.225,0.065-0.439,0.067-0.642,0.003
		c-0.27-0.084-0.446-0.266-0.529-0.543c-0.081-0.279-0.037-0.526,0.133-0.741c0.134-0.17,0.317-0.291,0.552-0.359
		c0.261-0.078,0.502-0.063,0.724,0.039C17.934,6.233,18.073,6.401,18.13,6.632z M18.05,6.67c-0.041-0.142-0.156-0.225-0.342-0.25
		c-0.154-0.018-0.358,0.009-0.609,0.083c-0.303,0.09-0.511,0.204-0.627,0.338c-0.08,0.095-0.106,0.201-0.071,0.315
		c0.024,0.079,0.065,0.138,0.122,0.178c0.076,0.05,0.181,0.076,0.314,0.076c0.132,0.003,0.296-0.028,0.492-0.086
		c0.234-0.068,0.401-0.14,0.507-0.211c0.104-0.071,0.172-0.146,0.203-0.219C18.071,6.823,18.074,6.748,18.05,6.67z"/>
	<path style="clip-path:url(#SVGID_00000101067829197332871280000003187908916502909833_);fill:#FFFFFF;" d="M17.534,8.752
		l-0.549,0.012c-0.089,0.002-0.145,0.008-0.167,0.018c-0.022,0.007-0.043,0.025-0.06,0.052c-0.015,0.027-0.024,0.063-0.023,0.108
		v0.052h-0.088L16.63,8.167l0.09-0.001l0.001,0.052c0,0.046,0.01,0.084,0.029,0.111c0.011,0.019,0.034,0.034,0.063,0.044
		c0.021,0.011,0.076,0.013,0.166,0.011l1.162-0.025c0.091,0,0.147-0.005,0.17-0.014c0.022-0.01,0.043-0.028,0.058-0.055
		c0.016-0.026,0.024-0.062,0.022-0.105V8.129h0.089l0.015,0.829L18.408,8.96V8.906c-0.001-0.044-0.012-0.082-0.031-0.108
		c-0.012-0.02-0.034-0.036-0.062-0.047c-0.021-0.009-0.076-0.011-0.165-0.01l-0.5,0.011l0.011,0.559l0.502-0.01
		c0.09-0.002,0.145-0.007,0.168-0.016c0.025-0.009,0.042-0.026,0.059-0.054c0.017-0.026,0.024-0.063,0.023-0.108L18.41,9.072
		L18.5,9.071l0.017,0.828l-0.089,0.002L18.426,9.85c0-0.048-0.011-0.084-0.03-0.11c-0.013-0.021-0.033-0.038-0.063-0.047
		c-0.021-0.009-0.076-0.012-0.165-0.011l-1.163,0.023c-0.09,0.002-0.147,0.009-0.169,0.019c-0.023,0.008-0.041,0.025-0.057,0.053
		c-0.018,0.026-0.024,0.062-0.024,0.108l0,0.051l-0.13-0.027l-0.018-0.828l0.131,0.026l0.003,0.051c0,0.048,0.01,0.085,0.029,0.111
		c0.012,0.021,0.032,0.036,0.063,0.047c0.021,0.008,0.076,0.011,0.165,0.008l0.547-0.01L17.534,8.752z"/>
	<path style="clip-path:url(#SVGID_00000101067829197332871280000003187908916502909833_);fill:#FFFFFF;" d="M16.941,11.282
		l0.139-0.564l-0.162-0.11c-0.054-0.036-0.1-0.06-0.138-0.068c-0.051-0.013-0.094-0.004-0.126,0.026
		c-0.021,0.018-0.043,0.067-0.07,0.149l-0.11-0.013l0.132-0.53l0.107,0.012c-0.005,0.059,0.012,0.113,0.046,0.162
		c0.036,0.047,0.117,0.114,0.242,0.202l1.316,0.927l-0.006,0.021l-1.634,0.211c-0.157,0.021-0.256,0.044-0.301,0.07
		c-0.034,0.019-0.06,0.054-0.076,0.101l-0.093-0.027l0.188-0.773l0.093,0.027l-0.009,0.031c-0.015,0.061-0.015,0.108-0.002,0.138
		c0.01,0.02,0.029,0.036,0.055,0.041c0.017,0.004,0.036,0.007,0.052,0.007c0.009,0,0.046-0.005,0.108-0.012L16.941,11.282z
		 M17.051,11.266l0.685-0.085l-0.567-0.398L17.051,11.266z"/>
	<path style="clip-path:url(#SVGID_00000101067829197332871280000003187908916502909833_);fill:#FFFFFF;" d="M16.187,13.267
		l0.893,1.062l-0.32,0.555l-0.128-0.125l0.027-0.044c0.023-0.039,0.033-0.078,0.032-0.11c-0.001-0.023-0.011-0.047-0.031-0.072
		c-0.014-0.018-0.059-0.048-0.137-0.092l-1.025-0.597c-0.077-0.045-0.128-0.071-0.152-0.076c-0.026-0.003-0.052,0-0.08,0.016
		c-0.029,0.014-0.054,0.039-0.076,0.078l-0.025,0.043l-0.085-0.066l0.412-0.71l0.085,0.067l-0.024,0.045
		c-0.025,0.04-0.034,0.077-0.033,0.109c0,0.024,0.011,0.048,0.033,0.072c0.012,0.019,0.059,0.049,0.137,0.097l1.15,0.668
		l-1.114-1.346l0.014-0.023l1.712,0.288L16.36,12.47c-0.078-0.044-0.126-0.068-0.144-0.077c-0.043-0.013-0.085-0.013-0.128,0.003
		c-0.039,0.015-0.079,0.055-0.115,0.115l-0.112-0.053l0.271-0.466l0.111,0.055l-0.009,0.013c-0.017,0.03-0.028,0.062-0.032,0.095
		c-0.003,0.032,0.001,0.061,0.015,0.087c0.013,0.023,0.034,0.052,0.064,0.08c0.009,0.005,0.046,0.028,0.117,0.068l0.982,0.57
		c0.076,0.048,0.129,0.071,0.153,0.075c0.023,0.005,0.049-0.001,0.076-0.016c0.031-0.013,0.055-0.04,0.076-0.078l0.026-0.043
		l0.112,0.054l-0.322,0.555L16.187,13.267z"/>
	<path style="clip-path:url(#SVGID_00000101067829197332871280000003187908916502909833_);fill:#FFFFFF;" d="M14.666,15.111
		l0.409-0.407l-0.077-0.179c-0.025-0.061-0.052-0.104-0.08-0.134c-0.035-0.038-0.073-0.053-0.119-0.043
		c-0.025,0.003-0.07,0.032-0.135,0.087l-0.078-0.064l0.385-0.384l0.077,0.066c-0.035,0.049-0.049,0.104-0.044,0.161
		c0.004,0.06,0.036,0.161,0.094,0.304l0.608,1.492l-0.016,0.015l-1.465-0.694c-0.14-0.066-0.235-0.1-0.286-0.102
		c-0.04-0.002-0.078,0.015-0.116,0.047l-0.078-0.07l0.559-0.554l0.077,0.066l-0.022,0.023c-0.045,0.044-0.069,0.083-0.075,0.114
		c-0.003,0.024,0.006,0.047,0.026,0.066c0.01,0.012,0.023,0.023,0.04,0.032c0.006,0.005,0.038,0.021,0.096,0.05L14.666,15.111z
		 M14.764,15.156l0.613,0.297l-0.264-0.643L14.764,15.156z"/>
	<path style="clip-path:url(#SVGID_00000101067829197332871280000003187908916502909833_);fill:#FFFFFF;" d="M11.037,17.048
		l0.573-0.127l0.03-0.195c0.008-0.066,0.008-0.118,0.002-0.157c-0.012-0.051-0.04-0.087-0.083-0.102
		c-0.023-0.012-0.079-0.01-0.166,0.001l-0.01-0.166l0.542-0.119l0.008,0.165c-0.056,0.024-0.098,0.062-0.125,0.116
		c-0.027,0.055-0.052,0.157-0.078,0.312l-0.253,1.615l-0.022,0.003l-0.923-1.396c-0.089-0.13-0.154-0.213-0.199-0.242
		c-0.032-0.023-0.075-0.03-0.126-0.025l-0.01-0.099l0.786-0.173l0.01,0.1l-0.032,0.006c-0.064,0.015-0.105,0.034-0.127,0.06
		c-0.014,0.021-0.017,0.041-0.013,0.069c0.005,0.017,0.01,0.032,0.019,0.049c0.004,0.009,0.023,0.04,0.06,0.096L11.037,17.048z
		 M11.051,17.101l0.384,0.587l0.108-0.695L11.051,17.101z"/>
	<path style="clip-path:url(#SVGID_00000101067829197332871280000003187908916502909833_);fill:#FFFFFF;" d="M7.139,16.987
		l-0.757,1.051l-0.581-0.203l0.014-0.046l0.05,0.013c0.044,0.012,0.082,0.013,0.115,0.002c0.02-0.006,0.04-0.022,0.06-0.046
		c0.014-0.019,0.032-0.07,0.053-0.154l0.31-1.116c0.025-0.086,0.037-0.142,0.033-0.165c-0.002-0.025-0.012-0.048-0.033-0.071
		C6.38,16.229,6.348,16.21,6.307,16.2l-0.049-0.012l0.057-0.183l0.791,0.206l-0.059,0.184l-0.049-0.014
		c-0.043-0.01-0.081-0.012-0.112-0.002c-0.022,0.007-0.044,0.023-0.063,0.048c-0.013,0.019-0.032,0.07-0.056,0.156l-0.345,1.254
		l1.006-1.392l0.027,0.005l0.167,1.69l0.33-1.193c0.023-0.083,0.034-0.136,0.036-0.154c0.003-0.044-0.01-0.085-0.035-0.119
		c-0.025-0.034-0.072-0.061-0.142-0.08l0.015-0.111l0.517,0.137l-0.014,0.111l-0.015-0.003c-0.034-0.011-0.067-0.013-0.1-0.007
		c-0.033,0.005-0.058,0.015-0.078,0.034c-0.021,0.018-0.042,0.045-0.061,0.082c-0.005,0.01-0.015,0.051-0.038,0.127L7.74,18.037
		c-0.023,0.084-0.032,0.14-0.032,0.162c0.003,0.024,0.015,0.047,0.035,0.07c0.022,0.021,0.054,0.04,0.096,0.051l0.048,0.014
		l-0.013,0.088l-0.62-0.163L7.139,16.987z"/>
	<path style="clip-path:url(#SVGID_00000101067829197332871280000003187908916502909833_);fill:#FFFFFF;" d="M4.577,17.044
		l0.393-0.62l-0.026-0.018c-0.083-0.053-0.166-0.062-0.242-0.026c-0.076,0.037-0.157,0.111-0.244,0.222l-0.037-0.023l0.507-0.796
		l0.037,0.024c-0.047,0.092-0.075,0.173-0.085,0.243c-0.008,0.073-0.004,0.128,0.017,0.168c0.021,0.041,0.062,0.081,0.127,0.122
		l0.271-0.43c0.055-0.084,0.085-0.138,0.091-0.16c0.006-0.021,0.003-0.046-0.006-0.067c-0.011-0.023-0.034-0.048-0.072-0.071
		l-0.079-0.051c-0.125-0.078-0.245-0.108-0.362-0.091c-0.117,0.017-0.235,0.084-0.352,0.197l-0.036-0.023l0.382-0.488l1.149,0.733
		l-0.041,0.084l-0.043-0.028c-0.039-0.025-0.076-0.037-0.108-0.037c-0.025,0-0.049,0.009-0.074,0.029
		c-0.02,0.014-0.053,0.059-0.102,0.135l-0.635,1.002c-0.045,0.068-0.068,0.113-0.075,0.13c-0.011,0.03-0.011,0.058-0.003,0.083
		c0.013,0.037,0.039,0.07,0.082,0.098l0.045,0.028l-0.06,0.073l-1.114-0.71l0.32-0.483l0.037,0.024
		c-0.05,0.124-0.074,0.22-0.071,0.288c0.004,0.07,0.03,0.136,0.08,0.198c0.029,0.037,0.092,0.088,0.193,0.152L4.577,17.044z"/>
	<path style="clip-path:url(#SVGID_00000101067829197332871280000003187908916502909833_);fill:#FFFFFF;" d="M2.835,15.878
		l0.313-1.357l-0.57,0.519c-0.079,0.073-0.124,0.133-0.133,0.179c-0.012,0.061,0.01,0.124,0.071,0.188L2.422,15.48l-0.348-0.383
		l0.091-0.075c0.052,0.042,0.091,0.067,0.118,0.074c0.029,0.007,0.058,0.002,0.093-0.012c0.034-0.015,0.082-0.049,0.146-0.107
		l1.102-1.006L3.65,14L3.26,15.79l0.843-0.768c0.077-0.069,0.114-0.131,0.114-0.186c-0.002-0.056-0.022-0.103-0.056-0.142
		l-0.025-0.028l0.079-0.102l0.375,0.411L4.51,15.08c-0.06-0.065-0.114-0.095-0.166-0.094c-0.053,0.001-0.114,0.035-0.183,0.099
		l-0.936,0.854l-0.012,0.059c-0.013,0.056-0.016,0.099-0.011,0.128c0.006,0.028,0.025,0.061,0.057,0.098l-0.036,0.033L2.835,15.878z
		"/>
	<path style="clip-path:url(#SVGID_00000101067829197332871280000003187908916502909833_);fill:#FFFFFF;" d="M2.277,13.089
		l-1.303,0.183l-0.277-0.566l0.086-0.023l0.024,0.046c0.022,0.04,0.046,0.067,0.074,0.084c0.022,0.013,0.047,0.016,0.079,0.013
		c0.022-0.004,0.073-0.024,0.151-0.068l1.039-0.552c0.081-0.044,0.129-0.075,0.144-0.092c0.019-0.019,0.028-0.043,0.029-0.076
		c0.002-0.029-0.005-0.065-0.026-0.103l-0.024-0.046l0.043-0.021l0.382,0.721l-0.042,0.023l-0.023-0.044
		c-0.023-0.042-0.049-0.07-0.077-0.086c-0.019-0.011-0.046-0.015-0.076-0.011c-0.024,0.003-0.074,0.024-0.154,0.065l-1.168,0.623
		l1.72-0.235l0.013,0.024l-1.142,1.299l1.111-0.592c0.077-0.042,0.124-0.069,0.14-0.08c0.034-0.03,0.055-0.066,0.064-0.108
		c0.008-0.043-0.004-0.096-0.038-0.16l0.086-0.093l0.25,0.475l-0.085,0.092l-0.006-0.013c-0.015-0.031-0.037-0.058-0.063-0.077
		c-0.027-0.02-0.052-0.031-0.081-0.035c-0.026-0.003-0.062,0.001-0.102,0.013c-0.009,0.004-0.049,0.024-0.12,0.061L1.91,14.259
		c-0.081,0.043-0.127,0.075-0.144,0.092c-0.015,0.019-0.026,0.042-0.028,0.074c-0.003,0.031,0.006,0.065,0.026,0.104l0.025,0.043
		l-0.043,0.023l-0.329-0.525L2.277,13.089z"/>
	<path style="clip-path:url(#SVGID_00000101067829197332871280000003187908916502909833_);fill:#FFFFFF;" d="M0.526,12.16
		l-0.215-0.781l0.071-0.022l0.011,0.039c0.013,0.061,0.031,0.098,0.05,0.118c0.02,0.019,0.045,0.028,0.072,0.032
		c0.026,0.004,0.09-0.006,0.19-0.031l0.857-0.208c0.156-0.038,0.258-0.074,0.303-0.107c0.046-0.033,0.079-0.077,0.102-0.133
		c0.023-0.054,0.025-0.119,0.007-0.19c-0.019-0.084-0.057-0.149-0.115-0.197C1.8,10.629,1.73,10.6,1.649,10.588
		c-0.081-0.01-0.214,0.008-0.401,0.052l-0.714,0.173c-0.077,0.022-0.131,0.04-0.162,0.062c-0.03,0.024-0.049,0.049-0.057,0.072
		c-0.011,0.038-0.008,0.089,0.006,0.149l-0.061,0.014L0.145,10.58l0.049-0.011L0.2,10.6c0.009,0.042,0.028,0.077,0.056,0.102
		c0.026,0.022,0.061,0.035,0.103,0.038c0.03,0.004,0.081-0.003,0.152-0.021l0.665-0.161c0.206-0.051,0.356-0.074,0.454-0.073
		c0.097,0.001,0.194,0.039,0.293,0.112c0.1,0.074,0.168,0.189,0.207,0.35c0.033,0.132,0.036,0.239,0.013,0.322
		c-0.03,0.113-0.085,0.198-0.159,0.26c-0.078,0.061-0.188,0.11-0.334,0.146l-0.857,0.209c-0.1,0.025-0.161,0.044-0.183,0.06
		c-0.022,0.017-0.038,0.038-0.047,0.065c-0.009,0.028-0.005,0.074,0.012,0.139L0.526,12.16z"/>
	<path style="clip-path:url(#SVGID_00000101067829197332871280000003187908916502909833_);fill:#FFFFFF;" d="M0.094,8.737
		L0.689,8.75L0.686,8.795C0.536,8.812,0.414,8.861,0.319,8.944C0.224,9.027,0.177,9.12,0.172,9.219
		C0.169,9.299,0.19,9.362,0.235,9.41c0.044,0.049,0.1,0.072,0.162,0.076C0.436,9.49,0.472,9.479,0.503,9.465
		c0.043-0.02,0.086-0.053,0.127-0.101C0.661,9.33,0.716,9.249,0.794,9.121c0.111-0.177,0.214-0.297,0.308-0.356
		C1.196,8.706,1.3,8.678,1.418,8.684C1.567,8.69,1.692,8.748,1.796,8.853c0.102,0.106,0.151,0.238,0.143,0.396
		C1.938,9.296,1.93,9.344,1.917,9.386C1.903,9.428,1.88,9.482,1.845,9.547c-0.02,0.037-0.029,0.067-0.03,0.091
		C1.813,9.657,1.823,9.679,1.839,9.702C1.855,9.725,1.905,9.758,1.94,9.773v0.029L1.241,9.773L1.243,9.73
		c0.192-0.025,0.338-0.084,0.442-0.176c0.103-0.092,0.157-0.193,0.163-0.306c0.002-0.085-0.02-0.155-0.072-0.207
		C1.725,8.987,1.664,8.959,1.594,8.956C1.552,8.952,1.509,8.961,1.469,8.981C1.429,8.997,1.391,9.025,1.355,9.065
		C1.317,9.102,1.266,9.172,1.206,9.269c-0.085,0.14-0.158,0.238-0.217,0.298c-0.059,0.06-0.124,0.105-0.195,0.135
		c-0.069,0.03-0.147,0.045-0.23,0.041c-0.142-0.007-0.26-0.058-0.357-0.154c-0.095-0.095-0.14-0.212-0.135-0.353
		c0.003-0.05,0.013-0.098,0.027-0.146c0.013-0.035,0.034-0.077,0.065-0.129c0.031-0.051,0.047-0.085,0.047-0.107
		C0.213,8.835,0.205,8.82,0.193,8.806C0.18,8.794,0.146,8.783,0.092,8.769L0.094,8.737z"/>
	<path style="clip-path:url(#SVGID_00000101067829197332871280000003187908916502909833_);fill:#FFFFFF;" d="M0.471,7.134
		l0.723,0.194l0.008-0.031C1.229,7.2,1.213,7.12,1.154,7.055C1.096,6.992,1,6.935,0.864,6.885l0.011-0.044l0.93,0.252L1.795,7.138
		C1.691,7.12,1.603,7.117,1.53,7.127C1.458,7.139,1.404,7.163,1.371,7.196C1.338,7.228,1.313,7.283,1.292,7.355l0.5,0.137
		C1.89,7.518,1.952,7.531,1.975,7.53C1.999,7.529,2.02,7.518,2.04,7.502c0.019-0.016,0.035-0.046,0.047-0.089L2.112,7.32
		c0.04-0.147,0.033-0.273-0.021-0.382c-0.052-0.107-0.153-0.203-0.3-0.283l0.013-0.043l0.545,0.223L1.986,8.181L1.937,8.169
		l0.015-0.052C1.963,8.072,1.963,8.032,1.954,8C1.946,7.976,1.928,7.958,1.902,7.937C1.883,7.922,1.829,7.904,1.739,7.879
		L0.572,7.563c-0.08-0.022-0.13-0.033-0.15-0.034C0.388,7.528,0.361,7.536,0.34,7.551C0.307,7.576,0.284,7.61,0.27,7.66L0.257,7.713
		L0.18,7.689l0.352-1.303l0.554,0.151L1.074,6.582C0.94,6.569,0.839,6.576,0.771,6.6c-0.065,0.025-0.12,0.07-0.167,0.138
		C0.576,6.776,0.547,6.854,0.515,6.972L0.471,7.134z"/>
	<path style="clip-path:url(#SVGID_00000101067829197332871280000003187908916502909833_);fill:#FFFFFF;" d="M0.847,5.563
		l0.372-0.745l0.078,0.038L1.277,4.89C1.246,4.946,1.231,4.989,1.234,5.017c0.001,0.028,0.012,0.052,0.03,0.072
		C1.282,5.113,1.337,5.148,1.429,5.2l0.794,0.44c0.145,0.08,0.247,0.123,0.304,0.13c0.058,0.008,0.115-0.002,0.17-0.029
		c0.055-0.027,0.101-0.073,0.137-0.142C2.878,5.522,2.894,5.445,2.884,5.37C2.874,5.295,2.843,5.223,2.79,5.159
		C2.734,5.093,2.621,5.012,2.449,4.917L1.788,4.551C1.715,4.51,1.66,4.489,1.621,4.485c-0.04-0.004-0.069,0-0.093,0.014
		c-0.037,0.023-0.069,0.061-0.1,0.118L1.354,4.578l0.3-0.476l0.045,0.024L1.683,4.155c-0.023,0.04-0.033,0.079-0.029,0.114
		C1.659,4.307,1.676,4.34,1.705,4.374c0.022,0.023,0.064,0.052,0.131,0.089l0.615,0.342C2.643,4.91,2.774,4.996,2.846,5.066
		C2.919,5.133,2.967,5.23,2.99,5.355C3.014,5.48,2.985,5.616,2.904,5.762C2.836,5.885,2.765,5.97,2.691,6.017
		C2.589,6.08,2.488,6.108,2.389,6.102C2.287,6.095,2.169,6.056,2.036,5.98L1.241,5.542C1.148,5.489,1.087,5.462,1.059,5.459
		C1.033,5.455,1.005,5.46,0.978,5.475C0.953,5.49,0.924,5.527,0.891,5.588L0.847,5.563z"/>
	<path style="clip-path:url(#SVGID_00000101067829197332871280000003187908916502909833_);fill:#FFFFFF;" d="M3.643,3.693
		L3.065,2.507l0.462-0.435l0.037,0.033L3.527,2.143C3.494,2.176,3.473,2.21,3.468,2.244c-0.004,0.023,0,0.051,0.013,0.079
		c0.01,0.021,0.047,0.063,0.112,0.124l0.87,0.839c0.068,0.066,0.114,0.104,0.136,0.113C4.623,3.409,4.65,3.41,4.679,3.403
		c0.032-0.008,0.064-0.026,0.093-0.059l0.037-0.04l0.094,0.095L4.325,4.002L4.231,3.91l0.035-0.037
		c0.034-0.034,0.054-0.067,0.06-0.101c0.004-0.023,0-0.05-0.015-0.08C4.301,3.67,4.262,3.628,4.197,3.565L3.22,2.624l0.778,1.602
		l-0.02,0.023L2.35,3.545l0.929,0.896c0.065,0.063,0.106,0.1,0.124,0.112C3.443,4.577,3.485,4.585,3.53,4.58
		c0.043-0.005,0.092-0.032,0.142-0.087l0.036,0.034L3.326,4.924L3.291,4.888l0.012-0.011c0.025-0.025,0.043-0.053,0.054-0.085
		C3.369,4.759,3.372,4.73,3.366,4.704c-0.007-0.028-0.023-0.06-0.047-0.097C3.315,4.6,3.281,4.566,3.223,4.51L2.388,3.708
		C2.32,3.643,2.276,3.606,2.253,3.596c-0.022-0.01-0.049-0.011-0.081-0.004C2.142,3.6,2.111,3.619,2.079,3.653L2.044,3.688
		L1.97,3.654l0.433-0.486L3.643,3.693z"/>
	<path style="clip-path:url(#SVGID_00000101067829197332871280000003187908916502909833_);fill:#FFFFFF;" d="M13.516,16.346
		l-0.247-0.438c-0.047-0.085-0.083-0.137-0.106-0.152c-0.02-0.017-0.046-0.026-0.077-0.026c-0.03,0-0.076,0.018-0.139,0.054
		l-0.095-0.142l0.701-0.394l0.095,0.142c-0.064,0.034-0.103,0.066-0.119,0.093c-0.015,0.024-0.019,0.051-0.018,0.078
		c0.003,0.026,0.03,0.082,0.077,0.167l0.571,1.018c0.048,0.083,0.082,0.134,0.103,0.15c0.023,0.018,0.049,0.026,0.078,0.026
		c0.031,0,0.077-0.017,0.141-0.052l0.022,0.043l-0.636,0.359c-0.165,0.092-0.293,0.147-0.386,0.163
		c-0.091,0.017-0.18,0.005-0.269-0.036c-0.088-0.044-0.158-0.114-0.211-0.208c-0.066-0.114-0.083-0.231-0.052-0.348
		c0.019-0.074,0.064-0.148,0.135-0.219l-0.628-0.343c-0.082-0.045-0.136-0.071-0.165-0.077c-0.04-0.009-0.079-0.005-0.117,0.015
		l-0.094-0.086l0.43-0.243l0.913,0.508L13.516,16.346z M13.935,17.187l-0.376-0.705l-0.06,0.03
		c-0.097,0.053-0.163,0.102-0.201,0.147c-0.037,0.044-0.053,0.101-0.053,0.168c0,0.067,0.023,0.146,0.069,0.229
		c0.065,0.122,0.14,0.199,0.221,0.231c0.082,0.031,0.176,0.017,0.288-0.041L13.935,17.187z"/>
	<path style="clip-path:url(#SVGID_00000101067829197332871280000003187908916502909833_);fill:#FFFFFF;" d="M10.066,18.512
		l-0.79-0.008V18.41l0.041,0.001c0.062,0.001,0.101-0.007,0.123-0.021c0.023-0.013,0.039-0.032,0.049-0.057
		c0.009-0.026,0.015-0.088,0.016-0.188l0.008-0.856c0.002-0.157-0.007-0.258-0.027-0.312c-0.021-0.051-0.054-0.093-0.102-0.127
		C9.336,16.818,9.276,16.8,9.205,16.8c-0.083-0.001-0.154,0.018-0.212,0.06c-0.059,0.041-0.103,0.101-0.134,0.175
		c-0.029,0.075-0.044,0.205-0.046,0.391L8.806,18.14c-0.001,0.077,0.007,0.133,0.019,0.166c0.014,0.036,0.033,0.059,0.054,0.071
		c0.033,0.02,0.081,0.029,0.143,0.03l-0.002,0.104l-0.527-0.005v-0.104h0.031c0.042,0,0.079-0.009,0.107-0.028
		c0.027-0.018,0.05-0.049,0.063-0.088c0.01-0.028,0.015-0.077,0.016-0.148l0.006-0.663c0.003-0.205,0.015-0.354,0.041-0.443
		c0.024-0.095,0.081-0.177,0.176-0.253c0.092-0.075,0.217-0.113,0.375-0.11c0.133,0.002,0.235,0.022,0.306,0.062
		c0.098,0.058,0.168,0.129,0.207,0.215c0.041,0.086,0.058,0.202,0.058,0.348L9.871,18.15c-0.002,0.1,0.002,0.163,0.012,0.186
		c0.011,0.026,0.026,0.045,0.05,0.061c0.024,0.014,0.068,0.021,0.133,0.021L10.066,18.512z"/>
</g>
<g>
	<rect x="84.905" y="8.564" class="st1" width="10.275" height="1.292"/>
	<g>
		<path class="st1" d="M71.621,3.652c-0.126,0.094-0.061,0.242,0.085,0.183c3.256-1.166,7.958,2.2,12.011-0.674
			c0.1-0.063,0.037-0.209-0.07-0.171C80.293,4.06,76.418,0.536,71.621,3.652"/>
		<path class="st1" d="M70.886,5.857V6.72h9.865c-0.678,2.196-3.076,6.796-8.748,9.675c-0.339,0.171-0.254,0.481,0.35,0.328
			c4.702-1.2,10.557-5.066,11.896-10.865L70.886,5.857"/>
		<path class="st1" d="M168.519,6.584h0.598V3.559l-2.599-0.001V2.154h-2.212v1.405l-1.502-0.001l-1.288,3.601h0.966v7.46
			c-1.278-1.299-3.395-2.439-4.004-2.613c-0.252-0.074-0.449,0.006-0.262,0.289c0.201,0.296,0.855,1.136,1.185,1.655l-1.624,0.74
			v-3.091h3.722V5.902l0.697-1.953c-0.811-0.367-2.187-1.28-2.737-1.79h-2.572c-0.636,1.196-1.895,3.641-3.013,5.26
			c-0.131,0.183-0.034,0.355,0.223,0.182c0.479-0.326,0.943-0.682,1.374-1.043l-0.004,10.262h2.036
			c0.72-0.572,1.718-1.565,2.317-2.198c0.286,0.41,1.105,1.798,1.105,1.798l1.557-1.533v1.933h5.053
			c0.984-0.992,1.582-2.385,1.567-3.642c0,0.008,0-2.024,0-2.024h-4.318v-1.148h3.736V6.584 M157.777,9.077h1.425v1.814h-1.425
			V9.077z M157.777,6.546h1.425v1.83h-1.425V6.546z M157.591,5.902h-1.379c1.154-1.064,2.076-2.131,2.652-2.805
			c0.338,0.442,1.377,1.809,2.234,2.805h-1.383V4.663h-2.125V5.902 M166.763,11.858c0,0,0,1.417,0,1.928
			c0,0.835-0.095,1.965-0.183,2.293h-1.808v-4.221H166.763 M164.773,6.598h1.432v2.698h-1.432V6.598z M166.865,5.902l-2.979-0.007
			V4.261h2.979V5.902"/>
		<path class="st1" d="M32.87,7.22V4.429c0.498,0,2.983,0.023,4.526-0.56l-1.505-2.044C34.63,2.527,32.578,3.64,30.445,3.64v6.555
			c0,0.637-0.085,1.486-0.23,2.395c-0.98-0.976-1.815-1.544-2.595-2.149v-0.279h2.493V9.463H27.63l-0.002-1.549h2.488V7.22h-2.201
			c0.606-0.563,1.662-1.765,1.97-2.217l-1.591-0.666h1.819V3.633H27.63V2.161h-2.42v1.479h-2.535L22.67,4.337h0.856
			c0,0,0.655,2.507,0.705,2.883h-1.72v0.694h2.693l0.005,1.554h-2.535v0.693h1.479c-0.252,1.539-1.135,4.149-1.724,5.513
			c-0.101,0.249,0.01,0.306,0.158,0.219c0.529-0.311,2.057-2.157,2.621-3.365v4.291h2.42V11.98l1.166,2.155l1.393-1.215
			c-0.21,1.184-0.559,2.61-0.863,3.606c-0.091,0.303,0.145,0.312,0.32,0.13c0.993-1.085,3.224-4.431,3.224-6.651c0,0,0-1.397,0-2.09
			h0.933l0.005,8.904h2.436V7.915h1.186V7.22H32.87 M26.862,7.22h-1.64l1.054-0.657c-0.62-1.027-1.267-1.9-1.615-2.226h2.875
			L26.862,7.22"/>
		<path class="st1" d="M135.22,11.672l0.004-0.917h1.06V5.403h-3.618V4.474h4.298V3.777h-1.381l0.828-0.749
			c-0.834-0.758-2.652-1.49-3.326-1.583c-0.225-0.031-0.329,0.105-0.205,0.271c0.194,0.24,1.52,2.061,1.52,2.061h-1.733V2.152
			h-2.374v1.625h-4.326v0.697h4.326v0.929h-3.649v0.969h-1.174V2.154h-2.347v4.218h-1.256v0.707l1.256-0.006v9.746h2.347V7.073
			h1.174v3.683h6.187v0.917h-6.849v0.689h1.784c-0.02,0.071-0.041,0.186,0.031,0.29c0.65,0.808,1.986,2.633,2.35,3.196l1.957-1.804
			c-0.82-0.675-2.836-1.511-3.397-1.685l4.124-0.006l0.01,0.466c0,0.895-0.361,2.718-0.624,3.932c-0.08,0.351,0.14,0.498,0.403,0.29
			c0.685-0.542,2.609-2.542,2.609-4.393l-0.004-0.286h2.073v-0.689H135.22 M130.292,10.049h-1.264V8.42h1.264V10.049 M130.292,7.723
			h-1.264V6.104l1.264-0.001V7.723 M132.666,6.103h1.235v1.62h-1.235V6.103z M132.666,8.42h1.235v1.631h-1.235V8.42z"/>
		<path class="st1" d="M102.475,8.983c1.538-2.064,2.866-4.402,4.043-6.696c0,0-0.327,0-1.138,0c-1.215,0-2.171,0.382-2.967,1.89
			c-0.577,1.091-1.229,2.278-1.832,3.3c-1.522-1.207-4.363-2.905-5.578-3.39c-0.254-0.107-0.383,0.139-0.204,0.274
			c1.182,0.896,2.92,2.274,4.907,4.483c-1.473,2.249-3.885,5.207-7.152,7.558c-0.301,0.221-0.056,0.445,0.287,0.302
			c2.781-1.138,6.277-3.79,8.344-6.124c0.69,0.843,1.662,2.119,2.719,3.769l1.791-2.065
			C105.023,11.465,103.831,10.162,102.475,8.983"/>
		<path class="st1" d="M120.862,5.779c0.123-0.293-0.146-0.4-0.3-0.176c-2.083,2.985-4.99,5.023-9.026,6.852
			c-2.243,1.009-3.477,2.389-3.876,4.016C116.388,14.647,119.816,8.334,120.862,5.779"/>
		<path class="st1" d="M114.982,5.877c-1.926-1.695-5.688-3.472-6.889-3.672c-0.315-0.059-0.462,0.067-0.143,0.343
			c1.922,1.609,3.641,3.475,5.26,5.306L114.982,5.877"/>
		<path class="st1" d="M152.801,4.199l-5.602,0.009c0.514-0.946,1.006-2.003,1.26-2.63c-2.424,0-3.256,1.161-3.871,3.698h-1.232
			V2.154h-2.238v3.12h-0.596c0.086-0.628,0.171-1.462,0.171-2.198l-1.949,0.006c0,0,0.054,4.592-0.076,6.227
			c-0.03,0.368,0.145,0.368,0.364,0.06c0.505-0.714,0.96-1.982,1.33-3.396h0.756v4.352l-2.671,0.641l0.667,2.018
			c0.8-0.358,2.004-0.938,2.004-0.938v4.766h2.238v-6.066c0.566-0.35,1.122-0.693,1.548-1.01c0.272-0.205,0.185-0.516-0.186-0.398
			c-0.295,0.085-1.362,0.356-1.362,0.356v-3.72h1.075c-0.152,0.758-0.33,1.727-0.466,2.672c-0.044,0.294,0.162,0.304,0.278,0.138
			c0.336-0.428,0.797-1.104,1.277-1.915v3.02c0,1.613-0.404,4.607-0.949,6.695c-0.105,0.405,0.126,0.397,0.311,0.205
			c1.094-1.182,2.601-4.971,2.601-6.908c0,0.014,0-3.748,0-4.973h0.613v4.98c0,1.613-0.391,4.528-0.945,6.695
			c-0.101,0.405,0.13,0.397,0.31,0.205c1.095-1.182,2.598-4.971,2.598-6.908c0,0.014,0-3.748,0-4.973h0.625v7.195
			c0,1.544-0.25,3.184-0.666,4.48c-0.109,0.357,0.101,0.417,0.326,0.222c0.986-0.831,2.492-2.68,2.463-4.641
			C152.806,12.168,152.801,4.199,152.801,4.199"/>
		<path class="st1" d="M59.712,7.002c0.091-0.227-0.1-0.325-0.262-0.096c-0.417,0.566-4.374,5.872-4.374,5.872
			c0.319,1.144,0.317,2.705-0.132,3.662c-0.17,0.345-0.019,0.48,0.319,0.345c1.298-0.53,2.752-2.37,2.303-4.793
			C57.565,11.992,59.636,7.191,59.712,7.002"/>
		<path class="st1" d="M69.64,12.187v-0.746l-1.66-0.007V6.87h1.38V6.126h-6.573l-0.001-1.614c0.712,0,4.254-0.073,6.124-0.699
			l-1.746-2.158c-1.608,1.031-5.446,1.979-6.997,1.979v7.801l-1.684,0.007v0.746h3.126c-0.999,1.441-2.135,2.821-3.457,4.285
			c-0.195,0.217-0.067,0.484,0.321,0.322c1.162-0.48,3.535-1.686,5.294-2.921l-1.925-1.686H69.64 M65.352,6.87v4.565h-2.565
			L62.779,6.87H65.352"/>
		<path class="st1" d="M57.271,6.281l1.66-1.718C57.846,3.54,55.953,2.5,55.234,2.188c-0.245-0.107-0.366,0.05-0.235,0.251
			C55.889,3.759,56.54,4.919,57.271,6.281"/>
		<path class="st1" d="M58.32,7.683c-1.085-1.021-2.967-2.064-3.693-2.366c-0.245-0.114-0.369,0.043-0.232,0.25
			c0.882,1.311,1.535,2.475,2.271,3.832L58.32,7.683"/>
		<path class="st1" d="M64.98,12.375c-0.318-0.062-0.472,0.174-0.264,0.431c0.682,0.836,1.992,2.837,2.665,4.054l2.396-1.695
			C68.406,13.844,65.718,12.52,64.98,12.375"/>
		<path class="st1" d="M50.036,13.645h2.718V8.166H49.44V7.404h3.862V6.707h-1.95V4.483h1.685V3.788h-1.685V2.154h-2.307
			l-0.006,1.634h-1.455V2.154h-2.309v1.634h-1.752v0.695h1.752v2.224h-2.028v0.697h3.879v0.762H43.81v0.572
			c-0.485-0.652-1.151-1.352-1.381-1.623l0.005-1.133h1.477v-0.7h-1.482V2.154h-2.153v3.128h-1.83v0.705l1.321-0.005
			c-0.114,1.38-0.856,5.405-1.581,8.039c-0.071,0.268,0.103,0.361,0.264,0.154c0.23-0.291,1.261-1.977,1.793-3.453l0.025-0.002
			l-0.007,6.099h2.168V8.877c0.005,0.008,0.616,2.104,0.616,2.104l0.766-0.799v3.463h1.834c-0.505,0.802-2.006,2.437-2.496,2.881
			c-0.211,0.201-0.084,0.337,0.248,0.268c0.69-0.139,2.995-1.034,4.733-2.261l-1.061-0.889h1.843
			c-0.073,0.075-0.062,0.199,0.072,0.33c0.623,0.658,1.759,1.94,2.473,2.919l1.973-1.388C52.463,14.708,51.121,13.981,50.036,13.645
			 M47.126,12.979l-1.028,0.002v-1.753l1.028,0.004V12.979 M46.098,8.824h1.028v1.747h-1.028V8.824z M47.581,4.483h1.458v2.22
			h-1.458V4.483z M49.44,8.824h1.04v1.747h-1.04V8.824z M49.44,11.228h1.04v1.751h-1.04V11.228z"/>
	</g>
</g>
</svg>
